<svg width="63" height="70" viewBox="0 0 63 70" fill="none" xmlns="http://www.w3.org/2000/svg">
    <path d="M31.79 47.181 17.05 32.44l6.977-6.977 7.18 7.18 23.65-27.792 7.513 6.395L31.791 47.18z" fill="#82CE51"/>
    <path d="M56.878 23.14V33.85c0 14.646-7.526 23.51-13.84 28.37-6.742 5.185-13.469 6.949-13.753 7.023-.258.065-.522.1-.786.1-.28 0-.555-.039-.826-.11-.28-.077-6.994-1.925-13.727-7.142C4.898 55.072.116 45.308.116 33.852L0 10.963C17.642 10.963 28.395.094 28.44 0c.252.503 6.388 8.184 17.194 10.25l-4.602 5.409C34.748 13.842 30.82 10.857 28.5 8.425c-3.322 3.482-9.942 8.093-22.04 8.79V33.85c0 9.558 3.827 17.371 11.38 23.23 4.456 3.457 8.896 5.175 10.673 5.775 1.799-.593 6.362-2.312 10.83-5.797 7.43-5.788 11.193-13.598 11.193-23.208v-3.26l6.343-7.452z" fill="#82CE51"/>
</svg>
