<svg width="150" height="111" viewBox="0 0 150 111" fill="none" xmlns="http://www.w3.org/2000/svg">
    <path d="M110.362 22.91 22.581 47.676l2.935 10.404 87.781-24.767-2.935-10.403z" fill="url(#lcmn9mlioa)" stroke="#202020" stroke-width=".5"/>
    <path d="M123.023 64.099c.93 3.334-1.226 5.5-3.966 6.377L37.993 93.348a4.013 4.013 0 0 1-4.95-2.772L20.337 45.54c-.6-2.132.621-5.843 3.358-6.774l80.478-21.048a4.013 4.013 0 0 1 4.95 2.77l13.9 43.612z" stroke="#202020" stroke-linecap="round" stroke-linejoin="round"/>
    <path d="M122.907 63.527a4.013 4.013 0 0 1-2.771 4.95L39.07 91.347a4.012 4.012 0 0 1-4.95-2.772L21.416 43.54a4.012 4.012 0 0 1 2.771-4.95l81.065-22.87a4.012 4.012 0 0 1 4.95 2.77l12.706 45.037z" stroke="#202020" stroke-linecap="round" stroke-linejoin="round"/>
    <path d="M88.366 47.964 32.668 63.668l.526 1.867 55.699-15.704-.527-1.867zM34.032 68.502l32.3-9.114.528 1.868-32.301 9.114-.527-1.868z" fill="#202020" stroke="#202020" stroke-width=".5"/>
    <path d="M104.9 68.908a4.566 4.566 0 0 1-4.231-4.869 4.566 4.566 0 0 1 4.869-4.23 4.566 4.566 0 0 1 4.231 4.868 4.567 4.567 0 0 1-4.869 4.231z" fill="#95DDBF"/>
    <path d="M105.52 60.058a4.316 4.316 0 0 0-4.602 3.999 4.316 4.316 0 0 0 3.999 4.602 4.316 4.316 0 0 0 4.602-4 4.315 4.315 0 0 0-3.999-4.601zm.035-.5s.001 0 0 0a4.811 4.811 0 1 1-.673 9.6 4.812 4.812 0 0 1 .673-9.6z" fill="#202020"/>
    <path d="M111.467 66.958a4.566 4.566 0 0 1-4.231-4.87 4.566 4.566 0 0 1 4.869-4.23 4.566 4.566 0 0 1 4.231 4.869 4.566 4.566 0 0 1-4.869 4.23z" fill="url(#irbzfm920b)"/>
    <path d="M112.088 58.107a4.316 4.316 0 0 0-4.602 4 4.316 4.316 0 0 0 3.999 4.601 4.316 4.316 0 0 0 4.602-3.998 4.316 4.316 0 0 0-3.999-4.603zm.035-.499a4.812 4.812 0 1 1-.673 9.598 4.812 4.812 0 0 1 .673-9.598z" fill="#202020"/>
    <path d="M145.43 50.637s-4.59 22.336-37.617 31.51M41.26 98.62s-14.198 5.56-31.368-9.626" stroke="#202020" stroke-linecap="round"/>
    <path d="M118.673 18.41s44.671 7.267 12.61 44.457M27.623 92.576s-40.182-10.26-13.894-42.747" stroke="#202020" stroke-linecap="round"/>
    <path d="M4.809 72.98A3.813 3.813 0 0 1 1 69.173c0-2.1 1.709-3.81 3.809-3.81s3.809 1.71 3.809 3.81-1.709 3.809-3.809 3.809z" fill="#CF0036"/>
    <path d="M4.809 66.363A2.812 2.812 0 0 0 2 69.172a2.812 2.812 0 0 0 2.809 2.809 2.812 2.812 0 0 0 2.809-2.81 2.812 2.812 0 0 0-2.809-2.808zm0-2a4.809 4.809 0 1 1 0 9.618 4.809 4.809 0 0 1 0-9.618z" fill="#fff"/>
    <path d="M138.963 35.836a.984.984 0 0 1-.702-.691l-1.353-4.733a.998.998 0 0 1 .266-.994l3.539-3.42a.985.985 0 0 1 .954-.247c.165.044.562.2.703.69l1.353 4.733a1 1 0 0 1-.267.994l-3.539 3.42a.984.984 0 0 1-.954.248z" fill="#CF0036"/>
    <path d="m141.408 26.717-3.539 3.42 1.353 4.732 3.539-3.42-1.353-4.732zm.518-1.932a1.98 1.98 0 0 1 1.405 1.382l1.353 4.732a2 2 0 0 1-.533 1.988l-3.539 3.42c-1.085 1.05-2.898.564-3.313-.888l-1.353-4.732a2 2 0 0 1 .533-1.988l3.539-3.42a1.982 1.982 0 0 1 1.908-.494z" fill="#fff"/>
    <path d="M100.104 10.224a.746.746 0 0 1-.633-.35L96.79 5.639a.753.753 0 0 1 0-.802L99.47.599a.746.746 0 0 1 .634-.349c.259 0 .496.13.634.349l2.681 4.237a.754.754 0 0 1 0 .802l-2.681 4.237a.746.746 0 0 1-.634.349z" fill="url(#c22yrksnbc)"/>
    <path d="M100.104.5a.491.491 0 0 0-.422.233L97 4.97a.502.502 0 0 0 0 .534l2.68 4.237a.491.491 0 0 0 .423.233.492.492 0 0 0 .423-.233l2.681-4.237a.505.505 0 0 0 0-.534L100.527.733a.492.492 0 0 0-.423-.233zm0-.5a.99.99 0 0 1 .845.465l2.681 4.237a.998.998 0 0 1 0 1.07l-2.681 4.237a1 1 0 0 1-1.69 0l-2.68-4.237a1 1 0 0 1 0-1.07l2.68-4.237a.992.992 0 0 1 .845-.465z" fill="#202020"/>
    <path d="M94.398 14.67a.746.746 0 0 1-.634-.348l-1.85-2.923a.754.754 0 0 1 0-.802l1.85-2.923a.746.746 0 0 1 .634-.349c.258 0 .495.13.633.349l1.85 2.923a.754.754 0 0 1 0 .802l-1.85 2.923a.746.746 0 0 1-.633.349z" fill="url(#vb9nkkab4d)"/>
    <path d="M94.398 7.575a.491.491 0 0 0-.423.233l-1.85 2.922a.502.502 0 0 0 0 .535l1.85 2.923a.491.491 0 0 0 .423.232.491.491 0 0 0 .422-.232l1.85-2.923a.502.502 0 0 0 0-.535l-1.85-2.922a.491.491 0 0 0-.422-.233zm0-.5c.324 0 .648.155.845.465l1.85 2.923a1 1 0 0 1 0 1.07l-1.85 2.922a1 1 0 0 1-1.69 0l-1.85-2.923a1 1 0 0 1 0-1.069l1.85-2.923a.992.992 0 0 1 .845-.465z" fill="#202020"/>
    <path d="m118.67 82.158-24.165 8.407" stroke="#202020" stroke-linecap="round"/>
    <defs>
        <linearGradient id="lcmn9mlioa" x1="102.978" y1="33.687" x2="96.106" y2="17.397" gradientUnits="userSpaceOnUse">
            <stop stop-color="#CF0036"/>
            <stop offset="1" stop-color="#FF2F65"/>
        </linearGradient>
        <linearGradient id="irbzfm920b" x1="112.105" y1="57.858" x2="111.467" y2="66.958" gradientUnits="userSpaceOnUse">
            <stop stop-color="#FF2F65"/>
            <stop offset="1" stop-color="#CF0036"/>
        </linearGradient>
        <linearGradient id="c22yrksnbc" x1="100.104" y1=".25" x2="100.104" y2="10.224" gradientUnits="userSpaceOnUse">
            <stop stop-color="#CF0036"/>
            <stop offset="1" stop-color="#FF2F65"/>
        </linearGradient>
        <linearGradient id="vb9nkkab4d" x1="94.398" y1="7.325" x2="94.398" y2="14.671" gradientUnits="userSpaceOnUse">
            <stop stop-color="#FF2F65"/>
            <stop offset="1" stop-color="#CF0036"/>
        </linearGradient>
    </defs>
</svg>
