<svg width="117" height="99" viewBox="0 0 117 99" fill="none" xmlns="http://www.w3.org/2000/svg">
    <path d="m46.638 70.225 59.841-22.777-50.688-4.722 2.579 9.078-12.137 9.907.405 8.514z" fill="url(#vpzoyrspxa)" stroke="#202020" stroke-width=".5"/>
    <path d="M106.479 47.447 47.157 49.19.66 71.945 106.48 47.448z" fill="url(#x2caw1kjhb)" stroke="#202020" stroke-width=".5"/>
    <path d="m55.792 42.726 50.688 4.722-50.189-23.442-.5 18.72z" fill="url(#1eupj7xz6c)" stroke="#202020" stroke-width=".5"/>
    <path d="M21.45 46.521c5.86 1.122 9.8.074 11.72-4.247 1.917-4.32-8.186-13.053-7.102 0 1.085 13.054 22.193 1.724 22.193 1.724" stroke="#202020" stroke-width=".45"/>
    <path d="M19.537 46.66c-3.59.58-7.247.6-10.843.06" stroke="#202020" stroke-width=".45" stroke-dasharray="2 3"/>
    <path d="M66.863 81.921a2.75 2.75 0 1 0-4.984 2.325 2.75 2.75 0 0 0 4.984-2.325zM82.993 12.822a3.25 3.25 0 1 0-5.89 2.747 3.25 3.25 0 0 0 5.89-2.747zM113.016 67.788s-9.729-2.154-11.329 4.246c-1.6 6.4-4.8 4-7.2 3.2M116.016 72.239s-9.729-2.154-11.329 4.246c-1.6 6.4-4.8 4-7.2 3.2" stroke="#202020" stroke-width=".5"/>
    <path d="M14.564 13.274a.49.49 0 0 0-.277-.421l-5.1-2.527a.492.492 0 0 0-.497.03.492.492 0 0 0-.224.444l.292 5.573a.492.492 0 0 0 .27.418c.076.04.278.116.497-.022l4.807-3.046a.49.49 0 0 0 .232-.449zm.5-.026a.99.99 0 0 1-.464.897l-4.808 3.046a1 1 0 0 1-1.534-.792l-.292-5.573a1 1 0 0 1 1.443-.948l5.1 2.527a.99.99 0 0 1 .554.843zM8.93 21.177a.492.492 0 0 0-.265-.415l-2.118-1.125a.49.49 0 0 0-.503.02.49.49 0 0 0-.23.448l.129 2.465a.49.49 0 0 0 .276.42.49.49 0 0 0 .502-.032l1.99-1.34a.492.492 0 0 0 .22-.44zm.5-.026a.991.991 0 0 1-.44.882L7 23.373a1 1 0 0 1-1.557-.777l-.129-2.465a1 1 0 0 1 1.468-.935L8.9 20.32c.333.177.512.5.53.831z" fill="#202020"/>
    <path d="m52.52 88.995-3.118-1.589-1.589 3.119 3.119 1.589 1.589-3.119zM55.21 2.472 52.093.883l-1.589 3.119 3.119 1.589 1.589-3.119z" stroke="#202020" stroke-width=".5"/>
    <defs>
        <linearGradient id="vpzoyrspxa" x1="80.534" y1="40.008" x2="69.952" y2="76.911" gradientUnits="userSpaceOnUse">
            <stop stop-color="#CF0036"/>
            <stop offset="1" stop-color="#FF2F65"/>
        </linearGradient>
        <linearGradient id="x2caw1kjhb" x1="56.338" y1="42.118" x2="43.871" y2="81.66" gradientUnits="userSpaceOnUse">
            <stop stop-color="#CF0036"/>
            <stop offset="1" stop-color="#FF2F65"/>
        </linearGradient>
        <linearGradient id="1eupj7xz6c" x1="93.552" y1="43.311" x2="70.725" y2="61.941" gradientUnits="userSpaceOnUse">
            <stop stop-color="#CF0036"/>
            <stop offset="1" stop-color="#FF2F65"/>
        </linearGradient>
    </defs>
</svg>
