<svg width="90" height="91" viewBox="0 0 90 91" fill="none" xmlns="http://www.w3.org/2000/svg">
    <path d="M40.455 9.847a8 8 0 0 1 9.279 0l2.585 1.84a8 8 0 0 0 4.984 1.475l3.164-.136a8 8 0 0 1 7.767 5.009l1.23 3.059a8 8 0 0 0 3.358 3.907l2.831 1.67a7.999 7.999 0 0 1 3.8 8.351l-.62 3.337a8 8 0 0 0 .722 5.062l1.527 3.026a8 8 0 0 1-1.3 9.063l-2.287 2.452a8 8 0 0 0-2.116 4.67l-.332 3.342a8 8 0 0 1-6.017 6.973l-3.122.782a8 8 0 0 0-4.345 2.815l-1.995 2.533a8 8 0 0 1-8.891 2.62l-2.982-1.025a7.999 7.999 0 0 0-5.206 0l-2.976 1.025a8 8 0 0 1-8.891-2.62l-1.995-2.537a8 8 0 0 0-4.345-2.815l-3.122-.778a8 8 0 0 1-6.018-6.969l-.332-3.342a8 8 0 0 0-2.115-4.674l-2.289-2.448a8 8 0 0 1-1.3-9.063l1.526-3.028a8 8 0 0 0 .722-5.062l-.62-3.337a8 8 0 0 1 3.8-8.351l2.831-1.67a8 8 0 0 0 3.36-3.906l1.23-3.059a8 8 0 0 1 7.767-5.009l3.164.136a8 8 0 0 0 4.984-1.475l2.585-1.843z" fill="url(#36i3ifaula)"/>
    <path d="M45.095.367h.107l.008.001h.048l.01.001h.02a1.174 1.174 0 0 1 .017 0l.012.001h.018l.009.001h.02l.01.001h.017l.013.001h.017l.009.001h.013l.008.001h.017l.022.002a.803.803 0 0 1 .017 0l.009.001.015.001h.015l.008.001.023.002h.016l.031.003h.008l.04.003c.471.034.94.11 1.402.227l-.247.97a7.014 7.014 0 0 0-1.732-.218v-1zm3.835.98a8.028 8.028 0 0 1 .524.312h.001l.016.011.002.001.006.004.002.001a4.407 4.407 0 0 1 .017.012c.002 0 .003.002.005.003l.003.002.014.01.003.001.005.004.003.001a.367.367 0 0 0 .006.005h.001a.401.401 0 0 0 .007.005l.003.002a.2.2 0 0 1 .013.009l.003.002.006.004.007.005.003.002.006.004.003.001.005.004.008.005.003.003c.002 0 .003.002.005.003l.004.003c.002 0 .003.002.005.003a.687.687 0 0 1 .01.007l.006.004.003.002.006.004.003.002.004.003.003.002.005.004c.002 0 .003.002.004.003.002 0 .003.002.005.003a.683.683 0 0 0 .01.007l.006.005.003.001.006.004.003.002.004.004.003.002a.312.312 0 0 1 .006.004l.002.001.006.005c.001 0 .002 0 .003.002.002 0 .003.002.005.003l.002.002.008.005a31.222 31.222 0 0 0 .046.033l.01.007a.501.501 0 0 1 .005.004l.005.004a.508.508 0 0 0 .006.004l.003.002.003.002h.001l.001.001.001.001.01.007.003.002.004.003.003.002.002.001v.001l.002.001.006.004.004.003.003.002.001.001.002.001.003.003h.001l.005.004.013.01.008.005.004.003.004.002.008.006.688.49-.58.815-.855-.61a7.039 7.039 0 0 0-.704-.44l.48-.878zm3.29 2.272 1.629 1.16-.58.815-1.63-1.16.58-.815zm3.33 2.206a8 8 0 0 0 1.856.602l.009.002.028.005.006.001-.185.983a9.009 9.009 0 0 1-2.137-.686l.422-.907zm5.888.647.043.999-1.998.086-.043-1 1.022-.043h.01l.966-.042zm3.746-.154h.05a1.336 1.336 0 0 0 .019 0H65.299l.038.001h.039l.01.001.049.002-.032.999a7.06 7.06 0 0 0-.523.003l-1.4.06-.044-.998 1.36-.06H64.837c.116-.006.232-.008.347-.008zm2.221.314.007.002.01.003.01.003.009.003.008.002.008.003h.003l.027.009a1.07 1.07 0 0 1 .016.004c.609.185 1.19.44 1.734.76l-.507.863a7.006 7.006 0 0 0-1.603-.691l.278-.96zm3.412 2.007a7.971 7.971 0 0 1 .901 1.065l.005.007.006.008a3.675 3.675 0 0 0 .016.024l.005.006v.001a.225.225 0 0 0 .01.015l.011.015v.001l.005.007.001.001.004.006.001.002.004.005.002.002.01.015v.002l.004.005.002.002.003.005.002.003.003.004.002.003.003.005.002.002a.303.303 0 0 0 .005.007c0 .001 0 .002.002.003l.002.004.003.004.002.003.002.004.003.004.002.003.003.004.002.003.002.004.006.008.001.002a.12.12 0 0 0 .003.005l.002.002c0 .002.002.003.003.005l.001.002a.136.136 0 0 1 .005.007c0 .002.002.003.003.005l.013.019v.001l.004.006v.001l.004.006h.001l.004.007.017.026.004.007c.044.068.087.138.129.208l-.858.513c-.3-.5-.661-.963-1.076-1.374l.704-.71zm2.065 3.385.746 1.856-.928.373-.746-1.856.928-.373zm1.492 3.712.365.909a.316.316 0 0 1 .004.008l.001.003.002.006.002.003.002.006.001.003.004.008v.003l.003.006.002.004.002.005.001.003.003.007.002.004a.136.136 0 0 0 .004.01l.001.004.002.004.002.005.002.004c0 .003.002.005.003.008l.002.004.002.004.001.005.002.004a.083.083 0 0 1 .004.01l.003.006.002.004.002.004c0 .002 0 .003.002.005l.001.004.002.005.003.005.002.006.002.004.002.004.002.005c0 .001 0 .003.002.004l.001.004.004.008.001.004.002.004.002.005.002.004.002.004.002.005.002.006.003.005.002.004.002.005.001.004.003.005.001.003.004.008.001.003.002.006.002.003.002.005.002.004.003.007.001.002.003.008.002.002.002.006.002.003.003.007v.002l.004.008.001.002.003.007.001.002.003.007.001.002a.33.33 0 0 1 .004.009l.004.008.001.002.004.007v.002l.008.018h.001l.004.008v.002l.004.008.009.019a.555.555 0 0 1 .004.009l.01.02c0-.001 0 0 0 0l.004.008.013.028c.07.143.142.283.22.42l-.874.488a9.037 9.037 0 0 1-.495-1.034l-.365-.91.928-.373zm1.988 3.435.007.007.006.007h.001l.014.015a.234.234 0 0 1 .007.007c.448.467.955.88 1.508 1.227l-.532.847a9 9 0 0 1-1.736-1.422l.725-.688zm3.264 2.282 1.723 1.017-.508.861-1.723-1.016.508-.862zm3.445 2.033a8.014 8.014 0 0 1 .757.518l.008.006a4.411 4.411 0 0 1 .024.018l.006.005.001.001.015.012.007.005.002.001.005.005.002.001a.314.314 0 0 0 .006.005h.001l.007.006.001.001.006.005.002.002.005.003.002.002.005.004.002.002.007.005.002.002.005.004.003.002a.106.106 0 0 1 .004.003l.003.003.004.003.003.003.004.003.006.004.003.003.004.003.003.002.004.004.002.002c.002 0 .003.002.004.003l.003.002a.195.195 0 0 1 .015.012l.001.002.005.004h.002l.005.005.017.014.001.001.005.005h.001l.006.005.023.02c.195.163.381.335.558.514l-.712.702a6.999 6.999 0 0 0-1.371-1.08l.516-.857zm2.779 2.82.004.007.002.002.002.005.002.003.003.005.002.003.002.004.002.003.003.006.001.002a.168.168 0 0 1 .004.007l.002.003.003.005.002.003.002.004.002.004.003.004.001.003.004.006v.002l.005.007.001.003.003.005.002.003.003.005.001.002.003.005.001.003.004.007.005.008.001.003.003.005.002.003.002.004.002.003.003.005.001.003.004.007v.001a.245.245 0 0 1 .006.01l.003.005.002.003.002.004.002.004a.12.12 0 0 1 .003.005l.001.002.004.008v.001a.35.35 0 0 0 .004.006l.002.003.002.005.002.003c0 .002.002.003.003.005l.001.003.003.005.001.003.004.007.002.002.002.006.002.003.003.004.001.004.003.004.001.003.003.005.001.003a.508.508 0 0 1 .005.01l.004.005.001.003.003.005a.05.05 0 0 0 .001.003l.003.005.001.003.003.005.002.003a.18.18 0 0 0 .004.01l.003.005.002.003a.204.204 0 0 1 .004.008l.002.004.002.003.003.006.001.002.004.008.001.003.003.004.002.004.002.004a.113.113 0 0 0 .004.008l.002.003.002.005.002.003a.166.166 0 0 0 .003.007l.002.004.002.004.002.004.002.004.002.003.002.005.002.003.002.005.003.005.002.005.002.004.002.004.002.004.002.004a.05.05 0 0 0 .002.004l.002.003.002.004.002.004a.2.2 0 0 1 .005.011l.002.004.002.004.002.004.002.004.002.004.001.003.003.005.001.002a.362.362 0 0 0 .006.012l.002.005.002.003c0 .001 0 .003.002.005l.001.003a.19.19 0 0 1 .002.004l.002.003.002.005.001.002.005.01.001.002.003.006v.002l.003.005.001.003a.076.076 0 0 0 .004.007l.002.005a.503.503 0 0 1 .006.013l.001.002a.086.086 0 0 1 .004.007l.002.006.001.002.003.005v.002l.01.018v.002l.002.006.002.002.002.005v.002l.004.006v.001l.01.02a.14.14 0 0 1 .002.007v.001l.004.006v.002l.003.006.01.02s0 .001 0 0c0 .003.002.006.003.008l.003.007v.001l.013.028a.14.14 0 0 1 .003.008l.003.006a8.147 8.147 0 0 1 .016.036l.003.007.015.036.003.007c.119.278.222.562.308.852l.002.007.011.038.003.007v.002l.002.006v.001l.006.02v.002l.002.006v.001l-.96.275a7.017 7.017 0 0 0-.686-1.606l.864-.504zm1.087 3.806c.003.088.004.176.003.265V30.476l-.001.004V30.524l-.001.002V30.564c-.001 0 0 0 0 0l-.002.02s0-.001 0 0v.02c-.009.256-.03.513-.064.77l-.002.02-.003.02v.001l-.002.018v.002l-.003.018v.002l-.003.018v.002l-.001.005v.002l-.002.01v.002l-.001.006v.002l-.002.01v.007l-.001.003-.002.009v.008l-.001.003-.001.007-.001.005v.004l-.001.004-.001.005-.001.006v.004l-.001.005-.001.004-.001.007v.004l-.002.004v.004l-.001.008-.001.003v.005l-.001.004-.001.006-.001.004-.001.006v.003l-.002.006v.004l-.001.006a.04.04 0 0 0 0 .004l-.002.006v.003l-.002.007v.003l-.001.006v.003l-.002.008v.003l-.001.005-.001.003-.001.008v.003l-.002.006v.003l-.002.008v.002l-.001.007v.002l-.002.008v.002l-.002.007v.003l-.002.008v.001a.197.197 0 0 0-.002.01l-.002.009-.055.3-.984-.182.056-.301c.09-.486.13-.983.116-1.475l1-.028zm-1.536 3.77.984.183-.128.684v.005l-.238 1.277-.983-.182.365-1.967zm-.725 3.995.992.123a8.012 8.012 0 0 0-.03.288l-.001.016-.002.015V38.334l-.001.003v.007a.098.098 0 0 0-.001.008V38.361l-.001.004V38.374l-.001.002v.007a.11.11 0 0 0-.001.01v.007l-.001.004v.007l-.001.005v.01l-.001.006V38.441l-.001.007v.002l-.001.014v.001l-.001.014v.001l-.001.015-.001.015a8.01 8.01 0 0 0 .004 1.009v.015l.001.005v.011l.001.004V39.563l.001.003v.004a543601437.53 543601437.53 0 0 0 .001.008V39.591l.001.002v.008l.001.005v.003a.113.113 0 0 0 .001.013v.002l.001.006V39.64l.001.007.001.008v.008c.01.11.022.222.036.333l-.992.126a9.013 9.013 0 0 1-.004-2.244zm1.493 4.05a8.367 8.367 0 0 0 .054.132l.002.005.002.005v.001l.002.004.002.004.002.005.002.005.002.005.002.005v.001l.002.004v.001l.002.004v.001l.003.005.002.005a8.107 8.107 0 0 0 .2.435c.002.002.003.003.003.005a.12.12 0 0 0 .003.005l.002.005.003.005.002.005.003.006.007.012.003.007a.2.2 0 0 1 .007.014l.002.004v.001l.002.002v.002l.555 1.1-.893.45-.576-1.142a9.028 9.028 0 0 1-.332-.74l.93-.368zm1.771 3.585.9 1.786-.893.45-.9-1.785.893-.45zm1.678 3.625a7.99 7.99 0 0 1 .126.487l.002.008.008.038.002.008.007.03.001.007v.002l.002.007v.001l.005.021.001.007v.002l.002.006v.003l.001.005v.003a1.335 1.335 0 0 1 .006.027l.001.003.001.005v.003l.002.006v.002l.003.012v.007l.002.003v.005l.001.004.001.004v.004l.002.005v.005l.002.006v.005l.002.004v.005l.001.004.001.005v.003l.002.006v.003l.002.008v.003l.002.006v.003l.001.006v.003l.002.005v.004l.002.006v.002l.002.009v.002a.107.107 0 0 0 .002.01v.005l.001.003a.126.126 0 0 0 .002.009c0 .006.002.012.003.017v.003l.001.006v.003l.002.006v.002l.002.008v.001l.001.01.002.008v.002l.001.007v.002l.002.007v.002l.003.018.002.009v.001l.001.008v.002l.002.008.003.019a.242.242 0 0 0 .001.009l.001.01.005.028.001.009.007.047.005.038.017.13a9.954 9.954 0 0 1 .011.095l.004.037.001.01.003.028.001.009v.01l.004.028v.009l.001.01c0-.001 0 0 0 0a1.337 1.337 0 0 1 .003.027V50.686l.001.008v.001l.001.01.001.008v.008l.001.004v.008l.001.007v.002l.001.009v.008l.001.004V50.772l.001.004V50.785l.001.008V50.802l.001.004v.008l.001.005v.003l.002.02V50.86c.002.012.002.025.003.037.004.07.008.14.01.21l-1 .033a6.992 6.992 0 0 0-.276-1.723l.96-.28zm-.842 3.742.977.214a8.415 8.415 0 0 1-.043.185.295.295 0 0 0-.002.01l-.01.036c0 .002 0 .006-.002.009a2.708 2.708 0 0 0-.007.028l-.002.008v.001l-.002.008-.005.019-.002.008v.002l-.002.007-.001.002-.002.007v.001a1.575 1.575 0 0 0-.005.018l-.002.009v.001l-.003.007v.002l-.002.007v.002a4.216 4.216 0 0 0-.005.017l-.003.009v.002l-.002.007v.002l-.002.007a1.249 1.249 0 0 0-.006.02l-.002.007v.002a.127.127 0 0 1-.003.007v.002l-.002.007a1.752 1.752 0 0 1-.005.019v.001l-.003.007v.002l-.002.007v.002l-.003.008-.003.01s0-.001 0 0l-.002.008v.001l-.003.007v.002l-.002.007-.001.002a3.958 3.958 0 0 0-.005.017l-.003.009v.002l-.002.006v.002l-.003.007v.002a1.136 1.136 0 0 0-.006.017l-.002.009v.001l-.003.007v.002l-.003.008-.005.018a.275.275 0 0 1-.003.009v.001l-.003.008-.011.036-.003.01a7.99 7.99 0 0 1-.474 1.161l-.893-.45a7.006 7.006 0 0 0 .583-1.645zm-1.556 3.094.755.657-.018.02a.366.366 0 0 0-.005.006l-.007.007-.005.006-.006.007-.03.033-.005.006-.001.002-.005.004-.002.003-.004.004-.002.003-.004.004-.002.003-.004.004-.003.003a.116.116 0 0 1-.003.004l-.003.003a1.41 1.41 0 0 0-.003.003l-.004.004-.003.003-.004.005-.004.004-.004.005-.003.003-.003.004-.003.003-.004.004-.002.003-.004.004-.003.003a.07.07 0 0 0-.004.004l-.002.003a1.797 1.797 0 0 0-.01.01l-.003.004-.004.004-.003.002a.2.2 0 0 0-.004.005l-.002.002a.434.434 0 0 1-.006.007l-1.171 1.253-.731-.683 1.171-1.253c.057-.06.113-.123.167-.185zm-2.704 2.9.731.683-.328.35v.002l-.005.004-.011.012-1.021 1.093-.731-.683 1.365-1.461zm-2.689 3.265.874.487a7.986 7.986 0 0 0-.405.84l-.012.028-.015.037-.006.014-.006.014-.005.014a.835.835 0 0 1-.006.015l-.005.014-.004.01-.002.004-.004.01-.005.014-.006.014a7.752 7.752 0 0 0-.265.822l-.967-.256a9.01 9.01 0 0 1 .84-2.08zm-1.165 4.213.995.099-.198 1.99-.995-.099.198-1.99zm-.396 3.98.995.1-.105 1.056-.001.01v.001l-.001.008v.002l-.002.019a7.989 7.989 0 0 1-.097.66l-.002.01-.003.018v.002l-.002.007v.002l-.002.009a.261.261 0 0 0-.002.009v.002l-.002.006v.003l-.002.007v.004l-.002.006v.004l-.001.004-.001.004v.004a.325.325 0 0 0-.002.009l-.001.003-.001.005v.002l-.005.02-.001.008a7.265 7.265 0 0 1-.017.078l-.977-.215a7.05 7.05 0 0 0 .129-.81l.105-1.057zm-.818 3.512.893.45a8.01 8.01 0 0 1-.961 1.477l-.005.006-.025.03-.005.006-.005.006-.014.017-.005.006-.002.002-.003.004-.002.002-.004.004-.001.002-.009.01-.004.005-.002.002c0 .002-.002.003-.003.004l-.002.003-.003.004a.075.075 0 0 0-.003.003l-.003.003a.31.31 0 0 0-.008.009l-.003.004a365733094.204 365733094.204 0 0 1-.006.007l-.002.002-.003.004-.003.003-.003.004-.002.003-.006.006-.001.001a.249.249 0 0 1-.005.006l-.001.002-.005.005-.003.004-.754-.657c.383-.44.71-.928.973-1.45zm-2.274 2.613.568.822c-.07.049-.14.096-.213.142l-.006.004-.025.017h-.002l-.005.004h-.001l-.006.004-.001.001-.017.01a.38.38 0 0 0-.007.005l-.007.005-.007.004-.003.002-.007.005-.008.004-.008.005-.007.004a.377.377 0 0 0-.014.01l-.008.004-.007.005a.05.05 0 0 0-.003.001l-.005.004h-.003a.293.293 0 0 1-.007.005l-.002.002a.108.108 0 0 0-.006.003l-.002.001a.156.156 0 0 1-.005.004l-.003.001-.006.004h-.001a1.3 1.3 0 0 0-.016.01.148.148 0 0 1-.008.005h-.001a.223.223 0 0 1-.008.005l-.016.01-.008.005h-.001l-.007.004v.001l-.025.014-.008.005-.008.005a5.37 5.37 0 0 1-.025.014l-.008.005-.025.014a.381.381 0 0 1-.075.042c0 .001 0 0 0 0l-.008.006-.026.013a3.153 3.153 0 0 1-.034.019l-.007.004-.001.001-.008.004-.025.014-.008.004-.026.014a.598.598 0 0 1-.008.004h-.001l-.025.014-.008.004h-.001l-.008.005-.025.013h-.002a.426.426 0 0 0-.006.004l-.002.001-.024.013h-.002a.426.426 0 0 1-.007.004h-.001l-.007.004h-.001l-.017.01h-.001a.391.391 0 0 0-.007.003l-.002.001a.367.367 0 0 1-.006.003l-.002.001-.016.008-.008.005h-.002l-.006.004h-.003a.13.13 0 0 0-.006.004h-.002a.303.303 0 0 1-.008.005l-.008.004a.208.208 0 0 1-.018.009l-.017.008H76.7l-.007.004-.008.004h-.002l-.007.004h-.001l-.008.005h-.002l-.006.003-.009.004a.33.33 0 0 0-.01.005l-.008.004h-.001l-.007.004a.3.3 0 0 0-.008.004l-.009.004-.002.001-.008.004-.008.004c-.003 0-.006.002-.008.003l-.009.004c-.002.002-.006.003-.009.004l-.002.001a.628.628 0 0 1-.008.004l-.008.004-.008.003-.008.004-.003.001a.2.2 0 0 0-.008.004h-.001l-.007.004-.008.004-.009.003-.002.002a.383.383 0 0 1-.008.003l-.008.004-.008.004-.009.003-.009.004-.002.001-.008.004-.008.003-.008.004-.009.004h-.002l-.009.004a.277.277 0 0 1-.016.007l-.008.004-.01.004-.001.001-.008.003-.008.004-.009.004-.009.003-.002.001-.008.004a.508.508 0 0 0-.008.003l-.009.004-.009.004h-.002a1.215 1.215 0 0 0-.017.008l-.008.003a.796.796 0 0 1-.009.004h-.002a.284.284 0 0 0-.008.004l-.009.004-.008.003-.009.004h-.001l-.008.003-.018.008a.534.534 0 0 1-.01.003s.001 0 0 0a.353.353 0 0 1-.008.004l-.028.01a8.07 8.07 0 0 1-.18.07l-.348-.938a6.985 6.985 0 0 0 1.549-.804zm-3.372 1.304.243.97-1.94.486-.243-.97 1.94-.486zm-3.88.971.243.97-.456.115-.008.001H69.7l-.002.001-.004.001-.012.003-.008.002-.006.002-.006.001-.005.001-.005.002h-.002a8 8 0 0 0-.933.3l-.005.002-.005.002-.019.007a.077.077 0 0 0-.004.002l-.005.002a.068.068 0 0 1-.005.002l-.005.002-.005.002a.503.503 0 0 1-.023.009l-.005.002-.005.002-.005.002a.107.107 0 0 0-.012.005l-.005.002a.315.315 0 0 0-.006.002l-.005.002-.005.002a.11.11 0 0 0-.007.003l-.012.005-.004.002-.005.002a.081.081 0 0 0-.005.002l-.005.002-.005.002-.005.002-.01.004-.002.001-.006.003-.005.002-.005.002-.005.002-.005.002-.014.006-.004.002a.086.086 0 0 0-.005.002l-.005.002-.005.002-.005.002a.24.24 0 0 1-.005.003h-.001a.621.621 0 0 0-.012.005l-.005.002a.109.109 0 0 1-.01.005l-.005.002-.005.002-.018.008-.005.002-.005.002-.004.002a7.953 7.953 0 0 0-.127.057l-.42-.907a9.029 9.029 0 0 1 1.592-.562l.483-.12zm-3.978 1.871.631.776c-.443.36-.849.77-1.209 1.221l-.008.011-.004.005-.009.011v.001l-.004.005-.005.006-.001.002h-.001l-.001.002-.001.001-.137.175-.787-.618.142-.18a9.01 9.01 0 0 1 1.394-1.418zm-2.772 3.17.786.618-.56.712v.001l-.014.017-.002.002-.01.013-.005.006v.002l-.002.002-.002.002-.641.815-.786-.618 1.236-1.572zm-2.442 3.076.74.673a7.98 7.98 0 0 1-1.517 1.296l-.55-.836c.488-.32.934-.702 1.327-1.133zm-2.893 1.903.325.945a8.54 8.54 0 0 1-.145.049l-.006.001a.55.55 0 0 1-.014.005l-.007.002a1.277 1.277 0 0 1-.032.01l-.006.002-.007.002a.62.62 0 0 1-.007.002l-.007.003a.198.198 0 0 1-.007.002l-.007.002-.007.002a.993.993 0 0 1-.01.003l-.007.002-.007.002a.151.151 0 0 0-.007.003l-.007.002-.007.002-.008.002-.037.011-.007.002a8.068 8.068 0 0 1-.843.2h-.008l-.007.002-.039.007-.008.001-.008.002-.008.001-.007.001-.008.002a1.806 1.806 0 0 0-.023.003l-.007.002h-.007l-.007.002-.008.001-.007.001-.008.002h-.008l-.009.002-.007.001-.008.001a.174.174 0 0 1-.014.003h-.007l-.007.002h-.007a2.202 2.202 0 0 1-.025.005h-.007l-.007.002h-.007l-.007.002h-.008l-.041.007h-.007a7.91 7.91 0 0 1-.424.047l-.082-.997a7.016 7.016 0 0 0 1.709-.358zm-5.215-.226.657.226c.36.124.732.22 1.106.283l-.168.986a7.96 7.96 0 0 1-.36-.07l-.005-.001-.005-.001-.005-.001-.004-.001-.005-.001a.09.09 0 0 1-.005-.001l-.005-.002h-.005l-.005-.002h-.004l-.004-.002a8.01 8.01 0 0 1-.851-.241l-.006-.002h-.002l-.004-.002-.004-.001-.002-.001a.05.05 0 0 0-.004-.001h-.001l-.002-.001-.002-.001-.003-.001-.627-.216.325-.946zm-3.782-1.301 1.89.65-.324.946-1.892-.65.326-.946zm-3.745-.77c.567 0 1.137.053 1.694.16l-.189.982a8.052 8.052 0 0 0-.43-.07h-.005l-.005-.001-.005-.001-.02-.003h-.005l-.005-.001h-.006l-.005-.001-.005-.001-.01-.001h-.004l-.006-.002h-.005l-.006-.001h-.005l-.005-.001-.007-.001h-.006l-.006-.002a.107.107 0 0 0-.011 0l-.006-.002c-.005 0-.011 0-.017-.002h-.006l-.006-.001h-.006l-.006-.001-.017-.002h-.006a.143.143 0 0 1-.012-.002h-.006l-.017-.003h-.012l-.006-.001-.024-.003a1.159 1.159 0 0 1-.011-.001 9.335 9.335 0 0 0-.118-.01l-.035-.004h-.012l-.036-.003-.035-.003-.035-.002h-.012l-.006-.001-.03-.002h-.011l-.024-.002H45.508l-.023-.002h-.012l-.006-.001h-.018l-.006-.001h-.006a745640531.548 745640531.548 0 0 0-.011 0l-.013-.001h-.012l-.006-.001h-.023l-.006-.001H45.343l-.012-.001h-.024l-.006-.001h-.041l-.007-.001H45.2l-.006-.001H44.992a8.098 8.098 0 0 0-.382.014l-.06-.998c.18-.011.364-.017.545-.017zm-2.751.43.305.952-.049.016-.004.002-.104.035h-.003l-.002.001-1.73.595-.325-.945 1.735-.597.177-.059zM38.54 88.19l.325.946-1.63.561-.01.003a.276.276 0 0 1-.009.004h-.002c-.08.028-.16.054-.241.078l-.293-.956c.077-.023.154-.048.23-.075l1.63-.56zm-5.32.799c.571.117 1.16.163 1.74.136l.047.999a8.012 8.012 0 0 1-.315.008H34.478l-.007-.001h-.034a.208.208 0 0 0-.023-.001h-.02l-.007-.001a.15.15 0 0 0-.013 0 .328.328 0 0 0-.017-.001h-.02a3.06 3.06 0 0 0-.02-.002h-.03l-.007-.001H34.267l-.007-.001H34.247l-.007-.001h-.017l-.007-.001h-.006l-.007-.001H34.19l-.007-.001h-.007l-.024-.002h-.012l-.007-.001H34.12l-.007-.001h-.007l-.018-.002a.12.12 0 0 0-.006 0h-.006l-.007-.001h-.006l-.007-.001h-.006a3.737 3.737 0 0 1-.046-.004h-.006a.12.12 0 0 0-.006-.001h-.007l-.005-.001-.032-.003h-.007l-.006-.001h-.007l-.006-.001h-.006a6.446 6.446 0 0 1-.05-.005l-.006-.001-.057-.006h-.007a8.039 8.039 0 0 1-.776-.121l.202-.98zm-3.114-1.516c.445.377.937.698 1.462.953l-.438.9a6.382 6.382 0 0 1-.071-.036l-.03-.015-.006-.003a.331.331 0 0 0-.006-.003l-.007-.003-.006-.004a.391.391 0 0 0-.007-.003l-.006-.003-.007-.004-.013-.007-.007-.003-.007-.004-.006-.003-.007-.004c-.003 0-.005-.002-.007-.003h-.001a7.98 7.98 0 0 1-1.17-.745l-.05-.039-.006-.005-.006-.004-.037-.03a.242.242 0 0 0-.006-.004l-.001-.001-.005-.004-.001-.001-.005-.004h-.001l-.006-.005a5.425 5.425 0 0 0-.025-.02l-.005-.005h-.001l-.005-.005h-.002l-.004-.004-.002-.002-.004-.003-.002-.001-.004-.004-.002-.001a.16.16 0 0 1-.004-.004l-.002-.001-.017-.015a.13.13 0 0 0-.006-.004l-.002-.002-.004-.003-.002-.002-.004-.003-.002-.002-.004-.003-.002-.002-.004-.003-.002-.001-.004-.004-.001-.001-.006-.004a1.188 1.188 0 0 1-.012-.011l-.006-.005-.001-.001-.005-.004-.002-.001-.004-.004-.002-.001-.003-.003-.003-.002a.68.68 0 0 1-.003-.003l-.002-.002-.004-.003-.002-.002a.191.191 0 0 1-.01-.01h-.002l.647-.762zm-2.453-2.892 1.236 1.572-.786.618-1.236-1.572.786-.618zm-2.56-3.192c.191.2.374.413.546.63l.778.99-.786.618-.778-.99-.007-.008-.001-.001-.006-.008-.001-.001-.006-.008-.001-.001a.435.435 0 0 0-.014-.017l-.001-.002-.006-.007-.002-.002-.005-.007-.002-.002-.005-.007-.002-.002-.006-.007-.002-.003a1.638 1.638 0 0 1-.005-.006l-.002-.003-.005-.006-.002-.002-.005-.007-.003-.002a.268.268 0 0 0-.005-.007l-.002-.003-.005-.006a.074.074 0 0 0-.003-.003l-.004-.006-.003-.002-.005-.007-.002-.002a.255.255 0 0 1-.012-.016l-.003-.003-.005-.005-.002-.003-.005-.006-.003-.003-.004-.006-.004-.004-.004-.005a.1.1 0 0 0-.003-.004l-.005-.005a2022128068.792 2022128068.792 0 0 1-.007-.009l-.002-.002-.005-.006a.118.118 0 0 1-.003-.004l-.005-.005a.049.049 0 0 1-.003-.004l-.005-.005-.002-.004-.005-.005-.002-.003-.005-.006-.003-.003-.005-.006-.003-.003-.005-.006-.002-.002a.157.157 0 0 0-.005-.007l-.003-.002-.005-.006-.002-.003-.006-.006-.002-.003-.006-.006-.001-.002-.006-.007a.03.03 0 0 1-.002-.002l-.006-.007-.001-.001-.007-.008-.007-.008-.002-.002-.006-.007-.001-.001-.007-.008-.008-.009-.007-.008-.008-.01s0 .001 0 0l-.008-.008a7.604 7.604 0 0 0-.149-.161l.726-.688zm-3.768-2.373c.714.23 1.398.55 2.033.95l-.533.846a7.986 7.986 0 0 0-.8-.442l-.014-.007h-.001l-.013-.006h-.001l-.009-.005-.004-.002h-.001l-.008-.004-.005-.002-.007-.004-.007-.003-.007-.003-.007-.003-.007-.004a.2.2 0 0 1-.007-.003l-.007-.004a.334.334 0 0 1-.007-.002l-.007-.004-.006-.003a.446.446 0 0 0-.014-.006l-.008-.004-.007-.003-.007-.003-.006-.003-.008-.003-.007-.003-.007-.003-.007-.004-.007-.003-.014-.006-.014-.007a8.021 8.021 0 0 0-.731-.28l-.015-.005-.015-.005-.014-.004.306-.953zm-3.94-1.006 1.94.486-.243.97-1.488-.373-.004-.001-.006-.002-.013-.003-.429-.107.243-.97zm-3.598-1.092c.477.246.984.437 1.506.568l.152.038-.243.97-.151-.038-.011-.003a.383.383 0 0 0-.01-.002l-.017-.004-.01-.003-.019-.005-.01-.003-.019-.005a7.99 7.99 0 0 1-1.626-.624l.458-.889zm-2.59-2.3c.327.484.714.926 1.15 1.314l-.663.747a7.931 7.931 0 0 1-.303-.283l-.027-.027-.006-.005v-.001l-.005-.005-.002-.001-.014-.014-.002-.002-.003-.004-.003-.002-.003-.004-.003-.003-.003-.003-.004-.003-.003-.004-.005-.005-.003-.002c0-.002-.002-.003-.003-.004l-.003-.003-.003-.003-.003-.003-.004-.004-.002-.002a1730167387.237 1730167387.237 0 0 1-.014-.014l-.004-.005-.002-.002-.005-.005-.002-.001-.004-.005-.002-.002-.012-.013h-.001l-.005-.006-.002-.001-.005-.006-.02-.021-.006-.007-.007-.007a7.992 7.992 0 0 1-.573-.677l-.006-.007-.017-.023-.005-.007-.002-.001a.213.213 0 0 1-.005-.008l-.004-.005-.002-.002a.33.33 0 0 0-.01-.014l-.002-.003-.003-.004-.002-.003a.065.065 0 0 0-.003-.004l-.003-.003c0-.002-.002-.003-.003-.005l-.002-.002a.159.159 0 0 1-.005-.007l-.002-.003-.003-.004-.002-.003-.003-.004-.002-.003-.003-.003c0-.002-.002-.003-.003-.005l-.001-.002-.012-.016v-.001l-.005-.005v-.002l-.005-.005v-.001a8.183 8.183 0 0 1-.13-.185l.829-.561zm-1.172-3.263.003.033c.057.573.184 1.136.378 1.675l-.941.338a7.968 7.968 0 0 1-.188-.594l-.008-.03-.002-.007a5.524 5.524 0 0 1-.008-.029v-.001l-.002-.007v-.001a7.886 7.886 0 0 1-.007-.027v-.003l-.002-.005v-.002l-.006-.02v-.002l-.002-.005v-.003l-.002-.006v-.002l-.003-.012v-.001l-.002-.005v-.004l-.002-.004v-.004l-.002-.005-.001-.004-.002-.006-.001-.006-.001-.004-.001-.004-.001-.004-.001-.005-.001-.004-.002-.007v-.003l-.002-.006-.001-.004-.001-.005-.001-.003a1.216 1.216 0 0 1-.002-.01l-.002-.007v-.003l-.002-.006v-.003a.573.573 0 0 1-.003-.009l-.001-.007v-.002c-.002-.002-.002-.006-.003-.008V72.5a.565.565 0 0 1-.002-.007v-.002a.681.681 0 0 0-.002-.007v-.002l-.005-.018-.002-.009v-.002a2.844 2.844 0 0 1-.006-.027l-.002-.01-.002-.01a12.632 12.632 0 0 1-.004-.018l-.002-.01a5.448 5.448 0 0 1-.007-.028c0-.003 0-.007-.002-.01l-.006-.029a8.02 8.02 0 0 1-.115-.725v-.01a9.644 9.644 0 0 1-.004-.029v-.011l-.002-.01v-.009l-.001-.001v-.008l-.001-.002v-.007l-.001-.003a.91.91 0 0 0 0-.009l-.004-.033.995-.099zm-.396-3.98.198 1.99-.995.1-.198-1.991.995-.099zm-.77-4.192c.278.697.468 1.428.565 2.172l-.992.13a7.998 7.998 0 0 0-.19-.977 3.182 3.182 0 0 0-.003-.015l-.004-.014v-.002l-.004-.013v-.002l-.004-.013v-.002a.958.958 0 0 0-.002-.007l-.002-.006v-.002l-.002-.007-.002-.006v-.002l-.002-.006v-.002l-.002-.005v-.002a.291.291 0 0 0-.002-.006v-.002l-.002-.005v-.002a.516.516 0 0 0-.003-.008l-.001-.005-.001-.002-.002-.006v-.002l-.002-.005v-.003a.346.346 0 0 1-.002-.005v-.002l-.002-.005v-.004l-.002-.003v-.004l-.002-.003-.001-.005-.001-.003-.001-.003-.001-.005-.001-.004-.001-.003-.001-.003-.001-.004-.002-.005v-.003l-.002-.003v-.003l-.002-.006v-.002l-.003-.007v-.002l-.002-.004v-.002l-.002-.005v-.004l-.002-.004v-.002l-.003-.007v-.001l-.001-.004v-.002l-.003-.008-.002-.005-.003-.01-.004-.014a8.004 8.004 0 0 0-.225-.643l.928-.37zm-2.484-3.558.7.749c.249.266.484.55.698.845l-.808.589a8.128 8.128 0 0 0-.052-.072l-.003-.004-.001-.001a.244.244 0 0 1-.004-.005l-.004-.005-.002-.003-.002-.003a.192.192 0 0 1-.005-.006l-.003-.005-.005-.006-.01-.012a8.008 8.008 0 0 0-.462-.556l-.01-.011-.01-.012-.01-.01c-.001-.001 0 0 0 0-.004-.004-.008-.008-.01-.012H6.37l-.01-.011v-.001l-.01-.01v-.001l-.005-.005-.008-.009-.022-.023-.001-.001-.003-.003-.004-.005-.008-.008-.01-.01c0-.002-.003-.003-.004-.005l-.004-.004-.003-.003-.01-.012-.002-.001v-.001c-.001 0 0 0 0 0l-.621-.664.73-.683zm-2.73-2.923 1.365 1.462-.731.682-.316-.338-.001-.001-.024-.026-.006-.006a.174.174 0 0 0-.004-.005l-.002-.001a.228.228 0 0 1-.004-.005l-.003-.003-.001-.001-1.005-1.075.731-.683zm-1.983-2.958c.197.55.462 1.073.79 1.556l-.829.56a7.957 7.957 0 0 1-.3-.48 10.679 10.679 0 0 1-.047-.081l-.015-.027a.428.428 0 0 1-.023-.041v-.001a.303.303 0 0 1-.004-.008l-.004-.005-.01-.02-.001-.002-.003-.005-.001-.002a.285.285 0 0 0-.003-.006l-.001-.001-.003-.006-.007-.013-.004-.006v-.002a.232.232 0 0 0-.003-.006l-.002-.002-.002-.005-.001-.002a2.12 2.12 0 0 1-.01-.018v-.001l-.004-.005v-.003l-.003-.005-.002-.003-.002-.004-.002-.003a3.35 3.35 0 0 0-.009-.017v-.002a.22.22 0 0 0-.003-.005l-.002-.003-.002-.005a.06.06 0 0 0-.002-.002l-.002-.005-.001-.002-.005-.01-.002-.003-.002-.004a.083.083 0 0 0-.002-.003l-.002-.005-.001-.003-.003-.004a.124.124 0 0 1-.001-.004l-.003-.004-.003-.007-.002-.004a.183.183 0 0 0-.002-.004l-.002-.004-.002-.004-.002-.004-.002-.003-.002-.004-.002-.005-.003-.005c0-.002-.002-.003-.003-.005l-.001-.004-.002-.004-.002-.004-.002-.004-.002-.004-.002-.004-.002-.003a.216.216 0 0 1-.003-.006l-.002-.005-.003-.005-.001-.003-.002-.004-.002-.004-.002-.004a.569.569 0 0 0-.002-.004l-.002-.005-.002-.002-.004-.008-.001-.003-.002-.005-.002-.003-.002-.005-.002-.003-.002-.005a.47.47 0 0 0-.005-.01v-.002l-.004-.006-.002-.004-.002-.004a.117.117 0 0 0-.002-.004l-.002-.004-.001-.004-.003-.005-.001-.003-.004-.007-.001-.003-.002-.005-.002-.003-.002-.005-.002-.003-.002-.005-.001-.003-.003-.007-.001-.001-.004-.008v-.002L1 54.762v-.003c-.002-.001-.003-.003-.003-.005l-.002-.003-.002-.005-.001-.003-.004-.008a3.567 3.567 0 0 0-.004-.008v-.002l-.003-.006-.002-.002-.002-.006-.001-.002-.003-.007-.001-.001-.004-.008v-.002l-.003-.007-.001-.002a2.115 2.115 0 0 0-.007-.014v-.002l-.008-.017a.453.453 0 0 1-.004-.008v-.002l-.003-.006-.001-.002-.003-.007v-.001l-.008-.017v-.001a.524.524 0 0 0-.005-.009l-.003-.006v-.002l-.008-.017-.003-.008v-.001l-.004-.007v-.002l-.004-.007-.007-.018v-.001a.64.64 0 0 0-.004-.009l-.003-.007-.001-.001a.629.629 0 0 0-.01-.025l-.001-.002a.539.539 0 0 1-.003-.007v-.001a.613.613 0 0 0-.004-.007v-.002l-.007-.017a.704.704 0 0 0-.004-.008v-.001l-.003-.007v-.002l-.004-.008-.007-.017v-.001l-.004-.007v-.002l-.003-.007v-.001a8.625 8.625 0 0 1-.01-.026l-.001-.001-.003-.007v-.002a.57.57 0 0 0-.011-.025l-.003-.008v-.002l-.004-.007v-.001a.69.69 0 0 0-.01-.026l-.003-.008-.001-.002-.003-.007v-.001l-.004-.008-.003-.01s0 .001 0 0L.78 54.24v-.002c-.002-.002-.002-.005-.003-.007l-.001-.002-.003-.006v-.002a7.585 7.585 0 0 1-.007-.018l-.003-.007v-.002l-.003-.007v-.002l-.003-.007v-.001a.647.647 0 0 1-.007-.017v-.002l-.003-.006-.001-.003-.002-.006-.001-.002-.003-.007v-.001l-.003-.008v-.003l-.003-.005a.087.087 0 0 0-.003-.009l-.001-.003a.417.417 0 0 0-.002-.005l-.001-.003-.003-.008-.003-.007.942-.338zM.347 50.141l.988.154a7.007 7.007 0 0 0-.052 1.745l-.996.095a8 8 0 0 1 .06-1.994zm1.44-3.71.892.45-.678 1.347c-.065.128-.126.26-.182.39l-.92-.394c.006-.011.01-.023.015-.034l.001-.002a.235.235 0 0 1 .004-.008l.002-.005a.273.273 0 0 1 .007-.015l.001-.003a.35.35 0 0 1 .002-.006l.002-.003.003-.007.004-.01.004-.008.004-.01c0 .001 0 0 0 0a8.09 8.09 0 0 1 .133-.282.562.562 0 0 1 .005-.009l.008-.018a.742.742 0 0 0 .004-.008l.001-.002.004-.006v-.002l.005-.008v-.001l.679-1.346zm1.8-3.571.893.45-.9 1.786-.893-.45.185-.367v-.002l.002-.003v-.001l.005-.008.003-.007.004-.007.001-.003.003-.006.007-.013.69-1.37zm.995-3.833 1 .005a9.008 9.008 0 0 1-.292 2.225l-.967-.252c.036-.14.069-.281.098-.423a1.034 1.034 0 0 1 .003-.014v-.002l.001-.005v-.004a.18.18 0 0 1 .002-.004v-.002l.001-.005v-.005a.18.18 0 0 1 .002-.006l.001-.005v-.004l.001-.003.001-.005v-.002l.002-.005v-.003l.002-.006v-.007l.001-.002a.476.476 0 0 0 .002-.008v-.005l.001-.002.001-.006v-.002l.002-.006a1.099 1.099 0 0 0 .003-.016l.001-.007v-.001l.003-.015c.084-.46.128-.929.131-1.398zm.395-4.133.365 1.967-.983.182-.366-1.966.984-.183zm-.692-3.855c.02.192.047.386.083.576l.243 1.313-.983.182-.163-.877-.01-.057v-.001l-.002-.01v-.003l-.001-.001-.002-.012-.001-.004-.002-.011-.008-.04v-.007l-.001-.002v-.002l-.001-.003v-.004a4.8 4.8 0 0 1-.003-.011v-.004l-.002-.005v-.007l-.004-.016v-.006l-.001-.002-.001-.004-.001-.005v-.003l-.001-.004v-.002l-.002-.006V32l-.003-.016v-.003l-.001-.004-.001-.004v-.004l-.002-.003-.001-.01-.001-.004-.002-.013-.004-.019v-.002l-.012-.063a79.361 79.361 0 0 0-.016-.084v-.002l-.001-.008v-.002l-.002-.008v-.002l-.002-.007v-.003l-.002-.006v-.005l-.001-.004-.001-.006v-.004l-.002-.006v-.004l-.002-.006v-.003a1.083 1.083 0 0 0-.002-.01 8.04 8.04 0 0 1-.074-.544l.995-.101zm-.405-3.814.921.39a7.01 7.01 0 0 0-.473 1.68l-.99-.15.001-.002v-.004a.219.219 0 0 0 .002-.009v-.003l.002-.01v-.003l.001-.005a.29.29 0 0 0 0-.003l.002-.006v-.003l.001-.005v-.003l.005-.028v-.001l.001-.007v-.001l.007-.038a8 8 0 0 1 .325-1.279l.002-.008.01-.028v-.001l.003-.006v-.002l.003-.006v-.002l.002-.006.006-.014.002-.007v-.002a.348.348 0 0 0 .005-.013l.001-.003.002-.005v-.001l.005-.012v-.002l.002-.005.001-.003.002-.005a.09.09 0 0 0 .003-.008l.001-.003.002-.005.004-.012.002-.003.001-.005.002-.004.001-.004.002-.004.001-.004.002-.004.001-.004.003-.008.001-.003.002-.005.002-.003.001-.005.002-.003.001-.005.002-.004.002-.006V27.5l.004-.008v-.002l.003-.006v-.003c.002-.001.002-.003.003-.005l.001-.003.002-.006.001-.002.007-.017v-.001l.003-.007v-.002l.003-.006.001-.002c0-.003.002-.005.003-.007v-.002l.007-.017a.574.574 0 0 0 .007-.017.587.587 0 0 1 .014-.034v-.002l.003-.008.01-.026.004-.009.035-.083zm2.394-3.152.621.783a6.989 6.989 0 0 0-1.22 1.247L4.88 25.5l.006-.01a.386.386 0 0 1 .006-.007l.023-.03.023-.03.006-.007.023-.03.024-.03.005-.007.018-.022a11.461 11.461 0 0 1 .03-.037l.006-.007.018-.022.006-.007v-.001a.373.373 0 0 1 .006-.006v-.001l.012-.014.006-.007.001-.002.005-.005.001-.002.005-.006a1.91 1.91 0 0 0 .012-.014l.002-.002.004-.005.002-.002.004-.005.001-.002.006-.006.006-.008v-.001l.006-.006.001-.001.004-.005.002-.002.004-.005.002-.002a.387.387 0 0 0 .011-.013l.002-.002.004-.005.002-.003.004-.004.002-.002a.4.4 0 0 1 .013-.015l.004-.005.002-.002.004-.005.002-.002.004-.005.002-.002.005-.006.002-.002.004-.005.002-.003c.002 0 .003-.002.004-.003l.002-.003.004-.004.002-.003.004-.004.002-.002.005-.006.003-.004.003-.003a.853.853 0 0 1 .006-.007l.003-.003.003-.003.003-.003.002-.003a.38.38 0 0 1 .006-.007l.003-.003a.117.117 0 0 1 .005-.006l.003-.004.003-.003a.104.104 0 0 0 .006-.006l.006-.007.002-.002.004-.004.002-.003.003-.003.003-.003a.13.13 0 0 1 .003-.004l.002-.002.004-.004.002-.002.007-.008.002-.002.003-.004.003-.002c0-.002.002-.003.003-.004l.003-.003.003-.003.002-.003.013-.014.002-.002.004-.004.001-.002a.168.168 0 0 0 .004-.004l.002-.002a.153.153 0 0 0 .005-.005l.01-.01.004-.005.002-.002.004-.004.001-.002a.17.17 0 0 0 .004-.004l.002-.002.014-.015h.001a.194.194 0 0 1 .004-.005l.002-.002.004-.005h.001l.02-.022h.001a.222.222 0 0 1 .005-.006h.001a.232.232 0 0 0 .005-.006l.021-.022.006-.006.021-.022a.302.302 0 0 0 .006-.006l.028-.028c.223-.226.46-.44.713-.64zm3.403-2.097.508.862-1.722 1.016-.508-.861 1.722-1.017zm3.396-2.107.63.776c-.346.282-.717.54-1.102.768l-.693.408-.508-.86.693-.41.008-.005.003-.001.006-.004.003-.002a.09.09 0 0 1 .005-.003l.009-.005.008-.005.009-.005.008-.005.004-.002a.084.084 0 0 1 .005-.004l.004-.002.005-.003.003-.002.008-.005h.002l.007-.005.003-.002.005-.003.009-.005.008-.005.008-.005.009-.006.008-.005a.604.604 0 0 0 .008-.005l.009-.005a.193.193 0 0 1 .007-.005l.01-.006.003-.002a.157.157 0 0 0 .006-.003l.003-.002a.143.143 0 0 0 .005-.003l.003-.002.005-.003.003-.003a.36.36 0 0 1 .005-.003l.003-.002c.002 0 .004-.002.005-.003l.003-.002a.157.157 0 0 1 .006-.003l.002-.002.006-.004h.002l.006-.005.03-.02h.002a.345.345 0 0 0 .006-.005h.002l.006-.005h.002a.128.128 0 0 0 .006-.005l.002-.001.006-.004.002-.001.007-.005.008-.005.062-.041c.205-.137.402-.283.592-.438zm2.359-3.178.926.378a9.005 9.005 0 0 1-1.103 1.955l-.803-.596.005-.007.006-.007.001-.002.005-.006v-.002l.012-.015.001-.002.005-.006.001-.002.011-.015.001-.001.005-.006.001-.002.005-.008a.244.244 0 0 0 .006-.008l.001-.001.005-.006.001-.003a.223.223 0 0 0 .005-.006v-.001a.5.5 0 0 0 .006-.008l.001-.001.005-.006.001-.002.004-.006.002-.002a.5.5 0 0 1 .006-.009l.004-.006.002-.003a.097.097 0 0 0 .004-.005l.002-.003.005-.007.005-.007.002-.003.004-.005.001-.003a.244.244 0 0 1 .005-.006v-.002l.006-.007.002-.002c0-.002.002-.003.003-.005l.002-.003.004-.006.001-.002.005-.007.002-.003.004-.005.001-.002a.244.244 0 0 0 .004-.006l.002-.002.005-.007.002-.003a.078.078 0 0 1 .003-.005l.002-.003.003-.005.002-.002.005-.008.002-.002.003-.005.002-.004.003-.004.003-.003a.208.208 0 0 1 .004-.006l.002-.004a.133.133 0 0 1 .003-.005l.003-.003c0-.002.002-.003.003-.004l.002-.004c0-.002.002-.003.003-.005l.003-.004.003-.006.003-.003.003-.004.002-.004.003-.004.002-.004.005-.006.002-.004.002-.004.003-.003c0-.002.002-.003.003-.004l.002-.004.005-.007.002-.004.003-.003a.083.083 0 0 1 .005-.008l.002-.004.003-.004a.379.379 0 0 1 .004-.007l.002-.003.003-.004.002-.004.003-.004.002-.004.005-.007.002-.003c0-.002.002-.003.003-.004l.002-.004.002-.004.003-.003.004-.008a.04.04 0 0 0 .003-.003l.002-.004.002-.004.003-.004.002-.003a.66.66 0 0 0 .006-.009l.001-.002.003-.005.002-.003a.107.107 0 0 0 .003-.004l.002-.003.01-.016.001-.003.003-.005.002-.003a.11.11 0 0 0 .003-.004l.001-.002.006-.01.002-.002.002-.005.002-.003.003-.005.002-.002a.447.447 0 0 0 .005-.009l.002-.003.003-.004.002-.003.002-.005.002-.002.006-.01.001-.002.003-.005.002-.002a.203.203 0 0 1 .003-.005l.001-.003.007-.01s0-.001 0 0a.256.256 0 0 1 .005-.009c0-.002.002-.003.003-.005l.001-.002.01-.017.002-.003.003-.005.001-.002.003-.005a.73.73 0 0 1 .007-.012l.001-.002a.09.09 0 0 0 .005-.008l.003-.005v-.001l.007-.011.001-.002.003-.005.001-.002.004-.006a.432.432 0 0 1 .007-.012v-.002l.004-.005.001-.002.003-.005.001-.002.01-.018.001-.002.004-.005v-.002l.011-.018v-.002l.004-.005.001-.002.01-.019.005-.006v-.002l.011-.02.004-.006v-.001l.004-.006.01-.02.002-.002c0-.002.002-.003.003-.005v-.001l.01-.02h.002c0-.003.002-.005.003-.007l.01-.02h.002a.175.175 0 0 0 .003-.008l.01-.02h.001l.004-.006v-.002l.014-.026.001-.001.003-.006.01-.02.002-.002a.125.125 0 0 1 .003-.006l.01-.02v-.001a.19.19 0 0 0 .004-.007l.01-.02s.001 0 0 0l.005-.007.014-.028.014-.028.014-.028.014-.028c.085-.17.164-.345.236-.523zm1.492-3.712.928.373-.746 1.856-.928-.373.01-.027.003-.005V14.8l.001-.001.002-.004.002-.006v-.001l.728-1.81zm1.767-3.57.79.614c-.359.46-.658.965-.891 1.5l-.917-.398a7.986 7.986 0 0 1 1.018-1.716zm3.126-2.428.4.917a7.02 7.02 0 0 0-1.502.89l-.613-.79.086-.065a.323.323 0 0 0 .006-.005h.001l.006-.005.006-.005.018-.013h.001a.192.192 0 0 1 .005-.004l.002-.002.004-.003.003-.002.004-.003a.534.534 0 0 0 .007-.005l.003-.002.007-.006.006-.004.007-.005.007-.005a.4.4 0 0 0 .007-.005l.004-.003.003-.002.006-.005.007-.005.002-.002c.002 0 .004-.002.005-.003l.002-.002.006-.003c0-.001 0-.002.002-.002a.234.234 0 0 0 .005-.004l.002-.001.006-.004v-.001l.015-.01.007-.006h.002l.006-.005.007-.005.03-.022a8.037 8.037 0 0 1 .721-.452h.001l.04-.022.008-.004.008-.004.024-.014h.001l.007-.004h.002l.005-.004.002-.001.006-.003.002-.001.007-.004.009-.004a.43.43 0 0 0 .015-.008l.007-.004.008-.004.008-.004.01-.006.007-.004.008-.004.007-.003.008-.004.006-.004.012-.006c.002 0 .003-.002.005-.003.003 0 .005-.002.008-.003l.007-.004a11.175 11.175 0 0 1 .035-.018l.007-.004c.135-.068.273-.132.411-.193zm3.189-.663c.112 0 .223.002.336.007h.01l.374.016-.043 1-.373-.017a7.023 7.023 0 0 0-1.419.083l-.16-.987.009-.002.01-.001.009-.002.009-.001.009-.001.009-.002.009-.001.01-.002.009-.001.01-.001.008-.002.01-.001.009-.002h.01l.008-.002.01-.002h.008a2.197 2.197 0 0 0 .029-.005l.01-.001.009-.001.009-.002h.009l.009-.002.01-.001.009-.001.01-.002H24l.009-.002.01-.001.009-.001.008-.001a3.075 3.075 0 0 1 .02-.003h.009l.01-.002.009-.001.01-.001.009-.001.01-.001.008-.001.009-.001.01-.001.009-.001.01-.001.01-.001.009-.001a1.38 1.38 0 0 0 .027-.003l.01-.001.009-.001.01-.001.01-.001h.01l.009-.002h.01l.01-.002h.01l.026-.003h.01l.01-.002h.01l.01-.001h.01l.044-.004.01-.001a8.03 8.03 0 0 1 .255-.015l.066-.002h.02l.01-.001h.035l.01-.001H24.848l.01-.001h.065l.009-.001h.074zm2.718.11 1.068.045h.007l.923.04-.043 1-1.998-.087.043-.999zm5.958-.23.303.954a9.008 9.008 0 0 1-2.207.406l-.057-.998.14-.01h.008l.032-.003h.008l.031-.003h.009l.008-.001a4.344 4.344 0 0 0 .04-.004l.021-.002h.01l.008-.002h.01l.011-.002h.009l.009-.002h.009l.012-.002a2.568 2.568 0 0 1 .018-.002h.01l.01-.002h.01l.009-.002h.009l.011-.002.01-.001.008-.001.01-.001.011-.002h.009l.009-.002.009-.001.01-.001.01-.001.01-.002h.008l.01-.002.011-.001.009-.002h.009a3.154 3.154 0 0 0 .02-.004h.01l.008-.002.01-.001.01-.002.01-.001.009-.001.008-.002.01-.001.011-.002h.009l.009-.002.01-.002.01-.001.01-.002.008-.001.01-.001.01-.002.01-.002h.008l.01-.002.01-.002a2.746 2.746 0 0 0 .018-.003l.01-.001.008-.002.012-.002.008-.001.009-.002.009-.001.02-.004.01-.001.008-.002.006-.001.015-.003.008-.001.008-.002h.008c.005-.002.009-.003.014-.003l.008-.002.008-.002h.008l.02-.005.008-.001.009-.002h.001l.021-.004.008-.002a.49.49 0 0 1 .008-.001h.001l.03-.006.007-.002.03-.006.009-.002c.27-.055.537-.125.8-.208zm3.45-1.982.58.815-1.228.873c-.15.107-.305.21-.461.308l-.53-.849a7.93 7.93 0 0 0 .085-.053 2.389 2.389 0 0 0 .03-.02l.008-.004.007-.005.007-.005h.002l.006-.004.002-.002.006-.004.002-.001.006-.004h.001l.008-.006.008-.005.001-.001.007-.004v-.001a8.537 8.537 0 0 0 .153-.104l.024-.016h.001l.007-.006.016-.011h.001a.355.355 0 0 1 .007-.005l.001-.002a.291.291 0 0 0 .006-.004l.002-.001.007-.005.052-.037.003-.002h.001c.001-.002.002-.003.004-.003l.006-.005.007-.005h.001l.006-.005.002-.001.003-.002a.204.204 0 0 1 .004-.003L36 5.022 36 5.02l.003-.002.002-.001.002-.002.002-.001a.082.082 0 0 1 .003-.002l.028-.02.002-.002 1.089-.775zm3.258-2.32.58.815-1.629 1.16-.58-.815.965-.687.004-.002.007-.006.009-.006.002-.001a.078.078 0 0 1 .003-.002V2.35c.002 0 .003-.001.003-.002l.003-.002.002-.001.631-.45zM44.07.433l.128.992a6.994 6.994 0 0 0-1.69.437l-.37-.929a7.987 7.987 0 0 1 1.932-.5z" fill="#DCBA4E"/>
    <path d="m55.572 35.896-2.577-2.581-11.6 11.6 2.577 2.584 11.6-11.603zm7.76-2.581-19.36 19.364-7.65-7.632-2.581 2.578 10.231 10.233 21.963-21.962-2.603-2.581zm-39.95 14.31 10.231 10.233 2.581-2.581-10.213-10.23-2.599 2.578z" fill="#fff"/>
    <defs>
        <linearGradient id="36i3ifaula" x1="15.693" y1="69.518" x2="76.232" y2="28.195" gradientUnits="userSpaceOnUse">
            <stop stop-color="#CF0036"/>
            <stop offset="1" stop-color="#FF2F65"/>
        </linearGradient>
    </defs>
</svg>
