<svg width="109" height="109" viewBox="0 0 109 109" fill="none" xmlns="http://www.w3.org/2000/svg">
    <g clip-path="url(#l7g9r94dna)">
        <mask id="xz35t688ib" style="mask-type:luminance" maskUnits="userSpaceOnUse" x="0" y="0" width="109" height="109">
            <path d="M83 0H26C11.64 0 0 11.64 0 26v57c0 14.36 11.64 26 26 26h57c14.36 0 26-11.64 26-26V26c0-14.36-11.64-26-26-26z" fill="#fff"/>
        </mask>
        <g mask="url(#xz35t688ib)">
            <mask id="2r5m134jzc" style="mask-type:luminance" maskUnits="userSpaceOnUse" x="0" y="0" width="109" height="103">
                <path d="M95 0H14C6.268 0 0 6.268 0 14v75c0 7.732 6.268 14 14 14h81c7.732 0 14-6.268 14-14V14c0-7.732-6.268-14-14-14z" fill="#fff"/>
            </mask>
            <g mask="url(#2r5m134jzc)">
                <path d="M118.052 49.389a3.409 3.409 0 0 0-5.784.456 3.303 3.303 0 0 0 .322 3.533c1.438 2.013.915 6.181-1.064 8.435a11.568 11.568 0 0 1-9.5 4.165c-5.536-.137-12.506-3.368-20.1-9.074 2.083-2.317 3.538-3.977 3.944-4.52 6.427-8.574 8.172-21.712-3.185-30.3-5.3-4.01-10.922-4.87-16.7-2.556-3.792 1.519-7.662 4.449-11.743 8.89-4.081-4.442-7.951-7.372-11.743-8.89-5.775-2.313-11.393-1.453-16.7 2.556-11.357 8.585-9.612 21.723-3.185 30.3.407.543 1.862 2.2 3.944 4.52-7.592 5.706-14.561 8.936-20.1 9.074a11.588 11.588 0 0 1-9.5-4.165c-1.979-2.254-2.5-6.422-1.064-8.435a3.3 3.3 0 0 0 .323-3.532 3.41 3.41 0 0 0-5.784-.457c-2.912 4.014-3.188 11.612 1.444 16.887A18.226 18.226 0 0 0 6.626 72.74c7.121-.177 15.364-3.815 24.5-10.8 6.755 7.388 15.8 17.081 20.689 22.009a3.37 3.37 0 0 0 2.4 1h.036a3.37 3.37 0 0 0 2.4-1c4.892-4.928 13.934-14.621 20.689-22.009 9.139 6.983 17.381 10.621 24.5 10.8a18.226 18.226 0 0 0 14.75-6.464c4.65-5.274 4.375-12.872 1.462-16.887zM78.61 27.483c10.843 8.2 2.8 19.575 1.853 20.844-.3.4-1.713 2-3.8 4.308a149.84 149.84 0 0 1-18.024-18.992c9.884-11.113 15.635-9.438 19.971-6.16zM52.57 75.008c-4.977-5.2-11.227-11.939-16.182-17.359A156.665 156.665 0 0 0 54.25 38.961a156.643 156.643 0 0 0 17.862 18.688c-4.955 5.42-11.205 12.162-16.182 17.359a2.325 2.325 0 0 1-3.36 0zm-24.533-26.68c-.953-1.27-8.991-12.648 1.852-20.845 4.337-3.277 10.084-4.952 19.967 6.16a149.791 149.791 0 0 1-18.024 18.992c-2.083-2.311-3.494-3.911-3.795-4.307z" fill="#fff"/>
            </g>
        </g>
    </g>
    <defs>
        <clipPath id="l7g9r94dna">
            <path fill="#fff" d="M0 0h109v109H0z"/>
        </clipPath>
    </defs>
</svg>
