<svg width="202" height="66" viewBox="0 0 202 66" fill="none" xmlns="http://www.w3.org/2000/svg">
    <g clip-path="url(#y3piimixaa)">
        <path d="M103.802 33.837a2.175 2.175 0 0 1-1.314-.454 1.551 1.551 0 0 1-.558-.93 14.317 14.317 0 0 1-.09-1.997v-7.142l4.866 10.938h.422l4.83-10.938v7.762c.021.65-.007 1.301-.084 1.947a.91.91 0 0 1-.386.616c-.334.16-.705.229-1.075.198h-.428v.414h5.828v-.414h-.54a2.02 2.02 0 0 1-1.119-.216.96.96 0 0 1-.364-.66 14.82 14.82 0 0 1-.072-1.885v-5.982c-.023-.643.009-1.286.094-1.924a.782.782 0 0 1 .373-.553c.379-.128.78-.179 1.179-.148h.45v-.414h-3.742l-4.444 10.092-4.471-10.092h-3.715v.414h.335c.407-.035.817.02 1.201.161a.826.826 0 0 1 .359.586c.076.624.104 1.252.084 1.88v5.307c.019.691-.017 1.383-.108 2.069a1.537 1.537 0 0 1-.598.94c-.37.27-.815.42-1.273.427v.413h4.363l-.003-.415zM120.146 25.276v-.496h-4.058v.496c.35-.032.7.057.993.251.313.35.562.751.734 1.187l3.324 7.124-.841 2.105c-.093.276-.242.53-.437.745a3.524 3.524 0 0 1-.879.496c-.749.338-1.123.752-1.123 1.242 0 .424.234.637.702.637a1.254 1.254 0 0 0 .949-.491c.42-.566.754-1.19.993-1.852l3.939-9.51a5.672 5.672 0 0 1 .831-1.548c.29-.26.669-.397 1.058-.383v-.497h-3.11v.497c.799.014 1.198.201 1.198.56-.116.411-.264.812-.442 1.2l-2.051 4.91-2.427-5.17a4.728 4.728 0 0 1-.418-1.058c-.002-.275.353-.423 1.065-.445zM201.76 9.285a.97.97 0 0 0-.67-.216 7.42 7.42 0 0 0-4.414 1.8 32.148 32.148 0 0 0-4.739 4.631 15.909 15.909 0 0 0-8.173-2.442c-5.368 0-7.915 2.201-8.601 4.08 0 .01-.009.022-.013.033a3.02 3.02 0 0 0-.185 1.004 3.153 3.153 0 0 0 1.886 2.652c2.267 1.294 6.326 1.742 10.003.995-.628.81-1.289 1.67-1.982 2.579-.24.32-.912 1.24-2.016 2.761a226.852 226.852 0 0 1-2.543 3.43c-.101.129-.327.428-.663.88a27.796 27.796 0 0 1-1.735 1.807 17.239 17.239 0 0 1-2.628 2.088 4.671 4.671 0 0 1-2.435.888.486.486 0 0 0 0-.228 3.655 3.655 0 0 1-.024-.468c.057-.545.238-1.07.528-1.535.351-.656.967-1.632 1.848-2.929a49.986 49.986 0 0 1 5.302-6.718l-.072-.12-.768-.024a3.2 3.2 0 0 0-2.327.887c-.437.42-.846.87-1.223 1.344.146-.392.227-.806.24-1.224 0-.655-.312-.983-.937-.984a5.898 5.898 0 0 0-2.65.78 15.05 15.05 0 0 0-3.035 2.147 19.168 19.168 0 0 0-2.761 3.047 19.35 19.35 0 0 0-1.444 2.25 32.867 32.867 0 0 1-2.259 2.117c-1.304 1.103-2.404 1.655-3.299 1.655a1.944 1.944 0 0 1-.048-.696c0-.736.536-1.88 1.608-3.43l1.031-1.224 1.032-1.223c.414-.45.667-1.023.719-1.632 0-.335-.227-.582-.683-.744a3.78 3.78 0 0 0-1.236-.24 6.065 6.065 0 0 0-1.919.48 18.358 18.358 0 0 1 2.783-2.087 19.74 19.74 0 0 1 1.415-.708c.295-.13.614-.2.937-.204a.565.565 0 0 1 .647.6 1.506 1.506 0 0 0-.479.072c-.333.12-.627.327-.852.6-.218.218-.35.508-.372.816 0 .255.136.383.408.383a1.49 1.49 0 0 0 .96-.585c.326-.315.551-.72.647-1.164v-.144c-.016-.576-.328-.863-.935-.863a3.077 3.077 0 0 0-1.14.204c-.457.191-.902.411-1.331.659a22.968 22.968 0 0 0-3.479 2.761h-.024l-.025.048a45.657 45.657 0 0 0-2.471 2.47c1.056-1.343 1.68-2.126 1.872-2.35l4.751-5.998 1.004-1.272a66.002 66.002 0 0 0 5.806-3.862 18.775 18.775 0 0 0 2.603-2.327 26.166 26.166 0 0 0 2.111-2.52 8.766 8.766 0 0 0 1.017-1.633c.069-.185.109-.379.12-.576a.752.752 0 0 0-.056-.314.752.752 0 0 0-.184-.261.97.97 0 0 0-.67-.216 7.348 7.348 0 0 0-4.403 1.811 33.419 33.419 0 0 0-4.906 4.847c-1.27 1.501-2.867 3.482-4.79 5.94-.483.118-.969.214-1.45.29-.103.016-.418.084-.438.215-.02.131.235.1.305.09.437-.07.879-.157 1.32-.256-.591.753-1.207 1.55-1.857 2.395-.208.288-.968 1.32-2.279 3.096a883.702 883.702 0 0 0-2.279 3.096c-.084.105-.251.327-.493.65a44.982 44.982 0 0 1-4.161 3.417 6.845 6.845 0 0 1-3.695 1.596c-.064 0-.096-.232-.097-.696a3.48 3.48 0 0 1 .54-1.523 32.313 32.313 0 0 1 1.907-2.868c.8-1.12 1.82-2.39 3.059-3.814 1.24-1.424 2.347-2.623 3.323-3.598.192-.064.016-.04-.528.072a9.036 9.036 0 0 0-1.716.551 5.558 5.558 0 0 0-1.619 1.055 26.166 26.166 0 0 0-2.231 2.208 26.564 26.564 0 0 0-2.135 2.686c-.864 1.216-1.488 2.164-1.872 2.845-.348.56-.546 1.2-.576 1.86 0 1.071.648 1.607 1.943 1.607 1.039 0 2.367-.596 3.983-1.788a38.906 38.906 0 0 0 3.023-2.464c-.381.514-.833 1.126-1.368 1.853l-1.607 2.16h2.447l2.207-3.215a39.368 39.368 0 0 1 2.183-2.51 51.358 51.358 0 0 1 2.616-2.604c.438-.185.887-.345 1.344-.479a4.626 4.626 0 0 1 1.079-.24c.32 0 .48.128.48.384a1.13 1.13 0 0 1-.276.612 10.5 10.5 0 0 1-.948 1.043 28.285 28.285 0 0 0-2.159 2.543 6.5 6.5 0 0 0-1.032 1.764c-.19.478-.296.985-.312 1.5a1.26 1.26 0 0 0 .48 1.078c.422.268.918.394 1.416.36.96 0 2.144-.608 3.551-1.823a34.382 34.382 0 0 0 1.606-1.484 4.644 4.644 0 0 0-.43 1.748 1.463 1.463 0 0 0 .443 1.176c.303.257.69.394 1.088.383a4.386 4.386 0 0 0 2.315-.887 16.95 16.95 0 0 0 2.795-2.427 4.223 4.223 0 0 0-.432 1.704c0 1.071.648 1.607 1.944 1.607a4.886 4.886 0 0 0 2.578-.948 17.855 17.855 0 0 0 2.718-2.192l-.546.74-1.608 2.16h2.448c.32-.496 1.024-1.512 2.111-3.048l1.607-1.727a38.33 38.33 0 0 1 3.216-3.263 34.718 34.718 0 0 1 3.347-2.723 4.968 4.968 0 0 1 2.099-1.067c.256 0 .384.064.384.191-.073.25-.205.48-.384.67-.469.59-.991 1.137-1.56 1.631a42.739 42.739 0 0 0-1.799 1.812 13.15 13.15 0 0 0-1.416 1.835 26.57 26.57 0 0 0-1.643 2.795 4.222 4.222 0 0 0-.517 1.692 1.187 1.187 0 0 0 .72 1.032 3.61 3.61 0 0 0 1.8.407c1.071 0 2.315-.595 3.731-1.787a28.963 28.963 0 0 0 3.706-3.707h-.384a29.426 29.426 0 0 1-3.563 3.491 5.786 5.786 0 0 1-3.49 1.62c-.625 0-.936-.232-.936-.696a3.55 3.55 0 0 1 .696-1.583 34.728 34.728 0 0 1 2.231-2.951l1.272-1.536a27.142 27.142 0 0 0 2.088-2.639 2.702 2.702 0 0 0 .552-1.775.922.922 0 0 0-.468-.586 2.411 2.411 0 0 0-.996-.204 4.468 4.468 0 0 0-1.859.816 25.588 25.588 0 0 0-3.191 2.387 35.788 35.788 0 0 0-3.587 3.563c.319-.416 1.335-1.695 3.047-3.84l4.079-5.158c-.016.017.088-.111.312-.384.144-.192.272-.359.384-.502a9.75 9.75 0 0 0 .288-.384 61.53 61.53 0 0 0 4.398-2.837c.214.198.422.401.625.61.802.992 8.796 11.463-1.555 22.289a13.412 13.412 0 0 1-2.003 1.59 22.116 22.116 0 0 1-11.988 3.374c-6.166 0-10.226-1.537-14.152-3.024-3.589-1.359-6.978-2.641-11.672-2.641-8.503 0-12.181 5.263-12.181 7.948a3.008 3.008 0 0 0 2.44 3.013 5.856 5.856 0 0 0 1.538.2c3.019 0 6.097-2.175 7.52-4.602l-.235-.138a9.166 9.166 0 0 1-4.351 3.797c-5.013 1.447-5.741-1.57-5.741-1.57-.85-2.584 1.54-5.08 2.181-5.689 1.875-1.487 4.715-2.685 8.826-2.685 4.643 0 8.01 1.274 11.575 2.624 3.949 1.495 8.032 3.041 14.249 3.041 7.501 0 14.126-3.346 17.719-8.948a14.608 14.608 0 0 0 1.354-13.977 17.237 17.237 0 0 0-3.925-5.371c.395-.28.796-.566 1.205-.865a18.813 18.813 0 0 0 2.612-2.331 26.322 26.322 0 0 0 2.112-2.52 8.86 8.86 0 0 0 1.02-1.631c.068-.185.109-.38.119-.576a.738.738 0 0 0-.243-.576zm-31.634 4.858a41.629 41.629 0 0 1 3.203-3.455c.944-.887 1.672-1.33 2.184-1.33.416 0 .623.167.623.501-.009.2-.058.395-.143.576a8.435 8.435 0 0 1-.972 1.5 28.23 28.23 0 0 1-2.052 2.426 17.23 17.23 0 0 1-2.567 2.267 79.541 79.541 0 0 1-4.775 3.233.915.915 0 0 0-.172.067c1.935-2.455 3.493-4.384 4.671-5.785zm-1.319 21.041a4.598 4.598 0 0 1-2.51 1.068c-.128 0-.064-.272.191-.816.369-.745.777-1.47 1.223-2.17a50.673 50.673 0 0 1 1.92-2.868 29.036 29.036 0 0 1 2.364-2.845 28.293 28.293 0 0 1 2.259-2.176 4.877 4.877 0 0 1 1.139-.836c.432 0 .648.24.648.72a5.473 5.473 0 0 1-.791 2.278l-2.015 2.736a19.9 19.9 0 0 0-1.296 1.895 18.55 18.55 0 0 1-3.132 3.014zm18.301-13.69a18.21 18.21 0 0 1-5.531.35c-.027 0-.051-.006-.077-.01-1.802-.304-4.866-.591-5.507-3.361-.511-2.204 1.664-3.7 2.236-4.051a12.538 12.538 0 0 1 5.533-1.088c2.831.054 5.595.876 7.995 2.378l-.037.043c-1.252 1.48-2.79 3.392-4.613 5.739h.001zm3.808-1.485a294.436 294.436 0 0 1 2.518-3.153c.345.266.68.545 1.004.837a89.602 89.602 0 0 1-3.522 2.316zm10.626-9.573a8.375 8.375 0 0 1-.971 1.5 28.217 28.217 0 0 1-2.052 2.426 17.235 17.235 0 0 1-2.567 2.267c-.427.308-.855.611-1.284.909-.344-.31-.699-.607-1.066-.889 1.606-1.975 2.933-3.537 3.981-4.685 1.583-1.736 2.743-2.603 3.479-2.603.415 0 .623.167.624.502-.009.2-.057.395-.142.576l-.002-.003z" fill="#FEE3A1"/>
        <path d="M135.275 26.205a323.698 323.698 0 0 0 7.056-9.998 203.403 203.403 0 0 0 2.231-3.347 657.157 657.157 0 0 0 3.751-5.541 57.723 57.723 0 0 1-1.702 3.5 610.262 610.262 0 0 1-2.643 4.947c-2.108 3.83-3.837 7.153-5.188 9.969a64.604 64.604 0 0 0-3.548 9.256 38.598 38.598 0 0 0-1.665 10.101v.096l.194.025.047.024.001-.01a.026.026 0 0 1 .005-.008.017.017 0 0 1 .009-.006.016.016 0 0 1 .009 0v-.049c1.126-2.157 2.848-5.005 5.166-8.544a328.389 328.389 0 0 1 7.241-10.595c2.51-3.524 4.546-6.284 6.108-8.279a63.41 63.41 0 0 1 8.737-9.304c2.783-2.343 5.286-3.514 7.506-3.514.595 0 1.163.024 1.702.072a6.278 6.278 0 0 1 1.823.495 2.881 2.881 0 0 1 1.496 1.339l.242-.144a4.319 4.319 0 0 0-1.738-1.8 5.283 5.283 0 0 0-1.845-.651l-.785-.084h-.893c-2.221 0-4.747 1.24-7.578 3.717a73.916 73.916 0 0 0-8.979 9.678c-1.481 1.851-3.392 4.426-5.733 7.724a325.017 325.017 0 0 0-6.895 10.118c-2.253 3.443-4.007 6.316-5.262 8.618a48.13 48.13 0 0 1 2.39-6.553c.997-2.245 2.414-5.226 4.248-8.943 1.641-3.282 2.985-6.066 4.031-8.35a71.018 71.018 0 0 0 2.799-7.121 34.92 34.92 0 0 0 1.617-7.071l.011-.089-.084-.033-.193-.072-.048.072-.2.298-.017-.014a18.718 18.718 0 0 1-4.484 3.698 15.96 15.96 0 0 1-5.406 2.036c-1.903.327-3.853.26-5.73-.198a17.84 17.84 0 0 1-5.278-2.28c-.744-.46-1.442-.97-2.143-1.506a5.932 5.932 0 0 0-.066-1.899 6.685 6.685 0 0 0-1.232-2.73 8.178 8.178 0 0 0-2.194-2.02 7.691 7.691 0 0 0-2.78-1.058 11.01 11.01 0 0 0-2.963-.136l.023.206a10.819 10.819 0 0 1 2.899.147c.957.168 1.872.52 2.695 1.038a7.229 7.229 0 0 1 3.293 4.603c.106.545.129 1.104.07 1.657a24.395 24.395 0 0 0-2.454-1.646 18.781 18.781 0 0 0-2.718-1.288 14.981 14.981 0 0 0-2.929-.745 16.098 16.098 0 0 0-6 .32 13.268 13.268 0 0 0-5.448 2.586 8.35 8.35 0 0 0-1.983 2.36 5.544 5.544 0 0 0-.568 1.48c-.06.27-.089.546-.089.823.003.145.016.29.04.433.031.133.053.266.095.395a5.375 5.375 0 0 0 1.757 2.594 8.569 8.569 0 0 0 2.677 1.488c1.919.619 3.946.833 5.952.627.496-.04.99-.1 1.482-.177a8.94 8.94 0 0 0 1.473-.34c.956-.295 1.88-.681 2.762-1.153a14.204 14.204 0 0 0 4.568-3.806 8.45 8.45 0 0 0 1.408-2.652c.044-.145.084-.292.115-.44.637.469 1.294.908 1.971 1.317a18.352 18.352 0 0 0 5.468 2.245 14.51 14.51 0 0 0 5.893.098 16.586 16.586 0 0 0 5.474-2.164 19.436 19.436 0 0 0 3.725-2.929 918.585 918.585 0 0 1-3.605 5.334c-.518.758-1.136 1.7-1.704 2.536a323.681 323.681 0 0 1-7.414 10.475c-2.568 3.482-4.649 6.208-6.242 8.178-1.831 2.24-5.414 6.233-8.677 9.559l-.024.025c-.131.139-.251.25-.383.387-.132.136-.256.271-.4.418l-.029.03a59.927 59.927 0 0 1-1.657 1.642 15.132 15.132 0 0 0-8.417-2.402c-5.553.315-8.794 3.244-8.719 5.892.072 2.546 2.929 3.45 5.347 3.45 3.223 0 7.171-2.196 11.764-6.534a29.36 29.36 0 0 1 7.327 6.716 4.34 4.34 0 0 0 2.38 1.532 42.237 42.237 0 0 0-3.542-3.85 32.973 32.973 0 0 0-5.892-4.659 64.644 64.644 0 0 0 2.436-2.468c3.29-3.356 6.931-7.266 8.798-9.538 1.508-1.83 3.459-4.375 5.854-7.636zM125.16 8.907a8.202 8.202 0 0 1-1.374 2.557 13.885 13.885 0 0 1-4.487 3.696c-.864.458-1.771.831-2.707 1.115a13.31 13.31 0 0 1-2.886.49 14.2 14.2 0 0 1-5.796-.636 8.165 8.165 0 0 1-2.547-1.43 4.968 4.968 0 0 1-1.619-2.4 2.65 2.65 0 0 1-.017-1.448c.115-.476.31-.928.576-1.339.252-.413.559-.79.911-1.123a8.587 8.587 0 0 1 1.108-.91 10.586 10.586 0 0 1 2.532-1.264c.885-.313 1.79-.567 2.709-.761a19.052 19.052 0 0 1 5.592-.424c.941.091 1.871.272 2.778.542.919.282 1.81.646 2.665 1.088.858.452 1.682.968 2.464 1.542l.233.168c-.037.18-.082.36-.135.537zm-19.013 43.46c-.467 0-.933-.03-1.396-.094a3.586 3.586 0 0 1-3.059-2.487 3.893 3.893 0 0 1 .758-3.552c1.403-1.389 3.831-2.48 7.084-2.665.196-.01.394-.016.593-.016.585.002 1.169.048 1.747.14a16.62 16.62 0 0 1 5.791 2.259c-3.568 3.346-7.843 6.415-11.518 6.415z" fill="#FEE3A1"/>
        <path d="M159.318 17a1.678 1.678 0 0 0-.8.38 4.911 4.911 0 0 0-.878.773c-.447.476-.859.985-1.233 1.521-.035.053-.119.17-.251.354-.154.21-.325.408-.511.59l.079.131c.069-.017.293-.083.669-.196.523-.175 1.031-.39 1.521-.643a5.29 5.29 0 0 0 1.664-1.285 1.17 1.17 0 0 0 .342-.813.853.853 0 0 0-.21-.564.57.57 0 0 0-.392-.248zM92.535 18.252a21.364 21.364 0 0 0-4.467-3.8c.71-.754 1.373-1.55 1.988-2.384a8.753 8.753 0 0 0 1.02-1.631 1.94 1.94 0 0 0 .12-.576.737.737 0 0 0-.24-.576.969.969 0 0 0-.67-.216 7.346 7.346 0 0 0-4.403 1.812 25.885 25.885 0 0 0-2 1.736 22.662 22.662 0 0 0-6.275-.806c-9.004 0-11.918 4.258-11.918 6.32 0 1.19.731 2.193 2.116 2.9 1.965 1.003 5.236 1.301 8.302.736-.645.825-1.326 1.703-2.042 2.634-.208.288-.968 1.32-2.28 3.096a963.232 963.232 0 0 0-2.279 3.096 51.53 51.53 0 0 0-.663.879c-.551.628-1.13 1.231-1.736 1.807a17.255 17.255 0 0 1-2.627 2.088 4.673 4.673 0 0 1-2.435.888.508.508 0 0 0 0-.228 2.767 2.767 0 0 1 .502-2.003c.352-.656.967-1.632 1.848-2.929a49.956 49.956 0 0 1 5.302-6.718l-.072-.12-.768-.024a3.197 3.197 0 0 0-2.327.887c-.437.42-.846.87-1.223 1.344a3.83 3.83 0 0 0 .24-1.224c0-.655-.312-.983-.936-.984a5.9 5.9 0 0 0-2.651.78 15.064 15.064 0 0 0-3.035 2.147 19.151 19.151 0 0 0-2.216 2.343 20.856 20.856 0 0 0-1.095-3.9c2.767-4.255 5.558-8.174 8.373-11.756a49.61 49.61 0 0 1 6.502-7.222l-1.655-.144c-2.543-.08-6.726 3.072-12.55 9.455-.513.528-1.744 2.023-3.696 4.486l-1.103-1.227-.552-.552c2.448-3.31 4.687-6.218 6.718-8.721a37.43 37.43 0 0 1 4.223-4.691l-.12-.24c-.503.076-1 .188-1.487.334l-.264.072a11.281 11.281 0 0 0-2.938 1.572 23.76 23.76 0 0 0-2.891 2.53c-.976.993-2.391 2.496-4.246 4.512a39.677 39.677 0 0 0-2.04 2.259 23.69 23.69 0 0 0-2.491-1.385c-4.501-2.421-10.152-3.565-16.861-3.347-1.88.084-3.728.306-5.555.57C17.36 12.94.833 18.385.313 7.066l-.284-.108s-1.3 10.062 13.373 7.512c1.503-.289 3.003-.596 4.5-.92 2.488-.534 4.499-.933 6.033-1.197a37.291 37.291 0 0 1 4.616-.502c3.18-.129 6.362.122 9.482.748a26.104 26.104 0 0 1 7.217 2.602c.835.403 1.646.857 2.426 1.359a52.06 52.06 0 0 0-2.016 2.447c-.735.944-1.463 1.896-2.183 2.855l-1.487 1.944c-4.547 5.819-8.823 10.129-12.827 12.93-4.004 2.8-7.918 4.2-11.744 4.199a16.541 16.541 0 0 1-6.082-1.104 9.95 9.95 0 0 1-4.465-3.464 9.465 9.465 0 0 1-1.833-5.798c-.064-1.903.752-3.81 2.447-5.722A19.483 19.483 0 0 1 14 20.144a18.564 18.564 0 0 1 7.834-1.835c.512 0 1.008.023 1.487.071 1.497.16 2.966.518 4.367 1.068a8.518 8.518 0 0 1 3.275 2.22 4.884 4.884 0 0 1 1.26 3.354v.12a18.152 18.152 0 0 0-6.598-.957 22.946 22.946 0 0 0-6.994.971 12.444 12.444 0 0 0-4.666 2.471 4.205 4.205 0 0 0-1.631 3.012 2.698 2.698 0 0 0 1.14 2.16 6.971 6.971 0 0 0 3.179 1.272c.808.135 1.627.2 2.447.191a17.525 17.525 0 0 0 5.723-.984 15.074 15.074 0 0 0 4.918-2.722 7.447 7.447 0 0 0 2.579-3.9c.096-.527.151-.887.167-1.079a4.395 4.395 0 0 1 2.28 2.135 1.736 1.736 0 0 1-.168.252 1.21 1.21 0 0 0-.167.276 1.59 1.59 0 0 0-.144.669c-.001.237.04.472.12.695.053.182.152.348.287.48a.517.517 0 0 0 .264.12.46.46 0 0 0 .287-.167 1.186 1.186 0 0 0 .216-.935v-.097a2.784 2.784 0 0 0-.24-.935 4.864 4.864 0 0 0-2.71-2.783v-.265a5.123 5.123 0 0 0-1.309-3.515 8.87 8.87 0 0 0-3.397-2.313 16.928 16.928 0 0 0-4.486-1.104c-.848-.08-1.616-.12-2.304-.12a18.418 18.418 0 0 0-8.731 1.98 15.062 15.062 0 0 0-5.69 4.918 9.719 9.719 0 0 0-1.847 5.699 10.275 10.275 0 0 0 1.92 5.974 10.643 10.643 0 0 0 4.63 3.54 16.233 16.233 0 0 0 6.118 1.139c3.87 0 7.83-1.408 11.876-4.222 4.047-2.815 8.343-7.15 12.886-13.005 2.383-3.07 4.31-5.494 5.782-7.27l1.08.792c-2.992 3.759-5.592 7.242-7.798 10.448-2.207 3.207-3.31 5.179-3.311 5.914 0 1.28.496 2.024 1.487 2.232.087.018.175.026.264.024.246.008.489-.059.696-.191l.36-.24a37.124 37.124 0 0 0 2.71-3.203c1.6-1.991 3.807-4.778 6.623-8.362l1.511-1.92 1.004-1.247a19.676 19.676 0 0 1 1.535 2.26 117.974 117.974 0 0 0-7.185 11.672 53.878 53.878 0 0 0-2.49 5.278 32.35 32.35 0 0 0-2.51-.1c-9.934 0-14.034 4.642-14.849 7.588a3.128 3.128 0 0 0-.125 1.517 2.884 2.884 0 0 0 2.375 2.584c.354.08.715.12 1.076.12 2.768 0 5.497-2.299 6.732-4.853l-.245-.119a8.425 8.425 0 0 1-4.617 4.328c-3.735.806-4.397-1.858-4.397-1.858a5.355 5.355 0 0 1 1.274-4.685c2.113-2.244 6.102-4.352 12.774-4.352.833 0 1.634.034 2.411.093a26.383 26.383 0 0 0-1.26 4.042 17.882 17.882 0 0 0-.407 3.67 6.285 6.285 0 0 0 .753 3.372 2.466 2.466 0 0 0 2.219 1.187c1.215 0 2.582-.64 4.1-1.92a18.723 18.723 0 0 0 4.21-5.493c.402-.752.764-1.524 1.083-2.314.71.26 1.41.526 2.107.79 4.282 1.626 8.71 3.307 14.466 3.307 11.854 0 20.16-6.87 23.132-13.68 2.416-5.51 1.606-11.032-2.213-15.152zm-63.06 11.115a21.569 21.569 0 0 1-5.758 3.239 16.41 16.41 0 0 1-5.773 1.271 6.258 6.258 0 0 1-1.2-.096 7.074 7.074 0 0 1-3.047-1.188 2.417 2.417 0 0 1-1.08-1.955 4.004 4.004 0 0 1 1.587-2.855 12.147 12.147 0 0 1 4.547-2.376c2.23-.66 4.548-.975 6.874-.935 2.233-.106 4.465.22 6.574.96-.176 1.312-1.084 2.623-2.723 3.935zm18.702-12.909a52.818 52.818 0 0 1 1.968-2.231 235.737 235.737 0 0 1 3.838-4.1 29.237 29.237 0 0 1 2.664-2.46c.79-.65 1.662-1.194 2.594-1.62a51.387 51.387 0 0 0-4.319 4.436 160.816 160.816 0 0 0-5.662 6.765c-.338-.27-.699-.534-1.083-.79zm3.192 5.519-2.929 3.719a2449.62 2449.62 0 0 1-5.206 6.574 38.347 38.347 0 0 1-2.64 3.167.362.362 0 0 1-.215.096c-.084 0-.12-.063-.12-.191.068-.465.214-.915.432-1.331.292-.658.627-1.295 1.004-1.908.96-1.583 2.243-3.543 3.85-5.878a261.954 261.954 0 0 1 5.194-7.27l.55.552c.352.352.712.752 1.08 1.2l-1 1.27zm36.707-11.289c.944-.887 1.671-1.33 2.183-1.33.415 0 .624.166.624.501-.01.2-.058.395-.144.576a8.4 8.4 0 0 1-.971 1.5 27.889 27.889 0 0 1-1.982 2.342 16.414 16.414 0 0 0-2.128-1.052 37.791 37.791 0 0 1 2.418-2.537zm-3.205 3.456c.202-.24.399-.469.594-.694.732.294 1.442.64 2.124 1.038a17.18 17.18 0 0 1-2.442 2.14 79.55 79.55 0 0 1-5.014 3.382c1.968-2.495 3.548-4.45 4.738-5.866zm-12.924 7.6c-3.538-.41-4.602-1.22-5.104-2.982a4.228 4.228 0 0 1 1.339-4.177c1.784-1.364 4.77-2.501 9.419-2.501a22.5 22.5 0 0 1 6.044.753 41.463 41.463 0 0 0-2.677 2.89c-1.227 1.453-2.764 3.357-4.61 5.712a16.8 16.8 0 0 1-4.408.305h-.003zm-14.901 11.31a54.393 54.393 0 0 1 1.784-2.652 29.075 29.075 0 0 1 2.364-2.845 28.481 28.481 0 0 1 2.259-2.176 4.87 4.87 0 0 1 1.14-.836c.431 0 .647.24.647.72a5.467 5.467 0 0 1-.792 2.279l-2.014 2.735c-.468.606-.9 1.239-1.296 1.895a18.535 18.535 0 0 1-3.13 3.012 7.888 7.888 0 0 1-1.081.67c.088-.8.133-1.604.133-2.408-.005-.134-.012-.265-.014-.394zm-.284.459a20.663 20.663 0 0 1-.173 2.494c-.345.154-.717.24-1.094.251-.128 0-.064-.272.191-.816a21.69 21.69 0 0 1 1.076-1.932v.003zM52.784 20.71c1.968-2.48 3.175-3.975 3.623-4.487 5.439-5.966 9.43-9.109 11.972-9.429-1.375.8-3.383 2.72-6.024 5.758a124.044 124.044 0 0 0-8.038 10.413 19.717 19.717 0 0 0-1.533-2.26v.005zm.92 24.448a18.47 18.47 0 0 1-4.078 5.374c-1.463 1.248-2.78 1.872-3.947 1.872-.185.007-.37-.009-.552-.047a1.443 1.443 0 0 1-.92-.48 1.536 1.536 0 0 1-.276-.96c.006-.384.059-.767.156-1.14.104-.423.276-1.06.516-1.907l.502-1.704a37.66 37.66 0 0 1 1.982-5.394c2.62.46 5.191 1.167 7.678 2.113a23.226 23.226 0 0 1-1.058 2.268l-.002.005zm1.162-2.528a42.38 42.38 0 0 0-7.662-2.117 69.366 69.366 0 0 1 1.69-3.476c1.841-3.543 4.017-7.242 6.527-11.097.484 1.257.838 2.56 1.057 3.888-.105.136-.212.268-.313.407-1.52 2.08-2.28 3.695-2.28 4.846a1.472 1.472 0 0 0 .445 1.176c.303.258.69.395 1.087.384.381-.01.757-.09 1.108-.238-.031.208-.062.419-.1.622a29.939 29.939 0 0 1-1.555 5.6l-.004.005zm39.736-11.368c-2.426 9.44-10.417 12.723-15.039 14.43a28.11 28.11 0 0 1-7.936 1.116c-5.706 0-9.914-1.598-14.368-3.289-.7-.266-1.4-.53-2.102-.788a30.43 30.43 0 0 0 1.61-5.735c.041-.251.076-.502.109-.753.298-.146.586-.312.862-.497a16.931 16.931 0 0 0 2.794-2.427 4.24 4.24 0 0 0-.431 1.704c0 1.071.648 1.607 1.943 1.607a4.889 4.889 0 0 0 2.58-.948 17.906 17.906 0 0 0 2.716-2.192l-.546.74-1.608 2.16h2.449l2.207-3.215a39.147 39.147 0 0 1 2.183-2.51 51.515 51.515 0 0 1 2.616-2.603c.438-.185.887-.345 1.343-.48a4.626 4.626 0 0 1 1.08-.24c.32 0 .48.128.48.384-.03.228-.125.44-.277.612-.292.369-.608.717-.947 1.044-.77.804-1.49 1.653-2.16 2.542a6.503 6.503 0 0 0-1.031 1.764c-.19.478-.296.986-.313 1.5a1.263 1.263 0 0 0 .48 1.079c.421.268.917.394 1.416.36.96 0 2.143-.608 3.55-1.823a33.923 33.923 0 0 0 1.833-1.705 4.35 4.35 0 0 0-.201 1.249 2.119 2.119 0 0 0 2.326 2.279 6.888 6.888 0 0 0 3.611-1.464 21.306 21.306 0 0 0 4.282-4.03h-.36a18.214 18.214 0 0 1-4.043 3.754 6.826 6.826 0 0 1-3.49 1.356c-.447 0-.67-.256-.67-.768a4.61 4.61 0 0 1 .553-1.836 15.93 15.93 0 0 1 1.583-2.543l.669-.912a13.502 13.502 0 0 0 2.855-1.272 16.09 16.09 0 0 0 2.472-1.74 4.37 4.37 0 0 0 1.272-1.546c.068-.185.109-.38.12-.576a.738.738 0 0 0-.241-.576.969.969 0 0 0-.67-.216 7.442 7.442 0 0 0-4.234 1.776 22.973 22.973 0 0 0-4.642 4.822 7.611 7.611 0 0 0-.92 1.53 32.088 32.088 0 0 1-2.358 2.213c-1.304 1.103-2.404 1.655-3.299 1.655a1.937 1.937 0 0 1-.048-.697c0-.735.536-1.879 1.608-3.43l1.031-1.223 1.032-1.224c.414-.449.667-1.023.72-1.631 0-.335-.228-.583-.684-.744a3.781 3.781 0 0 0-1.236-.24 6.074 6.074 0 0 0-1.92.48c.86-.783 1.792-1.481 2.784-2.088.623-.334 1.095-.57 1.415-.707.295-.131.613-.2.936-.205a.566.566 0 0 1 .648.6 1.507 1.507 0 0 0-.48.072 1.98 1.98 0 0 0-.853.6c-.217.219-.35.508-.371.816 0 .256.136.384.407.384.385-.062.73-.273.96-.586.326-.315.552-.72.648-1.164v-.143c-.016-.576-.328-.864-.936-.864a3.077 3.077 0 0 0-1.14.204c-.457.192-.902.412-1.331.66a22.933 22.933 0 0 0-3.479 2.76h-.024l-.024.048c-.88.817-1.704 1.64-2.471 2.471 1.056-1.343 1.68-2.127 1.872-2.351l4.75-5.998 1.004-1.271a65.972 65.972 0 0 0 5.806-3.863 18.771 18.771 0 0 0 2.534-2.259c.084.05.161.1.241.15 1.958 1.402 8.88 7.15 6.493 16.45zm-9.933-1.489a30.414 30.414 0 0 1 3.371-3.803c1.031-.95 1.731-1.427 2.1-1.427.415 0 .623.167.623.502-.009.2-.058.395-.143.576-.276.499-.652.936-1.104 1.283a16.133 16.133 0 0 1-2.219 1.607c-.827.516-1.709.94-2.628 1.262z" fill="#FEE3A1"/>
        <path d="M53.345 61.755h10.28v.172h-10.28v-.172zM155.219 61.755h10.28v.172h-10.28v-.172zM68.566 63.416a.483.483 0 0 1-.292-.101.464.464 0 0 1-.18-.267 3.19 3.19 0 0 1-.041-.646V60.32h1.039v-.193h-1.04v-1.082h-.134c-.03.294-.152.571-.349.791a.874.874 0 0 1-.618.29v.194h.502v1.952c-.01.282.01.564.057.842a.746.746 0 0 0 .286.418c.151.12.34.183.532.18.181-.003.359-.051.516-.141a.902.902 0 0 0 .384-.419l-.134-.084a.631.631 0 0 1-.528.348zM75.57 63.126a6.372 6.372 0 0 1-.022-.736v-.95a2.98 2.98 0 0 0-.084-.837.817.817 0 0 0-.364-.435 1.298 1.298 0 0 0-.705-.177 1.377 1.377 0 0 0-.688.177 1.777 1.777 0 0 0-.565.53V57.79h-.089a2.89 2.89 0 0 1-1.088.177v.193c.25 0 .408.047.474.14.087.208.121.434.099.66v3.43c0 .384-.005.616-.015.696a.335.335 0 0 1-.106.207.609.609 0 0 1-.393.083h-.089v.194h1.75v-.194a.807.807 0 0 1-.4-.069.275.275 0 0 1-.128-.204 7.428 7.428 0 0 1-.02-.716v-1.38c.107-.223.264-.42.46-.573a.972.972 0 0 1 .585-.192.784.784 0 0 1 .47.135c.117.08.202.201.237.34.04.21.057.422.05.635v1.035c0 .382-.005.613-.014.692a.343.343 0 0 1-.105.209.606.606 0 0 1-.398.088h-.084v.194h1.78v-.194a.99.99 0 0 1-.42-.06.256.256 0 0 1-.127-.19zM82.252 61.292a1.407 1.407 0 0 0-.391-.892 1.34 1.34 0 0 0-1.048-.412 1.537 1.537 0 0 0-1.199.54c-.325.376-.496.86-.48 1.357-.009.343.078.683.252.98.155.26.375.474.637.624a1.673 1.673 0 0 0 1.697-.02c.256-.149.446-.388.534-.67h-.202a1.11 1.11 0 0 1-1.088.685.934.934 0 0 1-.847-.456 2.625 2.625 0 0 1-.284-1.364c0-.082.006-.205.017-.37l2.402-.002zm-1.472-1.119a.725.725 0 0 1 .753.779c0 .057-.005.115-.013.172h-1.65c.097-.633.4-.95.91-.95zM90.938 61.47a2.32 2.32 0 0 1-.643-.384.523.523 0 0 1-.132-.587.553.553 0 0 1 .524-.32.738.738 0 0 1 .57.275c.163.188.275.414.325.658h.156v-1.064h-.156c-.039.11-.095.214-.167.307a.92.92 0 0 0-.745-.366.824.824 0 0 0-.685.31c-.154.182-.24.412-.244.65a.85.85 0 0 0 .227.602c.218.21.472.38.75.502.242.106.467.247.669.418a.606.606 0 0 1 .167.442.658.658 0 0 1-.157.425.581.581 0 0 1-.478.193c-.49 0-.832-.326-1.022-.98h-.168v1.132h.168a.948.948 0 0 1 .184-.362 1.136 1.136 0 0 0 .846.392 1.04 1.04 0 0 0 .747-.282.963.963 0 0 0 .296-.732 1.307 1.307 0 0 0-.16-.598 1.829 1.829 0 0 0-.872-.631zM98.518 63.092a8.512 8.512 0 0 1-.016-.707v-2.26h-1.204v.194h.088a.596.596 0 0 1 .394.09c.06.056.098.131.107.213.008.081.012.31.012.685v.778c.011.232-.025.463-.107.68-.092.182-.23.337-.402.45-.177.135-.394.21-.618.212a.684.684 0 0 1-.4-.12.502.502 0 0 1-.214-.279 2.218 2.218 0 0 1-.042-.513v-2.39h-1.171v.194c.14-.01.28.01.41.063a.26.26 0 0 1 .132.196c.02.242.027.486.02.73v1.17c-.011.233.022.467.1.687a.851.851 0 0 0 .364.385c.185.107.396.161.61.157.257.002.51-.067.73-.202.237-.153.438-.359.585-.601-.016.274.034.547.143.799h.05c.3-.101.617-.147.934-.135v-.193a.74.74 0 0 1-.385-.071.283.283 0 0 1-.12-.212zM105.594 63.118a7.073 7.073 0 0 1-.02-.728v-1.077a2.677 2.677 0 0 0-.077-.73.775.775 0 0 0-.334-.422 1.212 1.212 0 0 0-.676-.172c-.242 0-.481.06-.694.176a2.198 2.198 0 0 0-.635.534 2.289 2.289 0 0 0-.11-.711h-.12a5.393 5.393 0 0 1-.947.193v.193a.91.91 0 0 1 .419.066.27.27 0 0 1 .135.193c.021.242.029.486.023.73v1.026a5.41 5.41 0 0 1-.028.753.25.25 0 0 1-.05.106.25.25 0 0 1-.091.073.963.963 0 0 1-.404.059v.193h1.741v-.193a.9.9 0 0 1-.418-.066.266.266 0 0 1-.135-.195 6.099 6.099 0 0 1-.023-.728v-1.405c.138-.216.317-.402.527-.549.173-.118.377-.181.586-.183a.709.709 0 0 1 .445.135.551.551 0 0 1 .214.308c.033.194.046.39.04.586v1.11c0 .385-.004.616-.013.695a.327.327 0 0 1-.105.206.61.61 0 0 1-.396.088h-.084v.194h1.763v-.194a.893.893 0 0 1-.41-.065.263.263 0 0 1-.084-.085.259.259 0 0 1-.039-.114zM112.669 63.118a6.802 6.802 0 0 1-.021-.728v-1.077a2.676 2.676 0 0 0-.076-.73.777.777 0 0 0-.335-.422 1.21 1.21 0 0 0-.675-.172c-.242 0-.481.06-.694.176a2.21 2.21 0 0 0-.635.534 2.318 2.318 0 0 0-.109-.711h-.114a5.4 5.4 0 0 1-.946.193v.193a.902.902 0 0 1 .418.066.274.274 0 0 1 .135.193c.022.242.029.486.023.73v1.026a5.41 5.41 0 0 1-.028.753.26.26 0 0 1-.141.18.963.963 0 0 1-.404.058v.193h1.741v-.193a.902.902 0 0 1-.418-.066.267.267 0 0 1-.135-.195 6.1 6.1 0 0 1-.023-.728v-1.405c.138-.216.317-.402.528-.549.172-.118.376-.181.585-.183a.708.708 0 0 1 .444.134.546.546 0 0 1 .214.31c.033.193.046.389.04.585v1.11c0 .385-.004.616-.012.695a.329.329 0 0 1-.106.206.607.607 0 0 1-.395.088h-.083v.194h1.762v-.194a.89.89 0 0 1-.41-.065.267.267 0 0 1-.13-.2zM119.343 63.354a.21.21 0 0 1-.219-.139 2.398 2.398 0 0 1-.05-.627v-1.392a1.72 1.72 0 0 0-.094-.656.879.879 0 0 0-.389-.383 2.158 2.158 0 0 0-1.889.107.734.734 0 0 0-.34.515c0 .163.085.245.256.245.191 0 .309-.144.353-.43.045-.286.279-.425.703-.418a.92.92 0 0 1 .509.126.527.527 0 0 1 .239.287c.038.17.053.343.046.517v.167l-.651.265a5.21 5.21 0 0 0-1.168.631.937.937 0 0 0-.422.753.637.637 0 0 0 .251.535.933.933 0 0 0 .601.201c.216-.007.427-.059.621-.151.271-.124.528-.274.768-.45.019.17.095.329.216.45.126.106.288.16.452.151.446 0 .682-.24.706-.72h-.155c-.043.277-.158.416-.344.416zm-.875-.521c-.181.15-.378.281-.586.39a1.055 1.055 0 0 1-.459.13.456.456 0 0 1-.361-.162.634.634 0 0 1-.139-.426c0-.447.363-.817 1.088-1.11l.458-.185-.001 1.363zM126.266 63.126a6.463 6.463 0 0 1-.024-.736v-.95a2.984 2.984 0 0 0-.083-.837.821.821 0 0 0-.364-.435 1.298 1.298 0 0 0-.705-.177 1.38 1.38 0 0 0-.688.177 1.774 1.774 0 0 0-.565.53V57.79h-.089a2.89 2.89 0 0 1-1.088.177v.193c.25 0 .408.047.474.14.087.208.121.434.099.66v3.43c0 .384-.005.616-.015.696a.33.33 0 0 1-.105.207.608.608 0 0 1-.393.083h-.088v.194h1.753v-.194a.808.808 0 0 1-.399-.069.268.268 0 0 1-.128-.204 7.387 7.387 0 0 1-.019-.716v-1.38c.106-.223.263-.42.458-.573a.972.972 0 0 1 .586-.192.782.782 0 0 1 .469.135c.118.08.203.201.238.34.04.21.057.422.05.635v1.035c0 .382-.005.613-.014.692a.342.342 0 0 1-.106.209.605.605 0 0 1-.397.088h-.084v.194h1.779v-.194a.989.989 0 0 1-.418-.06.263.263 0 0 1-.09-.08.26.26 0 0 1-.044-.11zM138.182 60.32c.283.011.425.085.425.222a1.812 1.812 0 0 1-.122.374l-.757 1.957-1.036-2.747h-.167l-1.068 2.747-.699-1.847a2.196 2.196 0 0 1-.167-.492.163.163 0 0 1 .021-.099.163.163 0 0 1 .075-.068.92.92 0 0 1 .361-.049v-.193h-1.573v.193a.494.494 0 0 1 .353.093c.116.173.207.362.27.56l1.052 2.734h.184l1.048-2.734 1.027 2.734h.189l1.072-2.734.093-.244a.662.662 0 0 1 .213-.331.61.61 0 0 1 .317-.078v-.193h-1.119l.008.195zM145.251 63.354a.21.21 0 0 1-.218-.139 2.315 2.315 0 0 1-.05-.627v-1.392a1.722 1.722 0 0 0-.095-.656.874.874 0 0 0-.389-.383 2.151 2.151 0 0 0-1.888.107.737.737 0 0 0-.341.515c0 .163.086.245.257.245.191 0 .308-.144.353-.43.045-.286.279-.425.703-.418a.922.922 0 0 1 .509.126.536.536 0 0 1 .239.287c.037.17.053.343.046.517v.167l-.652.265c-.416.16-.809.372-1.171.631a.93.93 0 0 0-.423.753.656.656 0 0 0 .251.535.935.935 0 0 0 .602.201c.215-.007.426-.059.621-.151.27-.124.527-.274.767-.45.019.17.096.329.217.45.126.106.288.16.452.151.447 0 .682-.24.707-.72h-.155c-.043.277-.156.416-.342.416zm-.875-.521c-.181.15-.377.281-.586.39-.14.078-.297.123-.458.13a.45.45 0 0 1-.362-.162.633.633 0 0 1-.138-.426c0-.447.362-.817 1.087-1.11l.459-.185-.002 1.363zM150.994 60.32c.311.005.466.078.466.218-.045.16-.102.316-.172.467l-.799 1.915-.946-2.015a1.81 1.81 0 0 1-.168-.413c0-.106.14-.164.419-.172v-.193h-1.582v.193a.602.602 0 0 1 .388.097c.122.136.219.293.286.463l1.295 2.776-.328.82a.819.819 0 0 1-.167.29c-.105.08-.22.146-.343.194-.292.131-.438.292-.438.483 0 .168.091.251.274.251a.486.486 0 0 0 .37-.191 2.82 2.82 0 0 0 .387-.722l1.535-3.706c.077-.216.186-.42.324-.603a.586.586 0 0 1 .413-.149v-.193h-1.212l-.002.19z" fill="#fff"/>
    </g>
    <defs>
        <clipPath id="y3piimixaa">
            <path fill="#fff" d="M0 0h202v65.692H0z"/>
        </clipPath>
    </defs>
</svg>
