<svg width="115" height="118" viewBox="0 0 115 118" fill="none" xmlns="http://www.w3.org/2000/svg">
    <path d="M13.15 14.981a.3.3 0 0 1-.209-.086l-1.308-1.3a.301.301 0 0 1-.042-.459.3.3 0 0 1 .46.04l1.308 1.3a.3.3 0 0 1-.209.5v.005zM17.73 19.546a.293.293 0 0 1-.209-.086l-1.309-1.3a.3.3 0 1 1 .417-.419l1.308 1.3a.3.3 0 0 1-.209.5l.002.005zM11.842 19.546a.3.3 0 0 1-.209-.5l1.308-1.3a.3.3 0 0 1 .418.418l-1.309 1.3a.293.293 0 0 1-.208.082zM16.422 14.982a.3.3 0 0 1-.21-.505l1.31-1.3a.298.298 0 0 1 .348-.108.3.3 0 0 1 .069.527l-1.308 1.3a.3.3 0 0 1-.209.086zM98.319 41.342a3.2 3.2 0 1 1 .01-6.399 3.2 3.2 0 0 1-.01 6.399zm0-5.624a2.432 2.432 0 0 0-2.434 2.439 2.423 2.423 0 0 0 .721 1.713 2.44 2.44 0 0 0 3.968-.806 2.432 2.432 0 0 0-.009-1.858 2.428 2.428 0 0 0-2.246-1.488z" fill="#DCBA4E"/>
    <path d="M96.428 102.852a1.886 1.886 0 0 1-1.849-1.522 1.89 1.89 0 0 1 2.4-2.175 1.889 1.889 0 0 1-.551 3.697zm0-3.321a1.436 1.436 0 0 0-1.325 1.989 1.433 1.433 0 0 0 1.333.878 1.442 1.442 0 0 0 1.323-.891 1.433 1.433 0 0 0-1.331-1.976z" fill="#CF0036"/>
    <path d="M59.199 3.938a2.734 2.734 0 0 0-4.477 3.138c1.83 2.612 1.233 4.142 1.233 4.142l6.715-4.706s-1.642.038-3.472-2.573M61.006 9.906a.91.91 0 0 1-1.29.904" stroke="#CF0036" stroke-width=".5" stroke-linecap="round" stroke-linejoin="round"/>
    <path d="M112.567 81.497a2.732 2.732 0 1 0-5.28-1.416c-.826 3.08-2.382 3.606-2.382 3.606l7.92 2.124s-1.085-1.234-.259-4.315M109.155 86.715a.912.912 0 0 1-1.522-.408" stroke="#DCBA4E" stroke-width=".5" stroke-linecap="round" stroke-linejoin="round"/>
    <path d="M9.224 50.774a2.735 2.735 0 1 0-5.035-2.137c-1.247 2.937-2.862 3.241-2.862 3.241l7.552 3.206s-.903-1.373.344-4.31M5.116 55.468a.912.912 0 0 1-1.45-.615" stroke="#CF0036" stroke-width=".5" stroke-linecap="round" stroke-linejoin="round"/>
    <path d="M32.534 19.547h40a8 8 0 0 1 8 8v82a8 8 0 0 1-8 8h-40a8.001 8.001 0 0 1-8-8v-82a8 8 0 0 1 8-8z" fill="url(#086pbzm48a)"/>
    <path d="M62.534 52.547h23a9 9 0 0 1 9 9v26h-32a9 9 0 0 1-9-9v-17a9 9 0 0 1 9-9z" fill="#fff"/>
    <path d="M62.534 52.797h23a8.75 8.75 0 0 1 8.75 8.75v25.75h-31.75a8.75 8.75 0 0 1-8.75-8.75v-17a8.75 8.75 0 0 1 8.75-8.75z" stroke="#202020" stroke-width=".5"/>
    <path d="m64.181 74.093.124-1.925-1.61 1.08-.666-1.174 1.735-.845-1.736-.845.667-1.174 1.61 1.08-.124-1.925h1.338l-.13 1.924L67 69.21l.666 1.174-1.73.845 1.73.845L67 73.247l-1.61-1.079.129 1.924H64.18zm7.903 0 .124-1.925-1.61 1.08-.667-1.174 1.735-.845-1.735-.845.666-1.174 1.61 1.08-.123-1.925h1.337l-.13 1.924 1.612-1.079.666 1.174-1.73.845 1.73.845-.666 1.173-1.611-1.079.129 1.924h-1.337zm7.902 0 .124-1.925-1.61 1.08-.667-1.174 1.735-.845-1.735-.845.666-1.174 1.611 1.08-.124-1.925h1.337l-.129 1.924 1.61-1.079.667 1.174-1.73.845 1.73.845-.666 1.173-1.611-1.079.13 1.924h-1.338zm7.902 0 .125-1.925-1.611 1.08-.666-1.174 1.735-.845-1.735-.845.666-1.174 1.61 1.08-.124-1.925h1.338l-.13 1.924 1.611-1.079.666 1.174-1.73.845 1.73.845-.666 1.173-1.61-1.079.129 1.924h-1.338z" fill="#202020"/>
    <path d="M65.034 30.047h-26" stroke="#fff" stroke-width="1.5" stroke-linecap="round"/>
    <path d="M80.034 104.047h-55" stroke="#fff" stroke-width=".5" stroke-linecap="round"/>
    <path d="M52.534 108.047c-1.93 0-3.5 1.57-3.5 3.5s1.57 3.5 3.5 3.5 3.5-1.57 3.5-3.5-1.57-3.5-3.5-3.5zm0-.5a4 4 0 1 1 0 8 4 4 0 0 1 0-8z" fill="#fff"/>
    <defs>
        <linearGradient id="086pbzm48a" x1="29.238" y1="112.843" x2="99.903" y2="69.303" gradientUnits="userSpaceOnUse">
            <stop stop-color="#CF0036"/>
            <stop offset="1" stop-color="#FF2F65"/>
        </linearGradient>
    </defs>
</svg>
