<svg width="115" height="118" viewBox="0 0 115 118" fill="none" xmlns="http://www.w3.org/2000/svg">
    <path d="M13.228 14.981a.3.3 0 0 1-.21-.086l-1.307-1.3a.3.3 0 1 1 .417-.418l1.309 1.3a.3.3 0 0 1-.21.5v.004zM17.808 19.546a.292.292 0 0 1-.21-.086l-1.308-1.3a.3.3 0 1 1 .417-.419l1.308 1.3a.3.3 0 0 1-.21.5l.003.005zM11.92 19.546a.3.3 0 0 1-.21-.5l1.309-1.3a.3.3 0 0 1 .418.418l-1.309 1.3a.293.293 0 0 1-.208.082zM16.5 14.982a.3.3 0 0 1-.21-.505l1.31-1.3a.3.3 0 1 1 .417.419l-1.308 1.3a.3.3 0 0 1-.21.086zM98.397 41.342a3.2 3.2 0 1 1 .01-6.399 3.2 3.2 0 0 1-.01 6.399zm0-5.624a2.432 2.432 0 0 0-2.434 2.439 2.425 2.425 0 0 0 .72 1.713 2.441 2.441 0 0 0 3.969-.806 2.432 2.432 0 0 0-.009-1.858 2.428 2.428 0 0 0-2.246-1.488z" fill="#DCBA4E"/>
    <path d="M96.506 102.852a1.886 1.886 0 0 1-1.849-1.522 1.89 1.89 0 0 1 2.4-2.175 1.889 1.889 0 0 1-.551 3.697zm0-3.321a1.436 1.436 0 0 0-1.325 1.989 1.433 1.433 0 0 0 1.332.878 1.442 1.442 0 0 0 1.324-.891 1.43 1.43 0 0 0-.32-1.561 1.435 1.435 0 0 0-1.011-.415z" fill="#CF0036"/>
    <path d="M59.277 3.938A2.734 2.734 0 0 0 54.8 7.076c1.83 2.612 1.233 4.142 1.233 4.142l6.715-4.706s-1.642.038-3.472-2.573M61.084 9.906a.91.91 0 0 1-1.29.904" stroke="#CF0036" stroke-width=".5" stroke-linecap="round" stroke-linejoin="round"/>
    <path d="M112.645 81.497a2.732 2.732 0 1 0-5.28-1.416c-.826 3.08-2.383 3.606-2.383 3.606l7.921 2.124s-1.085-1.234-.259-4.315M109.233 86.715a.912.912 0 0 1-1.523-.408" stroke="#DCBA4E" stroke-width=".5" stroke-linecap="round" stroke-linejoin="round"/>
    <path d="M9.302 50.774a2.735 2.735 0 0 0-5.035-2.137c-1.247 2.937-2.862 3.241-2.862 3.241l7.552 3.206s-.903-1.373.344-4.31M5.194 55.468a.912.912 0 0 1-1.45-.615" stroke="#CF0036" stroke-width=".5" stroke-linecap="round" stroke-linejoin="round"/>
    <path d="M32.612 19.547h40a8 8 0 0 1 8 8v82a8 8 0 0 1-8 8h-40a8.001 8.001 0 0 1-8-8v-82a8 8 0 0 1 8-8z" fill="url(#9suopmz1aa)"/>
    <path d="M62.612 52.547h23a9 9 0 0 1 9 9v26h-32a9 9 0 0 1-9-9v-17a9 9 0 0 1 9-9z" fill="#fff"/>
    <path d="M62.612 52.797h23a8.75 8.75 0 0 1 8.75 8.75v25.75h-31.75a8.75 8.75 0 0 1-8.75-8.75v-17a8.75 8.75 0 0 1 8.75-8.75z" stroke="#202020" stroke-width=".5"/>
    <path d="M65.112 30.047h-26" stroke="#fff" stroke-width="1.5" stroke-linecap="round"/>
    <path d="M80.112 104.047h-55" stroke="#fff" stroke-width=".5" stroke-linecap="round"/>
    <path d="M52.612 108.047c-1.93 0-3.5 1.57-3.5 3.5s1.57 3.5 3.5 3.5 3.5-1.57 3.5-3.5-1.57-3.5-3.5-3.5zm0-.5a4 4 0 1 1 0 8 4 4 0 0 1 0-8z" fill="#fff"/>
    <path d="M68.62 68.547a2 2 0 0 0-4 0v1a2 2 0 1 0 4 0v-1z" fill="#202020"/>
    <path d="M68.37 68.547a1.75 1.75 0 1 0-3.5 0v1a1.75 1.75 0 1 0 3.5 0v-1z" stroke="#202020" stroke-width=".5"/>
    <path d="M74.62 72.547a2 2 0 1 0-4 0 2 2 0 0 0 4 0z" fill="#202020"/>
    <path d="M74.37 72.547a1.75 1.75 0 1 0-3.5 0 1.75 1.75 0 0 0 3.5 0z" stroke="#202020" stroke-width=".5"/>
    <path d="M79.62 68.047a1.5 1.5 0 0 0-3 0v2a1.5 1.5 0 1 0 3 0v-2z" fill="#202020"/>
    <path d="M79.37 68.047a1.25 1.25 0 0 0-2.5 0v2a1.25 1.25 0 1 0 2.5 0v-2z" stroke="#202020" stroke-width=".5"/>
    <path d="M84.62 72.547a2 2 0 1 0-4 0 2 2 0 0 0 4 0z" fill="#202020"/>
    <path d="M84.37 72.547a1.75 1.75 0 1 0-3.5 0 1.75 1.75 0 0 0 3.5 0z" stroke="#202020" stroke-width=".5"/>
    <defs>
        <linearGradient id="9suopmz1aa" x1="29.316" y1="112.843" x2="99.981" y2="69.303" gradientUnits="userSpaceOnUse">
            <stop stop-color="#CF0036"/>
            <stop offset="1" stop-color="#FF2F65"/>
        </linearGradient>
    </defs>
</svg>
