<svg width="135" height="155" viewBox="0 0 135 155" fill="none" xmlns="http://www.w3.org/2000/svg">
    <path d="M89.33 22.804v117.137a2.958 2.958 0 0 1-1.829 2.738c-.36.149-.745.225-1.134.225H28.789a2.964 2.964 0 0 1-2.962-2.963V22.804a2.962 2.962 0 0 1 2.962-2.963h57.578a2.96 2.96 0 0 1 2.963 2.963z" stroke="#202020" stroke-width=".5" stroke-miterlimit="10" stroke-dasharray="4 4"/>
    <path d="M93.119 22.804v117.137a2.96 2.96 0 0 1-2.963 2.963H32.579a2.962 2.962 0 0 1-2.963-2.963V22.804a2.96 2.96 0 0 1 2.963-2.963h57.578a2.959 2.959 0 0 1 2.962 2.963z" fill="#CF0036"/>
    <path d="M88.758 34.949v92.845a3.32 3.32 0 0 1-3.2 3.424H37.181a3.318 3.318 0 0 1-3.2-3.424V34.949a3.319 3.319 0 0 1 3.2-3.423h48.373a3.319 3.319 0 0 1 3.204 3.423z" fill="#fff"/>
    <path d="M69.369 25.487h-16a.286.286 0 0 1 0-.571h16a.286.286 0 0 1 0 .571z" fill="#202020"/>
    <path d="M86.173 131.905H36.562a4.045 4.045 0 0 1-3.972-4.109V34.95a4.047 4.047 0 0 1 3.972-4.112h49.609a4.047 4.047 0 0 1 3.972 4.109v92.845a4.045 4.045 0 0 1-3.97 4.113zM36.562 32.212a2.675 2.675 0 0 0-2.6 2.738v92.845a2.674 2.674 0 0 0 2.6 2.738h49.609a2.677 2.677 0 0 0 2.6-2.738V34.95a2.674 2.674 0 0 0-2.6-2.738H36.562z" fill="#fff"/>
    <path d="M93.378 22.804V123.16h-.515V22.804a2.71 2.71 0 0 0-2.706-2.706H32.579a2.71 2.71 0 0 0-2.706 2.706v80.475h-.515V22.804a3.225 3.225 0 0 1 3.22-3.225h57.58a3.225 3.225 0 0 1 3.22 3.225zM39.2 143.161h-6.621a3.222 3.222 0 0 1-3.22-3.22v-13.546h.514v13.546a2.708 2.708 0 0 0 2.705 2.706h6.62l.002.514zM71.868 142.647H46.55v.514h25.318v-.514z" fill="#4E4E4E"/>
    <path d="M118.522 143.652c0 .884-6.5 1.6-14.511 1.6s-14.511-.72-14.511-1.6c0-.016.003-.032.007-.048v-4.338h29.005v4.327a.17.17 0 0 1 .01.059z" fill="#DCBA4E"/>
    <path d="M104.01 140.909c8.014 0 14.51-.718 14.51-1.604 0-.886-6.496-1.604-14.51-1.604s-14.51.718-14.51 1.604c0 .886 6.496 1.604 14.51 1.604z" fill="#FCC659"/>
    <path d="M121.951 138.419c0 .885-6.5 1.6-14.511 1.6s-14.511-.72-14.511-1.6c0-.016.003-.032.007-.048v-4.338h29.005v4.327a.17.17 0 0 1 .01.059z" fill="#DCBA4E"/>
    <path d="M107.439 135.676c8.014 0 14.51-.718 14.51-1.604 0-.886-6.496-1.604-14.51-1.604s-14.51.718-14.51 1.604c0 .886 6.496 1.604 14.51 1.604z" fill="#FCC659"/>
    <path d="M118.522 133.185c0 .885-6.5 1.6-14.511 1.6s-14.511-.72-14.511-1.6c0-.016.003-.032.007-.048V128.8h29.005v4.327c.007.019.01.038.01.058z" fill="#DCBA4E"/>
    <path d="M104.01 130.442c8.014 0 14.51-.718 14.51-1.604 0-.886-6.496-1.604-14.51-1.604s-14.51.718-14.51 1.604c0 .886 6.496 1.604 14.51 1.604z" fill="#FCC659"/>
    <path d="M104.016 145.426c-5.9 0-14.683-.473-14.683-1.776h.343c0 .5 4.925 1.434 14.34 1.434h1.018v.343c-.337-.002-.678-.001-1.018-.001zM109.766 145.295l-.016-.342a77.189 77.189 0 0 0 4-.287l.034.341c-1.193.12-2.542.217-4.018.288zM98.285 139.808c-5.453-.5-5.453-1.184-5.453-1.41h.343c0 .167.923.684 5.141 1.068l-.031.342zM107.514 140.174c-1.631 0-3.233-.03-4.762-.088l.013-.343c2.73.1 5.748.117 8.56.032l.01.343c-1.244.037-2.531.056-3.821.056zM114.939 139.95l-.023-.342c1.548-.1 2.9-.233 4.011-.391l.048.339a55.1 55.1 0 0 1-4.036.394z" fill="#4E4E4E"/>
    <path d="M94.254 130.206c-4.836-.493-4.836-1.116-4.836-1.351h.343c0 .005.123.56 4.528 1.01l-.035.341zM104.1 130.632c-1.668 0-3.3-.031-4.849-.092l.013-.343c1.545.061 3.172.091 4.836.091 2.978 0 5.838-.1 8.271-.287l.026.342c-2.441.189-5.31.289-8.297.289z" fill="#202020"/>
    <path d="M123.665 127.952c0 .885-6.5 1.6-14.511 1.6s-14.511-.72-14.511-1.6a.24.24 0 0 1 .007-.048v-4.338h29v4.327a.177.177 0 0 1 .015.059z" fill="#DCBA4E"/>
    <path d="M109.153 125.209c8.014 0 14.51-.718 14.51-1.604 0-.886-6.496-1.604-14.51-1.604s-14.51.718-14.51 1.604c0 .886 6.496 1.604 14.51 1.604z" fill="#FCC659"/>
    <path d="M120.972 123.605c0 .6-5.292 1.079-11.819 1.079-6.527 0-11.819-.483-11.819-1.079s5.292-1.079 11.819-1.079c6.527 0 11.819.483 11.819 1.079z" fill="#DCBA4E"/>
    <path d="M98.065 80.339V122H61.779a2.402 2.402 0 0 1-2.57-2.172V82.507a2.4 2.4 0 0 1 2.57-2.168h36.286z" fill="#A3B2CE" opacity=".38"/>
    <path d="M69.192 118.802h48.759a6.786 6.786 0 0 0 6.786-6.786v-28.09a6.786 6.786 0 0 0-6.786-6.786H69.192a6.786 6.786 0 0 0-6.786 6.786v28.09a6.786 6.786 0 0 0 6.786 6.786z" fill="#fff" stroke="#202020" stroke-miterlimit="10"/>
    <g opacity=".6" fill="#CF0036">
        <path d="M77.09 102.605h-8.433a1.59 1.59 0 1 0 0 3.182h8.433a1.59 1.59 0 1 0 0-3.182zM90.889 102.605h-8.433a1.59 1.59 0 1 0 0 3.182h8.433a1.59 1.59 0 1 0 0-3.182zM104.688 102.605h-8.433a1.59 1.59 0 1 0 0 3.182h8.433a1.59 1.59 0 1 0 0-3.182zM118.487 102.605h-8.433a1.59 1.59 0 1 0 0 3.182h8.433a1.59 1.59 0 1 0 0-3.182z"/>
    </g>
    <path d="M118.487 108.829h-11.983a1.59 1.59 0 1 0 0 3.182h11.983a1.59 1.59 0 1 0 0-3.182zM69.716 89.438v-4.179a1.658 1.658 0 0 1 1.656-1.657h8.118a1.659 1.659 0 0 1 1.657 1.657v4.179a1.658 1.658 0 0 1-1.657 1.656h-8.118a1.658 1.658 0 0 1-1.656-1.656zm1.656-5.391a1.213 1.213 0 0 0-1.212 1.212v4.179a1.213 1.213 0 0 0 1.212 1.212h8.118a1.213 1.213 0 0 0 1.212-1.212v-4.179a1.213 1.213 0 0 0-1.212-1.212h-8.118zM118.152 86.765a.203.203 0 0 1 .059-.142 4.687 4.687 0 0 0 0-6.622.2.2 0 0 1 0-.285.202.202 0 0 1 .285 0 5.091 5.091 0 0 1 0 7.191.2.2 0 0 1-.344-.142z" fill="#CF0036"/>
    <path d="M117.145 81.01a.198.198 0 0 1 .124-.188.2.2 0 0 1 .22.046 3.463 3.463 0 0 1 0 4.889.201.201 0 0 1-.285-.285 3.057 3.057 0 0 0 0-4.319.195.195 0 0 1-.059-.143z" fill="#CF0036"/>
    <path d="M116.178 84.547a.203.203 0 0 1 .059-.142 1.544 1.544 0 0 0 0-2.182.2.2 0 0 1 0-.285.202.202 0 0 1 .285 0 1.95 1.95 0 0 1 0 2.752.201.201 0 0 1-.22.046.201.201 0 0 1-.124-.189z" fill="#CF0036"/>
    <path d="M127.068 85.824h-.434v-8.258a1.956 1.956 0 0 0-1.952-1.953h-17.745v-.434h17.745a2.39 2.39 0 0 1 2.387 2.387l-.001 8.258zM127.07 91.675h-.434v4.776h.434v-4.776zM84.699 75.179H73.33v.434h11.368v-.434z" fill="#202020"/>
    <path d="m80.276 70.963 11.279 7.638 9.028-9.67-4.239.424c-.052-.291-.114-.581-.172-.869l-.089-.433a4.193 4.193 0 0 0-.049-.216l-.322-1.253a27.48 27.48 0 0 0-4.889-9.566 26.7 26.7 0 0 0-7.935-6.761 25.814 25.814 0 0 0-9.625-3.093 24.89 24.89 0 0 0-9.759.805 24.162 24.162 0 0 0-8.413 4.357 23.409 23.409 0 0 0-5.893 7.007 22.547 22.547 0 0 0-2.645 8.434 21.71 21.71 0 0 1 4.014-7.515 20.917 20.917 0 0 1 6.354-5.183 20.027 20.027 0 0 1 7.551-2.25 19.1 19.1 0 0 1 7.512.814 18.343 18.343 0 0 1 6.337 3.488 17.588 17.588 0 0 1 4.295 5.421 20.044 20.044 0 0 1 1.823 6.354c.066.47.153 1.674.153 1.674l-4.316.393zM122.362 63.708a2.5 2.5 0 0 1 1.136 1.192 2.51 2.51 0 0 1 1.138-1.194 2.502 2.502 0 0 1-1.138-1.192 2.5 2.5 0 0 1-1.136 1.194zM128.452 69.488c.292.15.525.394.66.693.136-.3.369-.544.661-.694a1.456 1.456 0 0 1-.658-.699 1.456 1.456 0 0 1-.663.7z" fill="#CF0036"/>
    <path d="M37.296 26.466c.652.334 1.172.88 1.475 1.547a3.254 3.254 0 0 1 1.477-1.55 3.246 3.246 0 0 1-1.477-1.547 3.252 3.252 0 0 1-1.475 1.55zM83.102 23.8c.47.242.845.635 1.063 1.116a2.346 2.346 0 0 1 1.064-1.117 2.344 2.344 0 0 1-1.064-1.115 2.342 2.342 0 0 1-1.063 1.117zM84.166 57.703c.47.241.845.634 1.063 1.115a2.346 2.346 0 0 1 1.064-1.117 2.343 2.343 0 0 1-1.064-1.115 2.343 2.343 0 0 1-1.063 1.117z" fill="#FEE3A1"/>
    <path d="M45.49 137.021c.47.241.845.634 1.063 1.115a2.345 2.345 0 0 1 1.064-1.117 2.343 2.343 0 0 1-1.064-1.115 2.343 2.343 0 0 1-1.063 1.117z" fill="#FFE6A6"/>
    <path d="M82.403 62.651a17.436 17.436 0 0 0-4.236-5.347 18.228 18.228 0 0 0-6.255-3.442 19 19 0 0 0-7.418-.8c-1.25.114-2.488.349-3.694.7l-.134-.461a20.038 20.038 0 0 1 3.785-.715c2.565-.231 5.15.05 7.607.825a18.71 18.71 0 0 1 6.42 3.533 17.92 17.92 0 0 1 4.354 5.5l-.429.207zM50.752 60.404l-.37-.305a21.277 21.277 0 0 1 6.427-5.243l.224.424a20.799 20.799 0 0 0-6.281 5.124zM95.48 66.649a27.4 27.4 0 0 0-4.846-9.482 26.618 26.618 0 0 0-7.864-6.7 25.704 25.704 0 0 0-9.535-3.065l.054-.477a26.18 26.18 0 0 1 9.715 3.122 27.098 27.098 0 0 1 8.007 6.822 27.881 27.881 0 0 1 4.931 9.65l-.462.13zM91.59 78.915l-8.583-5.812.269-.4 8.244 5.583 6.726-7.2.351.327-7.007 7.502z" fill="#202020"/>
    <path d="M122.961 38.543c4.2-2.623 6.384-6.05 7.448-12.9.706 1.951.907 4.05.585 6.1l2.288-1.274c.053 1.858-.307 4.1-1.862 5.52l2.873-1.327c-1.424 3.148-3.085 9.022-9.363 6.422l-1.969-2.541z" fill="#fff"/>
    <path d="M127.783 41.892a7.642 7.642 0 0 1-2.914-.654.155.155 0 0 1-.065-.05l-1.969-2.547a.163.163 0 0 1-.029-.06.162.162 0 0 1 .023-.126.151.151 0 0 1 .047-.046c4.349-2.713 6.349-6.178 7.375-12.786a.159.159 0 0 1 .309-.021c.667 1.872.889 3.875.646 5.848l2-1.112a.16.16 0 0 1 .213.057c.014.023.022.05.023.077a7.86 7.86 0 0 1-1.358 5.042l2.143-.99a.16.16 0 0 1 .212.21c-.142.314-.286.655-.439 1.016-1.077 2.544-2.6 6.142-6.217 6.142zm-2.753-.932c5.471 2.242 7.323-2.135 8.677-5.333l.271-.636-2.491 1.15a.158.158 0 0 1-.2-.056.158.158 0 0 1-.025-.108.156.156 0 0 1 .051-.098 6.81 6.81 0 0 0 1.815-5.134l-2.056 1.145a.16.16 0 0 1-.233-.169 11.392 11.392 0 0 0-.387-5.348c-1.056 6.113-3.131 9.587-7.257 12.212l1.835 2.375z" fill="#202020"/>
    <path d="M109.553 40.299c-4.2-2.623-6.384-6.05-7.448-12.9a12.314 12.314 0 0 0-.585 6.1l-2.288-1.274c-.053 1.857.308 4.1 1.862 5.519l-2.873-1.327c1.424 3.148 3.085 9.022 9.363 6.422l1.969-2.54z" fill="#fff"/>
    <path d="M104.735 43.646c-3.618 0-5.14-3.6-6.216-6.141-.153-.361-.3-.7-.439-1.016a.159.159 0 0 1 .212-.21l2.143.99a7.863 7.863 0 0 1-1.358-5.043.16.16 0 0 1 .236-.134l2 1.112a12.775 12.775 0 0 1 .646-5.848.16.16 0 0 1 .163-.112.158.158 0 0 1 .146.133c1.027 6.608 3.026 10.073 7.375 12.786a.163.163 0 0 1 .048.046c.012.018.021.039.025.06a.163.163 0 0 1-.002.067.15.15 0 0 1-.029.059l-1.969 2.547a.157.157 0 0 1-.065.05c-.919.408-1.91.63-2.916.654zm-6.195-6.9c.089.2.178.417.271.636 1.353 3.2 3.206 7.576 8.676 5.333l1.836-2.375c-4.127-2.625-6.2-6.1-7.257-12.212a11.38 11.38 0 0 0-.387 5.348.158.158 0 0 1-.234.169L99.389 32.5a6.798 6.798 0 0 0 1.815 5.134.161.161 0 0 1 .026.206.159.159 0 0 1-.2.056l-2.49-1.15z" fill="#202020"/>
    <path d="M116.574 53.502c5.487 0 9.935-4.437 9.935-9.911 0-5.474-4.448-9.911-9.935-9.911s-9.935 4.437-9.935 9.911c0 5.474 4.448 9.911 9.935 9.911z" fill="#4E4E4E"/>
    <path d="M116.963 52.866c5.324 0 9.64-4.305 9.64-9.616 0-5.31-4.316-9.616-9.64-9.616-5.324 0-9.64 4.305-9.64 9.616 0 5.31 4.316 9.616 9.64 9.616z" fill="#fff"/>
    <path d="M116.955 53.029a9.8 9.8 0 0 1-9.729-8.682 9.777 9.777 0 0 1 8.64-10.808 9.802 9.802 0 0 1 10.834 8.62 9.778 9.778 0 0 1-2.081 7.194 9.78 9.78 0 0 1-7.664 3.676zm.015-19.234a9.479 9.479 0 1 0-.006 18.957 9.479 9.479 0 0 0 .006-18.957z" fill="#202020"/>
    <path d="M116.964 51.32c4.468 0 8.09-3.613 8.09-8.07 0-4.457-3.622-8.07-8.09-8.07s-8.09 3.613-8.09 8.07c0 4.457 3.622 8.07 8.09 8.07z" fill="#fff"/>
    <path d="M124.211 46.994a.161.161 0 0 1-.151-.109.16.16 0 0 1 .009-.121 7.846 7.846 0 0 0 .706-2.14.158.158 0 0 1 .067-.099.158.158 0 0 1 .217.038.159.159 0 0 1 .029.116 8.177 8.177 0 0 1-.734 2.227.158.158 0 0 1-.143.088zM109.941 39.401a.157.157 0 0 1-.126-.062.166.166 0 0 1-.028-.055.161.161 0 0 1 .016-.121 8.261 8.261 0 0 1 14.135-.309.162.162 0 0 1 .021.12.17.17 0 0 1-.071.1.156.156 0 0 1-.176-.005.16.16 0 0 1-.043-.045 7.884 7.884 0 0 0-7.594-3.635 7.965 7.965 0 0 0-6 3.932.16.16 0 0 1-.134.08zM116.957 51.48a8.229 8.229 0 0 1-7.6-11.423.155.155 0 0 1 .087-.085.156.156 0 0 1 .121 0 .157.157 0 0 1 .097.148c0 .021-.004.042-.012.061a7.914 7.914 0 0 0 8.2 10.931.16.16 0 0 1 .176.14.16.16 0 0 1-.005.062.165.165 0 0 1-.076.095.157.157 0 0 1-.059.019 8.395 8.395 0 0 1-.929.052z" fill="#CF0036"/>
    <path d="m116.865 48.996-.149-1.318a5.64 5.64 0 0 1-2.432-.331l.234-1.671a4.95 4.95 0 0 0 2.378.351c.793-.089 1.3-.455 1.238-1.01-.06-.527-.542-.81-1.611-1.042-1.545-.332-2.639-.912-2.791-2.258a2.578 2.578 0 0 1 2.072-2.734l-.149-1.318 1.364-.153.138 1.221a5.052 5.052 0 0 1 2.069.231L119 40.577a4.658 4.658 0 0 0-2.057-.247c-.9.1-1.152.523-1.109.912.052.458.571.695 1.8 1.006 1.721.4 2.475 1.085 2.616 2.334a2.675 2.675 0 0 1-2.186 2.846l.16 1.415-1.359.153zM121.183 50.332a3.679 3.679 0 0 1 1.672 1.754 3.69 3.69 0 0 1 1.674-1.757 3.683 3.683 0 0 1-1.674-1.754 3.683 3.683 0 0 1-1.672 1.757zM108.613 39.496a2.66 2.66 0 0 1 1.21 1.269 2.667 2.667 0 0 1 1.211-1.271 2.667 2.667 0 0 1-1.211-1.269 2.67 2.67 0 0 1-1.21 1.271z" fill="#DCBA4E"/>
    <path d="M58.777 13.056c4.2-2.623 6.384-6.05 7.448-12.9.706 1.952.907 4.05.585 6.1l2.288-1.274c.053 1.858-.307 4.1-1.862 5.52l2.873-1.327c-1.424 3.148-3.085 9.022-9.363 6.422l-1.969-2.541z" fill="#fff"/>
    <path d="M63.599 16.405a7.641 7.641 0 0 1-2.914-.654.156.156 0 0 1-.065-.05l-1.969-2.547a.158.158 0 0 1-.006-.186.159.159 0 0 1 .047-.046c4.349-2.713 6.349-6.178 7.375-12.786a.159.159 0 0 1 .309-.021c.667 1.872.889 3.875.646 5.848l2-1.112a.159.159 0 0 1 .236.134 7.86 7.86 0 0 1-1.358 5.042l2.143-.99a.159.159 0 0 1 .212.21c-.142.314-.286.655-.439 1.016-1.077 2.544-2.6 6.142-6.217 6.142zm-2.753-.932c5.471 2.242 7.323-2.135 8.677-5.333l.271-.636-2.491 1.15a.159.159 0 0 1-.174-.262 6.8 6.8 0 0 0 1.815-5.134l-2.056 1.145a.16.16 0 0 1-.233-.169 11.388 11.388 0 0 0-.387-5.348c-1.056 6.113-3.131 9.587-7.257 12.212l1.835 2.375z" fill="#202020"/>
    <path d="M45.369 14.812c-4.2-2.623-6.384-6.05-7.448-12.9a12.317 12.317 0 0 0-.585 6.1l-2.288-1.274c-.053 1.857.308 4.1 1.862 5.519l-2.873-1.327c1.424 3.148 3.085 9.022 9.363 6.422l1.969-2.54z" fill="#fff"/>
    <path d="M40.551 18.159c-3.618 0-5.14-3.6-6.216-6.141-.153-.361-.3-.7-.439-1.016a.16.16 0 0 1 .212-.21l2.143.99a7.863 7.863 0 0 1-1.358-5.043.16.16 0 0 1 .236-.134l2 1.112a12.775 12.775 0 0 1 .646-5.848.159.159 0 0 1 .309.021c1.027 6.608 3.026 10.073 7.375 12.786a.158.158 0 0 1 .042.232l-1.969 2.547a.159.159 0 0 1-.065.05c-.92.408-1.91.63-2.916.654zm-6.195-6.9c.089.2.178.417.271.636 1.353 3.2 3.206 7.576 8.676 5.333l1.836-2.375c-4.127-2.625-6.2-6.1-7.257-12.212a11.387 11.387 0 0 0-.387 5.348.16.16 0 0 1-.147.19.159.159 0 0 1-.087-.021l-2.056-1.145a6.801 6.801 0 0 0 1.815 5.134.159.159 0 0 1-.174.262l-2.49-1.15z" fill="#202020"/>
    <path d="M52.39 28.015c5.487 0 9.935-4.437 9.935-9.911 0-5.474-4.448-9.911-9.935-9.911s-9.935 4.437-9.935 9.911c0 5.474 4.448 9.911 9.935 9.911z" fill="#202020"/>
    <path d="M52.779 27.379c5.324 0 9.64-4.305 9.64-9.616 0-5.31-4.316-9.616-9.64-9.616-5.324 0-9.64 4.305-9.64 9.616 0 5.31 4.316 9.616 9.64 9.616z" fill="#fff"/>
    <path d="M52.771 27.542a9.8 9.8 0 0 1-9.729-8.682 9.781 9.781 0 0 1 8.64-10.808 9.8 9.8 0 0 1 10.834 8.62 9.78 9.78 0 0 1-8.641 10.808 9.907 9.907 0 0 1-1.104.062zm.015-19.234a9.479 9.479 0 1 0-.007 18.957 9.479 9.479 0 0 0 .007-18.957z" fill="#202020"/>
    <path d="M52.78 25.833c4.468 0 8.09-3.613 8.09-8.07 0-4.457-3.622-8.07-8.09-8.07s-8.09 3.613-8.09 8.07c0 4.457 3.622 8.07 8.09 8.07z" fill="#fff"/>
    <path d="M60.027 21.507a.16.16 0 0 1-.142-.23 7.863 7.863 0 0 0 .706-2.14.159.159 0 0 1 .313.055 8.18 8.18 0 0 1-.734 2.227.156.156 0 0 1-.143.088zM45.757 13.914a.158.158 0 0 1-.154-.117.158.158 0 0 1 .016-.121 8.261 8.261 0 0 1 14.135-.309.16.16 0 0 1-.005.177.16.16 0 0 1-.221.038.16.16 0 0 1-.043-.045 7.885 7.885 0 0 0-7.594-3.635 7.964 7.964 0 0 0-6 3.932.16.16 0 0 1-.134.08zM52.773 25.993a8.23 8.23 0 0 1-7.6-11.423.16.16 0 0 1 .294.002.16.16 0 0 1-.001.122 7.914 7.914 0 0 0 8.2 10.931.159.159 0 1 1 .036.316 8.384 8.384 0 0 1-.93.052z" fill="#CF0036"/>
    <path d="m52.68 23.509-.148-1.318a5.64 5.64 0 0 1-2.432-.331l.234-1.671a4.95 4.95 0 0 0 2.378.351c.793-.089 1.3-.455 1.238-1.01-.06-.527-.542-.81-1.611-1.042-1.545-.332-2.639-.912-2.791-2.258a2.58 2.58 0 0 1 2.072-2.734l-.15-1.318 1.365-.153.138 1.221a5.052 5.052 0 0 1 2.069.231l-.226 1.613a4.656 4.656 0 0 0-2.057-.247c-.9.1-1.152.523-1.109.912.052.458.57.695 1.8 1.006 1.72.4 2.475 1.085 2.616 2.334a2.677 2.677 0 0 1-2.186 2.846l.16 1.415-1.36.153zM56.999 24.845c.74.379 1.329.997 1.672 1.754a3.689 3.689 0 0 1 1.674-1.757 3.685 3.685 0 0 1-1.674-1.754 3.686 3.686 0 0 1-1.672 1.757zM44.429 14.009a2.66 2.66 0 0 1 1.21 1.269 2.67 2.67 0 0 1 1.21-1.271 2.666 2.666 0 0 1-1.21-1.269 2.667 2.667 0 0 1-1.21 1.271z" fill="#DCBA4E"/>
    <path d="M25.805 84.918c4.2-2.623 6.384-6.05 7.448-12.9.706 1.951.907 4.05.585 6.1l2.288-1.274c.053 1.858-.307 4.1-1.862 5.52l2.873-1.327c-1.424 3.148-3.085 9.022-9.363 6.422l-1.97-2.541z" fill="#fff"/>
    <path d="M30.627 88.267a7.642 7.642 0 0 1-2.914-.654.157.157 0 0 1-.065-.05l-1.97-2.547a.16.16 0 0 1 .042-.232c4.349-2.713 6.349-6.178 7.375-12.786a.158.158 0 0 1 .309-.021 12.77 12.77 0 0 1 .646 5.848l2-1.112a.158.158 0 0 1 .213.057.16.16 0 0 1 .023.077 7.86 7.86 0 0 1-1.358 5.042l2.143-.99a.159.159 0 0 1 .224.115.16.16 0 0 1-.012.095c-.142.314-.286.655-.439 1.016-1.077 2.544-2.6 6.142-6.217 6.142zm-2.753-.932c5.471 2.242 7.323-2.135 8.677-5.333l.271-.636-2.491 1.15a.159.159 0 0 1-.225-.164.16.16 0 0 1 .051-.098 6.8 6.8 0 0 0 1.815-5.134l-2.056 1.145a.159.159 0 0 1-.233-.169 11.388 11.388 0 0 0-.387-5.348c-1.056 6.113-3.131 9.587-7.257 12.212l1.835 2.375z" fill="#202020"/>
    <path d="M12.397 86.674c-4.2-2.623-6.384-6.05-7.448-12.9a12.316 12.316 0 0 0-.585 6.1L2.076 78.6c-.053 1.857.308 4.1 1.862 5.519l-2.873-1.327c1.424 3.148 3.085 9.022 9.363 6.422l1.969-2.54z" fill="#fff"/>
    <path d="M7.579 90.021c-3.618 0-5.14-3.6-6.216-6.141-.153-.361-.3-.7-.439-1.016a.159.159 0 0 1 .212-.21l2.143.99a7.863 7.863 0 0 1-1.358-5.043.16.16 0 0 1 .236-.134l2 1.112a12.776 12.776 0 0 1 .646-5.848.16.16 0 0 1 .309.021c1.027 6.608 3.026 10.073 7.375 12.786a.156.156 0 0 1 .073.107.16.16 0 0 1-.031.125l-1.969 2.547a.158.158 0 0 1-.065.05c-.92.408-1.91.63-2.916.654zm-6.195-6.9c.089.2.178.417.271.636 1.353 3.2 3.206 7.576 8.676 5.333l1.836-2.375c-4.127-2.625-6.2-6.1-7.257-12.212a11.387 11.387 0 0 0-.387 5.348.159.159 0 0 1-.234.169l-2.056-1.145a6.8 6.8 0 0 0 1.815 5.134.159.159 0 0 1-.174.262l-2.49-1.15z" fill="#202020"/>
    <path d="M19.418 99.877c5.487 0 9.935-4.437 9.935-9.911 0-5.474-4.448-9.911-9.935-9.911s-9.935 4.437-9.935 9.911c0 5.474 4.448 9.911 9.935 9.911z" fill="#202020"/>
    <path d="M19.807 99.241c5.324 0 9.64-4.305 9.64-9.616 0-5.31-4.316-9.616-9.64-9.616-5.324 0-9.64 4.305-9.64 9.616 0 5.31 4.316 9.616 9.64 9.616z" fill="#fff"/>
    <path d="M19.799 99.404a9.8 9.8 0 0 1-9.729-8.682 9.78 9.78 0 0 1 8.64-10.808 9.8 9.8 0 0 1 10.834 8.62 9.782 9.782 0 0 1-9.745 10.87zm.015-19.234a9.479 9.479 0 1 0-.007 18.957 9.479 9.479 0 0 0 .007-18.957z" fill="#202020"/>
    <path d="M19.808 97.695c4.468 0 8.09-3.613 8.09-8.07 0-4.457-3.622-8.07-8.09-8.07s-8.09 3.613-8.09 8.07c0 4.457 3.622 8.07 8.09 8.07z" fill="#fff"/>
    <path d="M27.055 93.369a.16.16 0 0 1-.142-.23 7.863 7.863 0 0 0 .706-2.14.159.159 0 0 1 .313.055 8.183 8.183 0 0 1-.734 2.227.157.157 0 0 1-.143.088zM12.785 85.776a.157.157 0 0 1-.126-.062.161.161 0 0 1-.032-.117.16.16 0 0 1 .02-.059 8.26 8.26 0 0 1 14.135-.309.157.157 0 0 1 .02.12.158.158 0 0 1-.19.12.16.16 0 0 1-.1-.07 7.886 7.886 0 0 0-7.593-3.635 7.964 7.964 0 0 0-6 3.932.16.16 0 0 1-.134.08zM19.8 97.855a8.23 8.23 0 0 1-7.6-11.423.158.158 0 0 1 .149-.097.159.159 0 0 1 .145.221 7.912 7.912 0 0 0 4.167 10.339c1.27.546 2.66.75 4.033.592a.16.16 0 1 1 .036.316 8.381 8.381 0 0 1-.93.052z" fill="#CF0036"/>
    <path d="m19.709 95.371-.15-1.318a5.641 5.641 0 0 1-2.431-.331l.234-1.671a4.95 4.95 0 0 0 2.378.351c.793-.089 1.3-.455 1.238-1.01-.06-.527-.542-.81-1.611-1.042-1.545-.332-2.64-.912-2.791-2.258a2.581 2.581 0 0 1 2.072-2.734l-.15-1.318 1.365-.153.138 1.221a5.051 5.051 0 0 1 2.069.231l-.226 1.613a4.656 4.656 0 0 0-2.057-.247c-.9.1-1.152.523-1.109.912.052.458.57.695 1.8 1.006 1.72.4 2.475 1.085 2.616 2.334a2.677 2.677 0 0 1-2.186 2.846l.16 1.415-1.36.153zM24.027 96.707c.74.379 1.329.997 1.672 1.754a3.689 3.689 0 0 1 1.674-1.757 3.684 3.684 0 0 1-1.674-1.754 3.687 3.687 0 0 1-1.672 1.757zM11.457 85.871a2.66 2.66 0 0 1 1.21 1.269 2.67 2.67 0 0 1 1.21-1.271 2.666 2.666 0 0 1-1.21-1.269 2.667 2.667 0 0 1-1.21 1.271z" fill="#DCBA4E"/>
    <path d="M21.978 145.415a34.147 34.147 0 0 1-6.36-4.555.137.137 0 0 1 .09-.223.139.139 0 0 1 .092.022 33.67 33.67 0 0 0 16.887 8.242.135.135 0 0 1 .096.053.137.137 0 0 1-.142.216 33.89 33.89 0 0 1-10.663-3.755z" fill="#202020"/>
    <path d="M32.597 149.155a.138.138 0 0 1-.062-.165.136.136 0 0 1 .06-.072.135.135 0 0 1 .092-.018c.3.053.605.1.906.145a.133.133 0 0 1 .09.052.138.138 0 0 1-.127.22 45.333 45.333 0 0 1-.915-.147.162.162 0 0 1-.044-.015zM21.759 147.65a39.256 39.256 0 0 1-9.153-7.012.137.137 0 0 1 .193-.192 38.634 38.634 0 0 0 22.678 11.45.147.147 0 0 1 .055.014.155.155 0 0 1 .044.035.137.137 0 0 1-.135.222 38.456 38.456 0 0 1-13.682-4.517zM34.761 150.034l-.017-.01a.137.137 0 0 1-.052-.112l.041-1.446c0-.024.008-.048.02-.068a.132.132 0 0 1 .053-.049.137.137 0 0 1 .069-.017.136.136 0 0 1 .067.021l1.496.926a.137.137 0 0 1-.033.244l-1.534.52a.132.132 0 0 1-.056.007.144.144 0 0 1-.053-.016zM35 148.71l-.031 1.012 1.074-.365L35 148.71zM103.271 16.153a.161.161 0 0 1-.113-.047l-.712-.71a.161.161 0 0 1 .227-.228l.712.71a.156.156 0 0 1 .044.082.162.162 0 0 1-.068.166.163.163 0 0 1-.09.027zM105.765 18.639a.163.163 0 0 1-.114-.047l-.712-.71a.166.166 0 0 1-.043-.112.16.16 0 0 1 .27-.116l.712.71a.156.156 0 0 1 .044.082.163.163 0 0 1-.068.165.163.163 0 0 1-.09.028h.001zM102.559 18.638a.163.163 0 0 1-.09-.027.163.163 0 0 1-.068-.166.156.156 0 0 1 .044-.082l.712-.71a.162.162 0 0 1 .223.005c.029.03.046.07.047.11a.161.161 0 0 1-.043.113l-.712.71a.16.16 0 0 1-.113.047zM105.052 16.15a.163.163 0 0 1-.09-.027.162.162 0 0 1-.024-.248l.712-.71a.162.162 0 0 1 .223.005c.029.03.046.07.047.11a.161.161 0 0 1-.043.113l-.712.71a.162.162 0 0 1-.113.047zM19.103 40.829a1.336 1.336 0 1 1-.005-2.671 1.336 1.336 0 0 1 .005 2.671zm0-2.349a1.012 1.012 0 1 0 .717.294 1.017 1.017 0 0 0-.717-.298v.004zM46.691 82.974a.068.068 0 0 1-.068-.076.067.067 0 0 1 .015-.035l2.71-3.353a.069.069 0 0 1 .096-.01.069.069 0 0 1 .01.096l-2.71 3.353a.068.068 0 0 1-.053.025zM49.893 79.013a.067.067 0 0 1-.068-.076.067.067 0 0 1 .015-.035l3.244-4.013a.067.067 0 0 1 .072-.022.067.067 0 0 1 .049.058.068.068 0 0 1-.015.05l-3.244 4.013a.068.068 0 0 1-.053.025zM53.625 74.396a.068.068 0 0 1-.053-.111l1-1.234a.067.067 0 0 1 .046-.025.068.068 0 0 1 .06.111l-1 1.234a.068.068 0 0 1-.053.025zM44.916 89.419a.068.068 0 0 1-.053-.111l3.409-4.217a.069.069 0 0 1 .096-.01.068.068 0 0 1 .01.096l-3.409 4.217a.067.067 0 0 1-.053.025zM48.688 84.757a.07.07 0 0 1-.062-.039.069.069 0 0 1 .009-.072l2.913-3.6a.07.07 0 0 1 .046-.025.068.068 0 0 1 .067.035.067.067 0 0 1 .005.052.069.069 0 0 1-.012.024l-2.913 3.6a.067.067 0 0 1-.053.025zM40.615 50.137a.067.067 0 0 1-.062-.039.069.069 0 0 1 .009-.072l2.71-3.353a.069.069 0 0 1 .096-.01.068.068 0 0 1 .01.096l-2.71 3.353a.068.068 0 0 1-.053.025zM43.817 46.176a.068.068 0 0 1-.053-.111l3.244-4.013a.07.07 0 0 1 .046-.025.068.068 0 0 1 .05.015.069.069 0 0 1 .01.096l-3.244 4.013a.067.067 0 0 1-.053.025zM47.549 41.559a.068.068 0 0 1-.068-.076.067.067 0 0 1 .015-.035l1-1.234a.067.067 0 0 1 .046-.025.067.067 0 0 1 .067.035.067.067 0 0 1 .005.052.069.069 0 0 1-.012.024l-1 1.234a.067.067 0 0 1-.053.025zM38.84 56.582a.07.07 0 0 1-.062-.039.068.068 0 0 1 .009-.072l3.409-4.217a.068.068 0 0 1 .096-.01.069.069 0 0 1 .01.096l-3.41 4.217a.068.068 0 0 1-.052.025zM42.612 51.92a.068.068 0 0 1-.062-.039.067.067 0 0 1 .009-.072l2.913-3.6a.07.07 0 0 1 .046-.025.068.068 0 0 1 .05.015.072.072 0 0 1 .017.02.068.068 0 0 1-.007.076l-2.913 3.6a.068.068 0 0 1-.053.025z" fill="#202020"/>
</svg>
