<svg width="117" height="75" viewBox="0 0 117 75" fill="none" xmlns="http://www.w3.org/2000/svg">
    <path d="M59.806 20.14a2 2 0 0 1 3.621 0l4.021 8.572a2 2 0 0 0 1.561 1.134l9.388 1.183a2 2 0 0 1 1.12 3.442l-6.9 6.485a2 2 0 0 0-.6 1.832l1.78 9.309a2 2 0 0 1-2.93 2.127l-8.285-4.567a2 2 0 0 0-1.93 0l-8.285 4.567a2 2 0 0 1-2.93-2.127l1.78-9.309a2 2 0 0 0-.6-1.832l-6.9-6.486a2 2 0 0 1 1.12-3.441l9.387-1.183a2 2 0 0 0 1.561-1.134l4.021-8.572z" fill="#FFD508"/>
    <g filter="url(#7tn8u69dia)">
        <path d="M59.806 20.14a2 2 0 0 1 3.621 0l4.021 8.572a2 2 0 0 0 1.561 1.134l9.388 1.183a2 2 0 0 1 1.12 3.442l-6.9 6.485a2 2 0 0 0-.6 1.832l1.78 9.309a2 2 0 0 1-2.93 2.127l-8.285-4.567a2 2 0 0 0-1.93 0l-8.285 4.567a2 2 0 0 1-2.93-2.127l1.78-9.309a2 2 0 0 0-.6-1.832l-6.9-6.486a2 2 0 0 1 1.12-3.441l9.387-1.183a2 2 0 0 0 1.561-1.134l4.021-8.572z" fill="#FFD508"/>
    </g>
    <path d="M96.322 44.932a2 2 0 0 1 3.59 0l2.676 5.448a2.003 2.003 0 0 0 1.556 1.1l6.088.731a2.004 2.004 0 0 1 1.672 1.383 1.995 1.995 0 0 1-.572 2.092l-4.352 3.9a2.001 2.001 0 0 0-.626 1.882l1.139 5.691a1.994 1.994 0 0 1-.763 1.995 2 2 0 0 1-2.129.168l-5.549-2.92a2.001 2.001 0 0 0-1.863 0l-5.549 2.92a2 2 0 0 1-2.892-2.163l1.14-5.69a2 2 0 0 0-.627-1.883l-4.352-3.9a2 2 0 0 1 1.1-3.475l6.088-.73a2 2 0 0 0 1.556-1.1l2.67-5.449z" fill="#FFD508"/>
    <g filter="url(#te0zyzfu2b)">
        <path d="M96.322 44.932a2 2 0 0 1 3.59 0l2.676 5.448a2.003 2.003 0 0 0 1.556 1.1l6.088.731a2.004 2.004 0 0 1 1.672 1.383 1.995 1.995 0 0 1-.572 2.092l-4.352 3.9a2.001 2.001 0 0 0-.626 1.882l1.139 5.691a1.994 1.994 0 0 1-.763 1.995 2 2 0 0 1-2.129.168l-5.549-2.92a2.001 2.001 0 0 0-1.863 0l-5.549 2.92a2 2 0 0 1-2.892-2.163l1.14-5.69a2 2 0 0 0-.627-1.883l-4.352-3.9a2 2 0 0 1 1.1-3.475l6.088-.73a2 2 0 0 0 1.556-1.1l2.67-5.449z" fill="#FFD508"/>
    </g>
    <path d="M18.322 44.932a2 2 0 0 1 3.59 0l2.676 5.448a2 2 0 0 0 1.556 1.1l6.088.731a2 2 0 0 1 1.1 3.475l-4.352 3.9a2 2 0 0 0-.626 1.882l1.14 5.691a2 2 0 0 1-2.893 2.163l-5.549-2.92a2.001 2.001 0 0 0-1.863 0l-5.549 2.92a2 2 0 0 1-2.892-2.163l1.14-5.69a2 2 0 0 0-.627-1.883l-4.352-3.9a2 2 0 0 1 1.1-3.475l6.088-.73a2 2 0 0 0 1.556-1.1l2.67-5.449z" fill="#FFD508"/>
    <g filter="url(#54t138clac)">
        <path d="M18.322 44.932a2 2 0 0 1 3.59 0l2.676 5.448a2 2 0 0 0 1.556 1.1l6.088.731a2 2 0 0 1 1.1 3.475l-4.352 3.9a2 2 0 0 0-.626 1.882l1.14 5.691a2 2 0 0 1-2.893 2.163l-5.549-2.92a2.001 2.001 0 0 0-1.863 0l-5.549 2.92a2 2 0 0 1-2.892-2.163l1.14-5.69a2 2 0 0 0-.627-1.883l-4.352-3.9a2 2 0 0 1 1.1-3.475l6.088-.73a2 2 0 0 0 1.556-1.1l2.67-5.449z" fill="#FFD508"/>
    </g>
    <path d="M100.233 41.032H100.271a.102.102 0 0 1 .013 0l.004.001h.02a.12.12 0 0 0 .006 0l.004.001h.02l.004.001a.137.137 0 0 1 .009 0h.005l.004.001h.008l.004.001h.012l.006.001h.008l.004.001h.008l.004.001h.004l.004.001h.01l.004.001h.004l.004.001h.008l.004.001h.004l.01.002h.008l.004.001h.003l.004.001h.004l.004.001.015.002h.003l.004.001h.004l.004.001.004.001h.004l.015.003h.003l.004.001h.004l.004.001a.02.02 0 0 0 .004 0l.003.002s.001 0 0 0a.744.744 0 0 1 .03.005h.004l.004.001.022.005h.004l.003.001h.004l.004.002a.792.792 0 0 1 .026.005l.004.001h.004l.003.002.03.007c.341.082.664.254.926.516l.003.003.022.022a.08.08 0 0 0 .003.003l.003.003.003.003.003.003.013.015.003.003.003.003.002.003.003.003.003.003.003.003.01.011.003.003.003.003.002.003a.094.094 0 0 1 .006.007.094.094 0 0 1 .003.003l.003.003.001.001.003.005a.077.077 0 0 0 .003.002l.002.004a.094.094 0 0 1 .003.003l.003.003a.094.094 0 0 1 .003.003l.002.004.003.003.003.003.003.003.002.004.003.003.003.004a.104.104 0 0 0 .003.003l.002.003.003.004.003.003.003.004.003.004.006.007.003.004.002.003a.109.109 0 0 0 .003.004l.003.003.003.004.003.004c-.001 0 0 0 0 0l.011.015.003.003c-.001 0 0 0 0 0l.002.004.003.003.003.004.019.027.002.003s.001 0 0 0l.058.086-.422.268a1.482 1.482 0 0 0-1.26-.685v-.5zm2.131 1.81.361.743.002.004h.001v.002l.001.002.003.005.001.002.002.005.005.01.001.001.498 1.025-.45.218-.875-1.798.45-.219zm1.312 2.698.875 1.799-.45.218-.875-1.798.45-.219zm1.312 2.698.307.632.001.002.001.001v.002h.001l.001.002.002.005.002.004a.129.129 0 0 1 .003.007l.002.003.002.004.001.003.002.004.002.003.002.004.001.003.002.004.002.004.002.003.002.004.001.003.002.004.002.003.002.003.001.003.002.004.002.003.002.003v.001l.003.006.003.005.001.002.002.004.004.007.004.007c.191.344.478.621.82.8l-.232.443a2.48 2.48 0 0 1-1.088-1.121l-.319-.655.45-.22zm2.151 1.8 1.985.24-.06.497-1.986-.241.061-.497zm2.978.361.628.076.043.005h.002l.01.002h.005a.07.07 0 0 1 .005.001h.006l.002.001h.002l1.282.156-.06.496-1.985-.24.06-.497zm2.978.362 1.292.157a.042.042 0 0 0 .006 0h.003l.003.001a.03.03 0 0 1 .003 0h.002l.007.002h.008l.002.001.009.001a.03.03 0 0 0 .003 0l.003.001h.005l.006.002h.006l.003.001h.005l.006.002h.005l.003.001h.003l.002.001h.003l.003.001h.003l.003.001h.005l.003.001h.003l.003.002h.008l.003.001.006.002h.005l.003.001h.002l.003.001.006.001h.003l.002.001h.003l.003.001h.002l.004.002h.005l.003.001h.002l.003.001h.002a.02.02 0 0 1 .004.002h.005a.031.031 0 0 1 .005.002h.003l.004.001h.002l.003.001.002.001h.003l.002.001.007.002h.005l.002.001.003.001h.002l.009.003h.003l.002.001h.003l.011.004h.005l.002.001.014.004c.134.036.26.084.378.143l-.224.447a1.526 1.526 0 0 0-.502-.149l-1.292-.157.06-.496zm2.701 1.008c.076.112.14.23.192.354l.023.058.006.014.005.015.001.004.002.003.007.022s.001 0 0 0l.006.015.001.003a.049.049 0 0 0 .004.011c-.001 0 0 0 0 0l.001.004.001.004.005.014.001.004.005.015.001.004.001.003.001.004.001.004.001.003.001.004.001.004s.001 0 0 0l.002.004.001.003.001.004.001.004.001.003.001.004.002.008.001.003.001.004.001.004.001.004.001.003.001.004.001.004.001.003.001.004.001.004.001.004.001.003.001.004.001.004.001.003.001.004.001.004.001.004.001.004.001.003v.004l.001.004.001.003.001.005.001.003.001.004.001.003.001.004v.004l.001.004.001.004.001.003.001.004.001.004v.004l.001.003.001.004.001.004v.004l.001.004.001.004.001.003v.004l.001.004.001.004.001.003v.004l.001.004.001.004v.004l.001.003.001.004.001.004v.004l.001.004v.003l.001.004.001.004v.004l.001.004.001.003v.004l.001.004v.004l.001.004.001.003v.004l.001.004v.004l.001.003v.004l.001.004v.004l.001.004.001.006v.005l.001.004v.004a.015.015 0 0 1 .001.007l.001.004v.004l.001.004.001.007v.008l.001.004.001.011v.004l.002.016v.004c.022.24 0 .487-.068.725l-.006.019-.001.004-.003.01-.001.005s-.001 0 0 0l-.002.004-.001.004-.002.007-.001.004-.002.004-.001.004-.001.003-.001.003-.002.004-.001.004-.001.004-.001.003-.002.004-.001.004-.001.004-.002.004-.001.003-.001.004-.001.004-.002.004-.001.003-.001.004-.002.004-.001.004-.002.003-.001.004-.001.004-.002.004-.001.003-.002.004-.001.004-.001.003-.001.003s-.001 0 0 0l-.002.004-.002.004c.001 0 0 0 0 0l-.001.004-.001.003-.002.004-.001.004s-.001 0 0 0l-.002.004-.003.007-.002.004-.001.004-.002.003-.003.008-.461-.194c.194-.46.136-1.01-.152-1.434l.414-.28zm-.734 2.328.335.371-1.482 1.343-.335-.37 1.482-1.344zm-2.223 2.015.335.37-.468.425-.002.002-.002.002-.003.002-.002.002a.045.045 0 0 0-.007.007h-.001l-.008.008-.003.002-.003.003-.008.007h-.001l-.003.004-.002.002-.007.006-.962.871-.335-.37 1.482-1.343zm-2.223 2.014.335.371-.899.815-.004.004-.003.002-.003.003-.003.003-.003.003a.066.066 0 0 1-.003.002l-.003.004-.003.002-.003.003-.003.003-.003.003-.003.002-.003.004-.003.002-.003.003-.003.003-.003.003-.003.003-.003.003a.077.077 0 0 1-.003.003l-.003.002-.003.004-.003.002-.002.003a.015.015 0 0 0-.004.004l-.002.002-.003.003-.002.002-.004.004-.003.002-.002.003-.004.004-.002.002-.003.003h-.001l-.002.004-.003.002-.002.003s-.001 0 0 0l-.004.004-.002.002a.07.07 0 0 1-.003.003l-.006.007-.002.002-.006.007-.003.002c.001 0 0 0 0 0l-.006.007-.002.002-.006.007-.002.003-.008.009-.002.002-.006.007s-.001 0 0 0l-.009.01-.002.002-.006.007-.002.002-.008.01a2.08 2.08 0 0 0-.136.184l-.007.01-.006.01-.002.003-.005.008-.002.002c.001 0 0 0 0 0l-.004.008-.002.003a.033.033 0 0 1-.005.007l-.001.003-.005.008-.002.002-.001.003-.003.005-.002.003-.001.003h-.001l-.002.004-.002.003-.002.003-.002.003-.002.004-.002.003-.001.003-.003.004-.001.004-.002.003-.002.003-.002.003-.002.003-.004.008-.002.003c.001 0 0 0 0 0l-.004.007c.001 0 0 0 0 0l-.001.004-.006.01c-.016.03-.03.059-.044.089l-.452-.214c.141-.299.336-.562.581-.784l.9-.816zm-1.218 2.785.003.041v.008l.001.004v.007l.001.004v.005l.001.003c-.001 0 0 0 0 0V60.992c.005.048.012.096.02.144l.001.004.001.005v.004l.001.004.001.004.001.004v.004l.001.005.001.004.001.004.001.005.335 1.693-.49.097-.336-1.693a2.594 2.594 0 0 1-.043-.34l.499-.029zm.564 2.946a1484.382 1484.382 0 0 0 .384 1.935v.001l.001.003v.004l.001.001v.004l.001.001v.004l.001.005.001.002v.002l-.49.097-.389-1.962.49-.097zm.583 2.942.303 1.526v.004l.001.004.001.003v.004l.001.004.001.003v.004l.001.003.001.003c.009.053.017.105.022.157l.001.004v.006l.001.004v.007l.001.004v.007l.001.003v.008l.001.003v.008l.001.003v.008c.005.064.007.126.005.188l-.499-.01a1.597 1.597 0 0 0-.031-.334l-.302-1.526.49-.098zm-.357 2.667.431.253a2.041 2.041 0 0 1-1.393.97h-.004l-.023.005h-.004l-.015.003h-.008l-.004.001-.016.003h-.008l-.016.003h-.007l-.004.001-.012.002h-.012l-.004.001-.008.001h-.008l-.004.001h-.003l-.009.001h-.004l-.004.001h-.007l-.009.001h-.008l-.003.001h-.008l-.004.001h-.012l-.004.001h-.016l-.023-.499a1.534 1.534 0 0 0 1.233-.751zm-3.709-.333 1.702.905.049.026-.22.449-.064-.033-.003-.002s-.001 0 0 0h-.001l-.02-.011-.011-.006h-.001l-1.666-.887.235-.441zm-2.649-1.41 1.766.94-.235.442-1.766-.94.235-.441zm-2.713-1.42c.099.038.196.082.29.132l1.54.82-.234.44-1.249-.664-.028-.014-.001-.001-.003-.002-.053-.027-.002-.002-.005-.002-.027-.015h-.001l-.002-.002h-.001l-.002-.001-.003-.002-.005-.002-.002-.001-.002-.001-.017-.01-.022-.011-.003-.002h-.002l-.001-.001-.002-.001-.003-.002h-.001l-.003-.002-.013-.007-.006-.003h-.001a.07.07 0 0 1-.008-.005h-.001a.028.028 0 0 1-.005-.003l-.002-.002h-.002l-.006-.004-.019-.01-.038-.02a2.76 2.76 0 0 0-.048-.025l-.004-.001-.003-.002a.016.016 0 0 1-.004-.002l-.003-.002-.004-.001-.004-.002-.003-.002a.016.016 0 0 0-.004-.001l-.003-.002-.004-.002-.003-.002a.016.016 0 0 1-.004-.001l-.004-.002-.003-.002-.004-.002c-.002 0-.003 0-.005-.002-.001 0-.003 0-.004-.002a1.928 1.928 0 0 0-.121-.05l.177-.468zm-1.23-.137.07.495a2.004 2.004 0 0 0-.34.078h-.002l-.005.002-.002.001-.003.001-.005.002h-.003l-.004.002-.003.001-.003.001-.005.002h-.003l-.003.002a.04.04 0 0 0-.004.001.03.03 0 0 0-.003.001l-.004.002h-.004l-.003.002-.004.001-.003.002-.004.001-.003.001-.008.003-.003.001-.007.003a1.97 1.97 0 0 0-.212.094l-.007.004-.003.002-.004.002-.003.001-.004.002-1.147.61-.235-.441 1.148-.61c.259-.138.538-.229.828-.27zm-2.859 1.349.235.441-1.765.94-.235-.442 1.765-.94zm-2.648 1.409.235.441-1.766.94-.235-.442 1.766-.94zm-3.902.81c.289.308.69.485 1.101.485.087 0 .175-.008.261-.024l.09.492a1.963 1.963 0 0 1-.216.027h-.011l-.007.001h-.004a.188.188 0 0 1-.01.001h-.011l-.008.001h-.022l-.003.001H91.495l-.003-.001h-.017l-.003-.001H91.458l-.003-.001h-.01a.08.08 0 0 0-.005-.001h-.01l-.004-.001h-.01l-.003-.001h-.007l-.003-.001h-.007l-.003-.001h-.007l-.003-.001h-.007l-.004-.001h-.007l-.004-.001h-.003l-.003-.001h-.007l-.003-.001h-.004l-.003-.001h-.006l-.004-.001h-.003l-.003-.001h-.004a.04.04 0 0 1-.003-.001h-.003l-.01-.002h-.005a.03.03 0 0 1-.003-.001h-.004l-.003-.001h-.003l-.004-.001a.04.04 0 0 1-.003 0l-.003-.001h-.003l-.004-.001h-.003l-.003-.001h-.004l-.003-.001-.003-.001h-.003l-.012-.003h-.006l-.004-.001h-.003l-.003-.001-.003-.001h-.004l-.003-.001a.192.192 0 0 1-.006-.002H91.2l-.003-.001a.192.192 0 0 0-.006-.001h-.004l-.003-.002h-.003a.402.402 0 0 1-.012-.003h-.003l-.003-.001h-.003l-.004-.002h-.003l-.003-.001h-.003l-.004-.001-.003-.001h-.003l-.003-.002h-.003l-.004-.001a.03.03 0 0 0-.003 0l-.003-.002h-.003l-.015-.004-.004-.001h-.002l-.004-.002h-.003l-.003-.001-.003-.001h-.003l-.003-.002h-.003l-.004-.001-.003-.001-.003-.001a.03.03 0 0 1-.003 0l-.003-.002h-.004l-.021-.007h-.003l-.004-.002h-.003l-.003-.001-.003-.002h-.003a.125.125 0 0 0-.006-.002l-.003-.001-.003-.001L91 70.63h-.003l-.03-.01-.004-.002h-.003l-.003-.002h-.003l-.003-.002h-.003l-.003-.002h-.003a2.517 2.517 0 0 1-.048-.018l-.004-.001-.002-.001a.151.151 0 0 1-.007-.003h-.002l-.004-.002a2.047 2.047 0 0 1-.559-.323l-.002-.003-.003-.002-.003-.002-.002-.002-.002-.002-.003-.002-.002-.002a2.731 2.731 0 0 1-.02-.016l-.002-.002-.002-.002-.003-.002-.002-.002-.002-.002-.003-.002-.002-.002-.003-.002a.05.05 0 0 1-.002-.003l-.002-.002-.003-.002-.002-.002-.003-.002-.002-.002-.003-.002-.002-.003h-.001a.194.194 0 0 1-.012-.012l-.003-.002-.002-.002-.003-.002-.002-.002-.002-.003-.003-.002-.002-.002-.003-.002-.002-.003-.002-.002-.003-.002a.053.053 0 0 0-.004-.005l-.02-.018-.005-.005a.053.053 0 0 1-.004-.004 2.216 2.216 0 0 1-.055-.056l.365-.343zm-.644-2.497.49.097-.216 1.089a1.5 1.5 0 0 0 .013.663l-.484.122c-.05-.2-.07-.412-.053-.632v-.008a2.39 2.39 0 0 1 .005-.052v-.008l.001-.003V68.5l.001-.004v-.007l.001-.004v-.004l.001-.004.003-.023v-.003l.001-.004v-.004l.001-.004v-.003l.001-.004v-.004l.001-.004.001-.003v-.004l.001-.004v-.004l.001-.004.003-.015v-.004l.001-.004v-.004l.002-.003v-.008a.04.04 0 0 1 .002-.003v-.004a.04.04 0 0 0 0-.004l.001-.004.001-.003v-.004l.002-.004v-.004l.001-.003v-.004l.001-.002v-.003l.216-1.09zm.582-2.943.49.097-.388 1.962-.49-.097.025-.129.002-.01.361-1.823zM91 61.35l.49.097-.388 1.962-.49-.097.208-1.05v-.002l.18-.91zm-.819-2.925.57.516c.385.349.648.802.761 1.31l-.488.108v-.004l-.001-.003-.001-.004-.001-.004-.001-.003-.001-.005-.001-.003v-.004l-.002-.004v-.004l-.002-.003v-.004l-.002-.004v-.004l-.001-.004-.001-.003-.001-.004-.001-.003-.001-.004-.001-.004-.001-.004-.001-.004-.001-.004L91 60.27l-.002-.004v-.003l-.001-.004-.003-.008v-.004c-.002-.002-.002-.005-.003-.007l-.001-.004a.173.173 0 0 0-.004-.012.22.22 0 0 0-.002-.007v-.004s-.001 0 0 0l-.003-.008a1.978 1.978 0 0 0-.086-.227l-.005-.011-.015-.032-.005-.011a.056.056 0 0 0-.002-.004l-.003-.007a.063.063 0 0 1-.002-.004l-.004-.007-.001-.003-.004-.007-.002-.004-.003-.007a.058.058 0 0 0-.002-.004l-.004-.007a.04.04 0 0 1-.002-.003l-.002-.004s0-.002-.002-.003l-.001-.004a.067.067 0 0 0-.002-.003l-.002-.004-.002-.003-.004-.007a.065.065 0 0 0-.008-.014l-.002-.004-.001-.003-.002-.004-.002-.003-.002-.004-.002-.003-.002-.004-.002-.003a.074.074 0 0 0-.004-.007l-.002-.003a.042.042 0 0 0-.002-.004l-.002-.003a.054.054 0 0 0-.002-.004l-.002-.003-.003-.004a.133.133 0 0 1-.008-.013l-.002-.004-.002-.003-.002-.003a.07.07 0 0 1-.002-.004l-.002-.004a.054.054 0 0 0-.002-.003l-.002-.003a.07.07 0 0 0-.003-.004s0-.002-.002-.003l-.002-.003-.002-.004-.002-.003-.002-.003-.003-.004-.002-.003-.002-.004-.002-.003-.002-.003-.002-.004-.003-.003-.002-.003-.002-.003a.106.106 0 0 0-.004-.007l-.003-.003-.002-.004-.002-.003-.003-.003-.002-.004-.002-.003-.002-.003-.003-.004-.002-.003-.002-.003-.003-.004-.002-.003-.002-.003-.003-.004-.002-.002-.002-.004a.076.076 0 0 0-.003-.003l-.002-.003-.003-.004-.002-.003-.002-.003-.003-.003-.002-.004a.032.032 0 0 0-.002-.002l-.003-.004-.002-.003-.003-.003-.002-.003a.077.077 0 0 0-.005-.007l-.002-.003-.003-.003-.002-.003-.003-.004a.101.101 0 0 0-.003-.003l-.002-.003-.002-.003-.003-.004-.002-.002-.003-.004-.003-.003-.002-.003-.002-.003-.003-.003-.002-.003-.003-.004a.082.082 0 0 0-.003-.003l-.002-.003-.003-.003a.046.046 0 0 1-.003-.003l-.002-.003-.003-.003-.002-.003-.003-.004-.003-.002a.08.08 0 0 1-.002-.004l-.003-.003a.037.037 0 0 0-.002-.003l-.003-.003-.003-.003-.002-.003-.003-.003-.003-.003a.07.07 0 0 1-.002-.003l-.003-.003-.003-.003-.003-.003-.003-.003-.002-.003-.003-.003-.003-.003-.003-.004-.002-.002-.003-.003-.003-.003-.002-.003-.003-.003-.003-.003-.003-.003-.003-.003a.094.094 0 0 0-.003-.003l-.002-.003-.003-.003-.003-.003-.003-.003-.003-.003-.003-.003-.002-.003-.003-.003-.003-.003-.003-.003-.003-.003-.003-.003-.002-.002-.003-.003-.003-.003-.003-.003-.003-.003-.003-.003a.073.073 0 0 1-.006-.005.092.092 0 0 0-.003-.003l-.003-.003-.003-.003a.09.09 0 0 0-.003-.003l-.003-.003-.003-.002c0-.002-.002-.002-.003-.004l-.003-.002a.077.077 0 0 0-.006-.006.082.082 0 0 0-.003-.003l-.003-.002a.894.894 0 0 1-.003-.003l-.006-.006-.003-.003a.094.094 0 0 0-.003-.003L90.4 59.3l-.005-.005-.003-.002-.001-.001-.003-.003-.002-.001-.003-.003v-.001s-.001 0 0 0a.04.04 0 0 1-.003-.002l-.002-.002-.004-.003-.001-.002-.002-.001v-.001s-.001 0 0 0l-.002-.002-.004-.003-.52-.472.335-.37zm-2.223-2.015 1.482 1.343-.336.37-.46-.416-.001-.001-.005-.004-.009-.009-.012-.01a1.372 1.372 0 0 1-.013-.012l-.003-.003-.006-.006-.001-.001-.007-.006-.002-.002-.006-.005-.003-.003-.001-.001-.953-.863.336-.37zm-2.223-2.014 1.482 1.343-.336.37-1.482-1.343.336-.37zm-1.272-2.235.464.184a1.484 1.484 0 0 0 .168 1.426l-.405.293a1.962 1.962 0 0 1-.342-1.497l.003-.015v-.004l.003-.01v-.005a.06.06 0 0 1 .001-.004l.001-.006a.06.06 0 0 0 .001-.004l.001-.005.001-.004v-.002l.001-.004.001-.004a.04.04 0 0 0 0-.004l.002-.003v-.004a.255.255 0 0 1 .002-.008v-.003l.001-.004.001-.003.001-.004.001-.004v-.003l.002-.004v-.004l.002-.004v-.003l.001-.004.001-.004.001-.004v-.003l.002-.004v-.004l.002-.003v-.004a.05.05 0 0 0 .001-.003l.002-.004v-.004l.001-.004.001-.003.001-.004.001-.004.001-.003.001-.004.001-.003.001-.004.001-.003.001-.004.001-.004.001-.004.001-.003.001-.004.001-.004.002-.007.002-.004v-.003c.018-.059.038-.117.06-.174zm2.466-1.348.06.497-.85.103c-.297.036-.559.147-.778.33l-.32-.385a1.973 1.973 0 0 1 1.002-.437h.008l.002-.001h.005l.003-.001h.007l.002-.001h.005l.004-.001.85-.104zm2.978-.361.06.496-1.985.241-.06-.496 1.985-.241zm2.978-.362.06.496-1.985.241-.06-.496 1.398-.17H92.306l.005-.001h.003l.002-.001h.001l.008-.001.56-.068zm2.399-1.452.45.218-.124.255a2.498 2.498 0 0 1-1.607 1.323l-.128-.483c.252-.067.486-.182.691-.337l.019-.014a.07.07 0 0 0 .003-.003l.015-.011a.06.06 0 0 0 .003-.003l.003-.002.012-.01a.04.04 0 0 1 .003-.003l.003-.002.003-.002.009-.008.003-.002.003-.002.003-.003.009-.008.003-.002.003-.003.002-.002.01-.008.002-.002.003-.003.003-.002.011-.01.003-.003.003-.002.003-.003.008-.008.003-.002.003-.003.003-.003.009-.008.002-.002.003-.003.003-.002.003-.003.005-.006.003-.002.003-.003.002-.002.003-.003a.301.301 0 0 0 .011-.011l.003-.003.003-.002.003-.003a.073.073 0 0 1 .005-.006l.003-.002.002-.003.003-.003.003-.003a.29.29 0 0 0 .005-.005l.003-.003.003-.003.002-.002.003-.004.006-.005.002-.003.003-.003.002-.002.003-.003.006-.006.002-.003.002-.003.003-.002.003-.003.002-.003.006-.006.002-.003.003-.003.002-.002c0-.002.002-.002.003-.003 0-.002.002-.003.003-.004l.002-.003.003-.002.002-.003a.065.065 0 0 1 .005-.006.354.354 0 0 1 .005-.006l.003-.003.002-.003.003-.003.002-.003.003-.003.003-.003.002-.003.002-.003.003-.003.002-.002c0-.002.002-.002.003-.004a.091.091 0 0 0 .002-.003l.003-.003.002-.003.002-.003.003-.002c0-.002.001-.002.002-.003l.003-.004a.126.126 0 0 0 .003-.004l.003-.003.002-.003.002-.003.002-.003.003-.003.003-.004.002-.003.002-.002.003-.003.002-.003.002-.003.003-.004.002-.003.003-.003.002-.003.002-.003.002-.003.003-.003.002-.004.003-.003.002-.003.002-.003.002-.003.002-.003.003-.004.002-.003.003-.003.002-.003.002-.003.002-.003.002-.003.002-.003.002-.003.002-.003.002-.003.003-.003v-.001l.002-.003.002-.003.003-.003.002-.004.002-.003a.089.089 0 0 0 .004-.006l.003-.004.002-.003.002-.003.002-.003.002-.003.002-.004.003-.004.002-.003.002-.003.002-.003c0-.001 0-.002.002-.003l.002-.003v-.002a.05.05 0 0 0 .002-.002l.002-.004.002-.003.002-.003.002-.003.002-.003.001-.002.002-.003.002-.003.002-.003.002-.003.002-.003.002-.004.002-.004.002-.003.002-.003.002-.003.002-.004.002-.003.002-.003v-.001l.002-.003.002-.004.002-.003.002-.003.001-.003.003-.004.002-.004.002-.003.002-.004.001-.003.002-.003.002-.003v-.002l.002-.003.002-.003.002-.003.002-.004.002-.003.001-.003.003-.005.001-.003.002-.003.002-.004.002-.003.001-.003.002-.004.003-.004.001-.004.002-.003a.054.054 0 0 1 .003-.007.038.038 0 0 0 .003-.004l.001-.004.002-.003.002-.003.001-.004.002-.003.002-.004.002-.004.124-.254zm1.312-2.698.45.218-.875 1.799-.45-.219.316-.649.001-.003.009-.017.004-.01v-.001l.003-.004.002-.005.001-.002.002-.004.002-.004v-.002l.003-.003v-.002l.532-1.092zm1.311-2.698.45.218-.874 1.8-.45-.22.618-1.272.001-.002.001-.001.001-.002v-.002l.003-.003.002-.005.005-.01.004-.01.24-.491zm1.885-2.163.108.489c-.45.1-.81.386-1.015.807l-.09.186-.45-.218.052-.107v-.001l.002-.004.001-.002v-.001l.001-.002v-.001l.001-.001.002-.004.001-.002v-.001l.003-.004v-.001l.002-.004.002-.004.002-.004a.489.489 0 0 0 .005-.01l.002-.004.01-.021a.42.42 0 0 1 .004-.008l.002-.004a.075.075 0 0 0 .003-.006l.001-.003.003-.005.002-.004.002-.004v-.001a.03.03 0 0 1 .002-.003v-.001l.002-.004.002-.004.002-.004.001-.001.002-.004.002-.004.002-.004V42.1l.002-.003.001-.001.002-.004a.09.09 0 0 0 .002-.004l.002-.004v-.001l.002-.004a.84.84 0 0 0 .005-.008l.003-.004v-.001l.002-.004.004-.008.003-.004.002-.004.005-.009.002-.004.003-.004.004-.008.003-.004.002-.005.005-.008.002-.004a.637.637 0 0 0 .005-.008l.003-.004.002-.004.005-.008.003-.004.002-.004.005-.008a.05.05 0 0 0 .002-.004l.01-.016.008-.012.003-.004a.807.807 0 0 1 .008-.012l.002-.004.008-.011c.254-.374.607-.627.995-.759l.016-.005.004-.001a.384.384 0 0 1 .008-.003l.004-.001.004-.001.008-.003.004-.001.004-.001.005-.002.004-.001.004-.001.004-.002h.004l.004-.002.004-.001.004-.001a.087.087 0 0 1 .009-.003h.004l.003-.002.005-.001.004-.001.004-.001a.085.085 0 0 0 .009-.003h.004l.003-.002.005-.001.004-.001.004-.001.004-.001.005-.001.004-.001.003-.001a.264.264 0 0 1 .01-.003h.003l.004-.001.009-.002.004-.001.003-.001.01-.002.003-.001a.113.113 0 0 1 .007-.002zM22.617 40.957H22.677l.004.001H22.695a.06.06 0 0 1 .004 0h.004l.004.001h.016l.005.001H22.741l.004.001h.012l.005.001H22.77l.004.001h.008l.004.001h.008l.005.001h.005l.004.001h.008l.004.001h.004l.004.001h.005l.005.001h.008l.004.001h.004l.004.001h.004l.004.001a.099.099 0 0 1 .01.002.057.057 0 0 1 .008 0l.004.001h.004l.004.001h.004l.006.002h.007l.004.001h.005l.003.001.004.001h.004l.01.002h.004l.004.002h.008l.004.002h.008l.006.002h.004l.004.001.004.001h.004l.004.002h.004l.004.001.01.002h.004l.003.002h.004l.004.001.004.001a.068.068 0 0 0 .008.002l.01.002h.004l.004.002h.004l.003.001.004.001.004.001.014.003.004.001a.22.22 0 0 0 .004.001l.004.001.004.001.003.001h.001l.014.004h.003l.004.002h.004l.004.002h.004l.003.002.015.003.003.001.004.001.004.002h.004a.054.054 0 0 1 .003.002l.015.004h.003l.004.002.004.001.004.001a.176.176 0 0 0 .003.001l.018.006.004.001.003.001.004.002a.032.032 0 0 1 .004 0 .907.907 0 0 1 .025.009l.004.001.003.002h.004l.022.008.003.002h.004l.004.002.021.008.004.002h.003l.004.002.025.01.004.002.003.001.067.028c.336.15.636.398.854.742l-.422.267a1.481 1.481 0 0 0-1.26-.684v-.5zm2.124 1.813.855 1.808-.451.214-.856-1.808.452-.214zm1.283 2.712a14424.752 14424.752 0 0 0 .773 1.634l.003.006.001.002.001.002.001.003a.363.363 0 0 0 .006.012l.001.003.003.006.002.004.003.005v.002h.001v.003l.002.001.058.125-.452.214-.855-1.808.452-.214zm1.283 2.712.22.463v.001l.003.007v.001l.001.002s.001 0 0 0l.002.003.001.003.002.003v.002l.001.001.001.002.01.02v.002l.003.004.001.004.002.003.004.008.001.003.004.007a.5.5 0 0 0 .003.008l.002.003a.478.478 0 0 0 .004.007l.005.011.004.007c.128.247.305.46.515.63l.006.006.003.002.003.003a.04.04 0 0 0 .003.002l.006.005a.07.07 0 0 0 .006.005l.003.002a.335.335 0 0 0 .006.005l.003.002.004.002.003.003.003.002.003.002.003.003.003.002.003.002.003.003.003.002.003.002.004.003.002.002c.002 0 .002.001.003.002.002 0 .003.002.004.003a.278.278 0 0 1 .016.011l.002.002.003.002.004.002.003.002.005.004.003.002.004.003.002.002h.001l.006.004.003.002.007.005.016.01a2 2 0 0 0 .305.166l-.2.458a2.5 2.5 0 0 1-1.264-1.224l-.24-.507.452-.214zm2.226 1.69.436.054h.005l.009.002h.001l.009.001h.001l1.524.19-.062.496-1.985-.247.062-.496zm2.977.371 1.335.167.01.001h.005l.024.004.011.001h.002l.598.075-.062.496-1.985-.248.062-.496zm2.977.372.816.102h.006l.004.001h.005l.003.001h.005l.008.002h.006l.029.004h.005l.005.001h.004l.005.001.005.001h.005l.004.001.005.001h.005l.004.001.005.001h.004l.005.002a.08.08 0 0 1 .005 0h.005l.004.002h.005l.005.001.005.001h.005l.012.003h.005l.005.002h.004l.005.002c.105.02.206.046.303.08l.004.001.005.002.02.007.003.002.005.001.004.002.004.001.004.002.005.002h.002l.004.002.005.002.004.001.004.002.004.002.004.001.004.002.003.001.004.002.005.002.004.001.004.002.004.002.004.001.003.002.004.001.004.002.004.002.004.002.004.001.004.002a.141.141 0 0 0 .008.003l.003.002.004.002.004.002.004.001.004.002.004.002.004.002.004.002.003.001.004.002.004.002.004.002.004.002c.001 0 .003 0 .004.002l.004.001.003.002.004.002.004.002.004.002.004.002s.002 0 .003.002l.004.001.004.002.004.002.015.008.004.002.003.002c.075.04.147.083.215.13l.003.003.004.003.003.002.004.002.013.01.003.002.003.003.004.002.003.003.003.002.004.003.003.002.003.002.003.003.003.002.004.003.003.002.003.003.004.002.003.003.003.002.003.003.003.002.004.003.003.002.003.003a.03.03 0 0 1 .003.002l.003.003.003.002.001.001-.314.389a1.476 1.476 0 0 0-.759-.317l-.882-.11.062-.496zm2.482 1.33c.178.432.208.925.06 1.383l-.002.004-.005.015-.001.004-.005.015-.002.003-.003.012-.002.003a.058.058 0 0 0-.001.004l-.004.011a.056.056 0 0 0-.003.008.892.892 0 0 1-.005.015l-.006.014-.002.004-.001.004a.497.497 0 0 0-.005.01l-.001.004-.002.004-.004.011-.002.004-.001.004-.003.007-.002.004a.136.136 0 0 1-.001.003l-.002.004a.231.231 0 0 1-.003.007l-.002.004-.001.004a.136.136 0 0 0-.002.003l-.003.007-.002.004-.002.004-.005.01-.001.004-.002.004-.002.004-.003.007-.002.004-.002.003-.005.011a.06.06 0 0 1-.002.004l-.001.003-.006.011c0 .001 0 .003-.002.004a.126.126 0 0 1-.001.003l-.006.011a.118.118 0 0 0-.002.004l-.002.003a.36.36 0 0 1-.005.011.118.118 0 0 1-.004.007l-.004.008-.002.003-.002.004-.002.003a.25.25 0 0 1-.004.007l-.001.004-.002.003-.002.004-.004.007a.04.04 0 0 0-.002.004l-.002.003-.009.014a.065.065 0 0 1-.002.004l-.006.01a.038.038 0 0 0-.002.004l-.002.003-.002.004-.004.007a.04.04 0 0 1-.002.004l-.003.003-.006.01-.002.004-.002.004a.599.599 0 0 1-.007.01l-.002.003-.002.004-.007.01-.002.004a.106.106 0 0 0-.003.003l-.007.01-.002.004-.002.004-.007.01-.003.003a.073.073 0 0 1-.002.004l-.007.01a.068.068 0 0 1-.002.004l-.003.003-.002.003-.409-.288c.291-.413.347-.946.149-1.427l.462-.19zm-1.243 2.251.34.366-1.463 1.363-.34-.366 1.463-1.363zm-2.195 2.045.34.366-.686.64-.017.014-.001.002-.003.002-.007.007-.749.698-.34-.366 1.463-1.363zm-2.195 2.044.34.366-.406.378v.001l-.002.002-.006.006h-.002l-.001.002-.002.002-.002.001-.007.008-.007.006h-.001l-.002.002v.001l-.002.001-.002.002-.002.002-.002.002-.001.001-.003.002a.445.445 0 0 0-.006.007l-.008.006-.007.007-.006.006-.012.011-.022.02-.004.004-.002.002-.003.003-.003.003-.003.003a.09.09 0 0 1-.003.003l-.003.002-.003.003-.003.003a.075.075 0 0 1-.003.003l-.003.003-.003.002c0 .002-.002.003-.003.004l-.002.002a.095.095 0 0 0-.004.003l-.002.003-.003.003-.003.003-.003.002c0 .002-.002.003-.003.004l-.002.002-.004.003-.002.003-.003.003-.004.004-.002.002a.098.098 0 0 1-.005.005l-.003.004-.003.002-.003.003-.002.003-.003.003-.001.001-.005.005-.003.004-.002.002a.126.126 0 0 1-.005.006l-.004.003-.005.006-.005.006-.005.006-.004.003-.001.002a.146.146 0 0 0-.009.01l-.005.006a.31.31 0 0 0-.005.006l-.005.006-.003.003-.005.006-.005.006-.005.006-.005.006-.003.004-.002.002-.003.004a.24.24 0 0 0-.005.006l-.005.006-.005.006-.008.01-.001.002a.1.1 0 0 0-.003.004l-.005.006-.005.006-.004.006a.107.107 0 0 0-.003.005l-.002.002-.003.003-.004.007-.005.006-.003.004-.001.002-.003.004-.002.002a.125.125 0 0 0-.003.004s0 .002-.002.002l-.002.004-.002.003-.003.004a.035.035 0 0 1-.003.003l-.001.003-.003.003c0 .001 0 .002-.002.003l-.002.004-.002.002-.002.004-.002.003-.003.003-.002.003-.002.004-.002.003-.003.003-.002.004-.002.003-.002.003-.002.003a.068.068 0 0 1-.003.004l-.001.003-.003.003a.029.029 0 0 1-.002.003l-.002.004-.002.003-.002.003-.002.004-.002.003-.003.003c0 .001 0 .002-.002.003 0 .002 0 .003-.002.004 0 0 0 .002-.002.003l-.002.004-.002.003a.07.07 0 0 0-.002.003l-.004.006-.002.004-.002.003-.002.004-.002.003-.002.003-.002.004-.002.003-.004.007-.004.007-.004.006-.006.01-.004.008a2 2 0 0 0-.228.642l-.493-.085a2.514 2.514 0 0 1 .76-1.405l.512-.477zm-.72 2.958.072.37.004.019v.004l.001.004.302 1.567-.49.095-.38-1.964.492-.095zm.569 2.946.252 1.31.001.005v.001l.125.648-.49.094-.38-1.963.491-.095zm.567 2.946.152.786v.002l.012.063V68h.001l.002.008v.003l.001.005v.002l.001.005v.001l.001.003v.003l.001.003.002.009v.002a.628.628 0 0 1 .004.018v.005l.002.005v.004l.002.008.003.013.002.011v.004l.001.004a.057.057 0 0 1 .002.008v.004l.001.004.001.005v.003l.002.004v.006l.001.004v.004l.002.004v.008l.002.004a.368.368 0 0 1 0 .008l.001.004.001.005v.005a.368.368 0 0 1 .002.008v.004l.001.004v.004l.001.004v.004l.001.004.001.004v.005l.001.005v.004l.001.004v.004l.001.004v.004l.001.004v.004l.001.004v.005l.001.004v.004l.001.004v.004a.06.06 0 0 0 .001.008v.008l.001.005v.005a.06.06 0 0 0 .001.004v.008l.001.004v.008l.001.004v.008l.002.013v.02l.001.004v.004l.001.017v.02a.057.057 0 0 1 0 .004l.002.02a.05.05 0 0 0 0 .004V68.517a1.95 1.95 0 0 1-.098.6l-.475-.158c.08-.24.094-.494.044-.755l-.186-.963.491-.094zm-.751 2.435.34.366c-.25.232-.556.401-.89.485l-.003.001-.017.004a.13.13 0 0 0-.003 0l-.003.002-.017.004h-.003a.03.03 0 0 0-.003.001l-.014.003h-.003l-.003.001-.003.001-.014.003h-.003l-.003.001h-.003l-.003.001-.008.002h-.003l-.003.001h-.003l-.003.001h-.003l-.008.002h-.003l-.003.001h-.003l-.003.001-.003.001-.009.001h-.002l-.003.001h-.003a.04.04 0 0 1-.004.001h-.003l-.008.002h-.003l-.003.001h-.003l-.003.001h-.003l-.005.001h-.003l-.003.001h-.003l-.003.001h-.003a.086.086 0 0 0-.008.001h-.003l-.004.001h-.003l-.003.001h-.003l-.003.001h-.008l-.003.001h-.004l-.003.001h-.006l-.005.001h-.006l-.003.001h-.006l-.004.001h-.004l-.003.001h-.01l-.003.001h-.008l-.003.001h-.01l-.003.001h-.011l-.003.001h-.01l-.003.001H31.08l-.003.001h-.018l-.003.001h-.027l-.004.001H30.897l-.004-.001h-.018l-.004-.001h-.015l-.004-.001h-.011l-.004-.001h-.007l-.004-.001h-.012l-.003-.001h-.008l-.004-.001a.568.568 0 0 0-.007 0 1.953 1.953 0 0 1-.306-.055l.125-.484c.12.031.241.047.363.047.377 0 .742-.146 1.027-.411zm-3.932-.973 1.755.96-.24.438-1.554-.85h-.001l-.009-.005-.003-.001-.007-.004-.002-.001-.003-.002h-.001l-.001-.001h-.001l-.003-.002a.19.19 0 0 1-.006-.004l-.004-.002h-.001l-.003-.002h-.001l-.002-.002h-.001l-.004-.002-.148-.081.24-.44zm-2.633-1.44 1.755.96-.24.439-.965-.528a.067.067 0 0 1-.004-.002l-.002-.001-.018-.01-.765-.418.24-.44zm-2.819-1.191c.418 0 .833.106 1.2.306l.742.406-.24.439-.616-.337-.03-.016-.002-.001-.001-.001-.004-.002-.002-.001-.008-.005-.01-.006c-.003 0-.005-.002-.007-.003a1.827 1.827 0 0 0-.024-.013l-.006-.004h-.002l-.002-.001v-.001l-.004-.002-.014-.007-.008-.005h-.001l-.002-.001a1.998 1.998 0 0 0-.962-.245H22.548l-.004.001h-.019l-.004.001h-.015l-.004.001h-.014l-.024.003-.038-.499c.063-.005.128-.007.191-.007zm-1.333.38.24.438-.65.356h-.003l-.003.002-.002.002h-.002l-1.095.6-.24-.44 1.755-.959zm-2.632 1.438.24.44-1.1.6-.005.003h-.002v.001l-.003.001-.002.002-.005.002-.006.004h-.002l-.006.004-.002.001-.003.002-.003.002h-.002l-.001.001-.002.002-.004.001-.607.333-.24-.44 1.755-.959zm-2.633 1.44.24.438-1.009.552h-.001l-.001.001-.002.001-.003.002-.002.001-.002.001h-.001l-.002.002-.002.001-.002.001h-.002l-.001.002h-.001l-.005.003-.003.002-.005.002-.003.002-.004.002a.039.039 0 0 0-.003.002l-.005.002-.003.002a.105.105 0 0 1-.004.002l-.003.002a.194.194 0 0 0-.004.002l-.004.002-.003.002-.004.001-.004.003a.062.062 0 0 1-.004.001l-.003.002a.105.105 0 0 0-.008.004l-.004.002-.003.002-.004.001-.004.003-.004.001a.098.098 0 0 0-.007.003l-.004.003a.109.109 0 0 0-.004.002l-.003.001-.003.002a.108.108 0 0 1-.005.002l-.004.002a.035.035 0 0 1-.003.002l-.003.001-.006.002-.003.002a.098.098 0 0 1-.003.001l-.004.002a.323.323 0 0 1-.005.003h-.003l-.003.002-.004.002-.008.004-.003.001-.003.001-.01.004-.002.002-.004.001-.008.004-.003.001-.004.002-.009.003-.003.002h-.003l-.012.006h-.003a1.974 1.974 0 0 1-.548.136l-.048-.498c.2-.02.395-.08.58-.182l1.04-.569zm-3.242-.497c.08.491.422.924.893 1.13l-.2.457a2.01 2.01 0 0 1-1.186-1.507l.493-.08zm-.048-2.875.491.095-.378 1.964-.491-.095.283-1.468.001-.007v-.003l.001-.002v-.004l.001-.001v-.003l.001-.005a.06.06 0 0 1 .001-.004v-.002l.001-.002v-.004l.09-.459zm.568-2.946.49.095-.378 1.964-.49-.095.141-.735v-.004l.001-.002v-.002l.236-1.22zm.78-3.11c.136.408.165.846.084 1.268l-.184.955-.49-.094.183-.955v-.004l.002-.004v-.004l.001-.004v-.004a.06.06 0 0 1 .002-.004v-.004a.06.06 0 0 0 .001-.004v-.004l.001-.004.001-.004v-.004l.001-.004.001-.004v-.004l.001-.004.001-.004a2 2 0 0 0-.014-.7.956.956 0 0 0-.001-.008l-.001-.003v-.004s-.001 0 0 0l-.002-.004v-.003l-.001-.004-.001-.004v-.004a.065.065 0 0 0-.003-.007v-.004l-.001-.004a.22.22 0 0 1-.002-.007v-.004l-.002-.004v-.004l-.002-.004v-.004l-.001-.003-.001-.004-.001-.004-.001-.004-.001-.003-.001-.004-.001-.004a.22.22 0 0 1-.002-.008V60.1l-.002-.003v-.004l-.002-.004v-.004l-.002-.004v-.003l-.002-.004v-.003l-.002-.004-.001-.004a1.863 1.863 0 0 0-.03-.095l.475-.16zm-2.134-2.4 1.464 1.362-.341.366-1.464-1.363.341-.366zm-2.195-2.045 1.463 1.363-.34.366-1.328-1.236-.002-.003-.004-.003-.003-.003-.001-.001-.002-.002-.002-.002-.001-.001-.003-.002-.016-.016-.102-.095.34-.365zM7.76 53.379c.08.162.191.31.33.44l.926.862-.34.366-.921-.858-.002-.001-.001-.001H7.75v-.002c-.002 0-.003-.002-.004-.003l-.002-.002-.002-.001-.002-.002-.002-.003-.003-.002-.002-.002-.002-.002-.002-.002-.003-.002-.002-.002-.002-.002-.002-.002-.002-.003a.039.039 0 0 1-.005-.004l-.002-.002-.002-.002-.002-.002-.002-.002-.002-.002-.002-.002-.003-.003-.002-.002-.002-.002-.002-.002-.002-.002-.002-.002-.002-.002-.002-.002-.002-.002-.003-.003-.002-.002-.002-.002-.002-.002-.002-.002-.002-.002-.002-.002-.002-.002-.002-.002-.002-.003-.002-.002-.002-.002-.002-.002-.004-.004-.002-.002-.002-.002-.004-.005-.002-.002-.002-.002-.002-.002-.004-.005-.002-.002-.002-.002a.43.43 0 0 0-.008-.009l-.006-.007-.002-.002a1.992 1.992 0 0 1-.3-.441L7.31 53.6l.449-.221zm.346-2.39.25.433a1.522 1.522 0 0 0-.743 1.234l-.5-.026v-.011l.001-.004v-.011l.001-.004v-.008a.537.537 0 0 0 .001-.008v-.007l.001-.005v-.007l.001-.004a.54.54 0 0 1 0-.004v-.004a2.31 2.31 0 0 1 .002-.015v-.004l.001-.004.001-.012v-.003l.001-.004.001-.012v-.004l.001-.003.002-.016c.036-.275.127-.543.269-.782 0-.001 0-.002.002-.003l.008-.014a2.64 2.64 0 0 1 .024-.04c0 .001 0 0 0 0a1.717 1.717 0 0 1 .032-.048l.002-.003.002-.003a1.123 1.123 0 0 0 .01-.013l.001-.003.003-.004.006-.009.003-.003.002-.003.007-.01.002-.003.002-.003.002-.003.003-.003.002-.004a.329.329 0 0 0 .005-.006l.002-.003.003-.003.002-.003.002-.003.003-.003.002-.004.002-.003.003-.003.002-.003.003-.003.002-.003.002-.003.003-.003.002-.003.002-.003a.09.09 0 0 1 .005-.006l.003-.004.002-.003.003-.002.002-.004.003-.003.002-.003a.689.689 0 0 1 .005-.006l.003-.003.002-.003.003-.003.002-.003.003-.003.002-.003.003-.003.002-.003a.073.073 0 0 1 .005-.006l.003-.003.002-.003.003-.003.002-.003.003-.003.003-.003.002-.003.003-.002.002-.003.003-.003.003-.003.002-.003.003-.003.003-.003.002-.003.003-.003.003-.003.002-.003.003-.002a.73.73 0 0 0 .002-.003l.003-.003.003-.003.003-.003.002-.003.003-.003.003-.002a.075.075 0 0 1 .002-.004l.003-.002.003-.003.002-.003.003-.003.003-.003a.079.079 0 0 0 .006-.006l.003-.002.002-.003a.072.072 0 0 1 .003-.003L7.7 51.3l.003-.002a.1.1 0 0 0 .006-.006l.002-.002.003-.003.003-.003.003-.003.003-.003a.212.212 0 0 0 .008-.008l.003-.003a.08.08 0 0 1 .003-.003l.003-.003.005-.005a.053.053 0 0 0 .003-.003l.004-.003.003-.002.007-.008.004-.002a1.934 1.934 0 0 1 .34-.248zm2.937-.524.062.496-1.985.248-.061-.496s.231-.03.536-.067H9.6l.007-.002H9.616l.002-.001h.002l1.423-.178zm2.977-.372.062.497-1.985.247-.061-.496 1.198-.15h.008l.004-.001h.007l.002-.001h.004l.761-.096zm2.926-.555.267.423c-.313.197-.657.32-1.024.366l-1.115.139-.062-.496 1.115-.14H16.136l.004-.001h.003l.004-.001h.004l.008-.002h.004l.004-.001a.052.052 0 0 0 .007-.001l.012-.002h.004l.004-.001c.088-.014.175-.034.259-.06h.004l.022-.007.004-.001a.176.176 0 0 0 .018-.006l.004-.002h.004l.004-.002a.368.368 0 0 0 .01-.004l.005-.001.003-.001.004-.002h.003s0-.001 0 0l.012-.005.003-.001.004-.001.003-.002.004-.001.004-.002h.004l.003-.002.004-.002h.003l.004-.002.003-.002.004-.001.004-.002h.004l.003-.002.004-.002h.003l.004-.002.004-.002.004-.002h.003l.004-.002.003-.002.003-.001.003-.001a.256.256 0 0 0 .008-.003l.003-.002.004-.001a.114.114 0 0 1 .003-.002h.003l.004-.002a.35.35 0 0 0 .009-.004l.003-.002a551727723.48 551727723.48 0 0 0 .006-.003h.003l.016-.008.003-.001.025-.012c.075-.035.147-.074.217-.118zm1.54-2.525.452.214-.799 1.688c-.023.05-.049.1-.076.147l-.437-.243a2.01 2.01 0 0 0 .061-.118l.799-1.688zm1.283-2.712.452.214-.856 1.808-.452-.214.856-1.808zm1.349-2.672.376.329c-.092.105-.17.225-.233.358l-.613 1.295-.452-.214.594-1.254.002-.006.003-.006.001-.002.001-.002.002-.003s0-.003.002-.004l.001-.003.007-.015.002-.005a.174.174 0 0 1 .004-.008l.002-.005.003-.004.002-.004.002-.004.002-.005.002-.004.002-.004.002-.005.002-.004.003-.004.002-.004v-.002l.003-.004.002-.005.002-.004.002-.004.003-.004.002-.004.002-.004.002-.005.003-.004.002-.004.002-.004.002-.004.003-.005.002-.004v-.001l.003-.004.002-.005.003-.004.002-.004.002-.004.003-.004.002-.004.002-.004.003-.004.002-.004.002-.004.003-.004v-.002l.002-.003.003-.004.01-.017.003-.004.002-.004.002-.004.003-.004.002-.004.003-.004.002-.004.003-.004.003-.004.002-.004.016-.024.002-.004.003-.003.002-.004.003-.004.003-.004.002-.004.003-.004.003-.004.016-.023.002-.004.003-.003c0-.002.002-.003.003-.004l.002-.004.003-.003c0-.002.002-.003.003-.004l.002-.004.003-.003c0-.002.002-.003.003-.004l.003-.004.002-.003.003-.004v-.001c.002-.001.003-.002.003-.004l.003-.003.003-.004.002-.003.003-.004.003-.003.002-.003.003-.004.003-.003.002-.004.003-.003c.02-.026.041-.051.063-.075zm1.5-.672v.5c-.177 0-.35.03-.514.088l-.168-.471c.171-.061.35-.098.529-.111l.02-.002H22.504a.062.062 0 0 0 .008-.001h.004a.236.236 0 0 1 .017-.001h.017l.004-.001H22.608l.005-.001h.004z" fill="#3F3F3F"/>
    <path d="M93.832 8.562V29.48M87.73 20.328v20.92M38.047 22.943v20.92M51.121.28V21.2M11.897 22.943v20.92M114.617 24.28v21" stroke="#CF0036" stroke-width=".5" stroke-linecap="round" stroke-dasharray="3 3"/>
    <path d="M18.617 18.28a2 2 0 1 0 0-4 2 2 0 0 0 0 4zM68.617 8.28a2 2 0 1 0 0-4 2 2 0 0 0 0 4zM107.617 21.28a2 2 0 1 0 0-4 2 2 0 0 0 0 4z" fill="#CF0036"/>
    <path d="m64.315 61-4.394 3.561M60.337 60.583l3.562 4.395M88.763 8.73l-4.635-3.243M88.067 4.791l-3.243 4.635M7.104 16.42l-5.316-1.933M5.412 12.795 3.48 18.11" stroke="#707070"/>
    <defs>
        <filter id="7tn8u69dia" x="40.086" y="17.989" width="43.061" height="41.482" filterUnits="userSpaceOnUse" color-interpolation-filters="sRGB">
            <feFlood flood-opacity="0" result="BackgroundImageFix"/>
            <feColorMatrix in="SourceAlpha" values="0 0 0 0 0 0 0 0 0 0 0 0 0 0 0 0 0 0 127 0" result="hardAlpha"/>
            <feOffset dy="2"/>
            <feGaussianBlur stdDeviation="1.5"/>
            <feColorMatrix values="0 0 0 0 1 0 0 0 0 1 0 0 0 0 1 0 0 0 1 0"/>
            <feBlend in2="BackgroundImageFix" result="effect1_dropShadow_535_4254"/>
            <feBlend in="SourceGraphic" in2="effect1_dropShadow_535_4254" result="shape"/>
        </filter>
        <filter id="te0zyzfu2b" x="81.245" y="42.815" width="33.752" height="31.738" filterUnits="userSpaceOnUse" color-interpolation-filters="sRGB">
            <feFlood flood-opacity="0" result="BackgroundImageFix"/>
            <feColorMatrix in="SourceAlpha" values="0 0 0 0 0 0 0 0 0 0 0 0 0 0 0 0 0 0 127 0" result="hardAlpha"/>
            <feOffset dy="2"/>
            <feGaussianBlur stdDeviation="1.5"/>
            <feColorMatrix values="0 0 0 0 1 0 0 0 0 1 0 0 0 0 1 0 0 0 1 0"/>
            <feBlend in2="BackgroundImageFix" result="effect1_dropShadow_535_4254"/>
            <feBlend in="SourceGraphic" in2="effect1_dropShadow_535_4254" result="shape"/>
        </filter>
        <filter id="54t138clac" x="3.245" y="42.815" width="33.752" height="31.738" filterUnits="userSpaceOnUse" color-interpolation-filters="sRGB">
            <feFlood flood-opacity="0" result="BackgroundImageFix"/>
            <feColorMatrix in="SourceAlpha" values="0 0 0 0 0 0 0 0 0 0 0 0 0 0 0 0 0 0 127 0" result="hardAlpha"/>
            <feOffset dy="2"/>
            <feGaussianBlur stdDeviation="1.5"/>
            <feColorMatrix values="0 0 0 0 1 0 0 0 0 1 0 0 0 0 1 0 0 0 1 0"/>
            <feBlend in2="BackgroundImageFix" result="effect1_dropShadow_535_4254"/>
            <feBlend in="SourceGraphic" in2="effect1_dropShadow_535_4254" result="shape"/>
        </filter>
    </defs>
</svg>
