<svg width="15" height="12" viewBox="0 0 15 12" fill="none" xmlns="http://www.w3.org/2000/svg">
    <path d="M5.495 5.76a2.88 2.88 0 1 0 0-5.76 2.88 2.88 0 0 0 0 5.76zm2.016.72h-.376a3.917 3.917 0 0 1-3.28 0h-.376A3.025 3.025 0 0 0 .455 9.5v.936a1.08 1.08 0 0 0 1.08 1.08h7.92a1.08 1.08 0 0 0 1.08-1.08V9.5A3.025 3.025 0 0 0 7.51 6.48zm7.267-2.889-.623-.632a.266.266 0 0 0-.378 0L11.417 5.3l-1.024-1.034a.266.266 0 0 0-.378 0l-.632.628a.267.267 0 0 0 0 .378l1.838 1.852a.267.267 0 0 0 .378 0l3.179-3.154a.27.27 0 0 0 0-.379z" fill="#999CAD"/>
</svg>
