<svg width="33" height="18" viewBox="0 0 33 18" fill="none" xmlns="http://www.w3.org/2000/svg">
    <path d="M29.95 1.8a1.2 1.2 0 0 0-.655.19l-6.082 3.839a.6.6 0 0 0-.28.506v5.344a.6.6 0 0 0 .28.506l6.082 3.839c.197.122.423.188.654.19h1.463a.6.6 0 0 0 .6-.6V2.4a.6.6 0 0 0-.6-.6H29.95zM17.496 18H4.137a3.633 3.633 0 0 1-3.62-3.614V3.614A3.627 3.627 0 0 1 4.13 0h13.36a3.627 3.627 0 0 1 3.613 3.614v10.765A3.617 3.617 0 0 1 17.496 18z" fill="#CF0036"/>
    <path d="M12.516 3.086h-3v11h3v-11z" fill="#fff"/>
    <path d="M16.516 10.173V7.086h-11v3.087h11z" fill="#fff"/>
</svg>
