<svg width="32" height="32" viewBox="0 0 32 32" fill="none" xmlns="http://www.w3.org/2000/svg">
    <path d="M25.05 9.055v3.868s-2.575.013-2.588 0V9.055H18.58s.013-2.574 0-2.587h3.881V2.587h2.59v3.881h3.88v2.587h-3.88zm-3.882 5.175v-3.881h-3.882V6.468H6.936A2.6 2.6 0 0 0 4.35 9.055v15.524a2.6 2.6 0 0 0 2.587 2.588H22.46a2.6 2.6 0 0 0 2.59-2.588V14.23h-3.882zM6.936 24.579l3.881-5.175 2.588 3.883 3.881-5.175 5.175 6.468-15.525-.001z" fill="#CF0036"/>
    <path d="M25.468 2.016h-3v11h3v-11z" fill="#CF0036"/>
    <path d="M29.468 9.103V6.016h-11v3.087h11z" fill="#CF0036"/>
</svg>
