<svg width="25" height="24" viewBox="0 0 25 24" fill="none" xmlns="http://www.w3.org/2000/svg">
    <path fill-rule="evenodd" clip-rule="evenodd" d="M16.655 2.25a3.25 3.25 0 0 0-3.2 3.824l-4.73 3.312a.758.758 0 0 0-.068.053 3.25 3.25 0 1 0 0 5.121c.021.02.044.037.068.054l4.73 3.312a3.25 3.25 0 1 0 .617-1.4l-4.48-3.135c.2-.422.313-.893.313-1.391s-.112-.97-.312-1.391l4.48-3.136a3.25 3.25 0 1 0 2.582-5.223zm-1.75 3.25a1.75 1.75 0 1 1 3.5 0 1.75 1.75 0 0 1-3.5 0zm-8.25 4.75a1.75 1.75 0 1 0 0 3.5 1.75 1.75 0 0 0 0-3.5zm10 6.5a1.75 1.75 0 1 0 0 3.5 1.75 1.75 0 0 0 0-3.5z" fill="#000"/>
</svg>
