<svg width="45" height="44" viewBox="0 0 45 44" fill="none" xmlns="http://www.w3.org/2000/svg">
    <path d="M6.045 36.667h33V22a5.5 5.5 0 0 0-5.5-5.5h-22a5.5 5.5 0 0 0-5.5 5.5v14.667z" stroke="#CF0036" stroke-width="3" stroke-linecap="round" stroke-linejoin="round"/>
    <path d="M6.045 27.139c.578.25 1.203.373 1.833.361a4.398 4.398 0 0 0 3.667-1.833 4.399 4.399 0 0 1 3.666-1.834 4.4 4.4 0 0 1 3.667 1.834 4.4 4.4 0 0 0 3.667 1.833 4.399 4.399 0 0 0 3.666-1.833 4.4 4.4 0 0 1 3.667-1.834 4.4 4.4 0 0 1 3.667 1.834A4.4 4.4 0 0 0 37.21 27.5a4.357 4.357 0 0 0 1.834-.361m-16.5-19.806 2.685 3.003a3.667 3.667 0 1 1-5.527.182l2.842-3.185z" stroke="#CF0036" stroke-width="3" stroke-linecap="round" stroke-linejoin="round"/>
</svg>
