<svg width="12" height="12" viewBox="0 0 12 12" fill="none" xmlns="http://www.w3.org/2000/svg">
    <g clip-path="url(#rw4a0f0pqa)">
        <path d="M9.5 1H9V.5a.5.5 0 1 0-1 0V1H4V.5a.5.5 0 1 0-1 0V1h-.5A2.503 2.503 0 0 0 0 3.5v6C0 10.879 1.121 12 2.5 12h7c1.379 0 2.5-1.121 2.5-2.5v-6C12 2.122 10.879 1 9.5 1zm-7 1h7c.827 0 1.5.673 1.5 1.5V4H1v-.5C1 2.673 1.673 2 2.5 2zm7 9h-7C1.673 11 1 10.327 1 9.5V5h10v4.5c0 .827-.673 1.5-1.5 1.5zm-.584-4.424a.5.5 0 0 1-.013.707l-2.37 2.284A1.486 1.486 0 0 1 5.48 10c-.4 0-.777-.156-1.06-.44L3.293 8.514a.5.5 0 0 1 .68-.732l1.14 1.059a.504.504 0 0 0 .719.013l2.377-2.291a.5.5 0 0 1 .707.013z" fill="#CF0036"/>
    </g>
    <defs>
        <clipPath id="rw4a0f0pqa">
            <path fill="#fff" d="M0 0h12v12H0z"/>
        </clipPath>
    </defs>
</svg>
