<svg width="20" height="21" viewBox="0 0 20 21" fill="none" xmlns="http://www.w3.org/2000/svg">
    <path d="M4.372.885a.625.625 0 0 1 .626.625v.625h10V1.51a.625.625 0 1 1 1.25 0v.625h1.25A2.5 2.5 0 0 1 20 4.635v13.75a2.5 2.5 0 0 1-2.5 2.5h-15a2.5 2.5 0 0 1-2.5-2.5V4.635a2.5 2.5 0 0 1 2.5-2.5h1.25V1.51a.625.625 0 0 1 .622-.625zM2.5 3.385a1.25 1.25 0 0 0-1.25 1.25v13.75a1.25 1.25 0 0 0 1.25 1.25h15a1.25 1.25 0 0 0 1.25-1.25V4.635a1.25 1.25 0 0 0-1.25-1.25h-15z" fill="#CF0036"/>
    <path d="M3.125 5.885a.625.625 0 0 1 .625-.625h12.5a.625.625 0 0 1 .625.625v1.25a.625.625 0 0 1-.625.625H3.75a.625.625 0 0 1-.625-.625v-1.25z" fill="#DCBA4E"/>
</svg>
