<svg width="31" height="31" viewBox="0 0 31 31" fill="none" xmlns="http://www.w3.org/2000/svg">
    <path d="M20.823 14.486v-3.774H17.05V8.197h3.773V4.423h2.516v3.774h3.774v2.515h-3.774v3.774h-2.516zm4.969 12.578c-2.62 0-5.215-.566-7.784-1.698-2.568-1.132-4.9-2.746-6.996-4.842-2.097-2.097-3.71-4.424-4.843-6.982-1.132-2.557-1.698-5.157-1.698-7.798V4.423h7.421l1.164 6.32L9.47 14.36c.461.818.975 1.593 1.54 2.327a18.932 18.932 0 0 0 1.825 2.044c.608.608 1.274 1.19 1.997 1.746a21.058 21.058 0 0 0 2.342 1.556l3.648-3.648 6.29 1.29v7.39h-1.321z" fill="#CF0036"/>
</svg>
