<svg width="20" height="20" viewBox="0 0 20 20" fill="none" xmlns="http://www.w3.org/2000/svg">
    <path d="M16.875 10.476v-.957l1.2-1.05a1.25 1.25 0 0 0 .238-1.593l-1.476-2.5a1.25 1.25 0 0 0-1.48-.563l-1.52.513a7.094 7.094 0 0 0-.818-.47L12.7 2.283a1.25 1.25 0 0 0-1.25-1.006H8.525a1.25 1.25 0 0 0-1.25 1.006l-.319 1.575c-.285.138-.56.294-.825.469l-1.487-.538a1.25 1.25 0 0 0-.4-.037 1.25 1.25 0 0 0-1.081.625l-1.475 2.5a1.25 1.25 0 0 0 .256 1.568l1.181 1.082v.956l-1.181 1.05a1.25 1.25 0 0 0-.256 1.594l1.475 2.5a1.25 1.25 0 0 0 1.08.625c.137 0 .272-.02.4-.063l1.52-.512c.262.174.535.33.818.468L7.3 17.72a1.25 1.25 0 0 0 1.25 1.007h2.95a1.25 1.25 0 0 0 1.25-1.007l.319-1.575c.285-.137.56-.294.825-.468l1.512.512a1.25 1.25 0 0 0 1.481-.562l1.425-2.5a1.25 1.25 0 0 0-.256-1.57l-1.181-1.08zM15.756 15l-2.143-.725a5.536 5.536 0 0 1-1.694.98l-.444 2.245h-2.95l-.444-2.22a5.85 5.85 0 0 1-1.687-.98l-2.15.7-1.475-2.5 1.7-1.5a5.562 5.562 0 0 1 0-1.957l-1.7-1.543L4.244 5l2.144.725a5.537 5.537 0 0 1 1.693-.982l.444-2.243h2.95l.444 2.218a5.85 5.85 0 0 1 1.687.982l2.15-.7 1.475 2.5-1.7 1.5c.116.647.116 1.309 0 1.956l1.7 1.544-1.475 2.5z" fill="#EA2121"/>
    <path d="M10 13.75A3.75 3.75 0 1 1 13.75 10 3.714 3.714 0 0 1 10 13.75zm0-6.25A2.444 2.444 0 0 0 7.5 10a2.444 2.444 0 0 0 2.5 2.5 2.444 2.444 0 0 0 2.5-2.5A2.444 2.444 0 0 0 10 7.5z" fill="#EA2121"/>
</svg>
