<svg width="41" height="39" viewBox="0 0 41 39" fill="none" xmlns="http://www.w3.org/2000/svg">
    <g clip-path="url(#f2wr8351ca)">
        <mask id="trpuvt0rgb" style="mask-type:luminance" maskUnits="userSpaceOnUse" x="0" y="0" width="41" height="39">
            <path d="M27 0H14C6.268 0 0 6.268 0 14v11c0 7.732 6.268 14 14 14h13c7.732 0 14-6.268 14-14V14c0-7.732-6.268-14-14-14z" fill="#fff"/>
        </mask>
        <g mask="url(#trpuvt0rgb)">
            <path d="M44.607 18.662a1.288 1.288 0 0 0-2.186.172 1.247 1.247 0 0 0 .122 1.335 2.94 2.94 0 0 1-.4 3.187 4.37 4.37 0 0 1-3.59 1.574c-2.092-.052-4.725-1.273-7.594-3.429.787-.875 1.337-1.5 1.49-1.708 2.43-3.24 3.088-8.2-1.2-11.448a6.13 6.13 0 0 0-6.309-.966 12.7 12.7 0 0 0-4.437 3.359 12.7 12.7 0 0 0-4.437-3.359 6.13 6.13 0 0 0-6.309.966c-4.29 3.244-3.632 8.208-1.2 11.448.154.205.7.832 1.49 1.708-2.869 2.156-5.5 3.377-7.594 3.429a4.378 4.378 0 0 1-3.59-1.574 2.939 2.939 0 0 1-.4-3.187 1.247 1.247 0 0 0 .122-1.335 1.288 1.288 0 0 0-2.186-.173 5.38 5.38 0 0 0 .546 6.381 6.887 6.887 0 0 0 5.573 2.442c2.691-.067 5.805-1.441 9.258-4.08 2.553 2.792 5.97 6.454 7.818 8.316a1.274 1.274 0 0 0 .907.378h.014a1.273 1.273 0 0 0 .907-.378c1.848-1.862 5.265-5.525 7.818-8.316 3.453 2.638 6.567 4.013 9.258 4.08a6.885 6.885 0 0 0 5.573-2.442 5.38 5.38 0 0 0 .536-6.38zm-14.9-8.277c4.1 3.1 1.06 7.4.7 7.876-.114.15-.647.754-1.434 1.628a56.622 56.622 0 0 1-6.81-7.176c3.73-4.2 5.902-3.567 7.541-2.328h.003zm-9.84 17.958a419.943 419.943 0 0 1-6.114-6.559 59.194 59.194 0 0 0 6.75-7.061 59.185 59.185 0 0 0 6.745 7.062 398.378 398.378 0 0 1-6.115 6.559.879.879 0 0 1-1.269-.002l.003.001zm-9.27-10.081c-.36-.48-3.4-4.779.7-7.876 1.64-1.238 3.81-1.871 7.545 2.327a56.601 56.601 0 0 1-6.81 7.176c-.79-.874-1.324-1.478-1.438-1.628l.003.001z" fill="url(#bkxftj0t3c)"/>
        </g>
    </g>
    <defs>
        <radialGradient id="bkxftj0t3c" cx="0" cy="0" r="1" gradientUnits="userSpaceOnUse" gradientTransform="matrix(24.9054 0 0 12.5962 20.505 19.502)">
            <stop stop-color="#CF0036"/>
            <stop offset="1" stop-color="#FC2C62"/>
        </radialGradient>
        <clipPath id="f2wr8351ca">
            <path fill="#fff" d="M0 0h41v39H0z"/>
        </clipPath>
    </defs>
</svg>
