<svg width="45" height="44" viewBox="0 0 45 44" fill="none" xmlns="http://www.w3.org/2000/svg">
    <path d="m36.111 13.457-5.023-5.024a3.52 3.52 0 0 0-4.877-.128l-3.666 3.667-2.365-2.274a1.84 1.84 0 1 0-2.604 2.604l2.274 2.365L9.71 24.805a3.667 3.667 0 0 0-1.045 2.218l-.788 7.645a1.833 1.833 0 0 0 1.13 1.863c.223.09.462.137.703.136h.165l7.645-.697a3.666 3.666 0 0 0 2.219-1.045l10.23-10.23 2.273 2.273a1.83 1.83 0 0 0 2.603 0 1.834 1.834 0 0 0 0-2.603l-2.273-2.273 3.667-3.667a3.52 3.52 0 0 0-.129-4.968zm-18.92 18.846-5.5.514.495-5.5L22.545 17.16l4.931 4.95-10.285 10.193zM30.025 19.47l-4.987-4.803L28.54 11l5.005 5.005-3.52 3.465z" fill="#CF0036"/>
</svg>
