<svg width="11" height="21" viewBox="0 0 11 21" fill="none" xmlns="http://www.w3.org/2000/svg">
    <path d="M10.942 13.463a4.322 4.322 0 0 1-1.13 2.994 4.879 4.879 0 0 1-2.937 1.55v1.99a.35.35 0 0 1-.364.364H4.978a.369.369 0 0 1-.364-.364v-1.99a7.164 7.164 0 0 1-1.45-.352 6.978 6.978 0 0 1-1.993-1.05 6.486 6.486 0 0 1-.528-.427 4.536 4.536 0 0 1-.2-.2.345.345 0 0 1-.023-.466l1.17-1.534a.353.353 0 0 1 .26-.136.282.282 0 0 1 .274.1l.023.023c.778.71 1.73 1.2 2.76 1.42.277.06.559.091.842.091.577.011 1.144-.16 1.619-.489a1.591 1.591 0 0 0 .7-1.386c0-.212-.06-.42-.17-.6a2.13 2.13 0 0 0-.381-.477 3.117 3.117 0 0 0-.665-.426 15.063 15.063 0 0 0-.75-.364c-.198-.087-.5-.21-.91-.369a67.3 67.3 0 0 0-.7-.284 19.019 19.019 0 0 1-.7-.3 8.819 8.819 0 0 1-.71-.352 11.64 11.64 0 0 1-.641-.4 4 4 0 0 1-.608-.483 7.079 7.079 0 0 1-.494-.557 2.779 2.779 0 0 1-.4-.659 4.557 4.557 0 0 1-.24-.755c-.066-.29-.1-.588-.1-.886A3.885 3.885 0 0 1 1.714 3.94a5.2 5.2 0 0 1 2.9-1.522V.364A.369.369 0 0 1 4.977 0H6.51a.35.35 0 0 1 .364.364v2a6.32 6.32 0 0 1 1.255.261c.338.103.668.23.988.381.25.124.492.266.72.426.228.16.376.27.444.33s.124.112.17.158a.329.329 0 0 1 .057.432l-.92 1.66a.309.309 0 0 1-.261.181.362.362 0 0 1-.307-.08 2.291 2.291 0 0 0-.165-.136 6.274 6.274 0 0 0-.443-.3 5.075 5.075 0 0 0-1.511-.664 3.79 3.79 0 0 0-.971-.13 2.953 2.953 0 0 0-1.761.488 1.527 1.527 0 0 0-.585 1.81c.074.18.189.34.335.47.142.134.292.26.449.375a4 4 0 0 0 .636.352 15.832 15.832 0 0 0 1.487.62c.4.15.706.27.92.357.213.088.5.221.863.4.297.14.584.302.858.483.245.175.478.365.7.568.237.207.44.45.6.721.152.275.272.567.358.87.1.346.15.706.148 1.067h.003z" fill="#CF0036"/>
</svg>
