<svg width="22" height="21" viewBox="0 0 22 21" fill="none" xmlns="http://www.w3.org/2000/svg">
    <path d="M6.836.75H3.933A2.25 2.25 0 0 0 1.683 3v2.903a2.25 2.25 0 0 0 2.25 2.25h2.903a2.25 2.25 0 0 0 2.25-2.25V3A2.25 2.25 0 0 0 6.836.75zM6.836 12.324H3.933a2.25 2.25 0 0 0-2.25 2.25v2.903a2.25 2.25 0 0 0 2.25 2.25h2.903a2.25 2.25 0 0 0 2.25-2.25v-2.903a2.25 2.25 0 0 0-2.25-2.25zM18.41 12.324h-2.903a2.25 2.25 0 0 0-2.25 2.25v2.903a2.25 2.25 0 0 0 2.25 2.25h2.903a2.25 2.25 0 0 0 2.25-2.25v-2.903a2.25 2.25 0 0 0-2.25-2.25zM18.41.75h-2.903A2.25 2.25 0 0 0 13.257 3v2.903a2.25 2.25 0 0 0 2.25 2.25h2.903a2.25 2.25 0 0 0 2.25-2.25V3A2.25 2.25 0 0 0 18.41.75z" stroke="#303030" stroke-width="1.5"/>
</svg>
