<svg width="40" height="41" viewBox="0 0 40 41" fill="none" xmlns="http://www.w3.org/2000/svg">
    <path d="m32.333 12.733-4.566-4.566a3.2 3.2 0 0 0-4.434-.117L20 11.383l-2.15-2.066a1.674 1.674 0 0 0-2.367 2.367l2.067 2.15-9.217 9.216a3.333 3.333 0 0 0-.95 2.017l-.716 6.95a1.667 1.667 0 0 0 1.027 1.693c.203.083.42.125.64.123h.15l6.95-.633a3.333 3.333 0 0 0 2.016-.95l9.3-9.3 2.067 2.067a1.666 1.666 0 0 0 2.366 0 1.667 1.667 0 0 0 0-2.367l-2.066-2.066 3.333-3.334a3.2 3.2 0 0 0-.117-4.517zm-17.2 17.134-5 .466.45-5L20 16.1l4.483 4.5-9.35 9.267zM26.8 18.2l-4.533-4.366L25.45 10.5 30 15.05l-3.2 3.15z" fill="#CF0036"/>
</svg>
