<svg width="45" height="44" viewBox="0 0 45 44" fill="none" xmlns="http://www.w3.org/2000/svg">
    <path d="M6.069 6.683a2.063 2.063 0 0 0-.712 1.567v28.875a2.063 2.063 0 0 0 4.125 0v-7.267c3.926-2.942 7.236-1.567 12.148.86 2.79 1.375 5.971 2.956 9.42 2.956 2.53 0 5.204-.85 7.97-3.245a2.061 2.061 0 0 0 .712-1.554V8.25a2.062 2.062 0 0 0-3.413-1.559c-4.247 3.68-7.654 2.288-12.86-.289C18.624 4 12.605 1.021 6.07 6.682zm29.538 21.205c-3.925 2.945-7.236 1.566-12.148-.859-3.98-1.977-8.764-4.341-13.977-1.958V9.228c3.926-2.943 7.236-1.568 12.148.86 2.79 1.374 5.971 2.956 9.42 2.956 1.573.002 3.128-.339 4.557-.999v15.843z" fill="#CF0036"/>
</svg>
