<svg width="151" height="111" viewBox="0 0 151 111" fill="none" xmlns="http://www.w3.org/2000/svg">
    <g clip-path="url(#j81hz763ba)">
        <path d="M110.985 22.91 23.203 47.676 26.14 58.08l87.781-24.766-2.935-10.404z" fill="url(#yrph3c1ukb)" stroke="#202020" stroke-width=".5"/>
        <path d="M123.645 64.099c.931 3.334-1.225 5.501-3.965 6.377L38.616 93.348a4.013 4.013 0 0 1-4.95-2.771L20.958 45.539c-.6-2.132.622-5.843 3.359-6.773l80.477-21.05a4.012 4.012 0 0 1 4.951 2.772l13.899 43.61z" stroke="#202020" stroke-linecap="round" stroke-linejoin="round"/>
        <path d="M123.53 63.527a4.009 4.009 0 0 1-2.771 4.95L39.693 91.348a4.012 4.012 0 0 1-4.95-2.772L22.037 43.54a4.012 4.012 0 0 1 2.772-4.95l81.064-22.87a4.011 4.011 0 0 1 4.951 2.77l12.706 45.037z" stroke="#202020" stroke-linecap="round" stroke-linejoin="round"/>
        <path d="M88.989 47.964 33.29 63.668l.526 1.867 55.7-15.704-.527-1.867zM34.654 68.502l32.301-9.114.527 1.868-32.3 9.114-.528-1.868z" fill="#202020" stroke="#202020" stroke-width=".5"/>
        <path d="M105.522 68.908a4.566 4.566 0 0 1-4.231-4.869 4.567 4.567 0 0 1 4.869-4.23 4.566 4.566 0 0 1 4.231 4.868 4.566 4.566 0 0 1-4.869 4.231z" fill="#95DDBF"/>
        <path d="M106.143 60.058a4.316 4.316 0 0 0-4.602 3.999 4.316 4.316 0 0 0 3.999 4.602 4.316 4.316 0 0 0 4.602-3.999 4.316 4.316 0 0 0-3.999-4.602zm.035-.499a4.811 4.811 0 1 1-.673 9.599 4.811 4.811 0 1 1 .673-9.599z" fill="#202020"/>
        <path d="M112.09 66.958a4.566 4.566 0 0 1-4.231-4.87 4.566 4.566 0 0 1 4.869-4.23 4.566 4.566 0 0 1 4.231 4.869 4.566 4.566 0 0 1-4.869 4.23z" fill="url(#xtrtyrhpoc)"/>
        <path d="M112.711 58.108a4.315 4.315 0 0 0-4.602 3.998 4.315 4.315 0 0 0 3.998 4.602 4.316 4.316 0 0 0 4.602-3.998 4.315 4.315 0 0 0-3.998-4.602zm.035-.5a4.811 4.811 0 1 1-.674 9.599 4.811 4.811 0 0 1 .674-9.598z" fill="#202020"/>
        <path d="M146.052 50.637s-4.59 22.337-37.616 31.51M41.883 98.621s-14.198 5.559-31.369-9.627" stroke="#202020" stroke-linecap="round"/>
        <path d="M119.296 18.41s44.67 7.267 12.609 44.457M28.246 92.576s-40.182-10.259-13.894-42.747" stroke="#202020" stroke-linecap="round"/>
        <path d="M5.432 72.981a3.813 3.813 0 0 1-3.81-3.809c0-2.1 1.71-3.809 3.81-3.809s3.809 1.709 3.809 3.809-1.71 3.809-3.81 3.809z" fill="#CF0036"/>
        <path d="M5.432 66.363a2.812 2.812 0 0 0-2.81 2.809 2.812 2.812 0 0 0 2.81 2.809 2.812 2.812 0 0 0 2.809-2.809 2.812 2.812 0 0 0-2.81-2.809zm0-2a4.809 4.809 0 1 1 0 9.618 4.809 4.809 0 0 1 0-9.618z" fill="#fff"/>
        <path d="M139.586 35.836a.984.984 0 0 1-.703-.691l-1.353-4.733a1 1 0 0 1 .267-.993l3.539-3.421a.984.984 0 0 1 .954-.247c.164.044.562.2.702.691l1.353 4.732a.998.998 0 0 1-.266.994l-3.539 3.42a.985.985 0 0 1-.954.248z" fill="#CF0036"/>
        <path d="m142.031 26.717-3.539 3.42 1.353 4.733 3.539-3.421-1.353-4.732zm.518-1.932c.64.172 1.197.656 1.405 1.382l1.353 4.732a2 2 0 0 1-.533 1.988l-3.539 3.42c-1.086 1.05-2.898.564-3.313-.888l-1.353-4.732a2 2 0 0 1 .533-1.988l3.539-3.42a1.982 1.982 0 0 1 1.908-.494z" fill="#fff"/>
        <path d="M100.727 10.224a.746.746 0 0 1-.634-.349l-2.68-4.237a.754.754 0 0 1 0-.802L100.092.6a.748.748 0 0 1 1.268 0l2.68 4.237a.75.75 0 0 1 0 .802l-2.68 4.237a.748.748 0 0 1-.634.35z" fill="url(#jq6cldsvyd)"/>
        <path d="M100.727.5a.492.492 0 0 0-.423.233l-2.68 4.237a.502.502 0 0 0 0 .534l2.68 4.237a.492.492 0 0 0 .423.233.49.49 0 0 0 .422-.233l2.681-4.237a.501.501 0 0 0 0-.534L101.149.733a.49.49 0 0 0-.422-.233zm0-.5c.324 0 .649.155.845.465l2.681 4.237c.206.327.206.743 0 1.07l-2.681 4.237a1 1 0 0 1-1.69 0L97.2 5.772a1 1 0 0 1 0-1.07L99.88.465a.992.992 0 0 1 .846-.465z" fill="#202020"/>
        <path d="M95.02 14.67a.746.746 0 0 1-.633-.348l-1.85-2.923a.754.754 0 0 1 0-.802l1.85-2.923a.746.746 0 0 1 .633-.349c.259 0 .496.13.634.35l1.85 2.922a.754.754 0 0 1 0 .802l-1.85 2.923a.746.746 0 0 1-.634.349z" fill="url(#tmwmnw3mve)"/>
        <path d="M95.02 7.575a.491.491 0 0 0-.422.233l-1.85 2.923a.502.502 0 0 0 0 .534l1.85 2.923a.491.491 0 0 0 .422.233.491.491 0 0 0 .423-.233l1.85-2.923a.502.502 0 0 0 0-.534l-1.85-2.923a.491.491 0 0 0-.423-.233zm0-.5c.325 0 .649.155.845.465l1.85 2.923a1 1 0 0 1 0 1.07l-1.85 2.922a1 1 0 0 1-1.69 0l-1.85-2.922a1 1 0 0 1 0-1.07l1.85-2.922a.992.992 0 0 1 .845-.466z" fill="#202020"/>
        <path d="m119.293 82.158-24.166 8.407" stroke="#202020" stroke-linecap="round"/>
    </g>
    <defs>
        <linearGradient id="yrph3c1ukb" x1="103.601" y1="33.687" x2="96.728" y2="17.397" gradientUnits="userSpaceOnUse">
            <stop stop-color="#CF0036"/>
            <stop offset="1" stop-color="#FF2F65"/>
        </linearGradient>
        <linearGradient id="xtrtyrhpoc" x1="112.728" y1="57.858" x2="112.09" y2="66.958" gradientUnits="userSpaceOnUse">
            <stop stop-color="#FF2F65"/>
            <stop offset="1" stop-color="#CF0036"/>
        </linearGradient>
        <linearGradient id="jq6cldsvyd" x1="100.727" y1=".25" x2="100.727" y2="10.224" gradientUnits="userSpaceOnUse">
            <stop stop-color="#CF0036"/>
            <stop offset="1" stop-color="#FF2F65"/>
        </linearGradient>
        <linearGradient id="tmwmnw3mve" x1="95.02" y1="7.325" x2="95.02" y2="14.671" gradientUnits="userSpaceOnUse">
            <stop stop-color="#FF2F65"/>
            <stop offset="1" stop-color="#CF0036"/>
        </linearGradient>
        <clipPath id="j81hz763ba">
            <path fill="#fff" transform="translate(.623)" d="M0 0h149.755v110.854H0z"/>
        </clipPath>
    </defs>
</svg>
