<svg width="28" height="28" viewBox="0 0 28 28" fill="none" xmlns="http://www.w3.org/2000/svg">
    <path fill-rule="evenodd" clip-rule="evenodd" d="M20.409 5.538H7.592a2.058 2.058 0 0 0-2.054 2.053v12.818a2.058 2.058 0 0 0 2.054 2.053h.254V9.899a2.058 2.058 0 0 1 2.05-2.053h12.565v-.255a2.058 2.058 0 0 0-2.052-2.053zM8.142 9.878v10.843a1.746 1.746 0 0 0 1.733 1.74h10.85a1.742 1.742 0 0 0 1.737-1.736V9.877a1.74 1.74 0 0 0-1.737-1.736H9.878a1.742 1.742 0 0 0-1.736 1.737zm8.03 8.675 1.843-2.603 2.71 3.905H9.878l3.58-5.206 2.714 3.904z" fill="#7B6C96"/>
</svg>
