<svg width="7" height="18" viewBox="0 0 7 18" fill="none" xmlns="http://www.w3.org/2000/svg">
    <path d="M6.732 11.344c0 .12-.006.239-.02.357a3.41 3.41 0 0 1-1.088 1.996 5.468 5.468 0 0 1-.36.318c-.616.515-1.314 1.1-.834 2.203a.825.825 0 0 0 .665.406.691.691 0 0 0 .665-.554.673.673 0 0 0-.36-.656.189.189 0 0 1-.028-.313.19.19 0 0 1 .21-.019 1.05 1.05 0 0 1 .553 1.033A1.065 1.065 0 0 1 5.103 17a1.19 1.19 0 0 1-1.022-.633 2.096 2.096 0 0 1 .938-2.639c.126-.105.245-.204.333-.296.522-.46.87-1.086.985-1.773a1.994 1.994 0 0 0-.583-1.785 1.904 1.904 0 0 0-1.89-.291 1.84 1.84 0 0 0-1.242 1.637 1.377 1.377 0 0 0 .786 1.257 1.106 1.106 0 0 0 .879-.11 1.125 1.125 0 0 0 .498-1.06.187.187 0 1 1 .373-.032 1.497 1.497 0 0 1-.675 1.404 1.483 1.483 0 0 1-1.199.15 1.724 1.724 0 0 1-1.037-1.602 2.2 2.2 0 0 1 1.485-1.994 2.271 2.271 0 0 1 2.267.358 2.242 2.242 0 0 1 .733 1.753zM6.732 6.658A2.242 2.242 0 0 1 6 8.41a2.272 2.272 0 0 1-2.267.359 2.202 2.202 0 0 1-1.485-1.995 1.724 1.724 0 0 1 1.037-1.601 1.484 1.484 0 0 1 1.2.143 1.498 1.498 0 0 1 .67 1.408.187.187 0 1 1-.373-.032 1.123 1.123 0 0 0-.497-1.06 1.108 1.108 0 0 0-.879-.11 1.377 1.377 0 0 0-.782 1.256 1.845 1.845 0 0 0 1.242 1.64 1.905 1.905 0 0 0 1.89-.292A1.994 1.994 0 0 0 6.34 6.34a3.025 3.025 0 0 0-.985-1.773c-.09-.091-.21-.19-.332-.296a2.096 2.096 0 0 1-.938-2.64A1.19 1.19 0 0 1 5.107 1a1.065 1.065 0 0 1 1.02.88 1.051 1.051 0 0 1-.554 1.032.19.19 0 1 1-.181-.332.673.673 0 0 0 .363-.653.692.692 0 0 0-.665-.554.825.825 0 0 0-.664.407c-.48 1.108.221 1.688.834 2.203.132.114.254.218.364.321A3.41 3.41 0 0 1 6.717 6.3c.012.119.017.239.015.359zM3.296 8.998a.187.187 0 0 1-.006.046c-.024.097-.07.118-.291.217a5.812 5.812 0 0 0-.658.333c-.117.079-.204.146-.282.205a.969.969 0 0 1-.512.255 1.138 1.138 0 0 1-1.021-.542.849.849 0 0 1-.139-.515.85.85 0 0 1 .139-.516 1.138 1.138 0 0 1 1.021-.533.97.97 0 0 1 .512.25c.078.055.165.123.282.194.212.124.432.235.658.332.22.11.267.129.291.222a.243.243 0 0 1 .006.052zM.76 9.037a.467.467 0 0 0 .076.267.769.769 0 0 0 .665.372.62.62 0 0 0 .328-.176c.08-.061.178-.138.309-.222.174-.105.354-.199.54-.281a5.007 5.007 0 0 1-.539-.285 3.79 3.79 0 0 1-.31-.222.62.62 0 0 0-.326-.174.769.769 0 0 0-.665.373.479.479 0 0 0-.075.298v.05H.76z" fill="#DCBA4E" stroke="#DCBA4E" stroke-width=".1"/>
</svg>
