<svg width="25" height="24" viewBox="0 0 25 24" fill="none" xmlns="http://www.w3.org/2000/svg">
    <g clip-path="url(#8zk4bsmpda)">
        <path d="m9.327 16.819-.327-.3c-1.162-1.052-1.93-1.747-1.93-2.6a1.23 1.23 0 0 1 1.242-1.242 1.352 1.352 0 0 1 1.016.472 1.352 1.352 0 0 1 1.015-.472 1.229 1.229 0 0 1 1.242 1.242c0 .853-.768 1.549-1.93 2.605l-.328.295zM15.857 12.493a.983.983 0 0 0-.74.344.987.987 0 0 0-.744-.344.9.9 0 0 0-.9.9c0 .622.559 1.128 1.406 1.9l.238.215.239-.215c.847-.768 1.406-1.274 1.406-1.9a.9.9 0 0 0-.905-.9zm-.723 2.557-.016.016-.016-.016c-.783-.709-1.3-1.177-1.3-1.653a.562.562 0 0 1 .57-.575.643.643 0 0 1 .588.388h.313a.639.639 0 0 1 .806-.348.56.56 0 0 1 .354.531c0 .48-.516.948-1.3 1.657zM17.857 16.937a.986.986 0 0 0-.74.344.985.985 0 0 0-.744-.344.9.9 0 0 0-.9.9c0 .622.559 1.128 1.406 1.9l.238.215.239-.215c.847-.768 1.406-1.274 1.406-1.9a.9.9 0 0 0-.905-.9zm-.723 2.557-.016.016-.016-.016c-.783-.709-1.3-1.177-1.3-1.653a.561.561 0 0 1 .57-.575.644.644 0 0 1 .588.388h.313a.64.64 0 0 1 .806-.348.562.562 0 0 1 .354.531c0 .48-.516.948-1.3 1.657z" fill="#CF0036"/>
        <path d="M20.094 3h-1V1h-2v2h-10V1h-2v2h-1a2.006 2.006 0 0 0-2 2v16a2.006 2.006 0 0 0 2 2h16a2.006 2.006 0 0 0 2-2V5a2.006 2.006 0 0 0-2-2zm0 18h-16V10h16v11zm0-13h-16V5h16v3z" fill="#DCBA4E"/>
    </g>
    <defs>
        <clipPath id="8zk4bsmpda">
            <path fill="#fff" transform="translate(.094)" d="M0 0h24v24H0z"/>
        </clipPath>
    </defs>
</svg>
