<svg width="8" height="18" viewBox="0 0 8 18" fill="none" xmlns="http://www.w3.org/2000/svg">
    <path d="M.736 11.344c0 .12.007.239.02.357a3.41 3.41 0 0 0 1.088 1.996c.103.103.229.208.36.318.616.515 1.315 1.1.835 2.203a.825.825 0 0 1-.665.406.691.691 0 0 1-.665-.554.673.673 0 0 1 .36-.656.189.189 0 0 0 .028-.313.19.19 0 0 0-.21-.019 1.05 1.05 0 0 0-.554 1.033A1.065 1.065 0 0 0 2.366 17a1.19 1.19 0 0 0 1.022-.633 2.096 2.096 0 0 0-.939-2.639c-.125-.105-.245-.204-.332-.296a3.025 3.025 0 0 1-.985-1.773 1.994 1.994 0 0 1 .583-1.785 1.904 1.904 0 0 1 1.889-.291 1.84 1.84 0 0 1 1.243 1.637 1.377 1.377 0 0 1-.787 1.257 1.106 1.106 0 0 1-.878-.11 1.125 1.125 0 0 1-.498-1.06.187.187 0 1 0-.373-.032 1.497 1.497 0 0 0 .675 1.404 1.483 1.483 0 0 0 1.198.15 1.724 1.724 0 0 0 1.038-1.602 2.2 2.2 0 0 0-1.485-1.994 2.271 2.271 0 0 0-2.267.358 2.243 2.243 0 0 0-.734 1.753zM.736 6.658A2.242 2.242 0 0 0 1.47 8.41a2.272 2.272 0 0 0 2.267.359 2.202 2.202 0 0 0 1.485-1.995 1.724 1.724 0 0 0-1.038-1.601 1.484 1.484 0 0 0-1.198.143 1.498 1.498 0 0 0-.672 1.408.187.187 0 1 0 .374-.032 1.123 1.123 0 0 1 .497-1.06 1.108 1.108 0 0 1 .879-.11 1.377 1.377 0 0 1 .782 1.256 1.845 1.845 0 0 1-1.242 1.64 1.905 1.905 0 0 1-1.89-.292A1.994 1.994 0 0 1 1.13 6.34a3.025 3.025 0 0 1 .985-1.773c.09-.091.209-.19.332-.296a2.096 2.096 0 0 0 .937-2.64A1.19 1.19 0 0 0 2.362 1a1.065 1.065 0 0 0-1.02.88 1.051 1.051 0 0 0 .553 1.032.19.19 0 1 0 .182-.332.673.673 0 0 1-.363-.653.692.692 0 0 1 .664-.554.825.825 0 0 1 .665.407c.48 1.108-.221 1.688-.834 2.203-.132.114-.254.218-.365.321A3.41 3.41 0 0 0 .752 6.3c-.012.119-.017.239-.016.359zM4.173 8.998c0 .015.002.031.006.046.024.097.07.118.29.217.227.097.447.208.66.333.115.079.203.146.28.205.142.134.32.223.512.255a1.138 1.138 0 0 0 1.022-.542.849.849 0 0 0 .139-.515.85.85 0 0 0-.139-.516 1.138 1.138 0 0 0-1.022-.533.97.97 0 0 0-.511.25c-.078.055-.166.123-.282.194a5.83 5.83 0 0 1-.658.332c-.22.11-.267.129-.291.222a.243.243 0 0 0-.006.052zm2.535.039a.467.467 0 0 1-.076.267.769.769 0 0 1-.665.372.62.62 0 0 1-.328-.176c-.08-.061-.178-.138-.31-.222a4.987 4.987 0 0 0-.539-.281c.185-.084.365-.18.539-.285.13-.083.229-.16.309-.222a.62.62 0 0 1 .327-.174.769.769 0 0 1 .664.373.479.479 0 0 1 .076.298v.05h.003z" fill="#DCBA4E" stroke="#DCBA4E" stroke-width=".1"/>
</svg>
