<svg width="19" height="17" viewBox="0 0 19 17" fill="none" xmlns="http://www.w3.org/2000/svg">
    <path d="M8.877 1.406a.229.229 0 0 0-.262.227 8.773 8.773 0 0 0 1.29 4.247 8.87 8.87 0 0 0-1.663-.276c-3.71-.26-6.839 2.01-6.97 2.106a.23.23 0 0 0-.025.35c.117.113 2.9 2.796 6.61 3.055a8.87 8.87 0 0 0 1.685-.046 8.79 8.79 0 0 0-1.87 4.027.234.234 0 0 0 .134.243.23.23 0 0 0 .096.021 8.455 8.455 0 0 0 4.952-1.823 8.459 8.459 0 0 0 2.494-4.65.258.258 0 0 0 .003-.036 8.463 8.463 0 0 0-1.823-4.953 8.448 8.448 0 0 0-4.651-2.492zm-.99 9.253a11.243 11.243 0 0 1-6.11-2.738A11.23 11.23 0 0 1 8.21 6.06a8.63 8.63 0 0 1 2.15.442l.075.086a7.842 7.842 0 0 0 3.426 2.177 7.842 7.842 0 0 0-3.697 1.678l-.086.075a8.6 8.6 0 0 1-2.191.14zm4.666 2.534a7.966 7.966 0 0 1-4.372 1.693 8.092 8.092 0 0 1 2.109-3.934 5.796 5.796 0 0 1 .926-.711 7.695 7.695 0 0 1 2.15-.89 9.33 9.33 0 0 1 1.307-.233l.164-.015a7.948 7.948 0 0 1-2.284 4.09zm2.321-4.623c-.049-.01-.1-.023-.159-.037a9.137 9.137 0 0 1-1.256-.41A7.674 7.674 0 0 1 11.45 6.94a5.784 5.784 0 0 1-.668-.65c-.052-.06-.104-.12-.15-.182a8.092 8.092 0 0 1-1.542-4.191 7.975 7.975 0 0 1 4.094 2.285 7.975 7.975 0 0 1 1.69 4.367z" fill="#DCBA4E" stroke="#DCBA4E" stroke-width=".5"/>
</svg>
