<svg width="18" height="17" viewBox="0 0 18 17" fill="none" xmlns="http://www.w3.org/2000/svg">
    <path d="M9.135 1.404a.229.229 0 0 1 .262.228 8.774 8.774 0 0 1-1.29 4.247c.544-.146 1.1-.24 1.663-.28 3.711-.256 6.84 2.014 6.97 2.11a.229.229 0 0 1 .027.35c-.117.113-2.9 2.797-6.611 3.055a8.88 8.88 0 0 1-1.684-.044 8.791 8.791 0 0 1 1.87 4.027.234.234 0 0 1-.232.266 8.457 8.457 0 0 1-4.953-1.823 8.461 8.461 0 0 1-2.494-4.651.251.251 0 0 1-.002-.037A8.464 8.464 0 0 1 4.483 3.9a8.45 8.45 0 0 1 4.652-2.496zm.99 9.255a11.245 11.245 0 0 0 6.11-2.74 11.23 11.23 0 0 0-6.432-1.86 8.631 8.631 0 0 0-2.15.443l-.075.086A7.843 7.843 0 0 1 4.15 8.765a7.843 7.843 0 0 1 3.697 1.679l.086.074c.722.14 1.458.188 2.191.14zm-4.667 2.534a7.966 7.966 0 0 0 4.373 1.693 8.092 8.092 0 0 0-2.109-3.934 5.79 5.79 0 0 0-.926-.712 7.696 7.696 0 0 0-2.15-.89 9.33 9.33 0 0 0-1.305-.235L3.176 9.1a7.95 7.95 0 0 0 2.282 4.093zM3.14 8.567c.05-.01.101-.024.16-.037a9.135 9.135 0 0 0 1.256-.41A7.674 7.674 0 0 0 6.56 6.941c.24-.199.463-.417.668-.652.052-.059.104-.118.15-.18a8.093 8.093 0 0 0 1.545-4.196A7.976 7.976 0 0 0 4.828 4.2 7.976 7.976 0 0 0 3.14 8.567z" fill="#DCBA4E" stroke="#DCBA4E" stroke-width=".5"/>
</svg>
