<svg width="17" height="11" viewBox="0 0 17 11" fill="none" xmlns="http://www.w3.org/2000/svg">
    <path d="M.39 6.523a.06.06 0 0 1 0-.04.059.059 0 0 1 .072-.039c4.982 1.57 11.461-2.42 11.525-2.46a.059.059 0 0 1 .08.018.059.059 0 0 1-.018.08c-.065.041-6.59 4.063-11.622 2.474a.058.058 0 0 1-.038-.033z" fill="#DCBA4E" stroke="#DCBA4E" stroke-width=".2"/>
    <path d="M8.357 5.778V5.76a.059.059 0 0 1 .052-.064c.928-.08 1.862-.05 2.784.089a.059.059 0 0 1 .048.066.058.058 0 0 1-.066.048 11.67 11.67 0 0 0-2.748-.087.059.059 0 0 1-.07-.035z" fill="#DCBA4E" stroke="#DCBA4E" stroke-width=".2"/>
    <path d="M11.133 5.879c1.473 1.803 4.899.84 4.933.831l.063-.018-.026-.06c-.016-.039-.208-.37-2.028-.964a3.36 3.36 0 0 0-2.93.127l-.05.037.038.047zm.134-.023a3.443 3.443 0 0 1 2.772-.078c.68.166 1.326.452 1.907.844-.535.133-3.37.753-4.68-.766zM11.93 4.139c2.264.53 4.392-2.327 4.416-2.356l.04-.052-.057-.032c-.034-.02-.382-.168-2.196.476a3.361 3.361 0 0 0-2.241 1.891l-.018.059.056.014zm.091-.098a3.436 3.436 0 0 1 2.148-1.757 5.93 5.93 0 0 1 2.024-.498c-.342.433-2.206 2.657-4.173 2.254h.001z" fill="#DCBA4E" stroke="#DCBA4E" stroke-width=".2"/>
    <path d="M11.188 5.83a.058.058 0 0 1 .009-.062.058.058 0 0 1 .04-.02 10.923 10.923 0 0 1 4.839.854.058.058 0 0 1-.052.104 10.796 10.796 0 0 0-4.78-.84.058.058 0 0 1-.056-.036zM4.809 6.75a.058.058 0 0 1 .055-.081c.93.058 1.849.226 2.739.5a.058.058 0 0 1-.034.111 11.7 11.7 0 0 0-2.71-.496.058.058 0 0 1-.05-.035z" fill="#DCBA4E" stroke="#DCBA4E" stroke-width=".2"/>
    <path d="M7.541 7.254c1.184 2 4.719 1.56 4.754 1.555l.065-.008-.017-.064c-.01-.037-.143-.393-1.864-1.256a3.363 3.363 0 0 0-2.917-.31l-.055.029.034.054zm.135 0a3.441 3.441 0 0 1 2.754.334 5.94 5.94 0 0 1 1.76 1.118c-.551.051-3.446.245-4.516-1.454l.002.002z" fill="#DCBA4E" stroke="#DCBA4E" stroke-width=".2"/>
    <path d="M7.603 7.221a.055.055 0 0 1 0-.027.058.058 0 0 1 .063-.053c1.652.16 3.245.696 4.66 1.564a.06.06 0 0 1 .014.083.06.06 0 0 1-.083.016 10.796 10.796 0 0 0-4.6-1.543.058.058 0 0 1-.054-.04zM1.142 6.719a.06.06 0 0 1 0-.034.058.058 0 0 1 .069-.047c.908.208 1.788.523 2.623.937a.058.058 0 1 1-.052.104c-.825-.41-1.696-.72-2.594-.926a.059.059 0 0 1-.046-.034z" fill="#DCBA4E" stroke="#DCBA4E" stroke-width=".2"/>
    <path d="M8.191 9.949h.066l-.006-.065c0-.04-.077-.41-1.636-1.538a3.36 3.36 0 0 0-2.829-.775l-.058.018.022.058c.011.029.023.056.035.084.9 2.086 4.37 2.217 4.406 2.218zM6.55 8.44a5.939 5.939 0 0 1 1.558 1.387c-.549-.035-3.42-.31-4.214-2.142l-.007-.018a3.435 3.435 0 0 1 2.663.773z" fill="#DCBA4E" stroke="#DCBA4E" stroke-width=".2"/>
    <path d="M3.819 7.636a.057.057 0 0 1 0-.037.058.058 0 0 1 .07-.043 10.926 10.926 0 0 1 4.343 2.292.058.058 0 0 1 0 .081.058.058 0 0 1-.081 0 10.812 10.812 0 0 0-4.293-2.263.057.057 0 0 1-.04-.03zM6.432 6.399a.058.058 0 0 1 .024-.074 11.7 11.7 0 0 0 2.151-1.718.058.058 0 1 1 .083.081 11.819 11.819 0 0 1-2.177 1.738.058.058 0 0 1-.08-.02v-.007z" fill="#DCBA4E" stroke="#DCBA4E" stroke-width=".2"/>
    <path d="M8.652 4.705a3.36 3.36 0 0 0 2.422-1.654c1.106-1.57 1.056-1.95 1.046-1.987L12.104 1l-.062.024c-.033.012-3.355 1.297-3.45 3.62v.062l.06-.001zm2.328-1.718a3.442 3.442 0 0 1-2.268 1.598C8.851 2.584 11.49 1.383 12 1.17a5.945 5.945 0 0 1-1.02 1.818z" fill="#DCBA4E" stroke="#DCBA4E" stroke-width=".2"/>
    <path d="M8.667 4.662a.058.058 0 0 1 .022-.072 10.81 10.81 0 0 0 3.323-3.533.059.059 0 0 1 .033-.03.058.058 0 0 1 .071.081A10.93 10.93 0 0 1 8.753 4.69a.058.058 0 0 1-.08-.016l-.006-.013zM2.484 6.869a.058.058 0 0 1 .026-.075 11.75 11.75 0 0 0 2.235-1.61.058.058 0 1 1 .079.086 11.83 11.83 0 0 1-2.258 1.627.058.058 0 0 1-.078-.024l-.004-.004z" fill="#DCBA4E" stroke="#DCBA4E" stroke-width=".2"/>
    <path d="M4.782 5.286a3.357 3.357 0 0 0 2.502-1.53C8.468 2.24 8.436 1.862 8.43 1.824l-.012-.063-.063.02c-.034.011-3.416 1.127-3.631 3.442l-.006.062.065.001zm2.41-1.6a3.443 3.443 0 0 1-2.345 1.481c.239-1.991 2.935-3.059 3.456-3.246a5.929 5.929 0 0 1-1.111 1.764z" fill="#DCBA4E" stroke="#DCBA4E" stroke-width=".2"/>
    <path d="M4.8 5.246a.058.058 0 0 1 .024-.074A10.8 10.8 0 0 0 8.32 1.807a.058.058 0 0 1 .098.057 10.93 10.93 0 0 1-3.54 3.41.058.058 0 0 1-.079-.021v-.007zM11.961 4.055a.059.059 0 0 1 .027-.074 247.07 247.07 0 0 0 4.28-2.284.057.057 0 0 1 .064.006.059.059 0 0 1-.008.096c-.02.012-2.094 1.146-4.282 2.285a.057.057 0 0 1-.064-.007.059.059 0 0 1-.015-.018l-.002-.004z" fill="#DCBA4E" stroke="#DCBA4E" stroke-width=".2"/>
</svg>
