<svg width="17" height="11" viewBox="0 0 17 11" fill="none" xmlns="http://www.w3.org/2000/svg">
    <path d="M16.382 6.522a.06.06 0 0 0 0-.04.059.059 0 0 0-.073-.038c-4.981 1.57-11.46-2.42-11.524-2.46a.059.059 0 0 0-.08.018.059.059 0 0 0 .018.08c.065.04 6.59 4.063 11.622 2.474a.057.057 0 0 0 .037-.034z" fill="#DCBA4E" stroke="#DCBA4E" stroke-width=".2"/>
    <path d="M8.415 5.778V5.76a.059.059 0 0 0-.052-.064c-.928-.08-1.863-.05-2.784.089a.059.059 0 0 0-.048.066.058.058 0 0 0 .066.048 11.67 11.67 0 0 1 2.748-.087.059.059 0 0 0 .07-.035z" fill="#DCBA4E" stroke="#DCBA4E" stroke-width=".2"/>
    <path d="M5.638 5.879c-1.472 1.803-4.898.84-4.933.83l-.062-.017.025-.06c.017-.039.208-.37 2.029-.964a3.36 3.36 0 0 1 2.93.127l.05.037-.039.047zm-.133-.023a3.443 3.443 0 0 0-2.773-.078 5.942 5.942 0 0 0-1.907.844c.536.133 3.37.753 4.68-.766zM4.841 4.139C2.577 4.669.45 1.812.425 1.783l-.04-.052.058-.032c.033-.02.381-.168 2.195.476A3.361 3.361 0 0 1 4.88 4.066l.017.059-.056.014zm-.09-.099a3.435 3.435 0 0 0-2.148-1.756 5.93 5.93 0 0 0-2.025-.498c.343.433 2.206 2.657 4.173 2.253v.001z" fill="#DCBA4E" stroke="#DCBA4E" stroke-width=".2"/>
    <path d="M5.584 5.83a.057.057 0 0 0 .002-.042.058.058 0 0 0-.051-.04 10.922 10.922 0 0 0-4.84.854.058.058 0 1 0 .053.104 10.796 10.796 0 0 1 4.779-.841.058.058 0 0 0 .057-.035zM11.962 6.75a.058.058 0 0 0-.055-.081c-.93.057-1.849.226-2.739.5a.058.058 0 0 0 .035.111 11.7 11.7 0 0 1 2.708-.496.058.058 0 0 0 .051-.035z" fill="#DCBA4E" stroke="#DCBA4E" stroke-width=".2"/>
    <path d="M9.23 7.254c-1.184 2-4.719 1.56-4.754 1.555L4.41 8.8l.017-.063c.01-.037.143-.393 1.864-1.256a3.363 3.363 0 0 1 2.917-.31l.055.029-.034.054zm-.135 0a3.441 3.441 0 0 0-2.754.334 5.939 5.939 0 0 0-1.76 1.118c.551.051 3.446.245 4.516-1.454l-.002.002z" fill="#DCBA4E" stroke="#DCBA4E" stroke-width=".2"/>
    <path d="M9.169 7.221a.055.055 0 0 0 0-.027.058.058 0 0 0-.063-.053c-1.652.16-3.245.696-4.66 1.564a.06.06 0 1 0 .069.098 10.796 10.796 0 0 1 4.6-1.542.058.058 0 0 0 .054-.04zM15.631 6.72a.06.06 0 0 0 0-.035.058.058 0 0 0-.046-.047.057.057 0 0 0-.023 0c-.908.208-1.788.523-2.623.937a.058.058 0 0 0 .008.107c.014.005.03.004.044-.003.825-.41 1.696-.72 2.594-.926a.06.06 0 0 0 .046-.034z" fill="#DCBA4E" stroke="#DCBA4E" stroke-width=".2"/>
    <path d="M8.58 9.949h-.065l.006-.065c0-.04.077-.41 1.636-1.538a3.36 3.36 0 0 1 2.828-.775l.06.018-.023.058c-.011.029-.023.056-.035.084-.9 2.086-4.371 2.217-4.406 2.218zm1.643-1.509a5.938 5.938 0 0 0-1.558 1.387c.549-.035 3.42-.31 4.213-2.142l.008-.018a3.435 3.435 0 0 0-2.663.773z" fill="#DCBA4E" stroke="#DCBA4E" stroke-width=".2"/>
    <path d="M12.952 7.636a.057.057 0 0 0 0-.038.058.058 0 0 0-.07-.042 10.926 10.926 0 0 0-4.344 2.292.058.058 0 0 0 0 .081.058.058 0 0 0 .082 0 10.811 10.811 0 0 1 4.293-2.263.057.057 0 0 0 .039-.03zM10.339 6.399a.058.058 0 0 0-.024-.074 11.7 11.7 0 0 1-2.15-1.718.058.058 0 1 0-.083.081 11.818 11.818 0 0 0 2.176 1.738.057.057 0 0 0 .065-.003.059.059 0 0 0 .015-.017l.001-.007z" fill="#DCBA4E" stroke="#DCBA4E" stroke-width=".2"/>
    <path d="M8.12 4.705A3.36 3.36 0 0 1 5.698 3.05c-1.106-1.57-1.056-1.95-1.046-1.987L4.667 1l.062.024c.034.012 3.356 1.297 3.451 3.62v.062l-.06-.001zM5.792 2.987A3.442 3.442 0 0 0 8.06 4.585C7.921 2.584 5.282 1.383 4.772 1.17c.23.661.575 1.277 1.02 1.818z" fill="#DCBA4E" stroke="#DCBA4E" stroke-width=".2"/>
    <path d="M8.104 4.662a.058.058 0 0 0-.021-.072 10.81 10.81 0 0 1-3.324-3.533.058.058 0 1 0-.104.05A10.93 10.93 0 0 0 8.02 4.692a.058.058 0 0 0 .08-.017l.005-.012zM14.288 6.869a.058.058 0 0 0-.027-.075 11.753 11.753 0 0 1-2.234-1.61.058.058 0 0 0-.064-.01.057.057 0 0 0-.03.034.059.059 0 0 0 .002.044.058.058 0 0 0 .013.018c.686.63 1.444 1.176 2.258 1.627a.057.057 0 0 0 .064-.006.059.059 0 0 0 .014-.018l.004-.004z" fill="#DCBA4E" stroke="#DCBA4E" stroke-width=".2"/>
    <path d="M11.99 5.286a3.356 3.356 0 0 1-2.503-1.53C8.303 2.24 8.335 1.862 8.343 1.824l.011-.063.063.02c.034.011 3.417 1.127 3.631 3.442l.006.062h-.065zm-2.41-1.6a3.442 3.442 0 0 0 2.344 1.481c-.239-1.991-2.935-3.059-3.456-3.246.263.649.64 1.246 1.111 1.764z" fill="#DCBA4E" stroke="#DCBA4E" stroke-width=".2"/>
    <path d="M11.971 5.246a.058.058 0 0 0-.024-.074A10.8 10.8 0 0 1 8.45 1.807a.058.058 0 0 0-.098.057 10.93 10.93 0 0 0 3.539 3.41.058.058 0 0 0 .08-.021v-.007zM4.81 4.055a.059.059 0 0 0-.027-.074A246.954 246.954 0 0 1 .504 1.697a.058.058 0 0 0-.08.023.059.059 0 0 0 .023.079c.021.012 2.094 1.146 4.282 2.285a.058.058 0 0 0 .079-.025l.002-.004z" fill="#DCBA4E" stroke="#DCBA4E" stroke-width=".2"/>
</svg>
