<svg width="13" height="13" viewBox="0 0 13 13" fill="none" xmlns="http://www.w3.org/2000/svg">
    <path d="M5.427 1.334h5.333a1.334 1.334 0 0 1 1.334 1.334v8.002a1.334 1.334 0 0 1-1.334 1.334H1.428a1.334 1.334 0 0 1-1.334-1.336V1.334A1.346 1.346 0 0 1 1.428 0h2.666l1.333 1.334zM1.426 2.668v8.002h9.334V2.666l-9.334.002z" fill="#AFAFAF"/>
    <path fill-rule="evenodd" clip-rule="evenodd" d="M5.944 8.33a2.791 2.791 0 0 1-1.996-2.44 1.11 1.11 0 0 1 1.996-.665 1.11 1.11 0 0 1 1.995.665 2.791 2.791 0 0 1-1.995 2.44z" fill="#AFAFAF"/>
</svg>
