<svg width="85" height="29" viewBox="0 0 85 29" fill="none" xmlns="http://www.w3.org/2000/svg">
    <path fill-rule="evenodd" clip-rule="evenodd" d="M5.89 23.06A13.983 13.983 0 0 0 17.338 29H71c7.732 0 14-6.268 14-14S78.732 1 71 1H17.338c-1.025 0-2.025.11-2.987.32l-.443 1.137A13.014 13.014 0 0 1 17.338 2H71c7.18 0 13 5.82 13 13s-5.82 13-13 13H17.338a12.99 12.99 0 0 1-11.006-6.078L5.89 23.06z" fill="#DCBA4E"/>
    <path d="M8.356 3.642a.7.7 0 0 0-.078.028.102.102 0 0 0-.057.056.092.092 0 0 0 .005.076l.035.096c-.017.013-.035.025-.051.04-.076.068-.152.132-.226.2a.502.502 0 0 0-.071.086c-.038.055-.072.113-.106.167-.137.03-.172.106-.102.213a.156.156 0 0 1-.008.018l-.073.118a.238.238 0 0 1-.01-.035c-.011-.124-.03-.248-.035-.372.002-.1.011-.198.027-.296a.066.066 0 0 1 .026-.033.715.715 0 0 0 .066-.048.108.108 0 0 0 .034-.072.1.1 0 0 0-.026-.073c-.015-.019-.032-.033-.03-.063a.032.032 0 0 0-.022-.03.037.037 0 0 0-.038.008.358.358 0 0 1-.08.05.155.155 0 0 0-.043.052.145.145 0 0 0-.015.065.138.138 0 0 0 .058.113.392.392 0 0 0 .042.018l-.01.101a1.308 1.308 0 0 0-.024.354c.006.112.005.225.02.335a.32.32 0 0 1-.032.177c-.015.033-.027.071-.04.102-.019-.008-.036-.023-.05-.02-.014.003-.022.024-.039.044a.128.128 0 0 0-.059.03.122.122 0 0 0-.035.057.11.11 0 0 0 .035.117c.025.023.051.043.079.062l-.056.21a.258.258 0 0 1-.055-.096c-.058-.17-.11-.339-.167-.507a1.92 1.92 0 0 1-.077-.423c-.005-.04-.006-.079-.008-.12l.03-.012a.11.11 0 0 0 .065-.048.103.103 0 0 0 .013-.077.133.133 0 0 0-.01-.042.195.195 0 0 1-.035-.11c.003-.02-.017-.035-.04-.037-.021-.003-.049.006-.053.028-.008.034-.034.046-.06.061a.097.097 0 0 0-.042.044.088.088 0 0 0-.006.058c.01.062.03.088.107.132l.017.22c.016.182.057.36.122.53.033.093.055.19.086.285.01.035.022.068.037.1a.181.181 0 0 1 .021.085.467.467 0 0 0 .015.156c.003.02.004.04.002.06-.006-.001-.01-.001-.01-.005a1.226 1.226 0 0 0-.169-.302c-.093-.142-.19-.281-.285-.422a.771.771 0 0 1-.02-.031.138.138 0 0 0 .037-.067.128.128 0 0 0-.05-.133.135.135 0 0 0-.072-.025.298.298 0 0 0-.01-.03.046.046 0 0 0-.025-.026.05.05 0 0 0-.036 0 .049.049 0 0 0-.028.02.045.045 0 0 0-.005.034.08.08 0 0 1-.004.067.039.039 0 0 0-.004.033c.024.04.05.08.08.116.023.025.06.02.095.014l.03.038c.11.173.22.347.332.52.059.095.101.2.126.31.02.137.023.276.01.415-.048-.1-.093-.203-.145-.3-.05-.1-.112-.192-.185-.276l.02-.032a.108.108 0 0 0 .012-.085.1.1 0 0 0-.057-.064c-.02-.01-.04-.015-.06-.024a.107.107 0 0 1-.036-.023.042.042 0 0 0-.022-.018.046.046 0 0 0-.03 0c-.02.008-.024.025-.026.044a.093.093 0 0 1-.017.044.115.115 0 0 0-.032.054.107.107 0 0 0 .003.06.11.11 0 0 0 .043.046c.02.01.04.016.063.015.01.003.02.003.03.002.065-.019.102.019.132.062.04.057.076.114.115.17.065.106.119.218.16.335.02.05.028.105.024.159a.831.831 0 0 0 .008.142c.012.116.025.232.039.347.002.02-.005.043.02.06a.095.095 0 0 0 .02-.041.09.09 0 0 0-.001-.044c-.01-.083-.017-.167-.032-.249a.451.451 0 0 1 .018-.234 1.187 1.187 0 0 1 .312-.44c.028-.023.05-.05.076-.076l.046-.048c.014.005.024.01.036.012a.11.11 0 0 0 .096-.012.112.112 0 0 0 .035-.035.105.105 0 0 0 .016-.045.182.182 0 0 0 .004-.04.072.072 0 0 1 .012-.05c.02-.032.02-.054 0-.066a.046.046 0 0 0-.034-.007.048.048 0 0 0-.03.018.08.08 0 0 1-.01.007c-.053-.014-.109-.03-.153.022-.045.051-.025.111.005.17-.046.046-.085.094-.137.139-.106.089-.195.197-.259.318a.271.271 0 0 1-.04.058.997.997 0 0 1 .037-.346c.036-.09.08-.178.13-.262a1.25 1.25 0 0 1 .22-.246c.06-.055.116-.115.176-.172a1.57 1.57 0 0 0 .187-.198.034.034 0 0 1 .024-.008c.005 0 .009.002.012.004l.039.012a.082.082 0 0 0 .069-.012.083.083 0 0 0 .035-.059l.01-.088a.24.24 0 0 1 .013-.037.055.055 0 0 0 .004-.036.053.053 0 0 0-.02-.03c-.02-.015-.041-.01-.069.01a.142.142 0 0 1-.044.02.176.176 0 0 0-.09.057.106.106 0 0 0-.03.07c0 .025.01.05.027.068-.04.05-.084.096-.132.138l-.23.205-.16.152a.642.642 0 0 0-.149.221 2.86 2.86 0 0 1-.038.09h-.009c.003-.094.003-.188.007-.282a.765.765 0 0 1 .02-.137c.019-.077.043-.154.064-.23.017-.005.033-.009.047-.015a.092.092 0 0 0 .052-.035.084.084 0 0 0 .016-.059.072.072 0 0 1 .006-.04.077.077 0 0 1 .027-.031l.097-.075c.108-.08.215-.159.326-.236.051-.037.104-.072.161-.105a.364.364 0 0 0 .102-.091c.039-.05.079-.098.115-.14.006 0 .012 0 .017.002a.139.139 0 0 0 .136-.038.135.135 0 0 0 .036-.063.125.125 0 0 0-.003-.07c-.008-.032-.026-.06-.01-.098.01-.02-.007-.04-.03-.05a.06.06 0 0 0-.068.022.25.25 0 0 0-.018.042c-.131.06-.146.103-.077.234l-.037.046a.884.884 0 0 1-.28.248c-.107.062-.203.14-.304.21-.07.049-.142.095-.214.143a.043.043 0 0 1-.026-.044c0-.007.003-.013.006-.018.01-.028.02-.056.032-.084.028-.072.056-.136.082-.206a.809.809 0 0 1 .113-.197l.025.001a.12.12 0 0 0 .109-.052.112.112 0 0 0 .019-.058c0-.02-.005-.04-.015-.058a.095.095 0 0 1-.013-.052c.001-.019.007-.037.018-.052a.754.754 0 0 1 .18-.226c.077-.06.147-.13.206-.206a.056.056 0 0 1 .034-.017.213.213 0 0 0 .129-.079.103.103 0 0 0 .025-.056.096.096 0 0 0-.013-.06.069.069 0 0 1-.013-.038c0-.013.003-.027.01-.04a.046.046 0 0 0-.001-.035.044.044 0 0 0-.028-.024.049.049 0 0 0-.037.003.05.05 0 0 0-.025.026.314.314 0 0 0-.011.031" fill="#CF0036"/>
    <path d="M7.056 3.324c-.058-.026-.073-.024-.102.025a1.088 1.088 0 0 0-.143.335.86.86 0 0 1-.131.28c-.114.158-.223.32-.344.472a1.228 1.228 0 0 0-.245.769c.008.196.05.388.124.568.03.093.075.18.116.277l-.193-.194a1.74 1.74 0 0 0-.816-.457c-.138-.039-.272-.09-.412-.117a1.475 1.475 0 0 1-.396-.165 1.722 1.722 0 0 1-.418-.312.965.965 0 0 0-.13-.108.074.074 0 0 0-.03-.012.078.078 0 0 0-.032.002c-.015.008-.023.036-.028.057a.095.095 0 0 0 .006.046c.02.082.038.167.068.245.064.174.135.345.204.517.03.08.064.157.104.232a.997.997 0 0 0 .486.442c.023.009.044.023.071.032.051.02.104.036.157.05.233.046.473.06.713.043.063-.003.126-.001.189.004.206.026.41.07.606.13a.434.434 0 0 1 .16.083.7.7 0 0 1 .162.052c.016-.006.029-.014.046-.02.017-.005.037-.007.055-.011-.015-.033-.035-.064-.047-.098-.019-.055-.035-.11-.054-.166a.906.906 0 0 1-.052-.33c.005-.102.021-.203.027-.304.016-.167.06-.331.131-.486.06-.142.1-.286.145-.43.029-.095.047-.194.075-.287a.942.942 0 0 0 .032-.415c-.012-.074-.029-.148-.032-.227a2.974 2.974 0 0 1-.069-.504c.001-.01-.002-.014-.003-.018zm-2.98 1.57c.16.153.345.277.548.37.15.06.307.106.466.14.126.038.256.06.38.101a1.9 1.9 0 0 1 .81.56l.163.18c-.008 0-.014.004-.015 0a2.017 2.017 0 0 0-.373-.169.612.612 0 0 1-.187-.12c-.114-.108-.231-.213-.348-.32l-.03-.025c.109.135.23.26.363.373-.073-.022-.129-.036-.185-.054-.1-.033-.2-.066-.298-.104a17.254 17.254 0 0 1-.444-.18.388.388 0 0 1-.097-.062 2.479 2.479 0 0 1-.36-.335c-.003-.004-.011-.006-.018-.009.004.046.003.046.103.147.042.043.087.083.137.127a1.324 1.324 0 0 1-.665-.674c.012.018.032.034.052.052l-.002.003zm2.458 1.549a3.418 3.418 0 0 0-.668-.144c-.049-.003-.097-.006-.15-.005-.13.001-.26.007-.39.005-.285 0-.557-.09-.78-.253a.52.52 0 0 1-.086-.084 1.302 1.302 0 0 1-.249-.425c-.049-.15-.12-.291-.171-.437-.033-.088-.057-.179-.088-.27l.015-.006.07.12c.062.109.135.211.219.305.14.14.302.258.481.348.039.023.077.047.119.067.041.02.08.032.12.048h.013c.093.041.187.085.28.127-.19.018-.374-.023-.578.008.03.019.066.026.102.02.22-.003.44.016.656.055.201.045.396.111.58.2.058.025.118.048.177.074.146.063.276.152.385.263l-.057-.016zm-.075-.572c.029.142.066.283.1.426a1.997 1.997 0 0 1-.196-.287 2.343 2.343 0 0 1-.2-.617.852.852 0 0 1-.003-.303c.012-.078.024-.157.042-.235a.832.832 0 0 1 .158-.32c.132-.17.262-.341.399-.511a.938.938 0 0 0 .163-.318.252.252 0 0 1 .03-.066c.013.069.01.14-.006.208a.635.635 0 0 0-.02.128.479.479 0 0 1-.057.21c-.051.1-.087.208-.105.317a1.112 1.112 0 0 1-.054.168 3.023 3.023 0 0 0-.088-.37 1.04 1.04 0 0 0 .02.242c.01.061.016.124.017.187a.191.191 0 0 1-.024.09c-.084.15-.135.313-.15.48-.007.063-.02.124-.032.186-.074-.14-.11-.291-.175-.431l-.016.003a.123.123 0 0 0-.004.038c.023.075.048.15.074.224.03.084.057.167.089.253a.297.297 0 0 1 .007.066c.005.077.015.154.028.23l.003.002zm.63-2.047c.017.106.031.213.042.321a.825.825 0 0 1-.039.308c-.032.11-.057.22-.093.329a5 5 0 0 1-.162.428c-.067.142-.11.292-.129.444l-.032.27c-.01.158.012.316.065.463.007.02.012.04.015.06a.837.837 0 0 1-.143-.25 5.697 5.697 0 0 1-.102-.457.72.72 0 0 1 .026-.303c.04-.191.115-.376.222-.544.03-.044.062-.087.096-.128.06-.078.107-.163.142-.253a.085.085 0 0 0 .007-.06l-.192.31c-.065.102-.13.2-.193.302.019-.054.037-.107.058-.16.017-.037.036-.074.057-.11.076-.138.12-.29.128-.443a.371.371 0 0 1 .053-.169.506.506 0 0 0 .06-.194c0-.02.003-.041.007-.061a.872.872 0 0 0 .045-.29.052.052 0 0 1 .017-.037c.013.075.033.148.045.222v.002z" fill="#CF0036"/>
    <path d="M6.608 5.074c-.002.017-.004.033-.009.05l-.012-.002.02-.048zM10.589 1.573c-.039.08-.074.16-.116.239-.153.281-.25.586-.287.899a2.15 2.15 0 0 1-.189.706c-.049.102-.08.214-.127.314s-.095.182-.141.273a.086.086 0 0 0-.007.066.994.994 0 0 0 .08-.055c.193-.157.383-.315.577-.476a.283.283 0 0 0 .124-.171.322.322 0 0 1 .049-.102c.085-.158.146-.326.18-.5.042-.181.082-.364.142-.541a1.72 1.72 0 0 1 .704-.888c.094-.062.19-.12.285-.179.035-.018.07-.034.108-.048-.01.04-.007.062-.02.072a2.642 2.642 0 0 1-.274.257.764.764 0 0 0-.276.414c-.012.04-.02.079-.027.119-.048.294-.148.58-.297.845-.072.11-.15.216-.234.317l-.042.054.01.018a.728.728 0 0 0 .117-.048c.257-.164.513-.327.767-.494a.722.722 0 0 0 .24-.269.673.673 0 0 0 .075-.343 1.157 1.157 0 0 1 .108-.505c.074-.16.184-.302.32-.419.165-.14.324-.287.487-.429a.555.555 0 0 1 .07-.047.06.06 0 0 1 .023.087 1.79 1.79 0 0 1-.106.233c-.085.14-.18.28-.27.421a1.338 1.338 0 0 0-.189.398 1.795 1.795 0 0 1-.262.568.644.644 0 0 0 .338-.09c.231-.176.445-.371.64-.585.065-.069.115-.156.178-.23.062-.082.134-.158.212-.227.247-.2.55-.321.864-.349.19-.017.381-.05.57-.07a.13.13 0 0 1 .083.015.322.322 0 0 1-.043.029.863.863 0 0 1-.079.028c-.23.078-.435.217-.59.402a1.238 1.238 0 0 1-.498.32c-.19.075-.378.15-.563.234-.077.04-.151.086-.222.138-.08.055-.166.115-.253.168a.522.522 0 0 0-.194.167.57.57 0 0 0 .056-.013c.177-.058.362-.086.546-.083.19.009.368.08.506.201l.273.207a.242.242 0 0 0 .196.043c.072-.012.144-.03.216-.045a.577.577 0 0 1 .092-.017c.041-.001.054.027.032.06a.605.605 0 0 1-.618.255c-.111-.022-.22-.046-.333-.068a3.19 3.19 0 0 1-.82-.284 2.378 2.378 0 0 0-.32-.112.28.28 0 0 0-.192.025 1.38 1.38 0 0 0-.17.082c-.273.151-.545.303-.817.456-.018.01-.035.022-.064.04a.12.12 0 0 0 .033.002.966.966 0 0 1 .428-.013c.14.028.271.087.382.173a.304.304 0 0 1 .108.176c.034.114.068.23.105.344a.76.76 0 0 0 .189.303.293.293 0 0 0 .139.09.317.317 0 0 0 .169.002c.01 0 .022-.008.03-.005.022.005.041.015.056.03.007.01-.004.038-.018.052a.299.299 0 0 1-.068.048c-.073.042-.145.085-.22.12a.618.618 0 0 1-.28.059.584.584 0 0 1-.27-.075.29.29 0 0 0-.037-.017.345.345 0 0 1-.24-.348c-.01-.134-.008-.268-.01-.403a.397.397 0 0 0-.206-.356.276.276 0 0 0-.221-.037c-.136.032-.273.057-.41.09a.348.348 0 0 0-.104.045c-.296.2-.579.419-.846.654a.485.485 0 0 0-.036.041l.116.02a.408.408 0 0 1 .319.222c.083.152.113.33.084.505-.017.182.01.363.079.53a.448.448 0 0 0 .122.199.47.47 0 0 0 .208.114c.082.02.17.022.254.036.048.008.094.024.16.04-.033.026-.046.044-.063.047-.188.054-.38.091-.575.111a.54.54 0 0 1-.34-.093 1.16 1.16 0 0 1-.387-.476.677.677 0 0 1-.034-.235c-.011-.14-.015-.281-.027-.42a.4.4 0 0 0-.211-.31c-.59.553-1.11 1.172-1.548 1.842l.056-.035c.086-.06.175-.116.267-.165.194-.097.4-.17.612-.217a.717.717 0 0 0 .492-.342.997.997 0 0 1 .244-.304.204.204 0 0 1 .02.155 1.67 1.67 0 0 1-.24.721c-.054.084-.1.173-.148.26a1.214 1.214 0 0 1-.328.373.744.744 0 0 1-.415.16 1.35 1.35 0 0 0-.397.084 2.206 2.206 0 0 1-.314.084.532.532 0 0 0-.276.14c-.091.092-.185.18-.28.266a.244.244 0 0 1-.07.031c-.005-.024-.023-.051-.016-.074.023-.071.052-.14.087-.207.164-.314.353-.616.566-.903.186-.242.267-.542.227-.834a3.822 3.822 0 0 0-.033-.248 1.93 1.93 0 0 1 .036-.812c.07-.267.195-.52.368-.743.106-.14.222-.275.347-.4.13-.136.253-.278.368-.426a1.14 1.14 0 0 0 .076-.145c.01-.017.035-.027.053-.04.012.019.034.037.033.054a1.29 1.29 0 0 1-.035.27 3.63 3.63 0 0 1-.46.929c-.052.078-.105.155-.153.235a.891.891 0 0 0-.128.395c-.016.201-.03.403-.063.604-.022.144-.068.287-.103.431.012-.013.03-.032.046-.052.12-.143.24-.287.363-.43a.187.187 0 0 0 .044-.062.176.176 0 0 0 .015-.073.137.137 0 0 1 .01-.06c.073-.188.18-.363.313-.519a.518.518 0 0 1 .318-.167.185.185 0 0 0 .14-.122 1.65 1.65 0 0 0 .1-.626c-.008-.305.01-.611.051-.916.08-.447.32-.86.676-1.165a.883.883 0 0 1 .31-.182.27.27 0 0 1-.009.089c-.046.088-.099.173-.15.259a.183.183 0 0 0-.025-.017.31.31 0 0 0-.04.046 3.36 3.36 0 0 0-.397.687c-.007.019-.016.037-.024.055a.165.165 0 0 1 .003-.107c.033-.086.072-.17.118-.25.1-.16.21-.316.314-.475l.063-.098-.017-.014-.082.062c-.38.321-.626.766-.685 1.244-.033.25-.038.503-.056.754-.001.012.001.025.002.036a1.61 1.61 0 0 0 .09-.29c.023-.103.044-.206.068-.308a.681.681 0 0 1 .105-.28L9.866 3.48c.105-.173.179-.36.217-.556.033-.288.103-.572.208-.846.077-.182.176-.356.293-.518m1.67.226c-.031.096-.065.192-.096.286a1.05 1.05 0 0 1-.144.305.459.459 0 0 0-.04.085.825.825 0 0 0 .357-.49c.081-.291.216-.568.397-.817.067-.097.127-.197.182-.3a.12.12 0 0 0 .025-.05.113.113 0 0 0 0-.055c-.171.147-.332.29-.497.427a.99.99 0 0 0-.23.292 1.255 1.255 0 0 0-.146.443c-.011.106-.012.214-.016.322a.865.865 0 0 0 .087-.176c.04-.093.084-.184.127-.277M7.571 6.874l.013.01c.096-.074.188-.153.287-.221.099-.068.207-.134.314-.19.106-.056.216-.115.327-.167a.912.912 0 0 1 .34-.092 3.976 3.976 0 0 0-1.267.779.846.846 0 0 1 .354-.146c.106-.023.208-.06.31-.088a1.1 1.1 0 0 1 .256-.058.826.826 0 0 0 .706-.384c.138-.218.264-.443.378-.673a.517.517 0 0 0 .048-.261c-.03.034-.06.069-.086.106a1.723 1.723 0 0 1-.113.139.751.751 0 0 1-.423.213c-.23.046-.454.12-.666.219a.73.73 0 0 0-.178.109 2.706 2.706 0 0 0-.53.584c-.025.04-.05.08-.073.12m.887-1.872h.02c.007-.072.006-.137.012-.207.013-.162.02-.323.042-.483.036-.173.11-.338.215-.484.125-.202.247-.408.36-.615.058-.12.11-.24.155-.364l-.023-.013-.085.097c-.074.092-.152.18-.234.265-.195.186-.361.398-.495.627-.2.334-.287.717-.25 1.093a4.6 4.6 0 0 1 .063.661c-.002.024.003.048.006.097a.498.498 0 0 0 .034-.066c.036-.12.073-.241.104-.363a.545.545 0 0 0 .01-.309.882.882 0 0 1-.022-.439c.005-.046.006-.095.015-.14.025-.137.05-.273.079-.409 0-.016.005-.033.016-.046a.08.08 0 0 1 .043-.027l-.014.062c-.11.345-.128.708-.052 1.054l.002.01m1.238-.78a.446.446 0 0 0 .045.047.474.474 0 0 1 .188.351c.01.147.008.293.015.44a.532.532 0 0 0 .028.194 1.05 1.05 0 0 0 .393.47.36.36 0 0 0 .308.036c-.04-.02-.064-.03-.086-.045-.1-.063-.202-.122-.295-.194a.391.391 0 0 1-.148-.285.072.072 0 0 1 .006-.051.079.079 0 0 1 .038-.037c.007.102.04.198.098.281.07.075.156.134.253.174-.021-.039-.051-.07-.073-.105a.714.714 0 0 1-.096-.184 1.282 1.282 0 0 1-.058-.574c.003-.026.002-.054.004-.081a.62.62 0 0 0-.095-.392.353.353 0 0 0-.177-.137.385.385 0 0 0-.23-.008c.258.261.306.358.239.472-.107-.226-.22-.354-.357-.377m3.581-2.586.508-.32.013.02c-.168.17-.416.256-.584.448a.326.326 0 0 0 .042-.009c.187-.076.373-.157.563-.228.208-.074.397-.195.548-.355a1.04 1.04 0 0 1 .39-.292c.007 0 .011-.013.02-.022-.124.013-.242.028-.36.04-.324.03-.633.163-.88.377a1.64 1.64 0 0 0-.262.342m-1.643 1.515-.01.016a.084.084 0 0 0 .014.022.506.506 0 0 1 .186.443c-.003.118.001.235.013.352a.25.25 0 0 0 .183.258c.023.006.041.024.064.032a.503.503 0 0 0 .253.044.528.528 0 0 0 .246-.087 1.32 1.32 0 0 1-.171-.11.735.735 0 0 1-.212-.323c-.04-.123-.072-.249-.105-.371a.274.274 0 0 0-.084-.167 1.8 1.8 0 0 0-.178-.115.195.195 0 0 0-.06-.014c.02.037.047.07.08.097a.546.546 0 0 1 .185.416.507.507 0 0 0 .057.251.723.723 0 0 1 .034.089.048.048 0 0 1-.023-.002.044.044 0 0 1-.018-.012.42.42 0 0 1-.108-.303.565.565 0 0 0-.272-.484.274.274 0 0 0-.072-.028m1.774-.602a1.285 1.285 0 0 0-.743-.145c.078.03.153.063.226.1.242.124.502.212.772.262.114.026.228.05.343.072a.391.391 0 0 0 .37-.14l-.172.03a.31.31 0 0 1-.234-.052 2.432 2.432 0 0 1-.254-.2.896.896 0 0 0-.445-.216.965.965 0 0 0-.506.047c.135.024.25.039.362.065a.46.46 0 0 1 .282.177m-2.725.664a.544.544 0 0 0 .043-.036c.207-.21.36-.46.449-.735.058-.177.095-.359.139-.54a.846.846 0 0 1 .294-.507l.001-.015c0-.005-.008 0-.01 0a1.646 1.646 0 0 0-.666.836c-.06.174-.097.353-.142.532-.018.072-.03.144-.046.216.113-.158.153-.346.254-.504l.022.008-.339.741M9.516 4.25a.198.198 0 0 0-.192.052c-.13.112-.237.247-.314.397-.015.035-.028.071-.04.107l.02.007.526-.563zm2.313-1.654.025.016.03-.042-.02-.013-.035.04" fill="#CF0036"/>
    <path d="m12.298 1.689.035-.155a.158.158 0 0 1 .001.08.17.17 0 0 1-.038.074h.002zM5.542 12.441l-.15.086a.9.9 0 0 0-.125.08.404.404 0 0 1-.15.077c-.124.04-.252.068-.38.083-.072.006-.144.013-.215.017-.056.003-.109-.002-.132-.062a.086.086 0 0 0-.019-.023.11.11 0 0 0-.05-.038.12.12 0 0 0-.066-.005c-.048.013-.066.05-.08.092a.092.092 0 0 1-.026.04c-.016.013-.027.025-.022.046a.04.04 0 0 0 .017.023.044.044 0 0 0 .03.006.111.111 0 0 1 .04.013l.057.03a.11.11 0 0 0 .086.004.114.114 0 0 0 .065-.058l.014-.034c.115.004.231-.005.346-.027.115-.021.23-.049.343-.074-.11.094-.23.175-.358.243-.108.048-.222.08-.34.093-.213.02-.427.044-.641.065a14.158 14.158 0 0 0-.049-.003c-.016-.031-.035-.06-.069-.062-.048 0-.097.003-.146.01a.046.046 0 0 0-.028.021.091.091 0 0 1-.054.042.048.048 0 0 0-.025.024.044.044 0 0 0-.002.034.046.046 0 0 0 .023.027.05.05 0 0 0 .037.004.268.268 0 0 0 .031-.011.13.13 0 0 0 .064.038.145.145 0 0 0 .176-.108l.039-.004c.176-.013.353-.025.53-.04.121-.004.242-.023.36-.058 0 0 .004 0 .01.005a.237.237 0 0 1-.053.034.532.532 0 0 0-.141.083.212.212 0 0 1-.085.035.707.707 0 0 0-.107.033c-.098.036-.195.076-.295.108a2.321 2.321 0 0 0-.521.228l-.197.12a.175.175 0 0 0-.088-.023.186.186 0 0 0-.089.023.097.097 0 0 0-.046.04.09.09 0 0 0-.012.057.085.085 0 0 1 .003.042.09.09 0 0 1-.019.04.043.043 0 0 0-.007.03.04.04 0 0 0 .016.027.04.04 0 0 0 .026.015.043.043 0 0 0 .03-.008.227.227 0 0 1 .113-.04.153.153 0 0 0 .043-.017.108.108 0 0 0 .057-.056.098.098 0 0 0 0-.077l-.007-.03c.035-.023.07-.047.105-.067a2.23 2.23 0 0 1 .406-.195c.177-.057.354-.124.53-.18a.299.299 0 0 1 .114-.017l-.144.169a.614.614 0 0 0-.1-.021.127.127 0 0 0-.147.104.111.111 0 0 0 .01.063c-.001.006 0 0 0 0-.007.024-.02.045-.015.055.005.01.029.017.046.026-.02.03-.043.06-.062.092a.343.343 0 0 1-.13.13c-.103.056-.199.123-.296.188a1.463 1.463 0 0 0-.287.231c-.024.026-.053.048-.077.068l-.041-.02a.154.154 0 0 0-.131.024.156.156 0 0 0-.046.05.146.146 0 0 0-.019.064c.007.03.009.06.006.091a.032.032 0 0 0 .017.033.036.036 0 0 0 .02.005.037.037 0 0 0 .019-.008.1.1 0 0 1 .071-.015.115.115 0 0 0 .078-.024.11.11 0 0 0 .04-.069.67.67 0 0 0 .001-.078c0-.014.004-.028.013-.04a2.5 2.5 0 0 1 .234-.198c.107-.073.224-.133.336-.199a.312.312 0 0 1 .036-.014l-.057.127a.129.129 0 0 1-.01.016c-.136.014-.179.086-.122.207-.025.059-.054.12-.078.18a.471.471 0 0 0-.03.106c-.014.097-.02.194-.034.29a.29.29 0 0 0-.002.063l-.103.03a.103.103 0 0 0-.068.043.09.09 0 0 0-.013.077c.006.024.014.05.024.074a.334.334 0 0 0-.02.026.047.047 0 0 0-.007.035.044.044 0 0 0 .021.03.048.048 0 0 0 .037.007.05.05 0 0 0 .03-.022c.015-.032.04-.038.069-.044.043-.011.083-.031.093-.078a.188.188 0 0 0-.011-.147.047.047 0 0 1-.006-.035c.029-.09.045-.184.049-.278a.709.709 0 0 1 .082-.271.106.106 0 0 1 .032-.045.111.111 0 0 1 .05-.023.12.12 0 0 0 .097-.073c.007-.02.01-.04.006-.06a.105.105 0 0 0-.027-.053l-.015-.02a.818.818 0 0 1 .097-.204l.124-.186.052-.075a.05.05 0 0 1 .047-.027l.018.005.008.246c.001.119-.007.239.004.356a.796.796 0 0 1-.038.362c-.007.019-.01.038-.016.055-.154.028-.181.062-.153.2a.267.267 0 0 0-.024.037.053.053 0 0 0 .023.064c.009.007.02.01.031.009a.046.046 0 0 0 .03-.016c.02-.034.055-.038.087-.051a.142.142 0 0 0 .094-.104.125.125 0 0 0-.05-.125.068.068 0 0 1-.007-.014l.05-.172a.334.334 0 0 0 .015-.132 2.375 2.375 0 0 1-.008-.182c0-.129.003-.257.005-.386 0-.039.003-.078.005-.118 0-.013.004-.026.01-.037a.078.078 0 0 1 .03-.028.09.09 0 0 0 .04-.048.082.082 0 0 0-.002-.06c-.004-.015-.01-.027-.016-.044.052-.063.102-.127.157-.188a.8.8 0 0 1 .105-.097c.077-.06.156-.117.235-.175h.004l.006.007-.054.083a.619.619 0 0 0-.097.246l-.032.212c-.01.098-.021.197-.035.295a.978.978 0 0 1-.035.18.112.112 0 0 0-.116.086.154.154 0 0 0 .008.101c.006.015.008.03.008.047-.003.032.01.051.033.058a.06.06 0 0 0 .066-.029.236.236 0 0 1 .023-.032c.022-.021.047-.04.068-.063a.082.082 0 0 0 .022-.028.073.073 0 0 0-.025-.093.192.192 0 0 0-.033-.02.03.03 0 0 1-.018-.03c0-.004 0-.008.003-.012.024-.081.042-.164.052-.248.012-.079.029-.157.04-.235.01-.107.036-.212.076-.314.04-.088.089-.173.143-.255.076-.093.168-.173.271-.237a.257.257 0 0 1-.025.065c-.065.12-.104.251-.116.385-.007.062-.022.123-.033.184-.069.013-.131.028-.148.1-.018.07.03.097.073.128v.012c-.004.025 0 .046.028.055.027.01.043-.005.056-.04a.082.082 0 0 1 .036-.04.179.179 0 0 0 .032-.025.11.11 0 0 0 .03-.04.099.099 0 0 0-.04-.126l-.032-.02c.003-.02.01-.041.013-.062.004-.035.016-.069.02-.103a.947.947 0 0 1 .093-.34c.026-.054.057-.107.092-.158a.495.495 0 0 1 .188-.155c.027-.013.053-.029.08-.043-.001-.01-.009-.02-.014-.03z" fill="#CF0036"/>
    <path d="M4.645 12.218a.713.713 0 0 0-.104 0 .523.523 0 0 1-.307-.063 3.301 3.301 0 0 1-.515-.324 1.46 1.46 0 0 1-.13-.126 2.407 2.407 0 0 0-.52-.459 1.36 1.36 0 0 0-.142-.074c-.023-.01-.048-.015-.073-.024a1.093 1.093 0 0 0-.677-.033 2.13 2.13 0 0 0-.253.086 26.82 26.82 0 0 0-.548.211c-.079.034-.159.08-.238.12a.114.114 0 0 0-.04.028c-.013.018-.03.042-.027.058a.07.07 0 0 0 .05.036c.057.01.115.014.174.014.18 0 .357.024.527.073.141.034.276.087.4.159.117.075.247.134.37.202.101.06.209.11.322.149.19.062.388.096.59.1h.285c-.103.037-.203.066-.296.108a1.917 1.917 0 0 0-.53.302 1.27 1.27 0 0 0-.438.69c-.037.187-.091.371-.138.557a.856.856 0 0 1-.13.28c-.067.09-.118.189-.154.293-.002.01-.009.021-.012.033-.016.055-.007.065.05.086.003 0 .009.001.012-.005.14-.11.287-.208.442-.295.063-.05.133-.089.2-.134.123-.08.227-.184.305-.305.057-.084.122-.164.177-.25.083-.127.169-.255.239-.39.074-.153.172-.295.292-.42.076-.073.145-.152.221-.224.087-.08.187-.143.295-.189l.167-.076c.088-.038.18-.067.274-.086 0-.005-.004-.012-.006-.018a.703.703 0 0 1-.114-.09zm-3.428-.664c.09-.041.18-.086.272-.124.153-.063.313-.112.46-.18.16-.066.33-.105.503-.115a.558.558 0 0 1 .125.003c.279.04.534.167.727.361.09.087.174.181.262.271.032.034.067.066.103.097.174.138.363.258.563.36l.056.03a1.29 1.29 0 0 1-.47-.084c-.06-.023-.117-.049-.177-.07a2.617 2.617 0 0 1-.552-.264 3.055 3.055 0 0 1-.49-.413.138.138 0 0 0-.084-.055c.11.16.273.259.386.4a6.734 6.734 0 0 1-.29-.105c-.003 0-.006-.006-.01-.008-.04-.017-.079-.036-.12-.05-.04-.013-.088-.024-.133-.036a2.004 2.004 0 0 0-.6-.092c-.13.006-.26.025-.387.056l-.142.034-.002-.016zm2.552.753a2.062 2.062 0 0 1-.715-.07 1.641 1.641 0 0 1-.275-.105c-.116-.057-.223-.13-.337-.191a2.916 2.916 0 0 0-.428-.224 2.11 2.11 0 0 0-.663-.124 30.127 30.127 0 0 0-.075-.005 1.47 1.47 0 0 1 .982-.002 2.052 2.052 0 0 0-.19-.006c-.15 0-.15.001-.185.03.007 0 .013.007.019.006.17-.01.34-.003.507.018.039.004.077.012.114.026.148.058.297.118.444.18.096.042.19.085.286.134.053.026.103.056.168.091a3.147 3.147 0 0 0-.54.004l.034.002c.162.01.325.02.488.022a.646.646 0 0 1 .22.046c.123.06.253.106.386.14l.009.013c-.085.007-.168.009-.252.014l.003.001zM2.351 14.35a.924.924 0 0 0 .138-.328c.043-.207.087-.414.132-.62a.832.832 0 0 1 .144-.325c.049-.065.103-.126.155-.189.068-.08.15-.15.24-.204.195-.12.404-.215.621-.283.118-.03.237-.051.357-.063-.136.074-.271.144-.4.22-.07.043-.133.096-.2.144a.326.326 0 0 1-.057.04c-.085.038-.173.073-.26.11-.086.037-.15.064-.225.1a.134.134 0 0 0-.03.028l.008.014c.156-.051.297-.128.459-.174-.042.05-.08.102-.124.148-.121.124-.215.27-.275.43a.2.2 0 0 1-.055.076c-.05.042-.103.08-.158.116a1.188 1.188 0 0 0-.205.15c.12-.057.238-.121.351-.192a1.116 1.116 0 0 1-.091.152 1.149 1.149 0 0 0-.18.287.498.498 0 0 1-.127.182.704.704 0 0 0-.085.1.566.566 0 0 1-.16.145.254.254 0 0 1 .027-.064zm1.98-1.95c-.15.063-.288.153-.404.267-.064.069-.124.138-.19.207a1.485 1.485 0 0 0-.262.39 5.475 5.475 0 0 1-.228.404c-.06.098-.131.19-.195.287a.894.894 0 0 1-.216.236c-.09.066-.183.13-.279.191-.066.042-.137.077-.206.116a.05.05 0 0 1 .005-.02.053.053 0 0 1 .012-.017.94.94 0 0 0 .195-.226.374.374 0 0 1 .043-.047.533.533 0 0 0 .112-.173.381.381 0 0 1 .096-.15c.116-.11.205-.244.262-.39.013-.039.029-.077.047-.114.026-.05.057-.1.086-.149l-.106.339c-.037.112-.075.226-.111.34a.094.094 0 0 0 .045-.043c.047-.085.082-.175.104-.269.01-.051.02-.102.035-.153.06-.188.155-.365.28-.522a.796.796 0 0 1 .22-.223 6.54 6.54 0 0 1 .43-.242.952.952 0 0 1 .292-.071.35.35 0 0 1-.067.031z" fill="#CF0036"/>
    <path d="m3.245 13.161-.033.04.021-.046.012.006zM3.328 18.585c.045-.191.113-.377.202-.555.14-.26.314-.503.515-.724.125-.16.22-.34.282-.53l-.616.85a.684.684 0 0 1 .142-.265c.063-.086.129-.171.192-.258.063-.082.118-.17.165-.26a.299.299 0 0 0-.029.022c-.183.185-.376.363-.549.557-.33.37-.509.842-.497 1.32-.003.032.004.064.006.096l.022.001c.012-.037.024-.072.034-.11.051-.18.096-.36.154-.54.03-.086.068-.17.113-.252a.18.18 0 0 1 .083-.075l-.027.054a3.252 3.252 0 0 0-.262.74.272.272 0 0 0-.006.06l.03.002c-.032.093-.062.187-.098.28-.009.023-.036.04-.062.069a.767.767 0 0 1-.071-.336 1.946 1.946 0 0 1 .441-1.26c.209-.237.435-.46.677-.665.17-.14.312-.309.42-.497a.17.17 0 0 0 .025-.091.16.16 0 0 0-.028-.09.451.451 0 0 1-.086-.327 1.75 1.75 0 0 1 .187-.569.154.154 0 0 1 .04-.047.189.189 0 0 0 .065-.134c.026-.18.056-.361.085-.54l.007-.068c-.088.12-.165.25-.264.365-.135.158-.283.306-.424.456a.925.925 0 0 0-.22.358c-.03.088-.053.177-.078.265a3.596 3.596 0 0 1-.406.95 1.426 1.426 0 0 1-.185.209c-.012.013-.042.01-.064.015a.162.162 0 0 1-.006-.064c.024-.049.045-.099.061-.15.031-.18.065-.362.078-.542.012-.171.036-.342.073-.511a2.03 2.03 0 0 1 .325-.76c.16-.231.366-.43.606-.583.074-.048.146-.097.216-.15.255-.173.432-.434.493-.726.076-.341.18-.677.312-1.004.028-.07.062-.137.102-.202.01-.018.043-.025.066-.037a.22.22 0 0 1 .024.068 9.312 9.312 0 0 1-.014.373c-.004.101.024.2.08.283.058.086.108.176.15.27.051.12.122.23.209.326a.643.643 0 0 1 .16.391c.015.161-.007.324-.063.48-.035.092-.074.184-.101.279-.08.243-.215.468-.396.657a.23.23 0 0 1-.134.094.929.929 0 0 1 .07-.375.62.62 0 0 0-.072-.567 2.254 2.254 0 0 1-.254-.564 2.196 2.196 0 0 1-.054-.296l-.012-.062a9.322 9.322 0 0 0-.37 2.314.45.45 0 0 0 .384-.07c.117-.088.229-.182.345-.27a.765.765 0 0 1 .206-.14c.206-.074.425-.097.638-.065.12.02.228.077.307.165.117.146.22.302.307.467.008.014.004.035.007.073-.058-.032-.103-.052-.142-.081-.07-.048-.13-.105-.202-.148a.489.489 0 0 0-.232-.062.517.517 0 0 0-.239.054 1.31 1.31 0 0 0-.467.312.899.899 0 0 1-.451.29.46.46 0 0 1-.206.015.432.432 0 0 1-.186-.077l-.094-.065a.478.478 0 0 0-.006.053c.001.343.025.684.072 1.022a.29.29 0 0 0 .038.102c.068.113.142.227.211.338a.265.265 0 0 0 .18.123.447.447 0 0 0 .418-.106c.106-.09.209-.185.32-.273a.398.398 0 0 1 .208-.106.38.38 0 0 1 .228.028c.012.006.026.01.039.013a.566.566 0 0 1 .243.132.539.539 0 0 1 .148.228c.024.075.039.155.057.233a.26.26 0 0 1 .009.08c-.002.017-.016.045-.028.048a.12.12 0 0 1-.062-.017c-.008 0-.012-.016-.017-.025a.285.285 0 0 0-.12-.113.308.308 0 0 0-.165-.032.87.87 0 0 0-.366.08c-.114.054-.227.11-.34.166a.35.35 0 0 1-.211.048.917.917 0 0 1-.397-.14.863.863 0 0 1-.285-.298c-.003-.005-.01-.009-.025-.02.006.033.008.053.013.075l.21.866c.013.059.03.116.052.172a.247.247 0 0 0 .114.148c.098.053.2.1.306.138.279.084.543.205.785.36.093.06.19.118.281.178a.53.53 0 0 1 .225.598c-.01.04-.042.05-.069.02a.512.512 0 0 1-.05-.076c-.038-.058-.073-.119-.114-.176a.23.23 0 0 0-.168-.103l-.349-.043a.813.813 0 0 1-.505-.203 1.445 1.445 0 0 1-.311-.426.447.447 0 0 0-.03-.047.467.467 0 0 0 .005.246c.019.095.028.191.045.286.01.083.026.165.05.246.062.182.132.362.204.542.08.173.111.365.092.557-.037.231-.004.466.095.675.012.024.023.05.032.075a.247.247 0 0 1 .008.05.122.122 0 0 1-.07-.046c-.113-.145-.22-.294-.338-.435a1.38 1.38 0 0 1-.321-.822c0-.1.01-.201.031-.3.015-.093.048-.186.057-.28.032-.278.037-.557.013-.834a.557.557 0 0 0-.163-.291 1.794 1.794 0 0 1-.263.568c-.082.123-.143.259-.18.4-.045.158-.088.315-.14.47a1.831 1.831 0 0 1-.121.255.067.067 0 0 1-.071.021.56.56 0 0 1-.012-.08c-.001-.208.002-.417-.001-.624a1.156 1.156 0 0 1 .105-.504c.073-.16.182-.303.317-.42a.716.716 0 0 0 .216-.287.665.665 0 0 0 .043-.348 53.05 53.05 0 0 0-.144-.859.618.618 0 0 0-.043-.113l-.021.006a.292.292 0 0 1-.012.066c-.022.127-.05.252-.086.376a2.61 2.61 0 0 1-.453.782 1.104 1.104 0 0 0-.074.1.73.73 0 0 0-.131.471c.005.122 0 .243-.013.365-.001.015-.02.03-.042.063a.85.85 0 0 1-.037-.106c-.02-.105-.04-.21-.056-.316-.063-.37.01-.754.206-1.087.097-.162.21-.315.323-.47.111-.141.2-.298.264-.464a.312.312 0 0 1 .046-.103.272.272 0 0 0 .048-.202l-.027-.714a.836.836 0 0 0-.013-.092.096.096 0 0 0-.047.049c-.039.094-.072.19-.116.285-.044.093-.11.198-.156.302a2.258 2.258 0 0 1-.42.613c-.217.24-.387.517-.5.814-.033.082-.071.162-.107.242m1.326.975c.043-.092.084-.185.129-.276a.884.884 0 0 0 .077-.18c-.084.077-.166.15-.239.233a1.3 1.3 0 0 0-.244.404.913.913 0 0 0-.069.356c.006.208.008.415.01.631a.128.128 0 0 0 .063-.088c.044-.108.08-.219.11-.33.07-.294.192-.576.363-.832a.78.78 0 0 0 .136-.576.44.44 0 0 0-.039.086 1.034 1.034 0 0 1-.138.307c-.054.088-.105.176-.158.264m.737-6.674-.044.132c-.07.25-.1.506-.09.761a.637.637 0 0 0 .038.196c.07.213.166.415.288.602a.65.65 0 0 1 .126.433 1.61 1.61 0 0 1-.03.17 1 1 0 0 0-.024.13.551.551 0 0 0 .173-.208c.1-.236.188-.477.264-.72a.717.717 0 0 0-.186-.742.958.958 0 0 1-.134-.21c-.051-.09-.092-.185-.147-.271a.727.727 0 0 1-.13-.34c-.008.48.082.954.266 1.393a.786.786 0 0 1-.163-.294 4.274 4.274 0 0 1-.164-.68c-.019-.115-.018-.23-.025-.345l-.017-.001m-.847 1.888-.01.005a2.24 2.24 0 0 0-.784.761l-.039.053a.07.07 0 0 1-.008-.047.076.076 0 0 1 .024-.044l.261-.334c.031-.037.07-.069.1-.106a1 1 0 0 1 .356-.286.607.607 0 0 0 .234-.22c.072-.104.14-.21.21-.32a.537.537 0 0 0 .028-.07c-.04.03-.061.044-.082.062a5.29 5.29 0 0 1-.557.41 1.9 1.9 0 0 0-.677.921 2.67 2.67 0 0 0-.147.766c-.01.114-.025.228-.046.341a1.41 1.41 0 0 1-.017.125l.026.006c.06-.118.13-.233.176-.355.085-.22.16-.443.231-.666.04-.172.118-.336.228-.479.11-.125.231-.242.347-.36l.154-.153-.015-.012m.245 1.375c.112.08.29.066.538-.018-.042.125-.15.159-.53.165a.35.35 0 0 0 .163.15c.07.03.15.04.228.024a.715.715 0 0 0 .37-.205c.02-.02.044-.037.06-.058.136-.151.302-.273.489-.356a.828.828 0 0 1 .208-.06c.043-.01.087-.011.132-.024a.775.775 0 0 0-.309-.05.642.642 0 0 0-.286.128.07.07 0 0 1 .001-.051.078.078 0 0 1 .036-.039.452.452 0 0 1 .324-.096c.12.014.236.043.354.066.026.005.05.015.093.028a.317.317 0 0 0-.096-.12.336.336 0 0 0-.144-.065 1.171 1.171 0 0 0-.299-.018 1.546 1.546 0 0 0-.336.075.602.602 0 0 0-.171.115c-.12.096-.232.2-.354.294a.547.547 0 0 1-.403.114.407.407 0 0 0-.067.002m.453 4.204a1.545 1.545 0 0 0-.086.411c.003.315.112.616.312.856.072.087.141.177.216.27.001-.013.006-.022.003-.029a.916.916 0 0 1-.04-.465 1.22 1.22 0 0 0-.102-.614c-.074-.178-.14-.36-.21-.538a.272.272 0 0 0-.02-.035c-.034.246.067.47.052.705l-.023.003-.102-.564zm.048-2.154a.267.267 0 0 0 .072.03.64.64 0 0 0 .564-.15.487.487 0 0 1 .31-.135.046.046 0 0 1 .04.019.776.776 0 0 1-.093.038.585.585 0 0 0-.234.132.63.63 0 0 1-.452.16.405.405 0 0 0-.13.013.204.204 0 0 0 .052.032c.074.016.141.031.213.04a.312.312 0 0 0 .186-.058c.12-.065.24-.131.364-.186a.844.844 0 0 1 .397-.08c.069.01.137.023.204.041a.455.455 0 0 0-.31-.367c-.023-.01-.05-.01-.069-.021a.274.274 0 0 0-.17-.027.288.288 0 0 0-.157.08c-.099.073-.193.15-.282.233a.584.584 0 0 1-.47.18c-.01 0-.02.002-.029.005l-.002.018m.753 1.615a.486.486 0 0 1-.332-.07c-.098-.056-.188-.124-.3-.2a.855.855 0 0 0 .312.375.916.916 0 0 0 .475.153c.11.004.22.016.329.034a.293.293 0 0 1 .201.123l.097.136a.348.348 0 0 0-.146-.346 7.317 7.317 0 0 0-.292-.181 2.781 2.781 0 0 0-.735-.344 2.458 2.458 0 0 1-.234-.083c.159.195.376.335.624.404m-1.358-2.3-.344.738-.023-.01c.054-.178.172-.333.218-.519-.046.06-.094.12-.138.182-.107.153-.222.302-.317.46a1.544 1.544 0 0 0-.191 1.028l.006.008c.003.003.01-.008.01-.012a.822.822 0 0 1 .191-.548c.111-.154.228-.305.326-.466.152-.248.242-.525.263-.808.002-.016 0-.031-.002-.055m.009-1.506.078-.743-.019-.008c-.02.033-.039.066-.055.1a1.22 1.22 0 0 0-.094.486c0 .073.016.103.092.165m.303 2.705-.005.051.024.002.013-.049L5 18.7" fill="#CF0036"/>
    <path d="m4.595 19.663-.096.13a.176.176 0 0 0 .063-.055.166.166 0 0 0 .03-.076h.003zM8.296 11.472l.006.073a.623.623 0 0 1-.034.25.662.662 0 0 1-.132.22 2.286 2.286 0 0 1-.51.41c-.244.123-.5.22-.763.29a1.35 1.35 0 0 1-.344.008 1.946 1.946 0 0 1-.527-.085.442.442 0 0 1-.187-.102.42.42 0 0 1-.114-.174.24.24 0 0 0-.017-.033.844.844 0 0 1-.129.071.999.999 0 0 1-.147.027 1.8 1.8 0 0 1-.175.033 1.1 1.1 0 0 1-.614-.13 1.375 1.375 0 0 0-.21-.086 1.24 1.24 0 0 1-.337-.16.592.592 0 0 1-.19-.213.41.41 0 0 0-.046-.076c-.1-.139-.17-.295-.21-.462a.396.396 0 0 1-.017-.182.42.42 0 0 1 .067-.175c.036-.046.075-.09.118-.131-.068-.004-.136-.001-.204-.013a.697.697 0 0 1-.379-.168.657.657 0 0 1-.207-.35 5.49 5.49 0 0 1-.1-.408 1.187 1.187 0 0 1-.018-.179 1.813 1.813 0 0 1-.006-.198c.005-.117.014-.234.026-.351a.205.205 0 0 1 .04-.092 2.686 2.686 0 0 0 .246-.534.791.791 0 0 1 .213-.332.827.827 0 0 1 .35-.194.287.287 0 0 1 .138-.017c.046.006.09.023.126.05.019.013.04.023.07.042-.01-.063-.018-.111-.03-.159a.411.411 0 0 1 .01-.223c.05-.163.093-.328.14-.491.01-.035.023-.072.034-.105a.19.19 0 0 1 .113-.117c.267-.134.553-.226.846-.271.099-.016.196-.043.29-.078a1.96 1.96 0 0 1 .507-.077c.2-.012.399-.015.596-.036a.748.748 0 0 1 .316.033c.1.033.19.088.266.16a.451.451 0 0 1 .164.354l.003.115c.03-.012.051-.02.072-.03a.652.652 0 0 1 .463-.045c.258.066.482.216.635.425a.97.97 0 0 0 .276.24.487.487 0 0 1 .19.2c.124.222.185.475.177.732a.94.94 0 0 1-.105.375 5.824 5.824 0 0 1-.043.084c.22.05.302.23.411.378.086.152.11.332.069.505-.011.108-.03.216-.057.322-.022.089-.056.175-.081.262-.018.058-.027.119-.047.176a.51.51 0 0 1-.068.158c-.12.154-.26.293-.415.413a.492.492 0 0 1-.363.092c-.052-.003-.103-.015-.161-.023M2.977 9.2a.567.567 0 0 0-.038.269c0 .168.019.334.053.497.037.117.057.239.097.355a.6.6 0 0 0 .216.301c.103.076.228.12.359.125a.706.706 0 0 0 .113-.01.438.438 0 0 0-.072-.135.43.43 0 0 0-.146-.045l.117-.04c0-.047-.002-.09-.003-.132l-.003-.128-.292-.011c.1-.06.199-.029.288-.056-.007-.166-.019-.328-.018-.49a1.904 1.904 0 0 1 .026-.414.798.798 0 0 1 .27-.463.175.175 0 0 0 .024-.036c-.082-.078-.204-.044-.308-.113l.126.008c.035.002.074.01.111.016l.05-.244a1.052 1.052 0 0 1-.043-.028c-.015-.01-.023-.018-.035-.027l.006-.007.09.028c.036-.083.06-.17.076-.257a.26.26 0 0 0-.128-.06.279.279 0 0 0-.143.014c-.099.04-.195.086-.288.138a.29.29 0 0 0-.084.084.917.917 0 0 0-.148.297 1.32 1.32 0 0 1-.229.478.262.262 0 0 0-.027.057l.132.03v.008l-.15-.009m1.635-.294c-.019-.015-.04-.028-.056-.044l-.421-.415c-.022.067-.04.114-.05.163a.09.09 0 0 0 .015.068.931.931 0 0 0 .263.266c.115.062.223.134.324.214.126.107.269.192.425.252.133.053.277.078.423.073a.357.357 0 0 0 .078-.029l-.315-.334a.048.048 0 0 1 .024.001.045.045 0 0 1 .019.013l.244.251c.017.018.029.049.072.033a.222.222 0 0 1 .042-.109.237.237 0 0 1 .093-.075.966.966 0 0 0-.09-.175 1.29 1.29 0 0 1-.171-.293c-.033-.075-.069-.146-.1-.22a1.08 1.08 0 0 1-.132-.493 1.133 1.133 0 0 1 .108-.507c.036-.07.015-.102-.063-.113-.027 0-.054 0-.081.005l.008.146-.018.003-.06-.142a3.383 3.383 0 0 0-.336.086c.089.211.17.412.258.611.033.075.077.151.117.22l.032.064a.045.045 0 0 1-.022-.005.042.042 0 0 1-.016-.014 1.633 1.633 0 0 1-.183-.347c-.06-.145-.136-.285-.207-.425a.49.49 0 0 0-.058-.077c-.087.036-.168.063-.242.103a.56.56 0 0 0-.252.254.112.112 0 0 0-.015.065c.001.023.01.044.025.061.056.066.106.138.167.2.116.117.238.228.356.342a.556.556 0 0 1 .067.082c.008.011.004.03.005.046l-.016.008-.653-.648c-.015.05-.026.104-.045.153a.244.244 0 0 0 .063.264c.015.018.035.032.052.05l.319.362.003.006zm1.12 1.403a.151.151 0 0 0-.087-.013.16.16 0 0 0-.08.037c-.024.016-.05.028-.073.044a.736.736 0 0 1-.453.157.202.202 0 0 0-.159.083c-.045.056-.095.108-.136.166a.583.583 0 0 0-.082.14.983.983 0 0 0 .053.661c.031-.034.056-.062.084-.088l.071-.073.014.012-.145.19c.062.08.15.136.252.16.062.025.122.053.181.085.083.043.163.09.246.14.053-.122.096-.247.128-.374 0 .131-.026.262-.076.387.139.071.294.109.454.109.184-.004.367-.019.55-.03a.126.126 0 0 0 .036-.015 1.962 1.962 0 0 1 .006-.486l.042.496c.05-.014.097-.032.144-.054a.69.69 0 0 0 .26-.281.637.637 0 0 0 .063-.367c-.03-.16-.087-.31-.171-.449a1.496 1.496 0 0 1-.255-.44l-.039-.005c-.116-.018-.158.01-.179.125a.794.794 0 0 0 .003.331c.02.088.043.175.064.261.006.021.007.043.01.064a.967.967 0 0 1-.091-.73l-.134-.001a.901.901 0 0 0-.133.423l-.018.307-.01.34a.902.902 0 0 1-.044-.352c0-.124.008-.247.026-.37.027-.117.062-.232.103-.345a.287.287 0 0 1-.142.004.268.268 0 0 1-.123-.063c-.025.042-.044.077-.066.11a1.326 1.326 0 0 1-.071.098.236.236 0 0 1-.083.073 1.38 1.38 0 0 0 .181-.297c-.07-.04-.13-.081-.123-.168m.267-2.747c.01-.201.097-.391.114-.613-.081.057-.138.103-.2.144a.221.221 0 0 0-.07.067.208.208 0 0 0-.032.089c-.017.107-.042.216-.062.32l-.012-.001.058-.356-.02-.007c-.112.111-.209.237-.286.372a.744.744 0 0 0-.101.312c-.016.176.007.351.067.515.064.16.141.316.215.472.031.07.082.128.148.169l-.042-.32.019-.004c.02.087.043.173.06.26.005.091.02.182.043.27.033-.102.081-.179.21-.168.133-.325.184-.668.31-.993a5.6 5.6 0 0 1-.11.516c-.046.17-.103.334-.156.502a.248.248 0 0 1 .149-.052c.015 0 .036-.02.047-.036.02-.028.032-.06.05-.089l.16-.274a.066.066 0 0 1-.006.057l-.172.326c-.011.021-.031.043-.001.062.068-.03.134-.064.198-.102a2.09 2.09 0 0 0 .246-.187c.064-.058.115-.13.175-.194a1.18 1.18 0 0 1 .138-.126c.139-.106.281-.208.42-.314a.222.222 0 0 0 .091-.121.202.202 0 0 0-.01-.146.57.57 0 0 0-.356-.348l-.37-.126a.608.608 0 0 1-.179.238.926.926 0 0 1 .085-.162.187.187 0 0 0 .043-.119.174.174 0 0 0-.045-.115.842.842 0 0 0-.557-.342.302.302 0 0 0-.082.003c-.06.216-.12.42-.175.625M8.89 9.226a1.544 1.544 0 0 0-.12-.416.177.177 0 0 1-.015-.042c-.043-.133-.084-.267-.129-.4a.547.547 0 0 0-.039-.075l-.14.07c-.062.032-.121.066-.185.096a.39.39 0 0 1-.178.047l.508-.26c-.06-.06-.11-.113-.166-.162a.386.386 0 0 0-.248-.104.638.638 0 0 0-.377.094 3.249 3.249 0 0 0-.197.143c-.1.076-.19.165-.295.232a1.56 1.56 0 0 0-.378.342 1.123 1.123 0 0 1-.307.274.111.111 0 0 0-.023.027c.054.012.053.01.236-.104.08-.049.167-.086.251-.13l.238-.12a.17.17 0 0 1-.069.07c-.06.032-.125.058-.185.09l-.42.23c.142.04.142.04.172.134.099-.036.16.01.204.092.148-.03.294-.072.435-.125.194-.081.388-.161.583-.24a.102.102 0 0 1 .055-.017c.02 0 .038.006.054.016l-1.024.437c.068.07.023.147-.024.231.115-.023.215-.044.316-.062a.515.515 0 0 1 .314 0l-.31.04-.314.045c.013.01.027.019.042.025.215.063.443.085.67.065.114-.016.228-.023.345-.031a.53.53 0 0 1 .27.048c.079.038.155.081.229.128.05.032.097.07.144.105a.615.615 0 0 0 .18-.374.567.567 0 0 0-.105-.388c-.168.058-.335.118-.505.173-.098.032-.198.055-.298.08a.352.352 0 0 1-.076.005h-.075c.16-.048.316-.092.47-.14l.484-.154m-1.81.687c-.019.115.045.163.128.2.096.045.19.095.286.142a1.769 1.769 0 0 1-.428-.165c-.013.028-.032.05-.03.07.008.098-.055.143-.133.18l-.061.029a.377.377 0 0 0 .188.19c.142.077.293.147.44.219.03.015.061.026.092.04a.126.126 0 0 1-.075-.005c-.153-.067-.308-.132-.458-.204a.476.476 0 0 1-.225-.215c-.004-.008-.016-.013-.028-.022a.28.28 0 0 1-.04.07.117.117 0 0 0-.035.072.107.107 0 0 0 .02.074c.021.045.047.089.078.13.09.126.167.261.229.403.05.114.113.226.172.334a.215.215 0 0 0 .103.103.234.234 0 0 0 .15.016c.118-.015.235-.028.353-.044.043-.01.086-.021.129-.035a2.234 2.234 0 0 1-.46-.24c.015 0 .03.003.043.01l.41.178c.024.01.06.022.078.012.089-.05.173-.108.271-.17a1.613 1.613 0 0 1-.457-.184c.022 0 .043.005.063.012.138.039.276.08.416.118a.252.252 0 0 0 .262-.087.565.565 0 0 0 .08-.114c.075-.138.148-.276.221-.415a.043.043 0 0 0 .002-.02l-.534-.125c.193-.002.375.058.57.058a.363.363 0 0 0-.026-.202.794.794 0 0 0-.209-.282.832.832 0 0 0-.314-.17.471.471 0 0 0-.174-.022c-.102 0-.205.008-.307.023-.165.022-.33.016-.491-.017-.074-.014-.148-.023-.222-.034l-.074.096m-3.237-.89c-.04.103-.08.186-.104.273a.154.154 0 0 0 0 .124.147.147 0 0 0 .094.08c.057.028.114.055.17.084l-.007.016-.273-.112c-.011.18-.005.358.018.535.166-.027.334-.041.502-.042l-.496.085a.22.22 0 0 0-.004.04l.012.36c.015.095.05.183.105.261l.37-.162.012.022-.316.186c-.001.011-.007.021-.003.029.02.09.078.169.16.217.07.035.145.074.221.105a.412.412 0 0 0 .215.02.798.798 0 0 1 .252-.521.582.582 0 0 1 .347-.198c.116-.022.231-.06.344-.089a.146.146 0 0 0 .103-.072.157.157 0 0 1-.09-.084.152.152 0 0 1 .002-.125c-.066.002-.04-.054-.058-.08a.171.171 0 0 1-.016-.104.649.649 0 0 1 .029-.113l-.697.113-.002-.017c.25-.083.514-.095.768-.153l.015-.14c-.006-.001-.011-.01-.017-.009a1.147 1.147 0 0 1-.466-.095 1.707 1.707 0 0 1-.323-.182c-.135-.096-.273-.188-.41-.281a.263.263 0 0 0-.05-.023l-.254-.104-.12.118c.046.04.094.078.145.112.125.072.256.138.383.207.032.017.063.038.094.056l-.013.018a2.76 2.76 0 0 1-.64-.353m.957-2.121c-.045.018-.083.03-.12.047-.082.037-.162.083-.248.112a.218.218 0 0 0-.096.063.206.206 0 0 0-.05.1c-.048.183-.104.363-.156.545a.229.229 0 0 0 .013.179.671.671 0 0 1 .247-.3.077.077 0 0 0 .027-.037.07.07 0 0 0 0-.044 1.549 1.549 0 0 1-.014-.114l.017-.004.053.136c.314-.148.66-.213 1.002-.188v-.395l.02-.002c.026.115.044.232.055.35l.026-.04a1.86 1.86 0 0 1 .524-.433.113.113 0 0 0 .036-.057c.01-.028 0-.064.04-.088l.02.108c.123.027.243.062.361.105.108.054.213.115.312.182.012-.042.026-.084.043-.125.016-.034.016-.08.065-.105l-.056.28c.065.028.129.058.193.084.118.05.177.07.176-.119a.471.471 0 0 0-.21-.403.664.664 0 0 0-.477-.127c-.189.02-.38.033-.568.042-.18.004-.36.03-.534.077-.15.045-.304.075-.455.112l-.185.046.014.151c.012.109.013.11-.006.146a1.892 1.892 0 0 1-.067-.284m.915 5.332a.36.36 0 0 0 .098.254c.048.05.11.086.178.104.103.028.208.051.315.068.073.012.155.01.231.014.205.02.413-.016.602-.104.108-.043.212-.093.316-.141.04-.018.08-.04.119-.058a.08.08 0 0 0 .047-.042.072.072 0 0 0 0-.06 1.065 1.065 0 0 1-.026-.118l.02-.006.058.157c.082-.056.148-.1.208-.154.06-.053.107-.113.163-.167a.541.541 0 0 0 .158-.381.199.199 0 0 0-.063-.166l-.205.117.064.17-.021.01-.11-.165-.044.002a1.679 1.679 0 0 1-.583.011l.114.276-.018.008-.107-.201-.012.01a.102.102 0 0 0-.007.026.752.752 0 0 1-.129.396.172.172 0 0 0-.015.103c.006.057.02.114.03.17l-.017.007-.077-.183a1.707 1.707 0 0 1-.622.192c-.015.053.016.102-.018.168a.628.628 0 0 1-.042-.104.133.133 0 0 0-.042-.075.141.141 0 0 0-.082-.035c-.138-.03-.275-.066-.413-.098a.6.6 0 0 0-.075-.005m-1.09-.615-.126-.383-.313.298c.055-.112.131-.214.225-.3-.221-.083-.456-.128-.549-.363a.378.378 0 0 0-.177.175.345.345 0 0 0-.025.24c.067.234.18.45.335.637.023.027.05.052.079.073.094.07.201.123.316.157.085.025.168.057.247.094a.968.968 0 0 0 .552.116c.105-.013.21-.031.313-.054.05-.011.074-.048.092-.101a.487.487 0 0 1-.273-.144.696.696 0 0 0-.121-.068l-.068.124.014-.138a1.072 1.072 0 0 1-.48-.342l-.104.15-.016-.009.078-.16m3.34-3.674.066-.009a.548.548 0 0 1 .36.026.5.5 0 0 1 .252.242c.065.1.117.207.153.32.038.19.139.355.173.544 0 .005.008.007.021.018l.075-.22-.06-.004c.032-.036.08-.05.081-.108.001-.199-.043-.394-.13-.572 0-.004-.009-.007-.016-.012l-.079.029.069-.085a.821.821 0 0 0-.199-.22 1.068 1.068 0 0 1-.337-.307.696.696 0 0 0-.088-.091l-.107.055-.007-.01.077-.08a.996.996 0 0 0-.45-.269.554.554 0 0 0-.437.085.349.349 0 0 0-.049.047c.162.056.306.147.423.267.095.08.152.196.158.32l.015.008.093-.079.01.011-.07.094M9.014 9.28a.889.889 0 0 1 .057.423c-.029.144-.099.28-.202.39l.223.108-.008.019-.17-.045c.02.051.038.088.052.126.027.06.037.127.03.193a.402.402 0 0 1-.07.187c-.069.106-.13.216-.185.33a.517.517 0 0 1-.353.309.365.365 0 0 0-.149.075.45.45 0 0 0 .29.071.477.477 0 0 0 .278-.123l-.135-.05.006-.018a.833.833 0 0 1 .135.016.114.114 0 0 0 .116-.041c.067-.075.137-.145.205-.218a.443.443 0 0 0 .04-.057l-.155-.082.006-.014.192.043c.018-.077.033-.144.05-.211.063-.194.11-.392.144-.592a1.07 1.07 0 0 0 .004-.25c-.054-.024-.118-.006-.183-.055l.175.006a.712.712 0 0 0-.395-.536m-1.33-1.197c.05-.028.097-.058.147-.082a.096.096 0 0 0 .051-.045.087.087 0 0 0 .006-.067.45.45 0 0 0-.066-.164.953.953 0 0 0-.535-.351c-.104-.025-.205-.062-.307-.092-.037-.012-.072-.028-.11-.043-.002.013-.006.02-.003.024a.22.22 0 0 0 .02.04.406.406 0 0 0 .236.172c.072.017.141.041.208.072a.554.554 0 0 1 .354.539m-.566 3.353-.02.005c-.006.06-.02.12-.026.18a.476.476 0 0 1-.074.214.63.63 0 0 1-.592.34.992.992 0 0 0-.121.002l-.281.02c.12.045.244.082.37.11a.148.148 0 0 0 .055-.002c.102-.016.205-.027.307-.054a.481.481 0 0 0 .252-.117.737.737 0 0 0 .152-.268c.03-.098.04-.2.026-.3a.575.575 0 0 0-.045-.132M6.6 9.765a.07.07 0 0 0-.012-.06.07.07 0 0 0-.024-.02.075.075 0 0 0-.03-.008c-.063-.012-.108.009-.12.056a.093.093 0 0 0 .008.072.09.09 0 0 0 .059.043.116.116 0 0 0 .117-.083m-1.05.009c-.08.044-.107.104-.083.163.002.01.007.02.014.027a.058.058 0 0 0 .028.016.063.063 0 0 0 .06-.017.077.077 0 0 0 .033-.044.07.07 0 0 0-.005-.052c-.013-.03-.029-.058-.046-.093m.318-.163c-.055.033-.093.067-.084.132.007.047.047.076.118.08a.248.248 0 0 0-.034-.212zm.29-.295c-.1.09-.072.058.002.196a.513.513 0 0 0 .075-.048c.048-.044.043-.07-.013-.1a.66.66 0 0 1-.065-.048zm.434.78c-.077.015-.11.049-.112.098a.07.07 0 0 0 .046.067c.009.004.019.005.029.005a.064.064 0 0 0 .049-.02.061.061 0 0 0 .013-.023.057.057 0 0 0 .002-.026.584.584 0 0 0-.028-.098m-.458-.274c-.013-.03-.015-.061-.033-.075-.029-.021-.052.007-.068.029a.353.353 0 0 0-.046.088.05.05 0 0 0 .017.045.05.05 0 0 0 .023.007.053.053 0 0 0 .025-.004.907.907 0 0 0 .085-.087m.255-.277c-.062-.004-.095-.055-.143-.02-.048.033-.027.083-.023.13.08.01.11-.045.162-.11m-.35-.362a.065.065 0 0 0-.052.015.064.064 0 0 0-.016.022.06.06 0 0 0-.006.026c-.005.04.018.082.048.083.03.001.075-.043.084-.079a.055.055 0 0 0-.01-.046.055.055 0 0 0-.02-.015.058.058 0 0 0-.024-.005m.659.54c-.039.08-.02.12.056.125.049.003.07-.025.053-.07-.016-.045-.058-.055-.11-.058m.251-.086c.053.009.11-.023.11-.055 0-.031 0-.063-.041-.07-.04-.006-.11.038-.104.063.008.022.02.043.035.062zm-.02-.21a.054.054 0 0 0-.01-.048.053.053 0 0 0-.019-.015.057.057 0 0 0-.024-.006.087.087 0 0 0-.058.018.084.084 0 0 0-.031.05c-.004.037.023.052.057.057a.068.068 0 0 0 .052-.01.069.069 0 0 0 .029-.044m-.877.064-.07-.09c-.08.048-.1.08-.076.11.024.032.072.03.146-.02zm.642-.247a.098.098 0 0 0-.105.072c-.006.027-.001.049.03.055a.113.113 0 0 0 .107-.074c.01-.03-.002-.046-.032-.053zm-.614 1.063c.063.03.11.022.131-.022a.053.053 0 0 0 .006-.025.05.05 0 0 0-.022-.042.055.055 0 0 0-.024-.009c-.048-.012-.069.01-.09.097m-.093-.18c-.034.018-.082.023-.072.07.008.026.026.049.05.063.011.006.048-.014.06-.03.028-.041.004-.073-.038-.105m.468-.76c-.042.025-.07.05-.047.09.024.042.071.04.15.01l-.103-.1m.135.62c.056.03.1.08.165.027-.003-.063-.044-.067-.093-.074-.05-.007-.058.003-.072.047zm.228-.43-.029.066.113.135.054-.052c-.083-.022-.093-.091-.134-.149m-.298-.347c-.008-.01-.02-.036-.039-.042-.03-.011-.071.027-.076.064a.043.043 0 0 0 .008.039.046.046 0 0 0 .036.016c.035.002.064-.024.072-.077m-.711.833.085.064a.245.245 0 0 0 .043-.075c.001-.015-.02-.044-.037-.05-.043-.018-.055.025-.09.061m.496-.812c.009-.048-.012-.074-.048-.076a.043.043 0 0 0-.036.007.044.044 0 0 0-.012.013.041.041 0 0 0-.006.017c-.008.036.015.084.04.076a.209.209 0 0 0 .061-.04m-.634.314a.1.1 0 0 0-.082.063c-.008.019.001.044.003.066.02-.007.049-.008.062-.021a.083.083 0 0 0 .03-.05c.004-.02 0-.04-.011-.057m.068.472c.033-.032.06-.048.07-.069a.038.038 0 0 0-.02-.051.042.042 0 0 0-.02-.003c-.032-.002-.068.007-.068.045-.002.022.02.043.038.08m-.175.186c.053-.08.053-.08-.01-.139-.06.063-.06.075.01.139zm.782-.902c-.016.015-.036.027-.035.036.006.042.015.084.026.126l.074-.105-.065-.057zm-.24.24c-.032.035-.082.03-.098.08a.088.088 0 0 0 .055.028.096.096 0 0 0 .062-.015c.037-.026.006-.057-.018-.093zm.25.484c.066.024.112.02.125-.009.012-.029-.006-.055-.045-.076l-.08.082m-.078.034c-.033-.028-.046-.048-.065-.054-.035-.01-.082.015-.08.039.003.024.029.045.057.043a.445.445 0 0 0 .09-.027m.745-.291a.094.094 0 0 0-.057.034.086.086 0 0 0-.018.062c.094-.001.111-.025.075-.096zm-.744-.021c-.059.04-.067.049-.056.064.023.033.056.037.111.007l-.053-.076m.017.55c.042.01.083.013.086-.03.004-.044-.032-.05-.077-.046l-.008.077m-.53-.827c.033-.016.061-.036.044-.07a.064.064 0 0 0-.03-.01.068.068 0 0 0-.032.006c-.03.029-.019.058.017.079m.954.117c-.07-.052-.07-.052-.107.003.031.035.063.022.107-.003zm-.153-.033c-.048-.003-.088-.029-.109.038.038.002.073.026.11-.038zm.141.649c.023-.015.042-.02.047-.03a.083.083 0 0 0 .006-.055c0-.007-.032-.018-.033-.016a.122.122 0 0 0-.027.046.17.17 0 0 0 .008.054m-.885.132c-.015.057-.003.07.073.07.006-.05-.035-.06-.073-.07zm.262.152c-.046-.076-.046-.076-.09-.006l.09.006zm.8-.454.002.023.097.014a.3.3 0 0 0-.018-.058.515.515 0 0 0-.081.02zm-1.174-.186c.036-.045.002-.073-.002-.103-.05.03-.05.03.002.103zm.938-.337c.028-.034.078-.028.072-.089l-.082.027.01.062m-.957.712a.052.052 0 0 0 .058-.025.048.048 0 0 0 .006-.021c0-.01-.015-.029-.023-.029-.033.003-.045.026-.046.055l.005.02zm1.075.065.11-.034c-.053-.032-.053-.032-.11.034zm.13-.357-.056-.032c-.001.01-.014.021-.012.029.007.026.023.04.068.004m-.564.525.002-.022h-.062l-.002.018.062.004zm-.537-.904.014.017.044-.035-.01-.014-.048.032zm-.156.46.004.022.045-.01a.12.12 0 0 0-.006-.022.334.334 0 0 0-.043.01zm.39.023.026.001a.149.149 0 0 0 0-.048h-.016c-.002.015-.008.032-.01.048m.484.284a.126.126 0 0 0-.03-.024c-.006 0-.021.008-.021.013 0 .004.005.026.011.026.006 0 .022-.007.04-.015zm-.117-.645L6.39 9.66l-.03.03c.005 0 .011.01.013.01a.371.371 0 0 0 .03-.024zm-.521.517h-.01l-.008.042h.014l.005-.043" fill="#CF0036"/>
    <path d="M7.152 8.092c.084-.14.194-.266.323-.37-.08.143-.19.269-.323.37zM4.626 8.905l.084.085-.014.012a.22.22 0 0 1-.074-.095h.003M4.754 9.041l.042.04-.008.009-.046-.037.012-.012zM3.005 9.923a.47.47 0 0 1 .328.011l-.331.01.002-.02" fill="#CF0036"/>
</svg>
