<svg width="45" height="44" viewBox="0 0 45 44" fill="none" xmlns="http://www.w3.org/2000/svg">
    <path d="m22.545 5.694-.932 1.012a1.375 1.375 0 0 0 1.861 0l-.93-1.012zm-2.584 9.332c-1.265-.922-2.614-2.044-3.633-3.227-1.053-1.219-1.575-2.299-1.575-3.155h-2.75c0 1.865 1.06 3.582 2.242 4.952 1.216 1.408 2.752 2.671 4.098 3.652l1.618-2.222zm-5.208-6.382c0-1.941.953-3.049 2.1-3.434 1.196-.403 2.978-.143 4.76 1.496l1.861-2.024c-2.341-2.152-5.139-2.87-7.496-2.079-2.408.81-3.975 3.073-3.975 6.041h2.75zm11.994 8.604c1.345-.979 2.882-2.244 4.097-3.652 1.183-1.37 2.242-3.087 2.242-4.952h-2.75c0 .856-.52 1.936-1.575 3.155-1.019 1.183-2.368 2.305-3.633 3.227l1.619 2.222zm6.34-8.604c0-2.968-1.568-5.23-3.974-6.04-2.357-.793-5.157-.074-7.498 2.078l1.86 2.024c1.783-1.639 3.567-1.899 4.762-1.496 1.146.385 2.1 1.493 2.1 3.434h2.75zm-14.744 8.604c1.384 1.008 2.482 1.866 4.202 1.866v-2.75c-.67 0-1.036-.21-2.584-1.338l-1.618 2.222zm6.783-2.222c-1.546 1.128-1.912 1.338-2.581 1.338v2.75c1.72 0 2.817-.856 4.202-1.866l-1.62-2.222h-.001z" fill="#CF0036"/>
    <path d="M9.711 37.378h4.144c1.851 0 3.727.194 5.529.565 3.218.66 6.528.734 9.772.216 1.591-.257 3.153-.65 4.568-1.333 1.276-.618 2.84-1.485 3.89-2.458 1.05-.972 2.142-2.562 2.916-3.805.667-1.066.344-2.374-.708-3.168a3.46 3.46 0 0 0-4.07 0l-3.313 2.503c-1.283.972-2.686 1.864-4.356 2.13-.201.032-.412.06-.632.087m0 0a15.14 15.14 0 0 1-.202.021m.202-.022c.293-.079.562-.23.782-.44a2.736 2.736 0 0 0 .232-3.912 3.483 3.483 0 0 0-.825-.673c-5.128-3.06-13.109-.73-17.929 2.69m17.74 2.335a.962.962 0 0 1-.202.023m0 0a17 17 0 0 1-3.326.007" stroke="#CF0036" stroke-width="3" stroke-linecap="round"/>
    <path d="M9.711 28.417a2.75 2.75 0 1 0-5.5 0v9.166a2.75 2.75 0 1 0 5.5 0v-9.166z" stroke="#CF0036" stroke-width="3"/>
</svg>
