<svg width="42" height="42" viewBox="0 0 42 42" fill="none" xmlns="http://www.w3.org/2000/svg">
    <g clip-path="url(#eiih66btla)">
        <path d="M21 40.8c10.935 0 19.8-8.865 19.8-19.8S31.935 1.2 21 1.2 1.2 10.065 1.2 21 10.065 40.8 21 40.8z" stroke="#CF0036" stroke-width="2"/>
        <path d="M21 7.7A11.702 11.702 0 0 0 9.31 19.39v6.338a2.34 2.34 0 0 0 2.338 2.338h.914a2.337 2.337 0 0 0 4.542-.78v-6.338a2.338 2.338 0 0 0-4.542-.778h-.914c-.265 0-.528.045-.778.134v-.914a10.131 10.131 0 0 1 20.262 0v.91a2.327 2.327 0 0 0-.78-.134h-.912a2.338 2.338 0 0 0-4.542.779v6.338a2.338 2.338 0 0 0 3.013 2.24 2.343 2.343 0 0 1-2.237 1.66h-2.472a2.338 2.338 0 1 0 0 1.56h2.472a3.902 3.902 0 0 0 3.896-3.896v-.779h.78a2.34 2.34 0 0 0 2.337-2.338v-6.34A11.702 11.702 0 0 0 21 7.7zm-7.01 13.248a.78.78 0 1 1 1.56 0v6.339a.78.78 0 0 1-1.56 0v-6.339zm-2.337.78h.778v4.779h-.779a.78.78 0 0 1-.779-.779v-3.22a.78.78 0 0 1 .775-.78h.005zm9.352 11.013a.78.78 0 1 1 .295-.057.78.78 0 0 1-.3.058l.005-.001zm7.014-5.455a.78.78 0 0 1-1.56 0v-6.338a.78.78 0 1 1 1.56 0v6.338zm3.12-1.56a.78.78 0 0 1-.779.778h-.779v-4.777h.779a.78.78 0 0 1 .779.779v3.22z" fill="#CF0036"/>
    </g>
    <defs>
        <clipPath id="eiih66btla">
            <path fill="#fff" d="M0 0h42v42H0z"/>
        </clipPath>
    </defs>
</svg>
