<svg width="26" height="26" viewBox="0 0 26 26" fill="none" xmlns="http://www.w3.org/2000/svg">
    <path d="M13 25c6.627 0 12-5.373 12-12S19.627 1 13 1 1 6.373 1 13s5.373 12 12 12z" stroke="#CF0036" stroke-width="2"/>
    <path d="M10.997 14.64v-.242c.005-.829.078-1.49.22-1.982.147-.492.36-.89.64-1.193a4.9 4.9 0 0 1 1.008-.824c.293-.19.556-.386.788-.59.232-.203.417-.428.554-.674.137-.251.206-.53.206-.838a1.57 1.57 0 0 0-.234-.86 1.56 1.56 0 0 0-.633-.568 1.882 1.882 0 0 0-.866-.199c-.308 0-.599.07-.874.206-.274.133-.5.332-.674.597-.175.26-.27.585-.284.973H7.95c.024-.947.25-1.728.682-2.344a3.905 3.905 0 0 1 1.711-1.385c.71-.307 1.494-.461 2.351-.461.942 0 1.776.156 2.5.468.725.308 1.293.756 1.705 1.343.412.587.618 1.295.618 2.123 0 .554-.093 1.047-.277 1.478-.18.426-.434.805-.76 1.136a5.888 5.888 0 0 1-1.158.888 4.695 4.695 0 0 0-.923.696c-.237.241-.415.52-.533.838-.114.317-.173.708-.178 1.172v.241h-2.691zm1.406 4.545c-.473 0-.878-.166-1.215-.497a1.634 1.634 0 0 1-.49-1.208 1.603 1.603 0 0 1 .49-1.193 1.668 1.668 0 0 1 1.215-.497c.45 0 .845.166 1.186.497.341.331.514.73.519 1.193a1.652 1.652 0 0 1-.249.86 1.837 1.837 0 0 1-.618.617 1.615 1.615 0 0 1-.838.228z" fill="#CF0036"/>
</svg>
