<svg width="9" height="9" viewBox="0 0 9 9" fill="none" xmlns="http://www.w3.org/2000/svg">
    <path d="M4.412 2.073a2.181 2.181 0 1 0 0 4.362 2.181 2.181 0 0 0 0-4.362zm0 3.6a1.418 1.418 0 1 1 0-2.836 1.418 1.418 0 0 1 0 2.836zm2.78-3.689a.509.509 0 1 1-1.019 0 .509.509 0 0 1 1.018 0zm1.444.516A2.518 2.518 0 0 0 7.95.717 2.535 2.535 0 0 0 6.166.03c-.7-.04-2.808-.04-3.51 0A2.531 2.531 0 0 0 .873.715a2.526 2.526 0 0 0-.687 1.784c-.04.7-.04 2.808 0 3.51a2.518 2.518 0 0 0 .687 1.783 2.538 2.538 0 0 0 1.783.687c.7.04 2.808.04 3.51 0a2.518 2.518 0 0 0 1.783-.687c.453-.482.7-1.122.687-1.783.04-.7.04-2.806 0-3.509zM7.73 6.763a1.436 1.436 0 0 1-.809.809 9.377 9.377 0 0 1-2.508.171 9.45 9.45 0 0 1-2.508-.171 1.436 1.436 0 0 1-.809-.809 9.377 9.377 0 0 1-.17-2.508 9.45 9.45 0 0 1 .17-2.508 1.436 1.436 0 0 1 .81-.809A9.377 9.377 0 0 1 4.411.763 9.45 9.45 0 0 1 6.92.934a1.436 1.436 0 0 1 .81.809c.169.825.226 1.668.17 2.508a9.371 9.371 0 0 1-.17 2.512z" fill="#CF0036"/>
</svg>
