<svg width="17" height="17" viewBox="0 0 17 17" fill="none" xmlns="http://www.w3.org/2000/svg">
    <g clip-path="url(#o4m4e2jvia)">
        <path fill-rule="evenodd" clip-rule="evenodd" d="M8.126 15.15c.23 0 .843-.227 1.487-1.515.306-.612.563-1.37.742-2.236H5.897c.179.866.436 1.624.742 2.236.644 1.288 1.257 1.514 1.487 1.514zM5.68 9.9a14.443 14.443 0 0 1 0-2.5h4.892c.072.831.072 1.668 0 2.5H5.68zm6.203 1.5c-.224 1.223-.593 2.307-1.066 3.167a6.525 6.525 0 0 0 3.2-3.168h-2.134zm2.623-1.5h-2.43c.065-.833.065-1.668 0-2.5h2.429c.16.825.16 1.674 0 2.5h.001zm-10.331 0H1.746a6.533 6.533 0 0 1 0-2.5h2.43a15.994 15.994 0 0 0 0 2.5h-.001zm-1.94 1.5h2.134c.224 1.223.593 2.307 1.066 3.167a6.525 6.525 0 0 1-3.2-3.168zm3.662-5.5h4.458c-.179-.867-.436-1.625-.742-2.237C8.969 2.375 8.356 2.15 8.126 2.15c-.23 0-.843.226-1.487 1.514-.306.612-.563 1.37-.742 2.236zm5.986 0h2.134a6.527 6.527 0 0 0-3.2-3.169c.473.86.842 1.944 1.066 3.168zM5.436 2.73c-.473.86-.842 1.944-1.066 3.168H2.235a6.527 6.527 0 0 1 3.201-3.168zM8.126.65a8 8 0 1 1 0 16 8 8 0 0 1 0-16z" fill="#CF0036"/>
    </g>
    <defs>
        <clipPath id="o4m4e2jvia">
            <path fill="#fff" transform="translate(.126 .65)" d="M0 0h16v16H0z"/>
        </clipPath>
    </defs>
</svg>
