<svg width="21" height="16" viewBox="0 0 21 16" fill="none" xmlns="http://www.w3.org/2000/svg">
    <path d="M14.928 4.923 9.707 16h2.11l1.093-2.231h4.041L18.045 16h2.11L14.928 4.923zm-1.191 7.154 1.191-3.16 1.192 3.16h-2.383zM10.867 10.462c-.723-.5-1.4-1.05-2.024-1.642a18.907 18.907 0 0 0 3.176-5.512h2.423V1.615H8.278V0H6.315v1.615H.155v1.693H9.94a17.484 17.484 0 0 1-2.4 4.171 16.803 16.803 0 0 1-2.11-2.931L5.109 4l-1.696.846.306.535a18.736 18.736 0 0 0 2.443 3.328c.04.047.083.092.124.137a16.962 16.962 0 0 1-4.002 3.057l-.7.405L2.61 13.69l.861-.44a18.506 18.506 0 0 0 4.106-3.102 17.477 17.477 0 0 0 1.977 1.604l.553.33.76-1.62z" fill="#CF0036"/>
</svg>
