<svg width="42" height="42" viewBox="0 0 42 42" fill="none" xmlns="http://www.w3.org/2000/svg">
    <path d="M21 29.75c.496 0 .912-.168 1.248-.504.336-.336.503-.751.502-1.246 0-.496-.168-.912-.504-1.248A1.686 1.686 0 0 0 21 26.25c-.496 0-.912.168-1.248.504A1.686 1.686 0 0 0 19.25 28c0 .496.168.912.504 1.248.336.336.751.503 1.246.502zm-1.75-7h3.5v-10.5h-3.5v10.5zM21 38.5c-2.42 0-4.696-.46-6.825-1.379-2.13-.92-3.981-2.166-5.556-3.74-1.575-1.575-2.822-3.427-3.74-5.556C3.961 25.695 3.501 23.421 3.5 21c0-2.42.46-4.696 1.379-6.825.92-2.13 2.166-3.981 3.74-5.556 1.575-1.575 3.427-2.822 5.556-3.74C16.305 3.961 18.579 3.501 21 3.5c2.42 0 4.696.46 6.825 1.379 2.13.92 3.981 2.166 5.556 3.74 1.575 1.575 2.822 3.427 3.742 5.556.92 2.13 1.378 4.404 1.377 6.825 0 2.42-.46 4.696-1.379 6.825-.92 2.13-2.166 3.981-3.74 5.556-1.575 1.575-3.427 2.822-5.556 3.742-2.13.92-4.404 1.378-6.825 1.377zm0-3.5c3.908 0 7.219-1.356 9.931-4.069C33.644 28.22 35 24.908 35 21c0-3.908-1.356-7.219-4.069-9.931C28.22 8.356 24.908 7 21 7c-3.908 0-7.219 1.356-9.931 4.069C8.356 13.78 7 17.092 7 21c0 3.908 1.356 7.219 4.069 9.931C13.78 33.644 17.092 35 21 35z" fill="#CF0036"/>
</svg>
