<svg width="55" height="56" viewBox="0 0 55 56" fill="none" xmlns="http://www.w3.org/2000/svg">
    <g clip-path="url(#geaqozb8va)">
        <path d="m21.038 14.464.011-.007.012-.006a12.769 12.769 0 0 1 4.343-1.505c-6.092 4.315-8.286 12.474-4.76 18.982 3.504 6.463 11.454 9.087 18.362 6.429-.959 1.07-2.207 2.066-3.955 3.014a15.165 15.165 0 0 1-21.765-17.653 15.167 15.167 0 0 1 7.312-9.016l.44-.238zm14.797 6.571 2.301-1.016-1.05 2.635-.362.908.683.697 1.514 1.547-2.382-.148-.935-.058-.463.816-1.25 2.206-.55-2.202-.227-.904-.91-.198-2.73-.596 2.179-1.42.757-.494-.083-.9-.26-2.835 2.232 1.766.71.561.826-.365z" stroke="#CF0036" stroke-width="3"/>
    </g>
    <defs>
        <clipPath id="geaqozb8va">
            <path fill="#fff" transform="rotate(-28.456 39.76 8.589)" d="M0 0h40v40H0z"/>
        </clipPath>
    </defs>
</svg>
