<svg width="24" height="24" viewBox="0 0 24 24" fill="none" xmlns="http://www.w3.org/2000/svg">
    <path d="M12 21.114c1.103 0 2.006-.841 2.006-1.87H9.994c0 1.029.903 1.87 2.006 1.87zm6.018-5.608v-4.674c0-2.87-1.635-5.272-4.514-5.908V4.29c0-.776-.671-1.402-1.504-1.402-.832 0-1.505.626-1.505 1.402v.635c-2.868.636-4.513 3.029-4.513 5.908v4.674l-2.006 1.87v.934h16.048v-.935l-2.006-1.87zM7.567 4.364 6.132 3.027C3.725 4.737 2.14 7.373 2 10.365h2.006a7.497 7.497 0 0 1 1.045-3.38 8.112 8.112 0 0 1 2.516-2.621zm12.427 6H22c-.15-2.99-1.735-5.626-4.132-7.337l-1.425 1.337a8.157 8.157 0 0 1 2.506 2.625 7.542 7.542 0 0 1 1.045 3.376z" fill="#EA2121"/>
</svg>
