<svg width="24" height="25" viewBox="0 0 24 25" fill="none" xmlns="http://www.w3.org/2000/svg">
    <g clip-path="url(#n5fni5978a)">
        <path d="M6.54 5.5c.057.877.208 1.745.45 2.59l-1.2 1.2a14.825 14.825 0 0 1-.76-3.79h1.51zm9.86 12.02c.849.24 1.72.39 2.6.45v1.49a15.427 15.427 0 0 1-3.8-.75l1.2-1.19zM7.5 3.5H4a1 1 0 0 0-1 1 17 17 0 0 0 17 17 1 1 0 0 0 1-1v-3.49a1 1 0 0 0-1-1 11.405 11.405 0 0 1-3.57-.57.84.84 0 0 0-.31-.05c-.265.001-.52.105-.71.29l-2.2 2.2a15.149 15.149 0 0 1-6.59-6.59l2.2-2.2a1 1 0 0 0 .25-1.02A11.36 11.36 0 0 1 8.5 4.5a1 1 0 0 0-1-1z" fill="#CF0036"/>
    </g>
    <defs>
        <clipPath id="n5fni5978a">
            <path fill="#fff" transform="translate(0 .5)" d="M0 0h24v24H0z"/>
        </clipPath>
    </defs>
</svg>
