<svg width="40" height="41" viewBox="0 0 40 41" fill="none" xmlns="http://www.w3.org/2000/svg">
    <path d="M5.022 6.575A1.875 1.875 0 0 0 4.375 8v26.25a1.875 1.875 0 1 0 3.75 0v-6.606c3.569-2.675 6.578-1.425 11.044.781 2.536 1.25 5.428 2.688 8.562 2.688 2.3 0 4.731-.772 7.247-2.95a1.876 1.876 0 0 0 .647-1.413V8a1.875 1.875 0 0 0-3.103-1.417c-3.861 3.345-6.958 2.08-11.69-.263-4.396-2.184-9.868-4.892-15.81.255zm26.853 19.278c-3.569 2.677-6.578 1.424-11.044-.78-3.619-1.798-7.967-3.948-12.706-1.78V8.888c3.569-2.675 6.578-1.425 11.044.781 2.536 1.25 5.428 2.688 8.562 2.688a9.845 9.845 0 0 0 4.144-.908v14.403z" fill="#CF0036"/>
</svg>
