<svg width="136" height="46" viewBox="0 0 136 46" fill="none" xmlns="http://www.w3.org/2000/svg">
    <path d="M47.91 14.16c1.471.198 2.094-.763 2.321-1.696.226-.932-1.557-2.543-1.557-2.543l-.085-.707s-1.444 1.703-1.812 2.562c-.368.858-.34 2.187 1.132 2.385zm.113-3.25s1.557 1.017 1.528 1.469c-.028.453-1.811.622-2.066.254-.255-.367.538-1.724.538-1.724zM87.372 41.042c7.103 3.806 13.924 2.597 19.614-.096-.095-.713-.379-1.498-.608-2.048-5.063 2.593-10.443 3.802-19.006 2.144zM130.855 22.045c-6.655 2.172-9.683 7.463-17.496 12.606-1.665 1.097-3.233 2.125-4.794 3.04.253.81.301 1.654.282 2.303 5.17-2.84 9.223-6.675 11.42-8.45 4.756-3.844 5.208-4.467 9.059-6.218 3.85-1.754 4.529.735 4.529.735 2.435-.68 2.719-5.88-3-4.016zM98.073 37.932s-.116-.644-.228-1.567c.742-.248 1.396-.532 1.927-.864 4.076-2.543 3.454-6.218 2.434-9.44-.893-2.824-6.005.562-5.271 8.332-1.967.519-4.136.798-5.6.6 2.606-3.11 3.001-6.218.284-8.31-2.453-1.888-8.596-1.61-12.767 8.355-.252-.087-.455-.196-.595-.328-1.869-1.752-1.36-2.827-1.36-2.827s-.791.17-1.301 1.018c-.51.848-1.246 2.374-3.568 2.883-2.321.508-2.887-2.77-3.114-6.162-.226-3.391-.905-25.381-1.924-25.777-.51 0-2.435 6.5-2.209 6.5.227 0 1.19-1.243 1.19-1.243s.679 6.218.905 17.694c.226 11.475 2.605 15.772 9.286 7.914.303 0 .044 1.762 1.821 2.634-.138.41-.274.831-.406 1.267.035.174.3-.305.733-1.124.497.187 1.126.311 1.928.333 3.555.095 11.987.188 17.032-1.276.067.313.143.63.229.953a.592.592 0 0 0 .574.436v-.001zm0-7.293c.963-1.978 3.228-3.448 3.511 1.074.057.86-1.72 1.807-3.921 2.472-.056-1.344.013-2.729.41-3.546zm-18.538 4.568c.976-1.741 2.224-3.729 3.535-4.907 2.83-2.544 8.04-1.978 8.832.961.686 2.544-8.635 4.58-12.367 3.946zM66.53 31.206c-.021-.785-.055-1.603-.09-2.431-4.089 2.845-8.442 6.5-12.133 8.024-5.604 2.32-9.058 1.187-9.285-2.77-.226-3.956 2.945-7.234 2.604-7.574-.452 0-6.228 6.557-3.793 11.986 2.435 5.426 10.305.96 13.362-.907 2.266-1.382 5.52-3.93 9.335-6.327v-.001z" fill="#fff"/>
    <path d="M76.786 28.465c.51 1.27 1.634-.15 1.753-1.33.117-1.14-.962-3.476-6.085-1.725-.963.33-1.98.83-3.036 1.442.045.954.09 1.839.129 2.571.383-.211.772-.418 1.165-.62 5.606-2.883 6.073-.338 6.073-.338zM61.782 28.21c2.604-2.037 3-3.676 2.98-6.165.415.183.856.345 1.321.493-.079-1.16-.155-2.18-.212-2.96-3.002-1.789-2.473-4.094-3.071-2.902-.791 1.582-.055 2.6.625 4.97.678 2.367-1.756 3.735-3.284 4.867-1.53 1.13-7.474 5.201-9.967 1.752-2.49-3.448.567-7.178-.281-6.619-.85.56-3.324 6.873 0 9.842 3.322 2.966 9.285-1.244 11.89-3.278h-.001zM71.577 16.734c3.367 1.872 13.87-.452 18.06-1.413 4.19-.961 5.888-.567 7.02 1.016 1.132 1.584.058 1.979-1.415 2.771-1.472.793-17.438 3.279-25.137 1.922a17.099 17.099 0 0 1-.929-.19c.02.735.05 1.556.081 2.403 7.498 1.11 18.065-.456 22.871-1.197 5.89-.904 6.796-3.107 6.907-6.387.115-3.279-5.492-3.447-11.663-2.203-6.17 1.242-13.19 1.187-14.324.28-1.132-.903 4.248-4.522 6.285-5.538 2.038-1.018 2.719.338 2.719.338 1.301-.283 2.32-3.39.565-3.561-1.754-.17-3.794.96-6.51 2.845-2.719 1.881-7.899 7.039-4.53 8.914zM81.484 0 69.708 6.048l-.906 1.696 11.89-6.105L81.483 0z" fill="#fff"/>
    <path d="m84.372 12.948 11.89-6.105.792-1.639-11.776 6.048-.906 1.696zM94.337 26.233l11.889-6.105.793-1.64-11.777 6.05-.906 1.695zM52.08 43.757l11.89-6.105.793-1.64-11.777 6.049-.905 1.696zM28.546 35.077c7.728-2.204 16.816-10.712 19.93-13.432 1.49-1.3 3.019-2.247 4.462-2.727.327 1.656.78 2.957 1.37 3.443 2.293 1.89 4.67 1.075 5.576-1.187.84-2.097-.32-6.286-5.304-5.393-.161-1.916-.02-3.793.067-4.192.17-.792.849.396 1.471 1.074.623.678 1.076.286 1.076.286s-1.359-2.377-2.264-5.6c-.523-1.86-1.076-1.922-2.095-.565-.604.805-.726 5.516-.278 9.584-5.733 2.305-11.208 10.113-20.953 14.978-10.192 5.088-21.827 1.272-24.63-.339C4.173 29.396.182 26.343.52 27.022c9.852 11.363 20.298 10.26 28.026 8.055zm28.649-15.913c2.318 1.417 1.302 2.205-.906 1.018-.525-.282-.901-.873-1.17-1.617a4.174 4.174 0 0 1 2.076.6zM29.778 35.797c-.68.043-1.444 2.205-2.76 2.672-1.317.466-7.729 1.391-9.088 1.416 3.822 1.255 9.597-.272 10.616-1.925 0 0 1.005 1.154 1.967.746.963-.408-.056-2.951-.735-2.909zm.33 1.845c-.17.275-.659.222-1.062-.255 0 0 .509-.678.626-.647.117.032.605.626.435.901z" fill="#fff"/>
    <path d="M40.747 32.91c-.453-.829.198-3.09.821-4.136 0 0-2.548 3.562-1.529 5.343 1.02 1.78 3.058.017 2.888-1.603-.51.867-1.727 1.225-2.18.396zM51.279 27.078c1.019 1.78 3.057.018 2.887-1.602-.509.867-1.727 1.225-2.18.396-.453-.829.199-3.09.821-4.136 0 0-2.547 3.562-1.528 5.342zM65.712 40.148c-.453-.829.198-3.09.82-4.135 0 0-2.547 3.561-1.528 5.342 1.02 1.78 3.057.017 2.888-1.603-.51.868-1.727 1.225-2.18.396zM71.396 33.943c.857 1.497 2.57.014 2.428-1.347-.428.73-1.452 1.03-1.833.333-.38-.697.167-2.598.69-3.477 0 0-2.142 2.994-1.285 4.491zM86.405 32.423c-.34-.623.149-2.324.618-3.11 0 0-1.916 2.678-1.15 4.017.766 1.339 2.3.013 2.172-1.205-.383.653-1.3.92-1.64.298zM88.338 19.118c.64 1.117 1.92.01 1.812-1.006-.32.545-1.084.769-1.368.249-.284-.52.124-1.94.515-2.596 0 0-1.599 2.235-.96 3.353h.001zM78.312 13.25c.64 1.118 1.92.011 1.813-1.006-.32.544-1.085.768-1.369.248-.284-.52.125-1.939.515-2.596 0 0-1.599 2.236-.96 3.353l.001.001zM77.7 20.274c.509.888 1.526.009 1.441-.8-.254.434-.862.612-1.087.198-.226-.413.099-1.541.41-2.063 0 0-1.272 1.777-.763 2.666zM48.883 32.986 47.12 35.38l2.398 1.76 1.762-2.394-2.398-1.76zM81.168 24.164l-1.763 2.394 2.398 1.76 1.762-2.395-2.397-1.76zM38.239 34.864l-1.763 2.394 2.398 1.76 1.762-2.394-2.398-1.76zM34.04 36.505l-1.762 2.393 2.397 1.76 1.763-2.394-2.398-1.76zM85.504 4.957s1.16 1.26 1.7 3.324c.425-.933.65-1.752 1.13-3.077.482-1.325 1.388-1.473 1.823-.81.18-.55.3-1.85-.831-1.907-1.132-.057-2.095 3.816-2.095 3.816s-.85-2.742-1.953-3.223c-1.104-.48-1.416 1.13-.906 1.753.51.622 1.132.124 1.132.124zM100.803 14.278s1.161 1.26 1.7 3.324c.425-.933.65-1.753 1.131-3.078s1.387-1.473 1.822-.81c.18-.55.301-1.85-.831-1.907-1.132-.056-2.095 3.816-2.095 3.816s-.849-2.741-1.953-3.222c-1.104-.481-1.416 1.13-.906 1.752.509.622 1.132.124 1.132.124zM62.546 8.423c.254.254-2.831 2.572-3.596 3.024-.764.453-.453.424.878 0 1.33-.424 2.547-1.491 3.113-2.37.567-.88 1.416-2.18 1.275-2.548-.142-.367-2.152-.593-5.153 0 0 0-1.444 2.099-1.33 2.547.905-.399 4.557-.908 4.812-.653zM69.1 15.108c1.443-2.247 1.825-4.707-.298-6.36v1.15s1.613 2.75.297 5.21zM107.815 37.649c-.06-.148-.117-.293-.169-.43-1.022-2.656-.996-3.48-.457-3.612.567-.143 1.274.283 2.266-.028.988-.312.789-1.1.367-1.528-.1-.1-1.415-1.668-2.576-1.496-1.16.169-1.105 1.344-.764 1.958.34-.462 1.315-.385 1.562 0 .248.388-.857.02-1.777.952-.789.804-.5 1.922.41 4.184.111.281.233.58.367.902l.116.285a6.9 6.9 0 0 1 .458 1.803c.055.42.076.838.074 1.25-.005 1.974-.532 3.739-.648 4.11.138-.383.776-2.279 1.039-4.339.057-.435.095-.878.109-1.313.024-.814-.038-1.606-.241-2.298a4.787 4.787 0 0 0-.136-.4z" fill="#fff"/>
</svg>
