<svg width="116" height="46" viewBox="0 0 116 46" fill="none" xmlns="http://www.w3.org/2000/svg">
    <g clip-path="url(#yd2qinmd5a)" fill="#fff">
        <path d="M25.973 31.117c.024.145.048.302.048.482 0 1.219-.64 2.183-1.906 2.907h.048l-1.037.603a4.19 4.19 0 0 1-2.255.651c-.748 0-1.472-.192-2.171-.566a4.143 4.143 0 0 1-1.652-1.605l-.869-1.47-5.03-8.323-.566-.953c-.458-.747-1.061-1.266-1.773-1.555a2.491 2.491 0 0 0-.905-.17 1.86 1.86 0 0 0-1.037.302v10.228c0 .205.073.374.217.518a.701.701 0 0 0 .519.217h.133v.567H2.792v-.567h.132a.701.701 0 0 0 .519-.217.701.701 0 0 0 .217-.518V2.774h.217c.832.06 1.544.398 2.123 1.013.579.627.868 1.351.868 2.183v14.473h.603c.12 0 .241-.012.386-.048.314-.06.615-.133.893-.217.277-.085.554-.205.844-.35 1.387-.663 2.509-1.821 3.377-3.461.868-1.653 1.327-3.51 1.387-5.597v-.265c0-1.327-.18-2.58-.543-3.775a11.496 11.496 0 0 0-1.471-3.124c-.627-.892-1.363-1.616-2.207-2.147C9.28.93 8.376.627 7.423.567H7.29a3.424 3.424 0 0 0-.567-.048c-.723 0-1.447.157-2.17.47-.664.374-1.207.808-1.605 1.303a2.394 2.394 0 0 0-.301.386c-.603.844-.905 1.809-.905 2.906v.085c0 .579.073 1.121.217 1.652.06.145.121.277.17.386.048.109.12.241.168.386.265.35.507.59.736.736.06.024.108.048.157.06.048.012.096.036.144.06.024.024.06.048.085.048l-.085.049c-.144.06-.41.12-.784.169h-.265a2.28 2.28 0 0 1-.953-.218c-.06 0-.084-.012-.084-.048C.705 8.684.343 8.093.162 7.176a5.088 5.088 0 0 1-.084-.953v-.35c.024-.433.145-.892.35-1.386.144-.314.301-.627.482-.929.169-.301.374-.603.603-.892.205-.29.483-.58.82-.869A7.273 7.273 0 0 1 4.287.495C5.18.18 6.181-.012 7.278-.072c1.327 0 2.581.277 3.775.82a9.904 9.904 0 0 1 3.1 2.255c.88.953 1.568 2.075 2.074 3.353.507 1.29.76 2.666.76 4.137 0 1.387-.241 2.714-.711 3.992a10.797 10.797 0 0 1-2.099 3.425c-.748.845-1.664 1.532-2.726 2.075 1.037.374 1.822 1.013 2.34 1.905l4.849 8.057 1.121 1.906h.049l.434.736c.639 1.037 1.447 1.604 2.424 1.688h.265c.35 0 .676-.084 1.001-.265l.386-.218c.459-.289.76-.723.905-1.302.06-.23.084-.482.084-.736a3.9 3.9 0 0 0-.169-1.085c-.144-.314-.301-.555-.482-.7-.169-.145-.277-.229-.302-.265a2.965 2.965 0 0 0-.868-.302.941.941 0 0 0-.265-.048c-.23 0-.459.06-.7.169a1 1 0 0 0-.253.169c-.29.145-.483.313-.567.518-.084.206-.133.362-.133.47 0 .085.049.134.133.134h.048s.012-.049.048-.049v-.048c.121-.205.242-.338.386-.386.17-.084.35-.133.52-.133h.168s.133.024.301.085c.085.024.218.133.386.301 0 .024.012.06.049.085a.95.95 0 0 1 .168.567c0 .108-.024.24-.084.386a.93.93 0 0 1-.434.518h-.048s-.012.048-.049.048c-.229.121-.458.17-.687.17-.06-.025-.109-.049-.133-.049a.277.277 0 0 1-.169-.048 1.476 1.476 0 0 1-.386-.217c-.024 0-.072-.024-.132-.085l-.133-.132c-.145-.17-.23-.386-.265-.652a1.124 1.124 0 0 1-.049-.301c0-.23.06-.459.17-.688.12-.35.325-.603.65-.784.061-.024.11-.06.145-.084.049-.024.097-.06.157-.085.06-.024.12-.048.169-.06a.693.693 0 0 0 .169-.06h.084c.17-.084.362-.133.567-.133h.217c.23 0 .47.024.736.085.024.024.06.048.084.048.024 0 .06.012.085.048.434.145.784.422 1.037.82h.048s.012.06.049.085c.12.229.205.422.265.567.024.06.048.096.048.132 0 .037.012.073.048.133v.084l.037.133z"/>
        <path d="m26.974 19.152-.085.049h-.386s-.048.012-.048.048c-.169 0-.29.012-.35.048h-.048c-.23.06-.386.097-.482.133h-.049c-.169.06-.29.084-.35.084v.049a8.715 8.715 0 0 0-.868.35c-.494.229-.904.518-1.254.868l-1.218 5.934s-.049.12-.049.169c0 .144.049.265.133.35a.567.567 0 0 0 .47.216h.133v.567h-3.377v-.567h.133c.374 0 .615-.205.736-.603l.084-.434L23.91 7.78v-.133c0-.373-.205-.566-.603-.566h-.133v-.603h4.294l.265 1.254 2.425 10.529c.687.603 1.037 1.544 1.037 2.822a.76.76 0 0 1-.169-.217l-.084-.084-.085-.085-.048-.048-.085-.084-.048-.049-.048-.048s-.048-.012-.048-.048c-.024 0-.048-.012-.048-.048h-.049s-.024-.073-.084-.133h-.048l-.049-.048-.048-.049s-.048-.012-.048-.048h-.048l-.049-.048s-.06-.012-.084-.048l-.048-.049s-.049-.012-.049-.048h-.048l-.048-.048-.048-.048s-.06-.012-.085-.048a.104.104 0 0 1-.084-.049l-.048-.048s-.097-.012-.133-.048l-.084-.048-.085-.049h-.048l-.048-.048s-.06-.012-.085-.048H29s-.048-.012-.048-.048h-.085s-.084-.049-.169-.049c0-.024-.012-.048-.048-.048h-.084s-.06-.048-.085-.048c-.06 0-.096-.012-.133-.048h-.168s-.012-.049-.049-.049h-.217s-.072-.048-.132-.048h-.217s-.06 0-.085-.024a.224.224 0 0 0-.084-.024h-.519l.097.12zm-3.595.085a5.947 5.947 0 0 1 1.556-1.122 8.27 8.27 0 0 1 1.773-.651l-1.556-6.887-1.773 8.672v-.012zm9.625 8.19v.566h-4.848v-.567h.084c.23 0 .398-.072.519-.217a.483.483 0 0 0 .132-.35c0-.06-.012-.12-.048-.169l-.084-.265v-.048l-1.605-7.02a5.407 5.407 0 0 1 1.689.35c.555.205 1.05.507 1.52.905.12.084.277.229.482.434l1.17 5.066.169.735c.12.374.35.567.7.567h.132l-.012.012zM34.898 27.993v-.566h.132a.702.702 0 0 0 .519-.218.702.702 0 0 0 .217-.518V7.804c0-.23-.072-.41-.217-.543a.73.73 0 0 0-.519-.193h-.132v-.603h5.246v.603h-.084c-.374 0-.567.169-.567.519v.217l4.33 16.776 4.595-16.728v-.085a.942.942 0 0 0 .048-.265c0-.29-.193-.434-.567-.434h-.133v-.603h4.427v.603h-.133c-.229 0-.422.06-.567.193-.144.133-.217.313-.217.543v18.85c0 .23.073.423.217.567a.773.773 0 0 0 .567.218h.133v.567h-4.378v-.567h.132a.701.701 0 0 0 .519-.218.754.754 0 0 0 .217-.566V13.52l-3.558 13.086-.386 1.387H41.4l-.483-1.857-3.425-13.219v13.786a.903.903 0 0 0 .24.518c.133.145.314.218.544.218h.132v.567h-3.51v-.013zM61.77 19.152l-.085.049h-.386s-.048.012-.048.048c-.17 0-.29.012-.35.048h-.049c-.229.06-.385.097-.482.133h-.048c-.17.06-.29.084-.35.084v.049a7.694 7.694 0 0 0-.868.35c-.495.229-.905.518-1.255.868l-1.218 5.934s-.048.12-.048.169c0 .144.048.265.133.35a.567.567 0 0 0 .47.216h.133v.567h-3.377v-.567h.132c.374 0 .615-.205.736-.603l.084-.434L58.706 7.78v-.133c0-.373-.205-.566-.603-.566h-.133v-.603h4.294l.265 1.254 2.424 10.529c.688.603 1.037 1.544 1.037 2.822a.756.756 0 0 1-.168-.217l-.085-.084-.084-.085-.049-.048-.084-.084-.048-.049-.048-.048s-.049-.012-.049-.048c-.024 0-.048-.012-.048-.048h-.048s-.024-.073-.085-.133h-.048l-.048-.048-.048-.049S65 20.13 65 20.094h-.048l-.048-.048s-.06-.012-.085-.048l-.048-.049s-.048-.012-.048-.048h-.048l-.049-.048-.048-.048s-.06-.012-.084-.048a.104.104 0 0 1-.085-.049l-.048-.048s-.096-.012-.132-.048l-.085-.048-.084-.049h-.049l-.048-.048s-.06-.012-.084-.048h-.085s-.048-.012-.048-.048h-.084s-.085-.049-.17-.049c0-.024-.011-.048-.047-.048h-.085s-.06-.048-.084-.048c-.06 0-.097-.012-.133-.048h-.169s-.012-.049-.048-.049h-.217s-.073-.048-.133-.048h-.217s-.06 0-.084-.024a.223.223 0 0 0-.085-.024h-.518l.096.12zm-3.595.085a5.95 5.95 0 0 1 1.556-1.122 8.27 8.27 0 0 1 1.773-.651l-1.556-6.887-1.773 8.672v-.012zm9.624 8.19v.566h-4.848v-.567h.084c.23 0 .399-.072.52-.217a.482.482 0 0 0 .132-.35c0-.06-.012-.12-.048-.169l-.085-.265v-.048l-1.604-7.02a5.407 5.407 0 0 1 1.688.35c.555.205 1.05.507 1.52.905.12.084.278.229.483.434l1.17 5.066.168.735c.121.374.35.567.7.567h.132l-.012.012zM69.693 27.993v-.566h.133a.701.701 0 0 0 .518-.218c.145-.144.217-.325.217-.566V7.803c0-.229-.072-.41-.217-.542a.729.729 0 0 0-.518-.193h-.133v-.603h7.104c.868 0 1.676.169 2.424.494a6.382 6.382 0 0 1 1.966 1.34 6.281 6.281 0 0 1 1.327 1.965c.313.748.482 1.556.482 2.424v9.058c0 .868-.157 1.688-.482 2.448a5.937 5.937 0 0 1-1.327 1.99 6.494 6.494 0 0 1-1.966 1.327 6.21 6.21 0 0 1-2.424.482h-7.104zm6.633-20.937c-.928 0-1.772.313-2.556.953l-.085.048c-.229.229-.446.482-.651.736a4.139 4.139 0 0 0-.519.868c-.024.06-.048.109-.06.145-.012.048-.036.096-.06.156a.979.979 0 0 0-.109.35c-.012.12-.036.242-.06.386-.024.145-.048.278-.06.41-.013.133-.025.266-.025.41 0 .495.085.953.266 1.387 0 .024.012.049.048.049a2.77 2.77 0 0 0 1.339 1.387c.374.205.832.301 1.387.301.41 0 .723-.06.953-.169.205-.084.373-.193.494-.301.133-.12.23-.205.277-.266.025-.06.049-.108.049-.168 0-.085-.06-.145-.17-.17-.023 0-.047 0-.06.025a.092.092 0 0 1-.06.024c-.229.12-.398.193-.518.217h-.302c-.603 0-1.05-.23-1.339-.7a1.932 1.932 0 0 1-.301-.735v-.217c0-.519.217-.953.651-1.303.29-.229.615-.35 1.001-.35.024 0 .06 0 .085.024.024.012.06.025.084.025h.133c.313.024.603.132.868.301l.169.169.169.169c.169.169.301.374.386.603a.64.64 0 0 1 .084.265c.06.169.084.362.084.567 0 .23-.048.482-.132.736-.314.808-.868 1.338-1.653 1.604a2 2 0 0 1-.699.132h-.651c-.17 0-.338-.011-.483-.048a.193.193 0 0 0-.132-.048c-.025 0-.06 0-.085-.024A.223.223 0 0 0 74 14.98c-.024 0-.06 0-.085-.024a.321.321 0 0 0-.132-.024v12.434h3.039c.832 0 1.544-.301 2.123-.904.579-.603.868-1.34.868-2.207V10.18c0-.869-.29-1.605-.868-2.208a2.836 2.836 0 0 0-2.123-.904h-.482l-.013-.012zM91.234 19.152l-.085.049h-.386s-.048.012-.048.048c-.169 0-.29.012-.35.048h-.048c-.23.06-.386.097-.482.133h-.049c-.168.06-.29.084-.35.084v.049a7.694 7.694 0 0 0-.868.35c-.494.229-.904.518-1.254.868l-1.218 5.934s-.049.12-.049.169c0 .144.049.265.133.35a.59.59 0 0 0 .483.216h.132v.567h-3.377v-.567h.133c.374 0 .615-.205.736-.603l.084-.434L88.182 7.78v-.133c0-.373-.205-.566-.603-.566h-.132v-.603h4.293l.266 1.254L94.43 18.26c.7.603 1.037 1.544 1.037 2.822a.757.757 0 0 1-.169-.217l-.084-.084-.085-.085-.048-.048-.084-.084-.049-.049-.048-.048s-.048-.012-.048-.048c-.024 0-.048-.012-.048-.048h-.049s-.024-.073-.084-.133h-.048l-.049-.048-.048-.049s-.048-.012-.048-.048h-.048l-.048-.048s-.06-.012-.085-.048l-.048-.049s-.048-.012-.048-.048h-.049l-.048-.048-.048-.048s-.06-.012-.084-.048a.104.104 0 0 1-.085-.049l-.048-.048s-.097-.012-.133-.048l-.084-.048-.085-.049h-.048l-.048-.048s-.06-.012-.085-.048h-.084s-.048-.012-.048-.048h-.085s-.084-.049-.169-.049c0-.024-.012-.048-.048-.048h-.084s-.06-.048-.085-.048c-.06 0-.096-.012-.132-.048h-.17s-.011-.049-.047-.049h-.218s-.072-.048-.132-.048h-.217s-.06 0-.085-.024a.223.223 0 0 0-.084-.024h-.519l.085.12zm-3.594.085a5.947 5.947 0 0 1 1.555-1.122 8.27 8.27 0 0 1 1.773-.651l-1.556-6.887-1.772 8.672v-.012zm9.624 8.19v.566h-4.848v-.567h.084c.23 0 .41-.072.519-.217a.483.483 0 0 0 .132-.35c0-.06-.012-.12-.048-.169l-.084-.265v-.048l-1.604-7.02a5.407 5.407 0 0 1 1.688.35 4.883 4.883 0 0 1 1.52.905c.12.084.277.229.482.434l1.17 5.066.169.735c.108.374.35.567.687.567h.133v.012zM115.898 31.768v.17c0 .265-.048.53-.133.82-.144.35-.386.663-.735.952-.29.254-.7.434-1.218.519l-.386.084-.085.048a6.151 6.151 0 0 1-.916.084 4.192 4.192 0 0 1-2.256-.65c-.929-.58-1.592-1.472-1.99-2.69l-6.416-19.285v14.87a.9.9 0 0 0 .241.52c.133.144.314.217.543.217h.132v.566h-3.51v-.566h.133a.702.702 0 0 0 .519-.218.702.702 0 0 0 .217-.518V7.804c0-.23-.072-.41-.217-.543a.73.73 0 0 0-.519-.193h-.132v-.603h4.209l.169.47 5.198 15.691V7.804c0-.23-.072-.41-.217-.543a.73.73 0 0 0-.519-.193h-.132v-.603h3.509v.603h-.132c-.495 0-.736.241-.736.736v20.105l.736 2.207v.048l.699 1.99c.265.724.676 1.194 1.254 1.436 0 .024.025.048.085.048.024.024.06.048.084.048.024 0 .061.012.085.048.12.024.217.049.301.049.434 0 .808-.145 1.122-.435l.084-.084.049-.048c.289-.314.434-.736.434-1.255 0-.144-.012-.289-.048-.434a1.08 1.08 0 0 1-.483.736 1.378 1.378 0 0 1-.651.169h-.217c-.459-.06-.76-.29-.905-.7a1.565 1.565 0 0 1-.084-.518v-.17c.06-.433.289-.723.699-.868.169-.06.35-.084.519-.084h.169c.205.024.41.097.603.217.12.084.265.241.434.482.06.06.084.097.084.133l.049.048s.012.06.048.085c.108.265.193.506.217.736l.012-.024zM36.888 45.795H34.86v-2.714c0-.82-.036-1.483-.108-2.014a4.777 4.777 0 0 0-.434-1.46c-.435-.831-1.315-1.241-2.654-1.241h-.205v7.43h-2.17V31.948h2.17v5.657c.869 0 1.58-.302 2.135-.893.555-.59.832-1.35.832-2.255v-2.509h2.183v1.062c0 1.049-.253 1.99-.76 2.834a4.835 4.835 0 0 1-2.062 1.906c1.013.24 1.737.723 2.17 1.459.46.76.712 1.447.785 2.05.096.832.145 1.604.145 2.304v2.231zM48.647 45.795h-2.183v-2.208c-.169.58-.543 1.122-1.098 1.64-.554.52-1.23.773-2.038.773-1.278 0-2.316-.447-3.075-1.351-.772-.905-1.158-2.171-1.158-3.8v-3.991c0-1.64.422-2.907 1.278-3.787.844-.881 1.846-1.315 3.003-1.315.483 0 .917.096 1.315.301.398.205.712.447.953.748.386.495.663.99.82 1.46V31.96h2.183v13.846-.012zm-2.207-4.56V36.4c0-.989-.266-1.893-.784-2.713-.519-.82-1.218-1.23-2.087-1.23-.494 0-.916.132-1.254.385a1.997 1.997 0 0 0-.712 1.001 6.212 6.212 0 0 0-.337 1.99v6.019c0 1.182.217 2.05.663 2.605.446.567 1.061.844 1.87.844.807 0 1.447-.41 1.93-1.218.482-.808.723-1.749.723-2.834l-.012-.012zM60.286 45.795h-2.171v-3.389c0-2.086-.953-3.136-2.87-3.136-.206 0-.375 0-.52.025v-.507a3.85 3.85 0 0 0 2.111-.627c.35-.23.627-.567.844-1.037.218-.459.326-1.014.326-1.653 0-1.013-.265-1.748-.796-2.195-.53-.446-1.35-.675-2.472-.675h-1.11v13.182h-2.171V31.937h3.908c3.136 0 4.691 1.195 4.691 3.57 0 1.665-1.073 2.81-3.232 3.474 2.304.47 3.45 1.833 3.45 4.089v2.713l.012.012zM71.514 36.05H69.79v-.446c0-.953-.218-1.713-.652-2.292-.434-.579-1.073-.868-1.93-.868-.856 0-1.495.29-1.93.868-.433.579-.65 1.339-.65 2.292v2.412h5.294v.94h-5.294v3.185c0 .952.217 1.712.65 2.291.435.58 1.074.868 1.93.868.857 0 1.496-.289 1.93-.868.434-.579.651-1.339.651-2.291v-.447h1.725v.205c0 .724-.144 1.363-.422 1.918-.277.555-.651.989-1.097 1.29-.88.592-1.81.881-2.775.881-1.459 0-2.617-.507-3.485-1.508-.856-1-1.29-2.267-1.29-3.787V37.04c0-1.52.434-2.786 1.29-3.787.868-1.001 2.026-1.508 3.486-1.508 1.133 0 2.134.35 3.003 1.062.868.711 1.29 1.7 1.29 2.967v.277zM82.888 36.05h-1.725v-.446c0-.953-.217-1.713-.651-2.292-.435-.579-1.074-.868-1.93-.868-.856 0-1.496.29-1.93.868-.434.579-.651 1.339-.651 2.292v2.412h5.295v.94H76v3.185c0 .952.217 1.712.651 2.291.434.58 1.074.868 1.93.868.856 0 1.495-.289 1.93-.868.434-.579.65-1.339.65-2.291v-.447h1.726v.205c0 .724-.145 1.363-.422 1.918-.278.555-.652.989-1.11 1.29-.88.592-1.81.881-2.774.881-1.46 0-2.617-.507-3.486-1.508-.868-1-1.29-2.267-1.29-3.787V37.04c0-1.52.434-2.786 1.29-3.787.857-1.001 2.026-1.508 3.486-1.508 1.134 0 2.135.35 3.003 1.062.868.711 1.29 1.7 1.29 2.967v.265l.013.012zM100.894 45.795h-2.207V35.483c0-1.073-.144-1.845-.434-2.315-.29-.47-.748-.712-1.363-.712s-1.218.35-1.797 1.037c-.579.688-.856 1.689-.856 3.003v9.311h-2.183V35.495c0-1.073-.145-1.845-.447-2.315-.289-.47-.747-.712-1.362-.712-.616 0-1.219.35-1.797 1.05-.58.699-.869 1.688-.869 2.99v9.311h-2.17V31.974h2.17v2.243c.664-1.628 1.737-2.448 3.196-2.448 1.725 0 2.835.989 3.305 2.955.241-.869.64-1.58 1.194-2.123.555-.555 1.278-.82 2.159-.82 1.085 0 1.93.41 2.545 1.218.615.82.916 1.954.916 3.425v9.395-.024z"/>
    </g>
    <defs>
        <clipPath id="yd2qinmd5a">
            <path fill="#fff" transform="translate(.102)" d="M0 0h115.796v46H0z"/>
        </clipPath>
    </defs>
</svg>
