<svg width="10" height="16" viewBox="0 0 10 16" fill="none" xmlns="http://www.w3.org/2000/svg">
    <path d="M4.946 3.221C4.43 3.03-1.075 1.481.426.26c.624-.507 2.02-.166 2.641.143.64.348 1.163.854 1.508 1.461.023.037.042.075.065.111.103.167.203.336.299.508l.129.23.05.091a.11.11 0 0 1 .01.03c.313.605.576 1.232.786 1.875.052-1.09.618-4.773 1.99-3.312 1.22 1.3-.626 3.323-1.764 4.088.2.77.324 1.555.37 2.346a.103.103 0 0 1 0 .051c.013.221.024.443.024.666 0 .92-.103 1.84-.31 2.74.3-.725.782-1.373 1.408-1.89.451-.316 1.224-.48 1.624.015.466.585-.264 1.228-.714 1.575a6.22 6.22 0 0 1-2.541 1.145 12.646 12.646 0 0 1-1.611 3.38l-.235-.136c.362-.54.68-1.103.952-1.686a.104.104 0 0 1-.032-.032 8.666 8.666 0 0 1-2.082-2.623c-.167-.363-.63-1.354.149-1.36.735-.006 1.37.834 1.662 1.36.355.646.543 1.361.55 2.087.58-1.42.884-2.924.901-4.442a.135.135 0 0 1-.023-.007 9.117 9.117 0 0 1-2.477-2.026c-.305-.36-1.07-1.155-.542-1.639.481-.439 1.322.261 1.651.559.525.517.97 1.098 1.324 1.727A12.172 12.172 0 0 0 5.02 3.226a.126.126 0 0 1-.074-.005zM1.252.321c-1.937.5.914 1.594 1.331 1.75l2.288.85c-.017-.03-.03-.062-.046-.092-.04-.073-.083-.148-.129-.225a6.689 6.689 0 0 0-.906-.588 9.085 9.085 0 0 0-1.742-.856c-.076-.027-.044-.141.033-.114a9.6 9.6 0 0 1 1.851.917c.18.112.398.232.6.37-.689-1.129-1.74-2.408-3.28-2.014v.002zM7.954 2.21c.025-.446-.317-.648-1.024-.606l-.14.262a3.725 3.725 0 0 0-.408 1.068 6.03 6.03 0 0 0-.196 1.807 9.42 9.42 0 0 0 .62-1.287c.027-.07.15-.04.124.031a9.691 9.691 0 0 1-.79 1.6.056.056 0 0 1-.019.02.062.062 0 0 1-.054.005.059.059 0 0 1-.023-.016c.012.041.02.083.031.124.899-.626 2.178-1.918 1.879-3.01v.002zm.476 8.533c.106-.085.208-.174.306-.265a.446.446 0 0 0 .167-.129.388.388 0 0 0 .061-.386.417.417 0 0 0-.12-.168c.03-.418-.163-.557-.58-.417-.214.06-.409.166-.57.309-.225.2-.42.428-.58.676-.22.322-.42.656-.6 1 .423-.397.868-.774 1.332-1.13.061-.05.15.032.09.083l-.852.724c-.29.22-.55.473-.77.755a5.89 5.89 0 0 0 1.3-.508c.29-.158.562-.341.816-.546v.002zm-4.74-.586c-.149-.065-.618-.08-.689.111-.031.086.12.365.155.451.143.351.325.688.541 1.006.4.566.862 1.09 1.381 1.565v-.21c-.216-.644-.8-1.129-1.07-1.758-.03-.07.093-.1.122-.03.223.518.656.933.926 1.423a2.943 2.943 0 0 0-.35-1.432 3.211 3.211 0 0 0-1.017-1.129v.003zm1.65-3.65a5.083 5.083 0 0 0-.669-.759 3.312 3.312 0 0 0-.468-.358c-.178-.177-.337-.134-.479.13-.317.094-.38.228-.187.4A8.273 8.273 0 0 0 4.621 7.17c.493.46 1.043.865 1.638 1.208v-.073c-.006 0-.014 0-.019-.007-.541-.52-1-1.1-1.5-1.655-.052-.058.038-.141.09-.083.475.525.917 1.076 1.423 1.576 0-.084 0-.169-.009-.253-.297-.464-.579-.938-.904-1.38v.001z" fill="#CF0036"/>
</svg>
