<svg width="14" height="14" viewBox="0 0 14 14" fill="none" xmlns="http://www.w3.org/2000/svg">
    <path d="M8.426 3.286a2.871 2.871 0 0 1 2.27 2.276M8.425.988A5.17 5.17 0 0 1 13 5.548m-.582 4.588v1.723a1.148 1.148 0 0 1-1.253 1.149 11.366 11.366 0 0 1-4.956-1.76 11.2 11.2 0 0 1-3.445-3.455 11.365 11.365 0 0 1-1.76-4.979A1.149 1.149 0 0 1 2.15 1.561h1.718a1.149 1.149 0 0 1 1.15.987c.072.552.207 1.093.402 1.614a1.149 1.149 0 0 1-.258 1.212l-.73.73a9.19 9.19 0 0 0 3.444 3.447l.73-.73a1.149 1.149 0 0 1 1.213-.26c.52.196 1.062.33 1.613.404a1.149 1.149 0 0 1 .987 1.171z" stroke="#CF0036" stroke-linecap="round" stroke-linejoin="round"/>
</svg>
