<svg width="21" height="21" viewBox="0 0 21 21" fill="none" xmlns="http://www.w3.org/2000/svg">
    <g clip-path="url(#j57dvviu9a)">
        <path d="M5.576 4.816c.048.73.173 1.454.375 2.158l-1 1a12.354 12.354 0 0 1-.633-3.158h1.258zm8.217 10.017c.707.2 1.433.325 2.166.375v1.241a12.85 12.85 0 0 1-3.166-.625l1-.991zM6.376 3.149H3.459a.833.833 0 0 0-.833.834 14.166 14.166 0 0 0 14.167 14.166.834.834 0 0 0 .833-.833v-2.908a.833.833 0 0 0-.833-.834c-1.011.001-2.015-.16-2.975-.475a.853.853 0 0 0-.85.2l-1.834 1.834A12.624 12.624 0 0 1 5.643 9.64l1.833-1.833a.833.833 0 0 0 .208-.85 9.467 9.467 0 0 1-.475-2.975.833.833 0 0 0-.833-.834z" fill="#CF0036"/>
    </g>
    <defs>
        <clipPath id="j57dvviu9a">
            <path fill="#fff" transform="translate(.126 .65)" d="M0 0h20v20H0z"/>
        </clipPath>
    </defs>
</svg>
