<svg width="21" height="20" viewBox="0 0 21 20" fill="none" xmlns="http://www.w3.org/2000/svg">
    <path d="M4.466 0a.625.625 0 0 1 .625.625v.625h10V.625a.625.625 0 0 1 1.25 0v.625h1.25a2.5 2.5 0 0 1 2.503 2.5V17.5a2.5 2.5 0 0 1-2.5 2.5h-15a2.5 2.5 0 0 1-2.5-2.5V3.75a2.5 2.5 0 0 1 2.5-2.5h1.25V.625A.625.625 0 0 1 4.466 0zM2.594 2.5a1.25 1.25 0 0 0-1.25 1.25V17.5a1.25 1.25 0 0 0 1.25 1.25h15a1.25 1.25 0 0 0 1.25-1.25V3.75a1.25 1.25 0 0 0-1.25-1.25h-15z" fill="#CF0036"/>
    <path d="M3.219 5a.625.625 0 0 1 .625-.625h12.5a.625.625 0 0 1 .625.625v1.25a.625.625 0 0 1-.625.625h-12.5a.625.625 0 0 1-.625-.625V5z" fill="#DCBA4E"/>
</svg>
