<svg width="21" height="20" viewBox="0 0 21 20" fill="none" xmlns="http://www.w3.org/2000/svg">
    <path fill-rule="evenodd" clip-rule="evenodd" d="M13.905 1.875a2.708 2.708 0 0 0-2.667 3.187l-3.942 2.76a.633.633 0 0 0-.056.044 2.708 2.708 0 1 0 0 4.267.624.624 0 0 0 .056.045l3.942 2.76a2.708 2.708 0 1 0 .514-1.166L8.02 11.159c.166-.352.26-.744.26-1.159 0-.415-.094-.808-.26-1.16l3.733-2.612a2.708 2.708 0 1 0 2.152-4.353zm-1.459 2.708a1.458 1.458 0 1 1 2.917 0 1.458 1.458 0 0 1-2.917 0zM5.571 8.542a1.458 1.458 0 1 0 0 2.916 1.458 1.458 0 0 0 0-2.916zm8.334 5.416a1.458 1.458 0 1 0 0 2.917 1.458 1.458 0 0 0 0-2.917z" fill="#CF0036"/>
</svg>
