<svg width="19" height="18" viewBox="0 0 19 18" fill="none" xmlns="http://www.w3.org/2000/svg">
    <path d="M12.469 15.719a3.924 3.924 0 0 0 3.898-3.413 1.093 1.093 0 0 0-.653-1.136L12.4 9.686l-.008-.004a1.094 1.094 0 0 0-1.038.096.543.543 0 0 0-.05.037l1.164 5.904zm0 0c-5.566 0-10.094-4.528-10.094-10.094a3.925 3.925 0 0 1 3.412-3.898 1.094 1.094 0 0 1 1.136.65v.001l1.483 3.31v.001h-.003l.005.012a1.094 1.094 0 0 1-.124 1.083L6.82 8.52l-.013.016.009.018c.53 1.077 1.654 2.191 2.744 2.722l.019.01.015-.014 1.712-1.456 1.163 5.904zm2.812-3.552.031.002v.032h-.004a2.859 2.859 0 0 1-2.84 2.455m2.813-2.49L4.17 3.757a2.827 2.827 0 0 1 1.73-.937.07.07 0 0 1 0-.007l.03.003.002.008.014-.007.013-.006.003.006m9.32 9.35v-.014m0 .015v-.015m-2.812 2.504v-.031.031zm0 0a9.04 9.04 0 0 1-9.031-9.031m0 0h.03-.03zm0 0a2.858 2.858 0 0 1 2.488-2.841l.039-.005-.004.037m0 0 1.474 3.299.008.018-.013.015-1.465 1.737a.4.4 0 0 0-.038.05v.001A1.094 1.094 0 0 0 5.86 9.01c.634 1.296 1.941 2.594 3.252 3.227m-3.15-9.42 3.15 9.42m6.17-.098-3.3-1.478-.017-.008-.015.013-1.713 1.456 5.045.017zm0 0 .005.002-.005.011m0-.013v.013m-6.17.085a1.093 1.093 0 0 0 1.076-.078l-1.076.078zm1.72-9.562a.532.532 0 0 1 .65-.376 6.031 6.031 0 0 1 4.313 4.313.53.53 0 1 1-1.026.275 4.978 4.978 0 0 0-3.561-3.561.532.532 0 0 1-.186-.092L11 3.26l.02-.025a.53.53 0 0 1-.19-.559zm1.687 4.774-1.882-1.843.009-.03a.532.532 0 0 1 .274-1.027c1.336.357 2.268 1.29 2.626 2.626a.53.53 0 1 1-1.027.274z" fill="#CF0036" stroke="#CF0036" stroke-width=".063"/>
</svg>
