<svg width="11" height="16" viewBox="0 0 11 16" fill="none" xmlns="http://www.w3.org/2000/svg">
    <path d="M5.389 3.221c.516-.192 6.022-1.74 4.52-2.962-.623-.507-2.02-.166-2.641.143A3.818 3.818 0 0 0 5.76 1.863c-.023.037-.042.075-.065.111-.103.167-.203.336-.299.508l-.129.23-.05.091a.11.11 0 0 0-.01.03 12.563 12.563 0 0 0-.786 1.875c-.052-1.09-.618-4.773-1.99-3.312-1.22 1.3.626 3.323 1.764 4.088-.2.77-.323 1.555-.37 2.346a.103.103 0 0 0 0 .051c-.012.221-.024.443-.024.666 0 .92.103 1.84.31 2.74a4.872 4.872 0 0 0-1.408-1.89c-.451-.316-1.224-.48-1.624.015-.466.585.264 1.228.714 1.575a6.22 6.22 0 0 0 2.541 1.145c.362 1.19.904 2.328 1.61 3.38l.235-.136c-.362-.54-.68-1.103-.952-1.686a.104.104 0 0 0 .032-.032 8.667 8.667 0 0 0 2.082-2.623c.166-.363.63-1.354-.149-1.36-.735-.006-1.37.834-1.661 1.36a4.413 4.413 0 0 0-.55 2.087 12.096 12.096 0 0 1-.902-4.442.135.135 0 0 0 .023-.007 9.118 9.118 0 0 0 2.477-2.025c.305-.36 1.071-1.155.542-1.639-.48-.439-1.322.261-1.651.56a7.787 7.787 0 0 0-1.324 1.726c.147-1.406.541-2.78 1.168-4.068a.126.126 0 0 0 .075-.006zm3.694-2.9c1.937.5-.913 1.594-1.331 1.75l-2.286.85c.016-.03.029-.062.045-.092.041-.073.083-.148.129-.225.284-.219.587-.415.906-.588a9.085 9.085 0 0 1 1.743-.856c.075-.027.043-.141-.034-.114a9.599 9.599 0 0 0-1.85.917c-.182.112-.4.232-.602.37.689-1.129 1.739-2.408 3.28-2.014v.002zM2.382 2.21c-.026-.446.316-.648 1.024-.606l.14.262c.19.336.328.696.407 1.068.157.591.223 1.2.196 1.807a9.423 9.423 0 0 1-.62-1.287c-.027-.07-.15-.04-.123.031.212.554.476 1.09.789 1.6a.056.056 0 0 0 .019.02.062.062 0 0 0 .054.005.059.059 0 0 0 .023-.016c-.012.041-.02.083-.031.124-.9-.626-2.18-1.918-1.878-3.01v.002zm-.477 8.533a5.665 5.665 0 0 1-.306-.265.446.446 0 0 1-.167-.129.388.388 0 0 1-.061-.386.417.417 0 0 1 .12-.168c-.03-.418.163-.557.581-.417.213.06.408.166.568.309.226.2.421.428.58.676.221.322.422.656.601 1a17.262 17.262 0 0 0-1.332-1.13c-.06-.05-.15.032-.09.083l.852.724c.291.22.55.473.77.755a5.89 5.89 0 0 1-1.3-.508 5.507 5.507 0 0 1-.816-.546v.002zm4.74-.586c.149-.065.619-.08.689.111.031.086-.12.365-.155.451a5.405 5.405 0 0 1-.541 1.006 9.692 9.692 0 0 1-1.38 1.565v-.21c.216-.644.8-1.129 1.07-1.758.03-.07-.093-.1-.122-.03-.223.518-.656.933-.926 1.423-.008-.496.111-.986.348-1.431a3.21 3.21 0 0 1 1.013-1.13l.004.003zm-1.65-3.65c.195-.273.42-.527.669-.759.144-.132.3-.252.468-.358.178-.177.337-.134.479.13.317.094.38.228.187.4A8.26 8.26 0 0 1 5.714 7.17a8.989 8.989 0 0 1-1.638 1.208v-.073c.006 0 .014 0 .02-.007.54-.52 1-1.1 1.5-1.655.051-.058-.038-.141-.09-.083-.476.525-.918 1.076-1.424 1.576 0-.084 0-.169.009-.253.298-.464.575-.938.904-1.38v.001z" fill="#CF0036"/>
</svg>
