<svg width="31" height="35" viewBox="0 0 31 35" fill="none" xmlns="http://www.w3.org/2000/svg">
    <path d="m15.801 23.451-7.327-7.327 3.468-3.468 3.569 3.57L27.265 2.41 31 5.59 15.801 23.45z" fill="#82CE51"/>
    <path d="M28.27 11.501v5.325c0 7.28-3.74 11.685-6.878 14.1-3.352 2.578-6.695 3.454-6.836 3.491-.128.032-.26.05-.391.05-.14 0-.276-.02-.41-.055-.14-.038-3.477-.957-6.823-3.55C2.435 27.373.058 22.52.058 16.826L0 5.449C8.769 5.45 14.114.046 14.136 0c.125.25 3.175 4.068 8.546 5.095l-2.287 2.688c-3.124-.902-5.076-2.387-6.23-3.595-1.65 1.73-4.941 4.023-10.955 4.369v8.269c0 4.75 1.903 8.633 5.656 11.546a18.803 18.803 0 0 0 5.305 2.87 18.515 18.515 0 0 0 5.384-2.882c3.693-2.877 5.563-6.758 5.563-11.534v-1.62l3.153-3.705z" fill="#82CE51"/>
</svg>
