<svg width="40" height="41" viewBox="0 0 40 41" fill="none" xmlns="http://www.w3.org/2000/svg">
    <g clip-path="url(#p27nyc2qza)">
        <path d="M26.667 13.833a13.29 13.29 0 0 0-9.957 4.5 11.47 11.47 0 0 0-2.492-.873l2.81-5.627-3.005-3H9.31l-3 3 2.81 5.619a11.666 11.666 0 1 0 9.777 20.52 13.333 13.333 0 1 0 7.77-24.139zm-7.944 19.384a9.91 9.91 0 0 1-1.13-10.229 8.244 8.244 0 0 1 1.13 10.229zm-15.39-4.384a8.312 8.312 0 0 1 11.465-7.711 13.261 13.261 0 0 0 1.61 14.55 8.318 8.318 0 0 1-13.075-6.839zm23.334 8.334a9.935 9.935 0 0 1-5.464-1.635A11.606 11.606 0 0 0 19.5 20.21a10.001 10.001 0 0 1 17.14 7.887 10.001 10.001 0 0 1-9.973 9.07zm-9.304-30L15 4.802 18.822.988l2.356 2.357-3.815 3.822zM5.905 7.095l-3.75-3.75L4.512.988l3.75 3.75-2.357 2.357zM13.333 5.5H10v-5h3.333v5z" fill="#CF0036"/>
    </g>
    <defs>
        <clipPath id="p27nyc2qza">
            <path fill="#fff" transform="translate(0 .5)" d="M0 0h40v40H0z"/>
        </clipPath>
    </defs>
</svg>
