<svg width="25" height="24" viewBox="0 0 25 24" fill="none" xmlns="http://www.w3.org/2000/svg">
    <path d="M9.265 12.052 7.85 13.466l4.243 4.244 4.243-4.243-1.415-1.414-1.828 1.827V6.343h-2v7.537l-1.83-1.828z" fill="#CF0036"/>
    <path fill-rule="evenodd" clip-rule="evenodd" d="M4.316 19.778c4.296 4.296 11.26 4.296 15.556 0 4.296-4.296 4.296-11.26 0-15.556-4.296-4.296-11.26-4.296-15.556 0-4.296 4.296-4.296 11.26 0 15.556zm1.414-1.414A9 9 0 1 0 18.458 5.636 9 9 0 0 0 5.73 18.364z" fill="#CF0036"/>
</svg>
