<svg width="9" height="17" viewBox="0 0 9 17" fill="none" xmlns="http://www.w3.org/2000/svg">
    <g clip-path="url(#qknaa1wcka)">
        <path d="M8.126 10.81a3.262 3.262 0 0 1-.853 2.26 3.682 3.682 0 0 1-2.216 1.17v1.502a.264.264 0 0 1-.275.274H3.625a.278.278 0 0 1-.275-.274V14.24c-.373-.05-.74-.14-1.093-.266a5.266 5.266 0 0 1-1.505-.793 4.914 4.914 0 0 1-.399-.322 3.459 3.459 0 0 1-.15-.15.26.26 0 0 1-.018-.352l.883-1.158a.266.266 0 0 1 .197-.103.213.213 0 0 1 .206.076l.017.017a4.477 4.477 0 0 0 2.084 1.072c.209.045.421.068.635.068.436.009.863-.12 1.222-.369a1.2 1.2 0 0 0 .528-1.046.87.87 0 0 0-.128-.453 1.607 1.607 0 0 0-.288-.36 2.354 2.354 0 0 0-.502-.321 11.375 11.375 0 0 0-.566-.275 17.56 17.56 0 0 0-.686-.278 50.295 50.295 0 0 0-.528-.215c-.13-.05-.306-.126-.528-.226a6.66 6.66 0 0 1-.536-.266 8.786 8.786 0 0 1-.485-.301 3.02 3.02 0 0 1-.459-.365 5.344 5.344 0 0 1-.373-.42 2.097 2.097 0 0 1-.301-.498 3.439 3.439 0 0 1-.18-.57 2.976 2.976 0 0 1-.076-.668 2.932 2.932 0 0 1 .84-2.075 3.925 3.925 0 0 1 2.188-1.149V.924A.278.278 0 0 1 3.624.65h1.158a.264.264 0 0 1 .275.275v1.51a5.494 5.494 0 0 1 1.693.485c.189.092.37.2.544.32.171.12.283.204.334.249.051.045.094.085.128.12a.248.248 0 0 1 .043.326l-.694 1.252a.233.233 0 0 1-.197.137.273.273 0 0 1-.232-.06 1.73 1.73 0 0 0-.124-.103 4.732 4.732 0 0 0-.335-.226 3.83 3.83 0 0 0-1.14-.501 2.86 2.86 0 0 0-.733-.099c-.47-.02-.936.109-1.329.369a1.152 1.152 0 0 0-.441 1.365.965.965 0 0 0 .252.356c.108.1.22.195.34.283.15.103.312.192.48.265a11.962 11.962 0 0 0 1.122.468c.301.114.533.204.694.27.16.066.378.166.651.302.224.106.44.227.648.364.185.132.361.275.528.429.18.156.332.34.453.544.115.208.205.428.27.656.076.262.114.533.112.806h.002z" fill="#CF0036"/>
    </g>
    <defs>
        <clipPath id="qknaa1wcka">
            <path fill="#fff" transform="translate(.126 .65)" d="M0 0h8v15.365H0z"/>
        </clipPath>
    </defs>
</svg>
