<svg width="16" height="15" viewBox="0 0 16 15" fill="none" xmlns="http://www.w3.org/2000/svg">
    <path d="m8.839 5.725-2.254-1.7v6.653L8.84 8.985l2.18-1.634L8.84 5.725zm0 0-2.254-1.7v6.653L8.84 8.985l2.18-1.634L8.84 5.725zm0 0-2.254-1.7v6.653L8.84 8.985l2.18-1.634L8.84 5.725zM7.324 1.493V0A7.354 7.354 0 0 0 3.39 1.634l1.05 1.057a5.87 5.87 0 0 1 2.883-1.198zm-3.925 2.24-1.057-1.05A7.354 7.354 0 0 0 .708 6.616H2.2a5.87 5.87 0 0 1 1.198-2.883zm-1.2 4.361H.708a7.354 7.354 0 0 0 1.634 3.931l1.057-1.057A5.816 5.816 0 0 1 2.2 8.094h-.002zm1.19 4.982a7.378 7.378 0 0 0 3.933 1.634v-1.493a5.87 5.87 0 0 1-2.883-1.2l-1.05 1.057v.002zm12.066-5.721a7.4 7.4 0 0 1-6.616 7.355v-1.493a5.913 5.913 0 0 0 0-11.724V0a7.4 7.4 0 0 1 6.616 7.355z" fill="#CF0036"/>
</svg>
