<svg width="26" height="28" viewBox="0 0 26 28" fill="none" xmlns="http://www.w3.org/2000/svg">
    <path d="M2.756 9.139a2.865 2.865 0 0 0-.556.226c-.31.173-.75.604-.907.883C1 10.761 1 10.678 1 17.945c0 4.355.023 6.893.059 7.109.17.92.948 1.65 1.978 1.844.44.084 18.492.084 18.93 0 1.043-.2 1.827-.951 1.98-1.897.028-.184.058-1.245.058-2.359v-2.028l.263-.152c.328-.184.55-.463.656-.82.093-.342.105-2.9.011-3.294-.076-.331-.34-.657-.667-.836l-.258-.142-.005-2.049c0-1.161-.03-2.196-.065-2.39-.146-.841-.778-1.508-1.68-1.782-.345-.105-.48-.11-3.658-.11-3.231 0-3.302 0-3.425.105-.275.231-.187.62.17.73.129.037 1.188.058 3.354.058 2.939 0 3.185.01 3.401.1.293.116.58.368.75.657.128.21.128.263.146 2.406l.017 2.196H20.89c-2.364 0-2.663.032-3.272.321-1.012.489-1.598 1.36-1.592 2.385.006 1.151.714 2.055 1.967 2.512.287.11.421.115 2.646.142l2.341.026.018 2.075c.017 2.291 0 2.428-.34 2.8-.1.106-.31.258-.456.342l-.275.142H3.078l-.24-.115a1.756 1.756 0 0 1-.45-.337c-.416-.436-.393.058-.393-7.581 0-4.53.024-6.957.059-7.083.105-.341.41-.683.755-.84l.31-.148h2.183c2.242 0 2.494-.02 2.605-.21.106-.179.07-.446-.076-.567-.134-.116-.152-.116-2.447-.11-2.037 0-2.341.01-2.628.094zm21.079 7.198.17.152v1.456c0 1.529-.024 1.686-.275 1.791-.159.063-4.432.09-4.93.032-.76-.1-1.328-.462-1.632-1.05a1.636 1.636 0 0 1 .011-1.467c.258-.51.761-.882 1.353-1.014.099-.026 1.287-.042 2.651-.047l2.482-.005.17.152z" fill="#CF0036" stroke="#CF0036"/>
    <path d="M13.884 3.01c1.883 1.723 2.115 1.956 2.131 2.119.022.242-.196.445-.471.443-.176-.002-.35-.145-1.833-1.497l-1.644-1.5-.057 7.188-.056 7.188-.148.124c-.2.183-.458.17-.679-.026l-.168-.154.056-7.135.056-7.14-1.639 1.448C7.87 5.443 7.782 5.511 7.577 5.51c-.287-.002-.508-.193-.506-.435.001-.157.202-.345 2.17-2.085 1.899-1.682 2.188-1.916 2.346-1.915.152.002.437.24 2.297 1.936z" fill="#CF0036" stroke="#CF0036"/>
</svg>
