<svg width="11" height="8" viewBox="0 0 11 8" fill="none" xmlns="http://www.w3.org/2000/svg">
    <path d="M9.388 1.967a5.63 5.63 0 0 1-5.662 5.927A5.63 5.63 0 0 1 .666 7c.16.018.32.027.481.025a3.99 3.99 0 0 0 2.473-.85 2 2 0 0 1-1.862-1.383 2.107 2.107 0 0 0 .9-.037 1.993 1.993 0 0 1-1.6-1.955v-.025c.276.155.585.241.9.253A2 2 0 0 1 1.344.364a5.663 5.663 0 0 0 4.108 2.084 2.249 2.249 0 0 1-.049-.456A1.994 1.994 0 0 1 8.851.63a3.923 3.923 0 0 0 1.264-.48c-.148.46-.46.852-.876 1.1A3.995 3.995 0 0 0 10.386.94c-.272.396-.61.744-.998 1.027z" fill="#CF0036"/>
</svg>
