<svg width="40" height="40" viewBox="0 0 40 40" fill="none" xmlns="http://www.w3.org/2000/svg">
    <path d="M31.667 10.833h-5V9.167a5 5 0 0 0-5-5h-3.334a5 5 0 0 0-5 5v1.666h-5a5 5 0 0 0-5 5v15a5 5 0 0 0 5 5h23.334a5 5 0 0 0 5-5v-15a5 5 0 0 0-5-5zm-15-1.666A1.667 1.667 0 0 1 18.333 7.5h3.334a1.667 1.667 0 0 1 1.666 1.667v1.666h-6.666V9.167zm16.666 21.666a1.666 1.666 0 0 1-1.666 1.667H8.333a1.667 1.667 0 0 1-1.666-1.667v-9.166A36.183 36.183 0 0 0 20 24.217a36.248 36.248 0 0 0 13.333-2.55v9.166zm0-12.816a33.15 33.15 0 0 1-26.666 0v-2.184a1.667 1.667 0 0 1 1.666-1.666h23.334a1.666 1.666 0 0 1 1.666 1.666v2.184z" fill="#CF0036"/>
</svg>
