<svg width="45" height="44" viewBox="0 0 45 44" fill="none" xmlns="http://www.w3.org/2000/svg">
    <path d="M35.378 7.333H32.72A5.645 5.645 0 0 0 31.71 5.5a5.501 5.501 0 0 0-4.125-1.833H17.54A5.5 5.5 0 0 0 13.378 5.5a5.645 5.645 0 0 0-1.045 1.833H9.711a5.5 5.5 0 0 0-5.5 5.5v22a5.5 5.5 0 0 0 5.5 5.5h25.667a5.5 5.5 0 0 0 5.5-5.5v-22a5.5 5.5 0 0 0-5.5-5.5zm-19.213.624a1.833 1.833 0 0 1 1.375-.624h10.01a1.834 1.834 0 0 1 1.375.624 1.834 1.834 0 0 1 .458 1.43l-.917 7.333a1.833 1.833 0 0 1-1.833 1.613h-3.007l2.09-4.4a1.833 1.833 0 0 0-3.3-1.576l-2.86 5.976h-1.1a1.833 1.833 0 0 1-1.833-1.613l-.917-7.333a1.833 1.833 0 0 1 .459-1.43zM37.21 34.833a1.833 1.833 0 0 1-1.833 1.834H9.711a1.833 1.833 0 0 1-1.833-1.834v-22A1.833 1.833 0 0 1 9.711 11h2.512l.77 6.178a5.5 5.5 0 0 0 5.5 4.822h8.177a5.5 5.5 0 0 0 5.5-4.822L32.866 11h2.512a1.833 1.833 0 0 1 1.833 1.833v22zm-11-5.5h-7.333a1.833 1.833 0 0 0 0 3.667h7.333a1.833 1.833 0 1 0 0-3.667z" fill="#CF0036"/>
</svg>
