<svg width="28" height="28" viewBox="0 0 28 28" fill="none" xmlns="http://www.w3.org/2000/svg">
    <path d="M17.5 9.333v9.334H5.833V9.333H17.5zM18.667 7h-14A1.167 1.167 0 0 0 3.5 8.167v11.666A1.167 1.167 0 0 0 4.667 21h14a1.167 1.167 0 0 0 1.166-1.167V15.75l4.667 4.667V7.583l-4.667 4.667V8.167A1.167 1.167 0 0 0 18.667 7z" fill="url(#38lk848r5a)"/>
    <path d="M11.667 14a1.75 1.75 0 1 0 0-3.499 1.75 1.75 0 0 0 0 3.499zm0 .875c-1.168 0-3.5.586-3.5 1.75v.875h7v-.875c0-1.164-2.332-1.75-3.5-1.75z" fill="url(#yey7sugolb)"/>
    <defs>
        <linearGradient id="38lk848r5a" x1="4.109" y1="20.804" x2="16.402" y2="1.34" gradientUnits="userSpaceOnUse">
            <stop stop-color="#CF0036"/>
            <stop offset="1" stop-color="#FF2F65"/>
        </linearGradient>
        <linearGradient id="yey7sugolb" x1="8.37" y1="17.402" x2="15.167" y2="10.227" gradientUnits="userSpaceOnUse">
            <stop stop-color="#CF0036"/>
            <stop offset="1" stop-color="#FF2F65"/>
        </linearGradient>
    </defs>
</svg>
