<svg width="29" height="28" viewBox="0 0 29 28" fill="none" xmlns="http://www.w3.org/2000/svg">
    <path d="M18 9.333v9.334H6.333V9.333H18zM19.167 7h-14A1.167 1.167 0 0 0 4 8.167v11.666A1.167 1.167 0 0 0 5.167 21h14a1.167 1.167 0 0 0 1.166-1.167V15.75L25 20.417V7.583l-4.667 4.667V8.167A1.167 1.167 0 0 0 19.167 7z" fill="#7B6C96"/>
    <path d="M12.166 14a1.75 1.75 0 1 0 .002-3.499A1.75 1.75 0 0 0 12.166 14zm0 .875c-1.168 0-3.5.586-3.5 1.75v.875h7v-.875c0-1.164-2.331-1.75-3.5-1.75z" fill="#7B6C96"/>
</svg>
