<svg width="20" height="20" viewBox="0 0 20 20" fill="none" xmlns="http://www.w3.org/2000/svg">
    <path d="M11.926 2.971a.594.594 0 0 0 .421.728 5.527 5.527 0 0 1 3.954 3.954M11.926 2.97l4.345 4.69m-4.345-4.69a.594.594 0 0 1 .728-.42 6.705 6.705 0 0 1 4.795 4.795.593.593 0 0 1-.42.728M11.926 2.97l5.103 5.103m-.728-.421-.03.008m.03-.008-.03.008m.03-.008a.594.594 0 0 0 .574.44m-.604-.432a.625.625 0 0 0 .604.464m0-.031v.031m0-.031a.612.612 0 0 0 .154-.02m-.154.02v.031m0 0 .154-.051m-3.279 9.395a4.364 4.364 0 0 0 4.335-3.795 1.219 1.219 0 0 0-.728-1.266l-3.68-1.649h-.001l-.01-.005a1.22 1.22 0 0 0-1.155.107.608.608 0 0 0-.056.042l1.295 6.566zm0 0c-6.186 0-11.219-5.033-11.219-11.219a4.364 4.364 0 0 1 3.795-4.335 1.219 1.219 0 0 1 1.266.726l1.647 3.677v.003h-.003l.006.013a1.219 1.219 0 0 1-.14 1.206L7.476 9.468l-.013.016.009.018c.588 1.195 1.837 2.433 3.048 3.023l.018.009.016-.013 1.901-1.618 1.295 6.566zm3.125-3.95.031.002v.032h-.004a3.173 3.173 0 0 1-3.152 2.728m3.125-2.762L4.528 4.173a3.14 3.14 0 0 1 1.925-1.041v-.008l.031.003.002.01.016-.008.01-.005.004.006m10.359 10.389v-.016m0 .016v-.016M13.75 16.28v-.031.031zm0 0A10.042 10.042 0 0 1 3.719 6.25m0 0h.031-.031zm0 0A3.172 3.172 0 0 1 6.48 3.096l.04-.005-.004.039m0 0 1.638 3.666.008.018-.013.015-1.628 1.93a1.219 1.219 0 0 0-.118 1.253m.113-6.882-.114 6.882m10.473 3.48v-.001h-.002l-3.666-1.642-.018-.008-.015.013-1.902 1.618 5.603.02zm0 0 .004.001-.004.01m0-.011v.01m-10.473-3.49c.705 1.441 2.158 2.884 3.615 3.588a1.219 1.219 0 0 0 1.2-.087l-4.815-3.5zm7.4-1.734c-.291-1.088-.992-1.789-2.08-2.08a.594.594 0 0 1 .307-1.147c1.486.397 2.523 1.434 2.92 2.92a.593.593 0 1 1-1.148.307z" fill="#fff" stroke="#fff" stroke-width=".063"/>
</svg>
