<svg width="16" height="16" viewBox="0 0 16 16" fill="none" xmlns="http://www.w3.org/2000/svg">
    <path d="M8.39 4.292a.621.621 0 0 1 0-.879l2.17-2.17h-.8A.621.621 0 0 1 9.76 0h1.38a1.542 1.542 0 0 1 1.54 1.54v1.38a.622.622 0 0 1-1.243 0v-.8L9.269 4.292a.621.621 0 0 1-.88 0zm3.674.4a.62.62 0 0 0-.621.621v1.363a1.557 1.557 0 0 0 1.555 1.555h1.366a.622.622 0 0 0 0-1.243h-.8l2.17-2.17a.621.621 0 0 0-.88-.879l-2.17 2.171v-.8a.62.62 0 0 0-.621-.621v.003zm3.127 6.514a5.78 5.78 0 0 0-2.286-1.524 2.561 2.561 0 0 0-2.63.746l-.84.834a12.595 12.595 0 0 1-2.656-2.046l-.082-.082a12.591 12.591 0 0 1-2.048-2.648l.834-.84a2.561 2.561 0 0 0 .746-2.63A5.78 5.78 0 0 0 4.712.724 2.365 2.365 0 0 0 1.43.605l-.018.016-.024.023A5.042 5.042 0 0 0 .005 4.338a11.8 11.8 0 0 0 3.756 7.816c.468.465.965.9 1.49 1.3a.622.622 0 0 0 .754-.99 13.905 13.905 0 0 1-1.367-1.19 10.554 10.554 0 0 1-3.39-6.943 3.84 3.84 0 0 1 1.008-2.8 1.118 1.118 0 0 1 1.557.056c1.613 1.667 1.492 2.456.786 3.185l-1.152 1.16a.621.621 0 0 0-.127.691 12.557 12.557 0 0 0 2.5 3.391l.082.082a12.555 12.555 0 0 0 3.39 2.5.62.62 0 0 0 .692-.127l1.16-1.152c.73-.711 1.518-.827 3.186.781a1.118 1.118 0 0 1 .056 1.557 3.828 3.828 0 0 1-2.77 1.008h-.027a8.058 8.058 0 0 1-3.066-.726.622.622 0 0 0-.492 1.141 9.167 9.167 0 0 0 3.553.828h.035a5.032 5.032 0 0 0 3.658-1.383l.023-.024.016-.018a2.365 2.365 0 0 0-.118-3.282l-.007.007z" fill="#fff"/>
</svg>
