<svg width="21" height="21" viewBox="0 0 21 21" fill="none" xmlns="http://www.w3.org/2000/svg">
    <path d="M12.533 4.59a4.488 4.488 0 0 1 3.545 3.545M12.533 1a8.078 8.078 0 0 1 7.136 7.127m-.9 7.162v2.693a1.8 1.8 0 0 1-1.957 1.8 17.764 17.764 0 0 1-7.747-2.755 17.5 17.5 0 0 1-5.384-5.385A17.763 17.763 0 0 1 .928 3.854 1.8 1.8 0 0 1 2.713 1.9h2.694a1.8 1.8 0 0 1 1.8 1.544c.113.862.324 1.708.628 2.522a1.8 1.8 0 0 1-.4 1.894L6.284 9a14.361 14.361 0 0 0 5.386 5.385l1.14-1.14a1.8 1.8 0 0 1 1.893-.4c.815.304 1.66.514 2.523.628a1.8 1.8 0 0 1 1.543 1.816h-.002z" stroke="#fff" stroke-width="1.7" stroke-linecap="round" stroke-linejoin="round"/>
</svg>
