<svg width="29" height="28" viewBox="0 0 29 28" fill="none" xmlns="http://www.w3.org/2000/svg">
    <path d="M17.82 3.53a.875.875 0 0 0-1.072.619l1.072-.62zm0 0a9.43 9.43 0 0 1 4.288 2.456M17.82 3.53l4.288 2.456M19.344 24.47a6.122 6.122 0 0 0 6.08-5.324A1.719 1.719 0 0 0 24.4 17.36l-5.153-2.309-.014-.006a1.72 1.72 0 0 0-1.63.15.853.853 0 0 0-.079.06l1.82 9.214zm0 0c-8.667 0-15.719-7.052-15.719-15.719a6.122 6.122 0 0 1 5.323-6.08 1.719 1.719 0 0 1 1.785 1.022l2.308 5.151v.007h-.003l.005.012a1.719 1.719 0 0 1-.136 1.62 1.21 1.21 0 0 1-.06.082l-2.277 2.7-.013.015.009.018c.822 1.671 2.568 3.402 4.261 4.227l.018.009.016-.014 2.662-2.265 1.82 9.215zm4.375-5.542.031.003v.032h-.004a4.429 4.429 0 0 1-4.402 3.82m4.375-3.855-7.836-.057a.896.896 0 0 1-.079.059 1.72 1.72 0 0 1-1.691.122c-2.043-.987-4.08-3.008-5.067-5.028a1.719 1.719 0 0 1 .107-1.687.64.64 0 0 1 .06-.08v-.001l2.28-2.703.012-.015-.008-.018-2.294-5.135v-.003l.004-.039-.04.005A4.428 4.428 0 0 0 5.314 8.75m18.406 10.177v-.023m0 .023v-.023m-4.375 3.877v-.031.031zm0 0A14.046 14.046 0 0 1 5.313 8.751m0 0V8.75h.03-.03zm18.4 10.148-5.134-2.3-.018-.007-.015.013-2.663 2.265 7.83.03zm0 0h.006v.003m-.006-.003.006.003m0 0v.002m0-.002v.002M22.108 5.986a9.43 9.43 0 0 1 2.456 4.288l-2.456-4.288zm-5.33-1.83a.844.844 0 0 1 1.034-.596 9.399 9.399 0 0 1 6.722 6.721.841.841 0 0 1-.597 1.034.843.843 0 0 1-1.034-.598 7.726 7.726 0 0 0-5.527-5.527.845.845 0 0 1-.598-1.033zm2.626 7.436c-.406-1.519-1.383-2.496-2.902-2.902a.845.845 0 0 1 .435-1.63c2.085.557 3.54 2.012 4.097 4.097a.843.843 0 1 1-1.63.435z" fill="#fff" stroke="#fff" stroke-width=".063"/>
</svg>
