<svg width="225" height="61" viewBox="0 0 225 61" fill="none" xmlns="http://www.w3.org/2000/svg">
    <path d="M169.01 19.247a69.446 69.446 0 0 1 9.693-10.088c3.088-2.539 5.864-3.808 8.327-3.807.66 0 1.29.026 1.888.078a7.091 7.091 0 0 1 2.021.536c.714.274 1.303.79 1.661 1.453l.268-.157a4.731 4.731 0 0 0-1.929-1.95 5.953 5.953 0 0 0-2.047-.707l-.87-.09h-.992c-2.463 0-5.266 1.342-8.408 4.029a81.033 81.033 0 0 0-9.96 10.493c-1.642 2.007-3.762 4.798-6.359 8.375a347.006 347.006 0 0 0-7.641 10.964c-2.499 3.733-4.445 6.847-5.837 9.342a51.374 51.374 0 0 1 2.648-7.105c1.107-2.434 2.678-5.666 4.713-9.696 1.82-3.558 3.311-6.576 4.471-9.054a75.961 75.961 0 0 0 3.107-7.72 37.243 37.243 0 0 0 1.794-7.666l.012-.1-.093-.035-.214-.078-.053.078-.221.324-.019-.016a20.681 20.681 0 0 1-4.975 4.01 17.946 17.946 0 0 1-5.996 2.208 16.004 16.004 0 0 1-6.356-.215 20.045 20.045 0 0 1-5.856-2.472c-.824-.498-1.6-1.053-2.377-1.631.09-.686.065-1.38-.072-2.058a7.186 7.186 0 0 0-1.367-2.96 9.03 9.03 0 0 0-2.434-2.191 8.66 8.66 0 0 0-3.084-1.146 12.49 12.49 0 0 0-3.288-.147l.026.223a12.259 12.259 0 0 1 3.215.16 8.394 8.394 0 0 1 2.989 1.125 7.934 7.934 0 0 1 2.347 2.13 7.738 7.738 0 0 1 1.306 2.857c.117.59.143 1.195.078 1.793a27.257 27.257 0 0 0-2.722-1.786 21.093 21.093 0 0 0-3.017-1.394 16.927 16.927 0 0 0-3.251-.807 18.26 18.26 0 0 0-6.656.347 14.868 14.868 0 0 0-6.045 2.804 9.122 9.122 0 0 0-2.2 2.558 5.916 5.916 0 0 0-.63 1.606 4.096 4.096 0 0 0-.102.896c.003.157.018.314.044.47.035.143.059.289.102.428a5.824 5.824 0 0 0 1.95 2.811 9.57 9.57 0 0 0 2.97 1.613c2.129.671 4.377.903 6.602.68a23.45 23.45 0 0 0 1.645-.192 10.157 10.157 0 0 0 1.63-.37 17.518 17.518 0 0 0 3.063-1.25 15.676 15.676 0 0 0 5.067-4.126 9.107 9.107 0 0 0 1.562-2.876 6.57 6.57 0 0 0 .127-.476c.714.497 1.433.995 2.187 1.427a20.627 20.627 0 0 0 6.066 2.434c2.149.472 4.374.508 6.538.106a18.635 18.635 0 0 0 6.071-2.347 21.476 21.476 0 0 0 4.133-3.178 957.722 957.722 0 0 1-3.999 5.784c-.574.822-1.26 1.843-1.89 2.75a352.074 352.074 0 0 1-8.224 11.358c-2.849 3.775-5.158 6.728-6.928 8.861a133.357 133.357 0 0 1-9.2 9.943 80.513 80.513 0 0 1-3.24 3.168 19.622 19.622 0 0 0-10.723-2.996c-7.06.392-11.181 4.027-11.086 7.313.092 3.155 3.715 4.274 6.789 4.274 4.099 0 9.124-2.731 14.968-8.127a37.07 37.07 0 0 1 9.352 8.376 5.542 5.542 0 0 0 3.031 1.907 51.563 51.563 0 0 0-5.541-5.722 40.194 40.194 0 0 0-6.513-4.864 78.493 78.493 0 0 0 3.124-3.092c3.871-3.821 7.136-7.286 9.385-9.965 1.676-1.98 3.842-4.737 6.498-8.27a351.746 351.746 0 0 0 7.829-10.842 253.803 253.803 0 0 0 2.474-3.629 676.258 676.258 0 0 0 4.161-6.008 62.05 62.05 0 0 1-1.888 3.795 682.065 682.065 0 0 1-2.932 5.365c-2.331 4.157-4.246 7.763-5.745 10.817a68.944 68.944 0 0 0-3.935 10.036 40.954 40.954 0 0 0-1.848 10.952v.1l.214.027.053.027a.02.02 0 0 1 0-.011.02.02 0 0 1 .006-.01.024.024 0 0 1 .021-.006v-.052c1.249-2.339 3.159-5.425 5.73-9.26a357.707 357.707 0 0 1 8.034-11.488c2.784-3.821 5.042-6.814 6.773-8.978zm-30.155-9.586a8.817 8.817 0 0 1-1.528 2.772 15.341 15.341 0 0 1-4.977 4.01c-.959.497-1.965.901-3.004 1.21-1.044.29-2.118.468-3.201.53a16.108 16.108 0 0 1-6.431-.69 9.13 9.13 0 0 1-2.825-1.55 5.397 5.397 0 0 1-1.796-2.602 2.805 2.805 0 0 1-.018-1.57 4.643 4.643 0 0 1 .639-1.448c.28-.448.62-.857 1.01-1.217a9.525 9.525 0 0 1 1.23-.986 11.827 11.827 0 0 1 2.81-1.37c.981-.341 1.985-.618 3.004-.829a21.61 21.61 0 0 1 6.203-.459c1.044.098 2.077.294 3.082.587 1.019.305 2.007.7 2.954 1.176.953.491 1.867 1.05 2.735 1.673l.259.184c-.039.196-.088.39-.148.58l.002-.001zm-23.084 48.218c-.255 0-.498-.009-.736-.02-.084-.006-.171-.01-.254-.017l-.117-.01c-2.553-.246-3.941-1.374-4.568-3.186a4.797 4.797 0 0 1-.051-2.412 4.873 4.873 0 0 1 1.13-2.145c1.81-1.675 4.857-2.979 8.909-3.204.252-.014.503-.02.758-.02.27 0 .544.017.815.032a20.34 20.34 0 0 1 8.805 2.987c-4.546 4.17-10.001 7.995-14.691 7.995z" fill="#FEE3A1"/>
    <path d="M115.159 36.693a2.455 2.455 0 0 1-1.457-.493 1.679 1.679 0 0 1-.618-1.01 15.348 15.348 0 0 1-.102-2.164v-7.743l5.4 11.858h.469l5.359-11.858v8.416c.022.705-.009 1.41-.095 2.111a.987.987 0 0 1-.429.668c-.37.174-.782.249-1.192.215h-.478v.45h6.465v-.45h-.598c-.429.04-.86-.04-1.242-.234a1.052 1.052 0 0 1-.408-.717 15.84 15.84 0 0 1-.079-2.043v-6.484c-.027-.699.008-1.398.102-2.091a.846.846 0 0 1 .413-.598 3.373 3.373 0 0 1 1.308-.16h.499v-.445h-4.151l-4.93 10.941-4.955-10.941h-4.121v.449h.369c.452-.037.907.022 1.332.175a.9.9 0 0 1 .4.634c.084.676.116 1.358.095 2.039v5.753c.021.75-.019 1.5-.12 2.244a1.663 1.663 0 0 1-.663 1.02c-.41.292-.904.454-1.412.462v.45h4.84l-.001-.454zM133.291 27.412v-.539h-4.502v.539c.388-.036.777.059 1.102.268.347.379.623.815.815 1.288l3.688 7.723-.935 2.282c-.102.3-.267.574-.485.808a3.908 3.908 0 0 1-.976.539c-.83.366-1.246.815-1.246 1.346 0 .46.26.69.779.69.205-.008.405-.06.588-.151.182-.093.341-.223.465-.382a7.782 7.782 0 0 0 1.103-2.007l4.37-10.31c.215-.603.524-1.17.917-1.68a1.69 1.69 0 0 1 1.174-.415v-.539h-3.449v.539c.883.016 1.324.218 1.324.608a8.724 8.724 0 0 1-.491 1.294l-2.275 5.325-2.694-5.605a5.036 5.036 0 0 1-.467-1.147c.007-.293.405-.451 1.195-.474zM223.831 10.073a1.091 1.091 0 0 0-.746-.234 8.338 8.338 0 0 0-4.897 1.95 35.333 35.333 0 0 0-5.256 5.023 17.945 17.945 0 0 0-9.067-2.649c-5.955 0-8.78 2.39-9.541 4.423 0 .012-.01.024-.015.035-.13.35-.199.718-.203 1.09.047.62.268 1.216.636 1.722.369.507.872.906 1.455 1.154 2.515 1.401 7.017 1.891 11.097 1.078-.696.878-1.43 1.81-2.199 2.796-.266.347-1.012 1.343-2.236 2.987a279.518 279.518 0 0 1-2.821 3.72c-.112.139-.363.464-.737.953a30.014 30.014 0 0 1-1.925 1.96 19.061 19.061 0 0 1-2.915 2.263 5.26 5.26 0 0 1-2.702.963.542.542 0 0 0 0-.247 3.916 3.916 0 0 1-.026-.508c.063-.591.263-1.16.586-1.664.39-.712 1.073-1.77 2.049-3.174a54.332 54.332 0 0 1 5.883-7.283l-.08-.13-.851-.026a3.62 3.62 0 0 0-1.391.225 3.57 3.57 0 0 0-1.191.737c-.485.456-.938.943-1.357 1.457.162-.425.252-.873.266-1.327 0-.711-.346-1.067-1.038-1.067a6.656 6.656 0 0 0-2.941.846 16.696 16.696 0 0 0-3.362 2.328 20.996 20.996 0 0 0-3.057 3.303 21.094 21.094 0 0 0-1.601 2.44c-.787.79-1.62 1.557-2.511 2.29a6.316 6.316 0 0 1-3.66 1.792 2.065 2.065 0 0 1-.053-.755c0-.796.595-2.036 1.783-3.72l1.144-1.326 1.144-1.326c.459-.487.74-1.109.799-1.768 0-.365-.253-.634-.759-.807a4.278 4.278 0 0 0-1.37-.26 6.856 6.856 0 0 0-2.129.519 20.404 20.404 0 0 1 3.087-2.263c.693-.365 1.216-.62 1.57-.768a2.705 2.705 0 0 1 1.038-.22.642.642 0 0 1 .519.156.605.605 0 0 1 .2.493 1.713 1.713 0 0 0-.533.078c-.369.13-.695.355-.945.65a1.38 1.38 0 0 0-.412.884c0 .278.151.416.452.416a1.657 1.657 0 0 0 1.065-.637c.361-.342.611-.78.718-1.261v-.157c-.018-.623-.364-.936-1.038-.936a3.483 3.483 0 0 0-1.264.22c-.508.208-1.001.447-1.478.716a25.396 25.396 0 0 0-3.859 2.986h-.026l-.027.052a49.738 49.738 0 0 0-2.741 2.68c1.171-1.457 1.863-2.306 2.076-2.55l5.27-6.502 1.121-1.38a73.51 73.51 0 0 0 6.442-4.187 20.788 20.788 0 0 0 2.888-2.523 28.748 28.748 0 0 0 2.343-2.731 9.517 9.517 0 0 0 1.131-1.768c.076-.2.121-.411.132-.625a.784.784 0 0 0-.266-.624 1.091 1.091 0 0 0-.746-.234 8.248 8.248 0 0 0-4.883 1.964 36.63 36.63 0 0 0-5.444 5.255c-1.409 1.628-3.18 3.775-5.313 6.44-.535.127-1.075.23-1.608.313-.114.018-.463.09-.487.233-.025.144.261.109.339.1.484-.075.974-.17 1.464-.277-.655.82-1.339 1.682-2.06 2.597-.231.312-1.074 1.43-2.528 3.355a1238.067 1238.067 0 0 0-2.529 3.356c-.092.114-.278.354-.547.706a49.65 49.65 0 0 1-4.616 3.703 7.681 7.681 0 0 1-4.1 1.73c-.068 0-.102-.252-.102-.755.065-.589.27-1.155.599-1.652a35.228 35.228 0 0 1 2.116-3.108c.887-1.214 2.019-2.593 3.394-4.136 1.375-1.543 2.604-2.844 3.686-3.902.213-.066.018-.04-.586.078-.653.136-1.291.336-1.903.597a6.156 6.156 0 0 0-1.796 1.144c-.874.747-1.7 1.545-2.476 2.39a28.89 28.89 0 0 0-2.368 2.913c-.959 1.318-1.651 2.347-2.077 3.087a4.1 4.1 0 0 0-.638 2.016c0 1.161.718 1.742 2.155 1.742 1.155 0 2.628-.646 4.419-1.937a44.299 44.299 0 0 0 3.354-2.672L168.7 37.11l-1.783 2.341h2.715l2.445-3.485a42.04 42.04 0 0 1 2.421-2.718 59.257 59.257 0 0 1 2.902-2.823c.486-.2.984-.374 1.49-.52.388-.132.79-.22 1.198-.26.355 0 .533.14.533.417a1.222 1.222 0 0 1-.305.663c-.325.4-.676.778-1.052 1.131a30.83 30.83 0 0 0-2.395 2.757 7.02 7.02 0 0 0-1.145 1.912 4.715 4.715 0 0 0-.346 1.626c-.016.223.024.446.117.65.093.204.236.383.415.52.468.291 1.018.428 1.57.391 1.065 0 2.378-.659 3.94-1.976.63-.532 1.222-1.07 1.781-1.61a4.945 4.945 0 0 0-.478 1.892c-.02.235.014.471.1.692.085.22.219.42.392.583.337.28.769.429 1.211.416a4.937 4.937 0 0 0 2.569-.962 18.724 18.724 0 0 0 3.101-2.627 4.513 4.513 0 0 0-.479 1.847c0 1.161.718 1.742 2.156 1.742a5.5 5.5 0 0 0 2.861-1.027 19.779 19.779 0 0 0 3.015-2.377l-.606.802-1.783 2.341h2.715c.355-.537 1.136-1.639 2.343-3.303l1.783-1.873a41.937 41.937 0 0 1 3.566-3.538 38.415 38.415 0 0 1 3.713-2.952 5.56 5.56 0 0 1 2.329-1.158c.284 0 .426.07.426.208a1.78 1.78 0 0 1-.426.728 13.46 13.46 0 0 1-1.732 1.77 45.668 45.668 0 0 0-1.996 1.963 14.379 14.379 0 0 0-1.57 1.991 28.767 28.767 0 0 0-1.823 3.03 4.519 4.519 0 0 0-.573 1.835c.014.24.095.473.237.67.141.198.335.353.562.448a4.08 4.08 0 0 0 1.997.442 6.947 6.947 0 0 0 4.138-1.937 31.802 31.802 0 0 0 4.112-4.019h-.441a32.327 32.327 0 0 1-3.952 3.784 6.485 6.485 0 0 1-3.872 1.756c-.692 0-1.038-.252-1.038-.755a3.811 3.811 0 0 1 .772-1.716 37.824 37.824 0 0 1 2.476-3.2l1.411-1.665a29.555 29.555 0 0 0 2.316-2.862c.43-.55.647-1.232.611-1.924a1.005 1.005 0 0 0-.519-.637 2.723 2.723 0 0 0-1.104-.222 5.012 5.012 0 0 0-2.063.885 28.305 28.305 0 0 0-3.54 2.588 39.203 39.203 0 0 0-3.979 3.864c.354-.451 1.481-1.839 3.38-4.162l4.524-5.593c-.018.017.098-.122.347-.416.159-.208.301-.39.425-.547.125-.157.231-.295.32-.416 1.494-.844 3.121-1.869 4.879-3.076.236.215.467.436.693.661.889 1.076 9.758 12.428-1.725 24.166a14.9 14.9 0 0 1-2.222 1.726 24.965 24.965 0 0 1-13.299 3.658c-6.841 0-11.345-1.667-15.7-3.278-3.981-1.473-7.743-2.864-12.947-2.864-9.434 0-13.514 5.706-13.514 8.616-.014.769.25 1.517.746 2.114a3.355 3.355 0 0 0 1.961 1.15 6.656 6.656 0 0 0 1.707.217c3.35 0 6.764-2.355 8.342-4.988l-.261-.15a10.097 10.097 0 0 1-4.824 4.117c-5.562 1.569-6.368-1.701-6.368-1.701-.944-2.803 1.709-5.508 2.419-6.168a15.587 15.587 0 0 1 9.792-2.912c5.15 0 8.885 1.382 12.836 2.846 4.381 1.621 8.911 3.297 15.808 3.297 8.322 0 15.671-3.627 19.656-9.702a15.516 15.516 0 0 0 1.502-15.155 18.74 18.74 0 0 0-4.354-5.824c.438-.299.882-.613 1.336-.938a20.732 20.732 0 0 0 2.889-2.523 28.76 28.76 0 0 0 2.343-2.731 9.51 9.51 0 0 0 1.131-1.768c.076-.2.121-.411.133-.625a.785.785 0 0 0-.263-.606zm-35.093 5.267a45.405 45.405 0 0 1 3.553-3.746 4.41 4.41 0 0 1 2.423-1.443c.461 0 .691.182.691.546-.01.217-.064.429-.159.625a9.1 9.1 0 0 1-1.078 1.626 30.918 30.918 0 0 1-2.276 2.627 19.02 19.02 0 0 1-2.853 2.458 87.347 87.347 0 0 1-5.297 3.504 1.006 1.006 0 0 0-.192.073c2.151-2.66 3.88-4.751 5.188-6.27zm-1.464 22.814a5.155 5.155 0 0 1-2.782 1.157c-.141 0-.07-.295.213-.885.409-.808.862-1.594 1.357-2.354a56.945 56.945 0 0 1 2.13-3.108 31.566 31.566 0 0 1 2.621-3.087 31.162 31.162 0 0 1 2.502-2.354c.374-.362.8-.668 1.264-.91.479 0 .718.26.718.78-.1.878-.4 1.722-.878 2.472l-2.235 2.966a21.554 21.554 0 0 0-1.437 2.055 20.367 20.367 0 0 1-3.473 3.269v-.001zm20.302-14.845c-.277.061-.558.114-.838.163-.102.017-.203.03-.298.047-.182.028-.362.055-.544.078a23.906 23.906 0 0 1-1.251.121c-.138.01-.272.017-.408.024-.153.007-.305.014-.456.018h-.322a20.337 20.337 0 0 1-1.907-.066l-.123-.01-.073-.008-.035-.005c-.314-.052-.661-.1-1.027-.165l-.075-.012-.343-.062-.128-.024c-.102-.02-.214-.044-.322-.068l-.151-.032c-.102-.024-.209-.051-.314-.078l-.16-.041a8.876 8.876 0 0 1-.306-.092l-.165-.05c-.101-.033-.196-.071-.295-.108-.055-.02-.111-.04-.166-.063a5.623 5.623 0 0 1-.283-.126c-.054-.025-.11-.049-.163-.076-.092-.046-.18-.1-.267-.147a16.53 16.53 0 0 1-.157-.09c-.086-.053-.167-.113-.249-.172-.049-.036-.102-.068-.148-.105-.08-.062-.153-.132-.228-.2-.044-.04-.092-.078-.136-.122-.071-.072-.137-.152-.204-.23-.04-.047-.083-.09-.121-.14-.064-.084-.12-.178-.178-.27-.033-.051-.07-.099-.102-.152-.058-.1-.102-.216-.155-.328-.023-.051-.049-.1-.069-.15a4.222 4.222 0 0 1-.168-.537c-.566-2.39 1.846-4.012 2.481-4.392a14.194 14.194 0 0 1 6.138-1.184c3.141.058 6.206.949 8.869 2.578l-.041.046c-1.386 1.61-3.09 3.686-5.112 6.23zm4.225-1.608a303.508 303.508 0 0 1 2.793-3.419c.383.288.757.59 1.121.906-1.298.874-2.603 1.71-3.914 2.513zm11.791-10.38a9.104 9.104 0 0 1-1.078 1.627 30.725 30.725 0 0 1-2.276 2.627 19.01 19.01 0 0 1-2.853 2.458c-.475.332-.95.66-1.426.985a21.127 21.127 0 0 0-1.182-.964c1.782-2.141 3.254-3.834 4.417-5.078 1.756-1.881 3.042-2.822 3.859-2.822.461 0 .692.182.692.546a1.616 1.616 0 0 1-.153.622zM176.743 18.438c-.328.057-.635.2-.888.412a5.42 5.42 0 0 0-.975.838 14.655 14.655 0 0 0-1.367 1.65c-.038.055-.131.183-.276.382a5.275 5.275 0 0 1-.567.64l.087.143c.078-.019.325-.09.742-.213.58-.19 1.144-.423 1.687-.697a5.855 5.855 0 0 0 1.847-1.394 1.25 1.25 0 0 0 .378-.881.912.912 0 0 0-.233-.612.62.62 0 0 0-.435-.268zM97.705 15.676a28.282 28.282 0 0 0 2.205-2.59 9.427 9.427 0 0 0 1.131-1.767c.077-.2.122-.411.134-.625a.784.784 0 0 0-.266-.624 1.093 1.093 0 0 0-.746-.234 8.251 8.251 0 0 0-4.884 1.963 28.519 28.519 0 0 0-2.219 1.882 25.695 25.695 0 0 0-6.961-.873c-9.989 0-13.22 4.616-13.22 6.851.039.69.281 1.352.697 1.91a3.66 3.66 0 0 0 1.646 1.235c2.179 1.086 5.807 1.41 9.21.796-.716.894-1.471 1.846-2.266 2.856a775.73 775.73 0 0 1-2.529 3.355 1202.516 1202.516 0 0 0-2.529 3.356c-.112.139-.362.464-.736.953a30.406 30.406 0 0 1-1.926 1.96 19.093 19.093 0 0 1-2.914 2.264 5.262 5.262 0 0 1-2.702.963.542.542 0 0 0 0-.247 2.949 2.949 0 0 1 .56-2.173c.39-.71 1.072-1.768 2.049-3.173a54.382 54.382 0 0 1 5.882-7.283l-.08-.13-.85-.026A3.622 3.622 0 0 0 75 26.5a3.56 3.56 0 0 0-1.191.737c-.485.456-.939.943-1.357 1.457.162-.425.252-.873.266-1.327 0-.711-.347-1.067-1.039-1.067a6.657 6.657 0 0 0-2.94.846 16.71 16.71 0 0 0-3.363 2.328 20.963 20.963 0 0 0-2.458 2.538 22.21 22.21 0 0 0-1.215-4.229c3.07-4.613 6.166-8.86 9.289-12.745a54.193 54.193 0 0 1 7.213-7.83l-1.834-.156c-2.822-.086-7.462 3.33-13.92 10.25-.57.572-1.936 2.193-4.1 4.864l-1.223-1.326-.61-.597c2.716-3.59 5.2-6.743 7.451-9.46a40.89 40.89 0 0 1 4.687-5.085l-.134-.26c-.558.083-1.11.205-1.65.365l-.293.077a12.62 12.62 0 0 0-3.26 1.704 26.215 26.215 0 0 0-3.207 2.744c-1.086 1.079-2.658 2.71-4.716 4.897a44.159 44.159 0 0 0-2.262 2.445 26.46 26.46 0 0 0-2.764-1.502c-4.995-2.626-11.265-3.867-18.71-3.632-2.087.094-4.136.332-6.163.618C19.26 14.033.926 19.934.348 7.662l-.315-.116s-1.441 10.91 14.835 8.144c1.505-.281 3.158-.612 4.992-.996 2.76-.578 4.991-1.01 6.693-1.294a42.313 42.313 0 0 1 5.12-.545c3.527-.14 7.058.132 10.52.81a29.391 29.391 0 0 1 8.008 2.816c.926.437 1.824.93 2.69 1.474-.675.746-1.42 1.63-2.237 2.653a201.27 201.27 0 0 0-2.422 3.096l-1.65 2.107c-5.04 6.312-9.782 10.986-14.227 14.02-4.445 3.035-8.786 4.553-13.023 4.553a18.727 18.727 0 0 1-6.747-1.195 10.94 10.94 0 0 1-4.952-3.756 9.924 9.924 0 0 1-2-5.362c-.023-.301-.035-.609-.035-.923a8.846 8.846 0 0 1 2.715-6.204 21.602 21.602 0 0 1 7.226-5.1 20.99 20.99 0 0 1 8.69-1.99c.568 0 1.118.025 1.65.077 1.661.172 3.29.562 4.845 1.158a9.463 9.463 0 0 1 3.633 2.407 5.228 5.228 0 0 1 1.398 3.642v.13a20.567 20.567 0 0 0-7.32-1.04 26.006 26.006 0 0 0-7.76 1.053 13.914 13.914 0 0 0-5.177 2.68c-.519.39-.948.881-1.26 1.444a4.48 4.48 0 0 0-.549 1.82c.008.46.126.912.346 1.319.22.406.534.757.918 1.022a7.836 7.836 0 0 0 3.527 1.38c.898.146 1.806.215 2.715.207a19.852 19.852 0 0 0 6.348-1.066A16.839 16.839 0 0 0 33 33.135a8.061 8.061 0 0 0 2.862-4.228c.106-.572.168-.962.186-1.17a4.833 4.833 0 0 1 2.529 2.314 1.862 1.862 0 0 1-.187.273c-.075.09-.138.191-.186.299a1.689 1.689 0 0 0-.16.729c0 .256.045.511.133.753.06.198.17.377.32.521a.58.58 0 0 0 .292.13.512.512 0 0 0 .32-.182 1.272 1.272 0 0 0 .24-1.014v-.106a2.966 2.966 0 0 0-.266-1.015 5.263 5.263 0 0 0-1.182-1.814 5.407 5.407 0 0 0-1.826-1.203v-.286a5.482 5.482 0 0 0-1.45-3.81 9.851 9.851 0 0 0-3.77-2.51 19.142 19.142 0 0 0-4.977-1.195c-.941-.087-1.793-.13-2.555-.13a20.822 20.822 0 0 0-9.689 2.145 16.604 16.604 0 0 0-6.308 5.333 10.376 10.376 0 0 0-2.05 6.173 10.97 10.97 0 0 0 2.13 6.477 11.781 11.781 0 0 0 5.136 3.837 18.38 18.38 0 0 0 6.79 1.24c4.294 0 8.685-1.526 13.175-4.58 4.49-3.053 9.254-7.753 14.293-14.098 2.644-3.33 4.784-5.957 6.418-7.882l1.198.858c-3.318 4.076-6.201 7.852-8.65 11.329-2.448 3.477-3.673 5.614-3.674 6.412 0 1.388.55 2.195 1.65 2.42.097.02.195.028.293.026.273.007.542-.065.772-.209l.4-.26a40.439 40.439 0 0 0 3.007-3.473c1.774-2.159 4.223-5.18 7.346-9.061l1.677-2.081 1.121-1.353a21.334 21.334 0 0 1 1.694 2.437 127.448 127.448 0 0 0-7.972 12.655 57.845 57.845 0 0 0-2.761 5.722 36.939 36.939 0 0 0-2.788-.108c-11.019 0-15.568 5.033-16.471 8.226a3.32 3.32 0 0 0-.14 1.645c.063.685.355 1.331.832 1.838.476.506 1.11.845 1.804.964a5.45 5.45 0 0 0 1.193.13c3.07 0 6.097-2.489 7.467-5.262l-.272-.128a9.261 9.261 0 0 1-5.121 4.692c-4.145.873-4.878-2.014-4.878-2.014a5.681 5.681 0 0 1 .085-2.704 5.77 5.77 0 0 1 1.33-2.374c2.342-2.432 6.768-4.714 14.171-4.714.923 0 1.812.036 2.674.1a28.145 28.145 0 0 0-1.397 4.38 18.974 18.974 0 0 0-.453 3.983 6.689 6.689 0 0 0 .839 3.655 2.71 2.71 0 0 0 1.05.974c.434.226.921.335 1.412.313a7.528 7.528 0 0 0 4.552-2.08 20.36 20.36 0 0 0 4.671-5.958c.446-.814.847-1.651 1.201-2.508.788.283 1.565.57 2.338.856 4.75 1.763 9.661 3.585 16.047 3.585 13.15 0 22.364-7.449 25.663-14.836 2.668-5.974 1.768-11.959-2.469-16.428a23.547 23.547 0 0 0-4.954-4.11zm-64.997 16.17a24.076 24.076 0 0 1-6.388 3.511c-2.03.834-4.2 1.302-6.401 1.38a7.092 7.092 0 0 1-1.33-.1 7.952 7.952 0 0 1-3.38-1.288 2.645 2.645 0 0 1-.865-.916 2.576 2.576 0 0 1-.334-1.204c.053-.608.237-1.199.54-1.733.302-.534.717-1 1.216-1.367a13.583 13.583 0 0 1 5.044-2.576 25.92 25.92 0 0 1 7.626-1.015 19.696 19.696 0 0 1 7.293 1.04c-.2 1.423-1.208 2.846-3.025 4.267h.004zM53.452 17.85a62.632 62.632 0 0 1 2.182-2.42 271.395 271.395 0 0 1 4.258-4.448 32.217 32.217 0 0 1 2.955-2.666 13.149 13.149 0 0 1 2.875-1.754 56.308 56.308 0 0 0-4.789 4.812 176.341 176.341 0 0 0-6.281 7.335 16.268 16.268 0 0 0-1.2-.859zm3.54 5.983-3.247 4.033c-2.059 2.55-3.984 4.925-5.775 7.128a41.832 41.832 0 0 1-2.93 3.43.406.406 0 0 1-.239.1c-.088 0-.133-.07-.133-.209.075-.504.237-.992.479-1.444.326-.712.7-1.403 1.12-2.068 1.065-1.716 2.488-3.84 4.272-6.372a292.07 292.07 0 0 1 5.762-7.882l.611.598c.39.382.79.815 1.198 1.3l-1.118 1.386zm40.722-12.239a4.408 4.408 0 0 1 2.423-1.443c.461 0 .691.182.691.546-.01.217-.064.429-.16.625a9.071 9.071 0 0 1-1.078 1.626 30.461 30.461 0 0 1-2.198 2.544 18.378 18.378 0 0 0-2.361-1.14 40.409 40.409 0 0 1 2.683-2.758zm-3.553 3.746c.224-.26.442-.509.658-.752.812.318 1.6.694 2.357 1.125a18.922 18.922 0 0 1-2.709 2.32 87.823 87.823 0 0 1-5.562 3.668c2.18-2.706 3.931-4.826 5.255-6.36zm-14.338 8.24c-3.925-.445-5.105-1.324-5.659-3.233a4.48 4.48 0 0 1 .094-2.468 4.574 4.574 0 0 1 1.392-2.061c1.978-1.479 5.291-2.712 10.448-2.712 2.263-.026 4.519.25 6.706.818a45.208 45.208 0 0 0-2.97 3.133c-1.364 1.576-3.068 3.64-5.113 6.193-1.61.32-3.257.431-4.898.33zM63.29 35.835a59.123 59.123 0 0 1 1.978-2.876 31.73 31.73 0 0 1 2.623-3.086 31.3 31.3 0 0 1 2.502-2.354 5.39 5.39 0 0 1 1.264-.91c.479 0 .718.26.718.78a5.84 5.84 0 0 1-.878 2.472l-2.236 2.966a21.63 21.63 0 0 0-1.436 2.062 20.356 20.356 0 0 1-3.473 3.265c-.379.272-.78.514-1.199.724.098-.867.148-1.738.148-2.61-.001-.144-.008-.286-.011-.433zm-.315.498a21.865 21.865 0 0 1-.192 2.704 3.293 3.293 0 0 1-1.213.269c-.142 0-.07-.295.213-.885.361-.715.759-1.412 1.192-2.088zM58.562 22.45c2.182-2.687 3.522-4.309 4.019-4.864 6.032-6.468 10.46-9.876 13.281-10.223-1.526.867-3.753 2.948-6.68 6.243a134.927 134.927 0 0 0-8.917 11.29 21.412 21.412 0 0 0-1.703-2.442v-.004zm1.025 26.508a20.075 20.075 0 0 1-4.525 5.827 7.2 7.2 0 0 1-4.38 2.029 2.55 2.55 0 0 1-.612-.052 1.613 1.613 0 0 1-1.025-.52 1.64 1.64 0 0 1-.305-1.041c.007-.417.065-.832.173-1.236.115-.46.306-1.15.573-2.068l.559-1.847a40.199 40.199 0 0 1 2.2-5.848 47.464 47.464 0 0 1 8.517 2.29 24.865 24.865 0 0 1-1.175 2.47v-.004zm1.288-2.741a47.864 47.864 0 0 0-8.5-2.295 75.034 75.034 0 0 1 1.875-3.769c2.038-3.84 4.451-7.85 7.24-12.03a21.06 21.06 0 0 1 1.171 4.215c-.116.148-.235.29-.347.441-1.686 2.257-2.529 4.008-2.529 5.254-.02.235.015.471.1.692.085.22.219.42.392.583.337.28.77.429 1.212.416a3.45 3.45 0 0 0 1.228-.258c-.034.225-.068.45-.11.674a31.859 31.859 0 0 1-1.732 6.08v-.003zm44.079-12.32C102.266 44.13 93.398 47.69 88.27 49.54a31.865 31.865 0 0 1-8.803 1.211c-6.33 0-11.003-1.732-15.94-3.565-.77-.286-1.546-.573-2.33-.855.8-2.01 1.398-4.093 1.784-6.218.047-.268.086-.54.122-.814a8.1 8.1 0 0 0 .956-.539 18.661 18.661 0 0 0 3.1-2.627 4.515 4.515 0 0 0-.479 1.847c0 1.161.719 1.742 2.156 1.742a5.5 5.5 0 0 0 2.86-1.027 19.804 19.804 0 0 0 3.015-2.377l-.606.802-1.783 2.341h2.715l2.445-3.485a42.032 42.032 0 0 1 2.422-2.718 58.933 58.933 0 0 1 2.901-2.823c.487-.2.984-.374 1.49-.52.388-.133.79-.22 1.199-.26.354 0 .532.14.533.417a1.218 1.218 0 0 1-.306.663c-.324.4-.675.777-1.051 1.131a30.723 30.723 0 0 0-2.395 2.757 7.01 7.01 0 0 0-1.146 1.912 4.724 4.724 0 0 0-.346 1.626 1.34 1.34 0 0 0 .118.65c.093.204.235.383.415.52a2.64 2.64 0 0 0 1.57.391c1.065 0 2.378-.659 3.94-1.976a39.262 39.262 0 0 0 2.037-1.848 4.616 4.616 0 0 0-.223 1.354c-.028.336.02.673.14.99.122.315.312.6.558.837.247.235.543.415.868.527.326.111.672.151 1.015.117a7.739 7.739 0 0 0 4.01-1.583 23.437 23.437 0 0 0 4.75-4.37h-.399a20.024 20.024 0 0 1-4.482 4.07 7.677 7.677 0 0 1-3.871 1.47c-.497 0-.745-.278-.745-.833a4.913 4.913 0 0 1 .611-2.002 17.19 17.19 0 0 1 1.756-2.757l.745-.989c1.105-.337 2.166-.799 3.162-1.375a17.867 17.867 0 0 0 2.74-1.892 4.76 4.76 0 0 0 1.411-1.678c.076-.2.121-.41.133-.624a.78.78 0 0 0-.266-.624 1.09 1.09 0 0 0-.745-.235 8.352 8.352 0 0 0-4.698 1.925 25.174 25.174 0 0 0-5.15 5.228 8.227 8.227 0 0 0-1.02 1.66 35.266 35.266 0 0 1-2.615 2.399 6.314 6.314 0 0 1-3.66 1.792 2.045 2.045 0 0 1-.052-.755c0-.796.594-2.036 1.783-3.72l1.144-1.326 1.144-1.326c.459-.487.74-1.109.799-1.768 0-.365-.253-.634-.76-.807a4.277 4.277 0 0 0-1.37-.26 6.867 6.867 0 0 0-2.129.519 20.424 20.424 0 0 1 3.088-2.263c.692-.365 1.215-.62 1.57-.768a2.7 2.7 0 0 1 1.038-.22.642.642 0 0 1 .519.156.614.614 0 0 1 .2.493 1.71 1.71 0 0 0-.533.078 2.2 2.2 0 0 0-.945.65 1.38 1.38 0 0 0-.412.884c0 .278.15.416.452.416a1.658 1.658 0 0 0 1.064-.637c.362-.342.612-.78.719-1.261v-.157c-.018-.624-.364-.936-1.038-.937a3.487 3.487 0 0 0-1.265.221c-.507.208-1 .447-1.477.715a25.378 25.378 0 0 0-3.859 2.987h-.026l-.027.052a49.608 49.608 0 0 0-2.742 2.68c1.171-1.457 1.864-2.306 2.077-2.55l5.27-6.502 1.12-1.38a73.348 73.348 0 0 0 6.441-4.187 20.65 20.65 0 0 0 2.812-2.446c.09.053.178.108.267.162 2.162 1.536 9.842 7.768 7.193 17.851l.001-.004zm-11.019-1.614a33.234 33.234 0 0 1 3.74-4.115c1.145-1.031 1.921-1.547 2.329-1.547.461 0 .692.182.692.547a1.617 1.617 0 0 1-.16.624 4.515 4.515 0 0 1-1.223 1.394 17.868 17.868 0 0 1-2.462 1.742 14.908 14.908 0 0 1-2.917 1.36l.001-.005z" fill="#FEE3A1"/>
</svg>
