<svg width="32" height="24" viewBox="0 0 32 24" fill="none" xmlns="http://www.w3.org/2000/svg">
    <g filter="url(#e77btkeoba)">
        <rect x="5.215" y="2.813" width="22.313" height="14.375" rx="2.575" fill="#006FCF"/>
        <path fill-rule="evenodd" clip-rule="evenodd" d="M27.537 5.415H25.69l-.965 2.77-1.008-2.77H21.83V9.73l-1.931-4.314h-1.553l-1.931 4.408h1.343l.378-.882h2.015l.377.882h2.519V6.758l1.133 3.065h1.05l1.133-3.065v3.065h1.175v.671h-1.553l-1.26 1.385-1.3-1.385h-5.331v4.408h5.289l1.3-1.428 1.302 1.428h1.553v.545H25.69l-1.007-1.091-1.008 1.091h-6.254V10.41h-2.014l2.518-5.666h2.434l.882 1.93v-1.93h3.022l.504 1.469.504-1.47h2.266v.672zm0 6.045-1.133 1.217 1.133 1.217v1.008l-2.057-2.225 2.057-2.183v.966zM21.83 14.9v-1.049H19.31v-.671h2.477v-1.008H19.31v-.671h2.519v-1.008l2.098 2.183-2.098 2.225zm-3.316-6.925.587-1.427.588 1.427h-1.175z" fill="#fff"/>
        <rect x="5.162" y="2.759" width="22.421" height="14.482" rx="2.628" stroke="#D6DCE5" stroke-width=".107"/>
    </g>
    <defs>
        <filter id="e77btkeoba" x=".817" y=".56" width="31.11" height="23.172" filterUnits="userSpaceOnUse" color-interpolation-filters="sRGB">
            <feFlood flood-opacity="0" result="BackgroundImageFix"/>
            <feColorMatrix in="SourceAlpha" values="0 0 0 0 0 0 0 0 0 0 0 0 0 0 0 0 0 0 127 0" result="hardAlpha"/>
            <feOffset dy=".215"/>
            <feGaussianBlur stdDeviation="1.073"/>
            <feColorMatrix values="0 0 0 0 0.717647 0 0 0 0 0.717647 0 0 0 0 0.717647 0 0 0 0.08 0"/>
            <feBlend in2="BackgroundImageFix" result="effect1_dropShadow_751_4694"/>
            <feColorMatrix in="SourceAlpha" values="0 0 0 0 0 0 0 0 0 0 0 0 0 0 0 0 0 0 127 0" result="hardAlpha"/>
            <feOffset dy="2.146"/>
            <feGaussianBlur stdDeviation="2.146"/>
            <feColorMatrix values="0 0 0 0 0.717647 0 0 0 0 0.717647 0 0 0 0 0.717647 0 0 0 0.08 0"/>
            <feBlend in2="effect1_dropShadow_751_4694" result="effect2_dropShadow_751_4694"/>
            <feBlend in="SourceGraphic" in2="effect2_dropShadow_751_4694" result="shape"/>
        </filter>
    </defs>
</svg>
