<svg width="36" height="16" viewBox="0 0 36 16" fill="none" xmlns="http://www.w3.org/2000/svg">
    <path d="M6.683 2.198c.416-.521.699-1.22.624-1.935-.61.03-1.353.402-1.783.923-.387.447-.73 1.175-.64 1.86.684.059 1.368-.342 1.799-.848zM7.3 3.18c-.994-.06-1.839.563-2.313.563-.475 0-1.201-.534-1.987-.52-1.023.015-1.972.594-2.49 1.513-1.068 1.84-.283 4.57.755 6.068.505.742 1.112 1.558 1.913 1.528.756-.03 1.053-.49 1.972-.49s1.186.49 1.986.476c.83-.015 1.35-.742 1.854-1.484.578-.845.815-1.661.83-1.706-.015-.015-1.601-.623-1.616-2.448C8.19 5.152 9.45 4.425 9.51 4.38c-.712-1.052-1.824-1.171-2.21-1.2zM15.95 1.112c2.16 0 3.663 1.488 3.663 3.655 0 2.175-1.535 3.671-3.717 3.671h-2.391v3.802h-1.727V1.112h4.172zm-2.445 5.876h1.982c1.504 0 2.36-.81 2.36-2.213 0-1.404-.856-2.206-2.352-2.206h-1.99v4.42zM20.064 9.934c0-1.419 1.087-2.29 3.016-2.398l2.22-.131V6.78c0-.902-.609-1.442-1.627-1.442-.964 0-1.565.462-1.712 1.188h-1.573c.093-1.466 1.342-2.546 3.347-2.546 1.967 0 3.224 1.042 3.224 2.669v5.591h-1.597v-1.334h-.038c-.47.902-1.496 1.473-2.56 1.473-1.59 0-2.7-.987-2.7-2.445zm5.236-.732v-.64l-1.997.123c-.995.07-1.558.509-1.558 1.203 0 .71.586 1.172 1.481 1.172 1.165 0 2.075-.802 2.075-1.858zM28.466 15.225v-1.35c.123.03.4.03.54.03.77 0 1.187-.323 1.441-1.156 0-.015.147-.494.147-.501l-2.93-8.121h1.804l2.052 6.602h.03l2.052-6.602h1.758l-3.039 8.537c-.693 1.967-1.495 2.6-3.177 2.6-.139 0-.555-.016-.678-.04z" fill="#000008"/>
</svg>
