<svg width="24" height="26" viewBox="0 0 24 26" fill="none" xmlns="http://www.w3.org/2000/svg">
    <path d="M22.312 8.868c-.12.073-2.978 1.601-2.978 4.99.135 3.864 3.607 5.22 3.666 5.22-.06.072-.524 1.846-1.9 3.705C20.007 24.385 18.795 26 16.954 26c-1.75 0-2.38-1.067-4.4-1.067-2.17 0-2.783 1.067-4.445 1.067-1.84 0-3.142-1.701-4.294-3.288-1.496-2.077-2.768-5.336-2.813-8.465-.03-1.658.3-3.288 1.137-4.672C3.321 7.642 5.431 6.33 7.736 6.287c1.765-.058 3.337 1.168 4.414 1.168 1.033 0 2.964-1.168 5.148-1.168.943 0 3.457.274 5.014 2.581zM12 5.955c-.314-1.514.553-3.028 1.362-3.994C14.395.793 16.026 0 17.433 0c.09 1.514-.48 3-1.497 4.081-.912 1.168-2.484 2.047-3.935 1.874z" fill="#000"/>
</svg>
