<svg width="16" height="16" viewBox="0 0 16 16" fill="none" xmlns="http://www.w3.org/2000/svg">
    <g clip-path="url(#yh5mlb2p5a)">
        <path d="M11.333 6.693a4.672 4.672 0 0 0-4.666 4.666C6.667 13.918 8.76 16 11.333 16A4.672 4.672 0 0 0 16 11.333c0-2.558-2.094-4.64-4.667-4.64zm0 7.974C9.495 14.667 8 13.183 8 11.359a3.337 3.337 0 0 1 3.333-3.333c1.838 0 3.334 1.484 3.334 3.307a3.337 3.337 0 0 1-3.334 3.334zm1.138-3.138a.666.666 0 1 1-.942.942l-.667-.666a.666.666 0 0 1-.195-.472V10A.666.666 0 1 1 12 10v1.057l.471.472zM16 4.667V6a.666.666 0 1 1-1.333 0V4.667c0-1.103-.898-2-2-2H3.333c-1.102 0-2 .897-2 2v.666h6a.667.667 0 0 1 0 1.334h-6v6c0 1.102.898 2 2 2H6A.667.667 0 0 1 6 16H3.333A3.337 3.337 0 0 1 0 12.667v-8a3.337 3.337 0 0 1 3.333-3.334H4V.667a.667.667 0 0 1 1.333 0v.666h5.334V.667a.666.666 0 1 1 1.333 0v.666h.667A3.337 3.337 0 0 1 16 4.667z" fill="#7B6C96"/>
    </g>
    <defs>
        <clipPath id="yh5mlb2p5a">
            <path fill="#fff" d="M0 0h16v16H0z"/>
        </clipPath>
    </defs>
</svg>
