<svg width="16" height="16" viewBox="0 0 16 16" fill="none" xmlns="http://www.w3.org/2000/svg">
    <g clip-path="url(#3117lwchta)">
        <path d="M12.667 1.333H12V.667a.666.666 0 1 0-1.333 0v.666H5.333V.667A.666.666 0 1 0 4 .667v.666h-.667A3.337 3.337 0 0 0 0 4.667v8A3.337 3.337 0 0 0 3.333 16h9.334A3.337 3.337 0 0 0 16 12.667v-8a3.337 3.337 0 0 0-3.333-3.334zM3.333 2.667h9.334c1.102 0 2 .897 2 2v.666H1.333v-.666c0-1.103.898-2 2-2zm9.334 12H3.333c-1.102 0-2-.898-2-2v-6h13.334v6c0 1.102-.898 2-2 2zm-.779-5.899a.667.667 0 0 1-.017.943l-3.16 3.045a1.98 1.98 0 0 1-1.405.577 1.985 1.985 0 0 1-1.414-.586l-1.501-1.394a.667.667 0 0 1 .907-.977l1.519 1.411a.672.672 0 0 0 .959.018l3.17-3.055a.667.667 0 0 1 .942.017v.001z" fill="#7B6C96"/>
    </g>
    <defs>
        <clipPath id="3117lwchta">
            <path fill="#fff" d="M0 0h16v16H0z"/>
        </clipPath>
    </defs>
</svg>
