<svg width="20" height="20" viewBox="0 0 20 20" fill="none" xmlns="http://www.w3.org/2000/svg">
    <rect width="20" height="20" rx="10" fill="#fff"/>
    <path fill-rule="evenodd" clip-rule="evenodd" d="M16.17 10.148c0-.461-.041-.904-.118-1.33H9.93v2.515h3.498a2.99 2.99 0 0 1-1.297 1.961v1.631h2.101c1.23-1.131 1.938-2.798 1.938-4.777z" fill="#4285F4"/>
    <path fill-rule="evenodd" clip-rule="evenodd" d="M9.93 16.5c1.755 0 3.227-.582 4.302-1.575l-2.1-1.63c-.583.39-1.327.62-2.202.62-1.693 0-3.126-1.144-3.637-2.68H4.122v1.684a6.498 6.498 0 0 0 5.808 3.58z" fill="#34A853"/>
    <path fill-rule="evenodd" clip-rule="evenodd" d="M6.293 11.235A3.907 3.907 0 0 1 6.09 10c0-.428.074-.845.204-1.235V7.081H4.122a6.497 6.497 0 0 0 0 5.838l2.171-1.684z" fill="#FBBC05"/>
    <path fill-rule="evenodd" clip-rule="evenodd" d="M9.93 6.085c.954 0 1.811.328 2.485.972l1.864-1.864C13.154 4.144 11.682 3.5 9.93 3.5a6.498 6.498 0 0 0-5.808 3.58l2.171 1.685c.511-1.536 1.944-2.68 3.637-2.68z" fill="#EA4335"/>
</svg>
