<svg width="23" height="14" viewBox="0 0 23 14" fill="none" xmlns="http://www.w3.org/2000/svg">
    <path fill-rule="evenodd" clip-rule="evenodd" d="M11.483 12.102a6.805 6.805 0 0 1-4.4 1.6c-3.747 0-6.784-3-6.784-6.702S3.336.297 7.083.297c1.679 0 3.215.603 4.4 1.601a6.805 6.805 0 0 1 4.4-1.601c3.746 0 6.784 3 6.784 6.703 0 3.702-3.038 6.703-6.784 6.703a6.806 6.806 0 0 1-4.4-1.601z" fill="#ED0006"/>
    <path fill-rule="evenodd" clip-rule="evenodd" d="M11.483 12.102A6.656 6.656 0 0 0 13.866 7a6.656 6.656 0 0 0-2.383-5.102 6.805 6.805 0 0 1 4.4-1.601c3.747 0 6.784 3 6.784 6.703 0 3.702-3.037 6.703-6.784 6.703a6.805 6.805 0 0 1-4.4-1.601z" fill="#F9A000"/>
    <path fill-rule="evenodd" clip-rule="evenodd" d="M11.483 12.102A6.656 6.656 0 0 0 13.866 7a6.656 6.656 0 0 0-2.383-5.102A6.656 6.656 0 0 0 9.099 7c0 2.043.925 3.872 2.384 5.102z" fill="#FF5E00"/>
</svg>
