<svg width="24" height="26" viewBox="0 0 24 26" fill="none" xmlns="http://www.w3.org/2000/svg">
<g clip-path="url(#clip0_1543_2981)">
<path d="M7.37646 5.29392C7.37646 4.06756 7.86363 2.89143 8.7308 2.02426C9.59797 1.15709 10.7741 0.669922 12.0005 0.669922C13.2268 0.669922 14.403 1.15709 15.2701 2.02426C16.1373 2.89143 16.6245 4.06756 16.6245 5.29392V12.9999C16.6245 14.2263 16.1373 15.4024 15.2701 16.2696C14.403 17.1368 13.2268 17.6239 12.0005 17.6239C10.7741 17.6239 9.59797 17.1368 8.7308 16.2696C7.86363 15.4024 7.37646 14.2263 7.37646 12.9999V5.29392Z" fill="#EA2121"/>
<path d="M5.06446 10.6875C5.26894 10.6875 5.46505 10.7687 5.60964 10.9133C5.75423 11.0579 5.83546 11.254 5.83546 11.4585V12.9995C5.83546 14.6346 6.48498 16.2027 7.64114 17.3588C8.79731 18.515 10.3654 19.1645 12.0005 19.1645C13.6355 19.1645 15.2036 18.515 16.3598 17.3588C17.5159 16.2027 18.1655 14.6346 18.1655 12.9995V11.4585C18.1726 11.259 18.257 11.07 18.4007 10.9314C18.5444 10.7927 18.7363 10.7153 18.936 10.7153C19.1356 10.7153 19.3275 10.7927 19.4712 10.9314C19.6149 11.07 19.6993 11.259 19.7065 11.4585V12.9995C19.7066 14.91 18.997 16.7525 17.7154 18.1694C16.4337 19.5863 14.6714 20.4766 12.7705 20.6675V23.7875H17.3935C17.497 23.7838 17.6002 23.8009 17.6969 23.838C17.7937 23.875 17.8819 23.9312 17.9565 24.0031C18.031 24.075 18.0903 24.1612 18.1308 24.2565C18.1713 24.3519 18.1922 24.4544 18.1922 24.558C18.1922 24.6616 18.1713 24.7641 18.1308 24.8595C18.0903 24.9548 18.031 25.041 17.9565 25.1129C17.8819 25.1848 17.7937 25.241 17.6969 25.278C17.6002 25.3151 17.497 25.3322 17.3935 25.3285H6.60546C6.50194 25.3322 6.39873 25.3151 6.30199 25.278C6.20526 25.241 6.11697 25.1848 6.04242 25.1129C5.96787 25.041 5.90857 24.9548 5.86807 24.8595C5.82757 24.7641 5.80669 24.6616 5.80669 24.558C5.80669 24.4544 5.82757 24.3519 5.86807 24.2565C5.90857 24.1612 5.96787 24.075 6.04242 24.0031C6.11697 23.9312 6.20526 23.875 6.30199 23.838C6.39873 23.8009 6.50194 23.7838 6.60546 23.7875H11.2295V20.6675C9.32847 20.4766 7.56618 19.5863 6.28455 18.1694C5.00291 16.7525 4.29332 14.91 4.29346 12.9995V11.4585C4.29346 11.254 4.37469 11.0579 4.51928 10.9133C4.66387 10.7687 4.85998 10.6875 5.06446 10.6875Z" fill="#EA2121"/>
</g>
<defs>
<clipPath id="clip0_1543_2981">
<rect width="24" height="24.6595" fill="white" transform="translate(0 0.669922)"/>
</clipPath>
</defs>
</svg>
