<svg width="20" height="20" viewBox="0 0 20 20" fill="none" xmlns="http://www.w3.org/2000/svg">
    <path d="M11.875 9.375h-1.25v-5h.625a2.5 2.5 0 0 1 2.5 2.5.625.625 0 1 0 1.25 0 3.754 3.754 0 0 0-3.75-3.75h-.625v-1.25a.625.625 0 1 0-1.25 0v1.25H8.75a3.75 3.75 0 0 0 0 7.5h.625v5h-1.25a2.5 2.5 0 0 1-2.5-2.5.625.625 0 1 0-1.25 0 3.754 3.754 0 0 0 3.75 3.75h1.25v1.25a.625.625 0 1 0 1.25 0v-1.25h1.25a3.75 3.75 0 0 0 0-7.5zm-3.125 0a2.5 2.5 0 1 1 0-5h.625v5H8.75zm3.125 6.25h-1.25v-5h1.25a2.5 2.5 0 0 1 0 5z" fill="#7B6C96"/>
</svg>
