<svg width="37" height="47" viewBox="0 0 37 47" fill="none" xmlns="http://www.w3.org/2000/svg">
    <g clip-path="url(#tqvufrybsa)" fill="#EA2121">
        <path d="m18.5 46.771-.42-.122c-.191-.056-4.727-1.422-9.215-6.608-2.593-2.997-4.654-6.67-6.127-10.916C.921 23.883 0 17.742 0 10.872V9.465l1.404-.09c.023-.002 2.534-.182 5.762-1.25 2.924-.97 7.067-2.893 10.192-6.558L18.5.23l1.142 1.338c6.047 7.09 15.855 7.8 15.953 7.807l1.404.091v1.407c0 6.87-.92 13.01-2.738 18.253-1.473 4.247-3.534 7.92-6.127 10.916-4.488 5.186-9.024 6.552-9.215 6.608l-.42.122zM3.014 12.203c.206 10.93 2.955 19.8 7.982 25.71 3.168 3.725 6.373 5.247 7.504 5.699 1.125-.45 4.333-1.97 7.503-5.698 5.027-5.912 7.776-14.782 7.982-25.71a31.208 31.208 0 0 1-5.005-1.2c-4.15-1.361-7.74-3.507-10.48-6.252-2.74 2.745-6.33 4.89-10.48 6.251a31.305 31.305 0 0 1-5.005 1.2z"/>
        <path d="M24.597 21.671h-1.254v-1.407a4.81 4.81 0 0 0-1.419-3.425 4.844 4.844 0 0 0-1.57-1.053 4.842 4.842 0 0 0-1.854-.366c-.646 0-1.274.126-1.854.366-.58.241-1.112.595-1.57 1.053a4.81 4.81 0 0 0-1.419 3.425v1.407h-1.254c-.652 0-1.183.531-1.183 1.183v8.29c0 .651.531 1.182 1.183 1.182h12.195c.652 0 1.183-.53 1.183-1.183v-8.29c0-.652-.53-1.182-1.183-1.182zM18.5 29.857h-1.27l.745-3.788-.05-.051a.813.813 0 1 1 1.152 0l-.051.05.744 3.789H18.5zm3.49-8.186h-6.98v-1.407c0-.932.363-1.81 1.022-2.468a3.466 3.466 0 0 1 2.468-1.023c.931 0 1.808.364 2.467 1.023a3.466 3.466 0 0 1 1.023 2.468v1.407z"/>
    </g>
    <defs>
        <clipPath id="tqvufrybsa">
            <path fill="#fff" transform="translate(0 .229)" d="M0 0h37v46.543H0z"/>
        </clipPath>
    </defs>
</svg>
