<svg xmlns="http://www.w3.org/2000/svg" width="16.5" height="16.5" viewBox="0 0 16.5 16.5">
    <path data-name="Path 7143" d="M.254.1a.575.575 0 0 0-.248.591l2.357 14.142a.58.58 0 0 0 .295.414.565.565 0 0 0 .285.074.62.62 0 0 0 .221-.046l4.171-1.7 2.228 2.716a.542.542 0 0 0 .451.212.5.5 0 0 0 .2-.037.589.589 0 0 0 .387-.552V12.7L2.648 2.946l9.843 8.517 3.637-1.492a.583.583 0 0 0 .074-1.05L.88.083A.563.563 0 0 0 .586 0a.572.572 0 0 0-.332.1z" transform="translate(.003)" style="fill:#cf0036"/>
</svg>
