<svg width="72" height="29" viewBox="0 0 72 29" fill="none" xmlns="http://www.w3.org/2000/svg">
    <path fill-rule="evenodd" clip-rule="evenodd" d="m38.088 5.068-4.06.88v-3.32l4.06-.863v3.303zm8.441 1.84c-1.584 0-2.603.748-3.17 1.27l-.21-1.01h-3.557v18.977l4.043-.863.016-4.606c.582.424 1.44 1.026 2.862 1.026 2.895 0 5.531-2.344 5.531-7.503-.016-4.72-2.684-7.291-5.514-7.291zm-.97 11.213c-.954 0-1.52-.341-1.908-.764l-.016-6.038c.42-.472 1.002-.798 1.924-.798 1.472 0 2.49 1.66 2.49 3.792 0 2.181-1.002 3.809-2.49 3.809zm19.23-3.76c0-4.166-2.006-7.453-5.839-7.453-3.849 0-6.178 3.287-6.178 7.421 0 4.899 2.75 7.373 6.696 7.373 1.924 0 3.38-.44 4.48-1.058v-3.255c-1.1.553-2.362.895-3.963.895-1.569 0-2.96-.553-3.137-2.474h7.908c0-.09.006-.293.012-.528.01-.32.02-.696.02-.92zm-7.99-1.546c0-1.838 1.116-2.604 2.135-2.604.986 0 2.038.765 2.038 2.604h-4.173zm-22.77-5.63h4.059v14.24h-4.06V7.185zm-4.61 0 .26 1.203c.954-1.757 2.846-1.4 3.363-1.204v3.743c-.5-.179-2.118-.406-3.072.847v9.65h-4.043V7.185h3.493zm-7.827-3.533-3.946.847-.016 13.036c0 2.409 1.795 4.183 4.189 4.183 1.326 0 2.296-.245 2.83-.538v-3.303c-.518.211-3.073.96-3.073-1.449v-5.777h3.073V7.184h-3.073l.016-3.532zm-9.557 6.787c-.857 0-1.375.244-1.375.879 0 .693.891.998 1.996 1.376 1.801.616 4.172 1.428 4.182 4.434 0 2.913-2.313 4.59-5.676 4.59-1.391 0-2.911-.277-4.415-.928v-3.874c1.358.749 3.072 1.302 4.415 1.302.905 0 1.552-.244 1.552-.992 0-.768-.965-1.119-2.13-1.543-1.776-.645-4.015-1.458-4.015-4.17 0-2.88 2.183-4.606 5.466-4.606 1.342 0 2.668.212 4.01.749v3.824c-1.228-.667-2.78-1.041-4.01-1.041z" fill="#6461FC"/>
</svg>
