<svg width="40" height="41" viewBox="0 0 40 41" fill="none" xmlns="http://www.w3.org/2000/svg">
<path d="M31.6667 7.16666H29.25C29.051 6.55885 28.7401 5.99359 28.3334 5.49999C27.8618 4.97272 27.2837 4.55152 26.6372 4.26421C25.9908 3.97691 25.2908 3.83005 24.5834 3.83332H15.45C14.737 3.8253 14.0306 3.96987 13.3781 4.25732C12.7255 4.54478 12.142 4.96848 11.6667 5.49999C11.2481 5.99091 10.9258 6.55634 10.7167 7.16666H8.33337C7.00729 7.16666 5.73552 7.69344 4.79784 8.63112C3.86016 9.56881 3.33337 10.8406 3.33337 12.1667V32.1667C3.33337 33.4927 3.86016 34.7645 4.79784 35.7022C5.73552 36.6399 7.00729 37.1667 8.33337 37.1667H31.6667C32.9928 37.1667 34.2646 36.6399 35.2022 35.7022C36.1399 34.7645 36.6667 33.4927 36.6667 32.1667V12.1667C36.6667 10.8406 36.1399 9.56881 35.2022 8.63112C34.2646 7.69344 32.9928 7.16666 31.6667 7.16666ZM14.2 7.73332C14.3562 7.55554 14.5485 7.41306 14.764 7.31535C14.9795 7.21765 15.2134 7.16696 15.45 7.16666H24.55C24.7867 7.16696 25.0205 7.21765 25.2361 7.31535C25.4516 7.41306 25.6439 7.55554 25.8 7.73332C25.9573 7.90832 26.0758 8.11464 26.1476 8.33871C26.2194 8.56277 26.243 8.7995 26.2167 9.03332L25.3834 15.7C25.3342 16.1065 25.1372 16.4807 24.8298 16.7512C24.5224 17.0217 24.1262 17.1696 23.7167 17.1667H20.9834L22.8834 13.1667C23.0374 12.7744 23.0372 12.3383 22.8827 11.9463C22.7281 11.5542 22.4308 11.2352 22.0506 11.0535C21.6703 10.8719 21.2354 10.841 20.8332 10.9671C20.4311 11.0932 20.0917 11.367 19.8834 11.7333L17.2834 17.1667H16.2834C15.8739 17.1696 15.4777 17.0217 15.1703 16.7512C14.8629 16.4807 14.6658 16.1065 14.6167 15.7L13.7834 9.03332C13.7571 8.7995 13.7807 8.56277 13.8525 8.33871C13.9243 8.11464 14.0428 7.90832 14.2 7.73332ZM33.3334 32.1667C33.3334 32.6087 33.1578 33.0326 32.8452 33.3452C32.5327 33.6577 32.1087 33.8333 31.6667 33.8333H8.33337C7.89135 33.8333 7.46742 33.6577 7.15486 33.3452C6.8423 33.0326 6.66671 32.6087 6.66671 32.1667V12.1667C6.66671 11.7246 6.8423 11.3007 7.15486 10.9881C7.46742 10.6756 7.89135 10.5 8.33337 10.5H10.6167L11.3167 16.1167C11.4679 17.3332 12.0607 18.4518 12.9825 19.2599C13.9043 20.068 15.0909 20.5093 16.3167 20.5H23.75C24.9759 20.5093 26.1625 20.068 27.0843 19.2599C28.0061 18.4518 28.5989 17.3332 28.75 16.1167L29.3834 10.5H31.6667C32.1087 10.5 32.5327 10.6756 32.8452 10.9881C33.1578 11.3007 33.3334 11.7246 33.3334 12.1667V32.1667ZM23.3334 27.1667H16.6667C16.2247 27.1667 15.8008 27.3423 15.4882 27.6548C15.1756 27.9674 15 28.3913 15 28.8333C15 29.2754 15.1756 29.6993 15.4882 30.0118C15.8008 30.3244 16.2247 30.5 16.6667 30.5H23.3334C23.7754 30.5 24.1993 30.3244 24.5119 30.0118C24.8244 29.6993 25 29.2754 25 28.8333C25 28.3913 24.8244 27.9674 24.5119 27.6548C24.1993 27.3423 23.7754 27.1667 23.3334 27.1667Z" fill="#CF0036"/>
</svg>
