<svg width="24" height="24" viewBox="0 0 24 24" fill="none" xmlns="http://www.w3.org/2000/svg">
    <path fill-rule="evenodd" clip-rule="evenodd" d="M4.691 18.116h7.818a2.89 2.89 0 0 0 2.887-2.888V8.752a2.871 2.871 0 0 0-2.868-2.868H4.694a2.89 2.89 0 0 0-2.887 2.888v6.456a2.891 2.891 0 0 0 2.884 2.888zm15.59-.78c.174.077.362.117.552.117l.001.006a1.359 1.359 0 0 0 1.359-1.359V7.914a1.358 1.358 0 0 0-1.911-1.242.67.67 0 0 0-.115.065l-3.513 2.469a1.358 1.358 0 0 0-.576 1.11v3.375a1.357 1.357 0 0 0 .576 1.11l3.512 2.47a.666.666 0 0 0 .115.064z" fill="#7B6C96"/>
</svg>
