<svg width="37" height="10" viewBox="0 0 37 10" fill="none" xmlns="http://www.w3.org/2000/svg">
    <path d="m18.138.171-2.37 9.683h-2.864l2.37-9.683h2.864zm12.053 6.253L31.7 2.787l.868 3.637H30.19zm3.197 3.43h2.65L33.725.171H31.28c-.55 0-1.013.28-1.22.71l-4.298 8.973h3.009l.597-1.446h3.676l.345 1.446zM25.91 6.693c.012-2.556-4.043-2.697-4.014-3.838.008-.348.387-.717 1.215-.812.41-.047 1.541-.083 2.825.434l.502-2.053a8.683 8.683 0 0 0-2.68-.43c-2.831 0-4.824 1.316-4.841 3.201C18.9 4.59 20.34 5.367 21.426 5.83c1.116.475 1.491.78 1.486 1.204-.007.65-.89.936-1.714.947-1.44.02-2.276-.34-2.943-.611l-.519 2.122c.67.268 1.905.502 3.187.514 3.01 0 4.978-1.3 4.988-3.313zM14.044.17 9.403 9.854h-3.03L4.09 2.127c-.139-.476-.26-.65-.681-.851C2.72.949 1.583.643.583.453L.65.17h4.875c.62 0 1.18.362 1.32.987l1.207 5.604 2.981-6.59h3.01z" fill="#1434CB"/>
</svg>
