<svg width="19" height="19" viewBox="0 0 19 19" fill="none" xmlns="http://www.w3.org/2000/svg">
    <g clip-path="url(#focqkfyyda)">
        <path d="M13.458 7.948a5.548 5.548 0 0 0-5.541 5.541c0 3.039 2.486 5.511 5.541 5.511A5.548 5.548 0 0 0 19 13.458c0-3.038-2.487-5.51-5.542-5.51zm0 9.469c-2.182 0-3.958-1.763-3.958-3.928a3.963 3.963 0 0 1 3.958-3.958c2.183 0 3.959 1.762 3.959 3.927a3.963 3.963 0 0 1-3.959 3.959zm1.352-3.727a.79.79 0 1 1-1.12 1.12l-.791-.792a.79.79 0 0 1-.232-.56v-1.583a.791.791 0 1 1 1.583 0v1.256l.56.56zM19 5.542v1.583a.791.791 0 1 1-1.583 0V5.542a2.378 2.378 0 0 0-2.375-2.375H3.958a2.378 2.378 0 0 0-2.375 2.375v.791h7.125a.792.792 0 0 1 0 1.584H1.583v7.125a2.378 2.378 0 0 0 2.375 2.375h3.167a.792.792 0 0 1 0 1.583H3.958A3.963 3.963 0 0 1 0 15.042v-9.5a3.963 3.963 0 0 1 3.958-3.959h.792V.792a.792.792 0 0 1 1.583 0v.791h6.334V.792a.791.791 0 1 1 1.583 0v.791h.792A3.963 3.963 0 0 1 19 5.542z" fill="#fff"/>
    </g>
    <defs>
        <clipPath id="focqkfyyda">
            <path fill="#fff" d="M0 0h19v19H0z"/>
        </clipPath>
    </defs>
</svg>
